<svg width="960" height="640" viewBox="0 0 960 640" fill="none" xmlns="http://www.w3.org/2000/svg">
<path d="M786.97 442.391C778.688 442.391 771.965 449.104 771.965 457.391C771.965 465.669 778.688 472.393 786.97 472.393C795.252 472.393 801.965 465.669 801.965 457.392C801.965 449.104 795.252 442.391 786.97 442.391ZM786.97 469.174C785.422 469.176 783.889 468.872 782.459 468.28C781.029 467.688 779.73 466.821 778.636 465.726C777.542 464.632 776.674 463.332 776.082 461.902C775.491 460.472 775.187 458.94 775.188 457.392C775.188 450.882 780.452 445.617 786.97 445.617C793.48 445.617 798.75 450.882 798.75 457.392C798.75 463.904 793.48 469.174 786.97 469.174ZM793.134 453.914C793.131 452.565 792.595 451.272 791.642 450.318C790.687 449.366 789.393 448.831 788.044 448.832H780.816V465.955H784.029V459.001H786.334L789.581 465.955H793.134L789.744 458.704C790.734 458.353 791.591 457.704 792.198 456.846C792.805 455.989 793.132 454.965 793.134 453.914ZM788.044 455.786H784.029V452.039H788.043C788.54 452.04 789.017 452.237 789.369 452.589C789.721 452.941 789.92 453.418 789.921 453.915C789.918 454.412 789.72 454.887 789.368 455.238C789.016 455.589 788.541 455.786 788.044 455.786Z" fill="#010101"/>
<path d="M570.403 80C341.243 80 158.778 205.45 158.778 205.45C158.778 205.45 383.678 187.348 383.678 233.904C383.678 274.72 205.646 341.131 205.646 341.131C205.646 341.131 346.064 344.786 346.064 378.727C346.064 435.994 54.2461 513.029 54.2461 513.029C54.2461 513.029 156.5 560 316.21 560C602.232 560 905.755 397.808 905.755 271.42C905.754 155.039 735.019 80 570.403 80Z" fill="#A2AAAD"/>
<path d="M570.404 90.2339C404.929 90.2339 262.891 157.47 199.704 192.77C199.704 192.77 393.916 179.094 393.916 233.903C393.916 268.088 310.446 309.146 252.125 333.663C300.038 338.233 356.315 349.733 356.315 378.725C356.315 432.136 177.463 489.215 87.3521 514.582C128.042 528.19 209.36 549.766 316.21 549.766C603.604 549.766 895.543 387.818 895.543 271.419C895.543 159.499 726.769 90.2339 570.404 90.2339Z" fill="#010101"/>
<path d="M262.657 512.317L228.941 521.277C228.941 521.277 259.099 524.626 306.639 524.626C647.621 524.626 874.004 317.175 874.004 284.145C874.004 280.509 872.824 277.43 872.824 277.43C751.964 421.225 511.976 520.34 262.657 512.317Z" fill="#FC4C02"/>
<path d="M574.51 118.311C447.172 118.311 308.446 167.706 308.446 167.706C308.446 167.706 451.158 160.53 451.158 220.206C451.158 275.844 350.322 316.657 350.322 316.657C350.322 316.657 411.545 330.987 411.545 366.382C411.545 446.795 213.119 496.762 213.119 496.762C629.504 516.942 867.271 294.362 867.271 253.172C867.271 214.949 751.458 118.312 574.509 118.312L574.51 118.311ZM506.048 386.103C506.048 386.103 636.728 323.093 681.178 285.719L522.271 290.915L685.928 248.548C638.835 212.732 552.508 190.655 552.508 190.655C604.885 189.519 692.287 198.895 764.648 259.36C683.441 329.967 574.781 367.892 506.048 386.103Z" fill="white"/>
<path d="M574.509 126.494C494.641 126.494 409.563 146.425 358.374 160.84C358.374 160.84 459.348 164.913 459.348 220.206C459.348 265.211 403.034 299.87 372.478 315.379C392.401 323.469 419.728 339.452 419.728 366.382C419.728 426.232 324.399 468.776 263.787 489.791C641.344 489.791 859.079 289.135 859.079 253.173C859.079 220.612 747.29 126.494 574.509 126.494ZM441.374 408.761C441.374 408.761 608.972 328.337 654.925 294.77L448.685 301.5L666.213 245.2C616.352 211.828 504.765 186.693 504.765 186.693C504.765 186.693 661.682 155.069 777.575 259.149C647.343 378.099 441.375 408.76 441.375 408.76L441.374 408.761Z" fill="#B9975B"/>
</svg>
