<svg width="960" height="640" viewBox="0 0 960 640" fill="none" xmlns="http://www.w3.org/2000/svg">
<path d="M772.722 615.449C766.504 615.449 761.455 620.489 761.455 626.713C761.455 632.928 766.503 637.977 772.722 637.977C778.942 637.977 783.982 632.928 783.982 626.713C783.982 620.49 778.942 615.449 772.722 615.449ZM772.722 635.559C771.56 635.561 770.409 635.333 769.335 634.889C768.261 634.445 767.285 633.793 766.464 632.971C765.642 632.15 764.99 631.174 764.546 630.1C764.102 629.026 763.874 627.875 763.875 626.713C763.874 625.551 764.102 624.401 764.546 623.327C764.991 622.254 765.642 621.278 766.464 620.457C767.286 619.636 768.262 618.985 769.336 618.541C770.41 618.098 771.56 617.87 772.722 617.872C773.884 617.871 775.034 618.099 776.107 618.543C777.181 618.987 778.156 619.638 778.977 620.459C779.799 621.28 780.451 622.254 780.896 623.327C781.341 624.4 781.569 625.551 781.568 626.712C781.569 627.874 781.341 629.025 780.897 630.099C780.452 631.172 779.801 632.148 778.979 632.97C778.158 633.791 777.182 634.443 776.108 634.887C775.035 635.332 773.884 635.56 772.722 635.559ZM777.351 624.102C777.351 623.601 777.252 623.104 777.06 622.641C776.868 622.177 776.586 621.756 776.231 621.402C775.876 621.047 775.455 620.766 774.991 620.575C774.528 620.384 774.031 620.285 773.529 620.286H768.101V633.143H770.514V627.921H772.245L774.683 633.143H777.351L774.806 627.698C775.55 627.435 776.193 626.948 776.649 626.304C777.104 625.66 777.35 624.891 777.351 624.102ZM773.529 625.507H770.514V622.694H773.529C774.304 622.694 774.939 623.324 774.939 624.102C774.939 624.287 774.902 624.47 774.831 624.641C774.76 624.812 774.656 624.967 774.526 625.097C774.395 625.228 774.239 625.331 774.068 625.401C773.897 625.472 773.714 625.508 773.529 625.507Z" fill="black"/>
<path d="M738.213 604.517L738.176 574.205L669.466 537.575L657.866 505.509L615.239 451.7L625.25 442.898L634.28 448.193L658.232 426.664L666.569 501.574L696.499 428.343L745.883 515.017L732.137 389.952L675.787 327.837L648.489 349.972L647.934 349.504L645.065 302.072L517.681 247.297L509.108 240.229L563.488 245.404L501.614 199.358L504 196.993L497.057 82.957L430.795 161.612L427.484 161.596L430.043 103.792L371.2 0L380.001 96.575L373.546 107.745L296.938 64.677L354.309 139.731L330.204 180.263L316.365 297.417L254.175 339.27L295.262 408.018L193.197 481.378L237.465 544.556L188.295 573.954L188.267 605.051L176.016 639.121H398.492L459.963 586.571L480.853 588.568L519.125 556.963L515.51 538.88L530.772 525.34L582.355 581.458L582.448 615.3L592.26 640H755.193L738.212 604.517H738.213ZM399.748 560.962H356.138L330.82 512.915L352.902 499.472L403.498 531.797L397.513 542.546L405.987 555.7L399.748 560.962ZM567.284 419.244L561.613 417.674L578.548 394.088L580.131 408.415L567.284 419.245V419.244Z" fill="#DDCBA4"/>
<path d="M416.45 557.27L402.65 568.906H351.344L320.311 510.012L353.003 490.108L414.078 529.131L406.772 542.25L416.45 557.27ZM530.12 355.248L521.054 376.605L506.064 351.087L530.12 355.248ZM575.436 363.087L545.256 376.128L542.681 357.39L575.436 363.087ZM588.494 411.756L569.2 428.019L548.518 422.289L584.168 372.634L588.493 411.756M730.236 578.976L663.034 543.15L650.833 509.429L604.325 450.718L624.314 433.141L633.288 438.401L664.418 410.423L671.015 469.693L695.321 410.228L733.794 477.753L724.521 393.38L674.951 338.742L648.389 360.282L640.208 353.382L637.428 307.437L513.501 254.147L484.044 229.864L535.934 234.801L489.461 200.219L495.851 193.885L490.333 103.268L434.473 169.578L419.181 169.498L422.003 105.723L382.455 35.9629L388.143 98.3629L376.496 118.517L326.691 90.5169L363.884 139.174L337.895 182.873L323.83 301.97L264.86 341.655L305.829 410.208L204.209 483.246L248.875 546.991L196.238 578.462L196.212 606.44L187.318 631.176H395.562L457.366 578.342L478.335 580.345L510.405 553.861L506.828 535.961L531.339 514.219L590.294 578.351L590.391 613.768L597.656 632.055H742.585L730.27 606.325L730.238 578.975" fill="#010101"/>
<path d="M537.077 509.24L557.167 531.136L642.599 511.34L598.364 455.545L537.077 509.24ZM505.87 417.446V481.044L562.257 433.984L505.87 417.446ZM214.307 485.07L233.267 511.865L312.245 506.269L349.691 483.322L309.843 416.36L214.307 485.07ZM675.765 437.83L684.383 416.766L673.359 414.968L675.765 437.83ZM719.668 413.663L708.669 417.881L723.205 444.408L719.668 413.663ZM367.844 132.386L371.996 125.416L350.781 111.944L367.844 132.386ZM395.786 98.0492L407.506 96.0762L393.086 69.6392L395.786 98.0492Z" fill="#154734"/>
<path d="M656.832 548.326L646.026 518.288L562.476 537.285L597.514 575.225V606.134H722.711V583.364L656.832 548.326ZM632.245 429.143L663.501 401.227L661.593 381.717L633.22 357.111L630.273 317.311L590.439 358.874L595.453 408.971L632.245 429.143ZM539.091 387.137L535.693 361.254L521.812 393.468L505.87 364.421V409.488L540.873 420.019L576.467 370.997L539.091 387.137ZM470.243 510.704L411.203 457.558L361.133 486.535L424.129 526.635L415.421 541.919L441.481 581.814L450.493 573.774L435.376 539.744L470.243 510.704Z" fill="#A9431E"/>
<path d="M486.031 525.171L450.239 553.838L457.537 570.65L475.523 572.517L502.13 550.641L498.632 534.705L486.031 525.171ZM238.126 519.038L259.709 549.148L204.102 582.309L204.108 606.453L270.329 606.393L283.033 568.906H342.89L313.678 513.569L238.126 519.038ZM459.935 219.846L509.706 224.653L478.072 200.99L488.115 190.751L484.061 122.566L438.018 177.235L416.994 176.495L394.383 198.145L399.293 215.334L359.176 307.729L363.438 332.401L382.928 310.861L400.982 290.907L400.984 290.904L414.794 275.641L426.423 262.788L464.7 271.498L444.062 242.288L491.608 245.926L459.935 219.846ZM423.608 243.239C414.289 243.239 406.728 235.685 406.728 226.36C406.728 217.036 414.289 209.48 423.608 209.48C432.934 209.48 440.491 217.036 440.491 226.36C440.491 235.685 432.934 243.239 423.608 243.239Z" fill="#A9431E"/>
<path d="M261.289 517.362L252.609 517.99L271.284 544.672L280.159 543.807L261.304 517.386L261.289 517.362ZM278.859 516.091L270.124 516.723L270.136 516.739L288.776 543.372L297.648 542.519L278.863 516.099L278.859 516.091ZM296.614 514.807L296.584 514.809L287.882 515.437V515.439L306.523 542.072L315.395 541.218L296.614 514.807ZM478.139 148.934L453.547 177.711L479.739 178.167L478.139 148.934ZM589.284 531.191L580.856 533.105L580.811 533.117L603.055 557.022L611.723 554.952L589.3 531.21L589.284 531.191ZM606.149 527.356L597.674 529.284L597.684 529.296L619.902 553.171L628.572 551.102L606.174 527.385L606.149 527.356ZM623.165 523.487L623.159 523.489L614.687 525.415L614.688 525.417L636.913 549.302L645.583 547.232L623.165 523.487Z" fill="#5F259F"/>
<path d="M466.984 416.314H405.52L418.264 453.818L476.148 505.934L497.712 488.021V416.314H466.984ZM334.088 600.045L334.092 600.031L317.962 584.864L341.939 576.342L288.407 576.348L272.674 623.664H326.264L310.303 608.539L334.088 600.045ZM420.512 563.533L405.454 576.334L378.873 576.337L363.577 623.664H392.887L435.981 586.881L420.512 563.533Z" fill="#DDCBA4"/>
<path d="M717.624 395.891L694.862 372.201L671.004 392.616L673.357 414.968L684.381 416.766L690.011 403.001L690.334 380.626L702.544 406.708L708.667 417.881L719.666 413.663L717.624 395.891ZM423.581 235.593C428.649 235.593 432.758 231.488 432.758 226.422C432.758 221.355 428.648 217.248 423.581 217.248C422.376 217.248 421.183 217.485 420.07 217.947C418.957 218.408 417.946 219.083 417.094 219.935C416.242 220.787 415.567 221.798 415.106 222.912C414.645 224.025 414.408 225.217 414.408 226.422C414.408 231.488 418.516 235.593 423.581 235.593ZM414.639 107.925L407.504 96.0762L395.784 98.0492L412.061 159.292L414.638 107.925H414.639ZM461.499 459.351V466.301H497.719L497.723 459.351H461.499ZM461.499 473.093V480.04H497.712L497.715 473.093H461.499ZM403.223 408.897L497.713 408.9V253.81L459.223 250.988L482.126 283.378L429.116 271.148L364.434 342.242L321.479 321.397L322.461 311.89L275.029 343.799L282.655 356.165L287.278 364.183L310.884 403.777L314.804 410.355L356.597 480.455L409.284 449.996L395.442 410.355L393.145 403.777L382.317 372.769L379.632 365.081L388.186 365.866L403.223 408.897ZM437.946 311.264C460.818 311.264 479.359 329.805 479.359 352.676C479.359 375.547 460.819 394.09 437.946 394.09C415.075 394.09 396.534 375.547 396.534 352.676C396.534 329.805 415.074 311.264 437.946 311.264ZM585.453 293.145L578.065 289.969L544.797 275.66L537.403 272.481L505.868 258.916V343.442L522.413 346.305L529.618 347.551L557.692 352.408L564.909 353.656L582.419 356.687L626.141 310.647L585.453 293.145ZM334.102 600.001L334.092 600.031L334.087 600.046L326.263 623.665H356.881L372.166 576.34L341.939 576.343L334.102 600.001Z" fill="#6F263D"/>
<path d="M420.884 437.184L436.249 416.314H405.521L420.884 437.184Z" fill="#5F259F"/>
<path d="M451.614 437.184L466.979 416.314H436.249L451.614 437.184ZM482.347 437.184L497.713 416.314H466.983L482.347 437.184ZM393.146 403.776L382.319 372.768L379.633 365.079L282.656 356.164L287.279 364.181L310.885 403.776L314.805 410.354H395.443L393.146 403.776ZM578.066 289.968L544.798 275.659L537.404 272.48L522.414 346.304L529.619 347.55L557.693 352.407L564.91 353.655L585.454 293.145L578.066 289.968ZM363.437 332.399L382.927 310.859L359.174 307.728L363.437 332.399ZM382.927 310.859L400.981 290.906L379.144 289.023L382.927 310.859ZM426.422 262.787L410.346 260.445L414.792 275.64L426.422 262.787ZM396.648 273.179L400.982 290.903L414.792 275.64L396.648 273.179ZM472.716 347.754C470.929 331.37 457.824 318.336 441.399 316.676C426.069 317.036 417.625 325.868 417.625 341.677C417.625 358.907 431.645 372.925 448.877 372.925C465.301 372.925 472.656 365.154 472.716 347.754ZM334.092 600.031L334.102 600L341.94 576.342L317.963 584.864L334.092 600.031ZM326.264 623.664L334.088 600.044L310.303 608.539L326.264 623.664ZM356.882 623.664H363.577L378.873 576.337L372.167 576.339L356.882 623.664Z" fill="#5F259F"/>
<path d="M393.146 403.778L382.319 372.77L287.279 364.183L310.885 403.778H393.146ZM578.066 289.97L544.798 275.661L529.619 347.552L557.693 352.409L578.066 289.97ZM689.908 366.269L674.139 348.937L654.045 365.253L672.855 381.063L689.908 366.269ZM726.207 613.65L598.039 613.674L602.574 624.418H731.344L726.207 613.65ZM594.04 416.73L482.455 510.5L444.637 541.724L446.951 546.889L485.929 515.585L503.199 528.913L617.01 429.371L594.04 416.73ZM198.455 623.666H264.859L267.737 614.052H201.927L198.455 623.666ZM408.504 174.299L390.937 108.352L345.153 185.202L329.544 316.619L351.081 304.767L390.507 214.863L384.82 195.923L408.504 174.299ZM338.744 304.053C338.083 304.053 337.436 303.856 336.886 303.489C336.337 303.122 335.908 302.6 335.654 301.989C335.486 301.583 335.4 301.148 335.4 300.709C335.415 299.831 335.773 298.995 336.399 298.379C337.025 297.764 337.868 297.419 338.746 297.42C339.623 297.42 340.466 297.765 341.091 298.38C341.717 298.996 342.076 299.832 342.091 300.709C342.091 302.557 340.591 304.053 338.745 304.053H338.744ZM340.32 293.017C339.432 293.017 338.581 292.664 337.953 292.037C337.326 291.409 336.973 290.558 336.973 289.67C336.973 288.782 337.326 287.931 337.953 287.303C338.581 286.676 339.432 286.323 340.32 286.323C341.208 286.323 342.059 286.676 342.687 287.303C343.314 287.931 343.667 288.782 343.667 289.67C343.667 290.558 343.314 291.409 342.687 292.037C342.059 292.664 341.208 293.017 340.32 293.017ZM341.898 281.973C341.454 281.98 341.013 281.899 340.6 281.735C340.188 281.57 339.812 281.325 339.495 281.014C339.019 280.544 338.694 279.943 338.563 279.288C338.431 278.632 338.498 277.952 338.755 277.335C338.927 276.925 339.179 276.554 339.495 276.242C339.812 275.931 340.188 275.686 340.6 275.522C341.013 275.358 341.454 275.277 341.898 275.284C342.785 275.284 343.636 275.636 344.263 276.264C344.891 276.891 345.243 277.742 345.243 278.629C345.243 279.516 344.891 280.367 344.263 280.994C343.636 281.622 342.785 281.974 341.898 281.974V281.973ZM348.128 299.191C347.24 299.191 346.389 298.838 345.761 298.21C345.133 297.582 344.78 296.731 344.779 295.843C344.779 293.997 346.279 292.5 348.128 292.5C349.015 292.5 349.866 292.852 350.493 293.48C351.121 294.107 351.473 294.958 351.473 295.845C351.473 296.732 351.121 297.583 350.493 298.21C349.866 298.838 349.015 299.19 348.128 299.19V299.191ZM349.704 288.152C348.816 288.152 347.965 287.799 347.337 287.171C346.71 286.543 346.357 285.692 346.357 284.804C346.349 284.36 346.429 283.918 346.594 283.505C346.759 283.092 347.004 282.717 347.316 282.4C347.786 281.923 348.387 281.598 349.043 281.466C349.699 281.335 350.379 281.402 350.996 281.66C351.406 281.832 351.777 282.084 352.088 282.4C352.4 282.717 352.645 283.093 352.81 283.505C352.975 283.918 353.056 284.359 353.048 284.804C353.048 285.691 352.696 286.542 352.069 287.17C351.442 287.798 350.591 288.151 349.704 288.152ZM351.281 277.112C350.393 277.112 349.542 276.759 348.914 276.132C348.287 275.504 347.934 274.653 347.934 273.765C347.934 272.877 348.287 272.026 348.914 271.398C349.542 270.771 350.393 270.418 351.281 270.418C352.169 270.418 353.02 270.771 353.648 271.398C354.275 272.026 354.628 272.877 354.628 273.765C354.628 274.653 354.275 275.504 353.648 276.132C353.02 276.759 352.169 277.112 351.281 277.112ZM375.859 215.725L352.783 208.204L356.082 199.489L379.502 207.322L375.859 215.725ZM373.98 174.005L360.364 174.001L384.371 133.494L373.981 174.006L373.98 174.005ZM411.025 341.679C411.025 335.521 412.16 330.137 414.31 325.637C407.235 332.06 402.759 341.297 402.759 351.583C402.759 370.929 418.498 386.669 437.844 386.669C446.792 386.669 454.942 383.275 461.147 377.743C457.56 378.91 453.481 379.528 448.877 379.528C428.006 379.528 411.025 362.55 411.025 341.679Z" fill="#DDCBA4"/>
</svg>
