<svg width="960" height="640" viewBox="0 0 960 640" fill="none" xmlns="http://www.w3.org/2000/svg">
<path d="M751.996 319.984C751.996 169.75 630.22 47.9741 479.986 47.9741C329.751 47.9741 208.006 169.779 208.006 319.984C208.006 470.189 329.781 591.994 480.015 591.994C630.25 591.994 752.025 470.219 752.025 319.984" fill="white"/>
<path d="M479.985 0C303.275 0 160 143.275 160 319.985C160 496.695 303.275 639.97 479.985 639.97C656.695 639.97 799.97 496.695 799.97 319.985C799.97 143.275 656.725 0 479.985 0ZM479.985 591.995C329.78 591.995 207.976 470.22 207.976 319.985C207.976 169.751 329.78 48.005 479.985 48.005C630.19 48.005 751.995 169.78 751.995 320.015C751.995 470.249 630.22 592.024 479.985 592.024" fill="black"/>
<path d="M750.989 343.203C751.653 335.492 751.989 327.755 751.996 320.015C751.996 312.227 751.64 304.468 750.989 296.827H632.531V200.313L688.028 144.815C678.043 132.965 667.066 121.988 655.215 112.003L599.718 167.5L568.03 135.813H503.204V49.0432C495.493 48.3783 487.756 48.042 480.016 48.0352C472.198 48.0352 464.468 48.3912 456.828 49.0422V135.872L328.715 135.931L304.816 112.032C292.965 122.017 281.988 132.994 272.003 144.845L350.156 222.998V296.857H208.983C208.319 304.569 207.983 312.305 207.977 320.045C207.977 327.863 208.332 335.592 208.983 343.233H350.097V417.092L334.283 432.906L271.944 495.244C281.929 507.095 292.906 518.072 304.757 528.057L328.656 504.158H456.768V591.047C464.409 591.699 472.138 592.054 479.957 592.054C487.775 592.054 495.504 591.699 503.145 591.047V504.158H568.089L599.688 472.56L655.186 528.057C667.037 518.072 678.014 507.095 687.999 495.244L632.501 439.747V343.233H750.959L750.989 343.203ZM348.734 484.08V446.825L370.175 425.384V214.647L348.734 193.206V155.921L559.709 155.832L612.452 208.576V288.476L580.942 319.986L612.452 351.495V431.395L559.797 484.05H348.734V484.08Z" fill="#FDB717"/>
<path d="M612.481 351.495L580.971 319.985L612.481 288.476V208.576L559.738 155.832L348.764 155.921V193.206L370.205 214.647V425.384L348.764 446.825V484.08H559.856L612.511 431.425V351.525L612.481 351.495ZM550.261 408L530.449 427.812H429.078V348.149L530.479 348.09L550.231 367.843V408H550.261ZM550.261 272.01L530.449 291.822H429.078V212.159L530.479 212.1L550.231 231.853V272.01H550.261Z" fill="black"/>
<path d="M429.078 212.159V291.822H530.449L550.261 272.01V231.853L530.508 212.1L429.108 212.159H429.078ZM449.127 271.773V232.208L522.186 232.149L530.212 240.145V263.688L522.157 271.743H449.157L449.127 271.773ZM429.078 348.178V427.842H530.449L550.261 408.029V367.872L530.508 348.119L429.108 348.208L429.078 348.178ZM449.127 407.792V368.227L522.186 368.168L530.212 376.194V399.737L522.157 407.792H449.127Z" fill="#FDB717"/>
<path d="M682.164 588.352C682.164 594.808 687.406 600.08 693.891 600.08C695.432 600.081 696.957 599.779 698.381 599.19C699.804 598.601 701.098 597.738 702.187 596.648C703.277 595.559 704.14 594.265 704.729 592.842C705.318 591.418 705.621 589.893 705.619 588.352C705.62 586.812 705.318 585.286 704.729 583.862C704.14 582.439 703.276 581.146 702.187 580.056C701.098 578.967 699.804 578.104 698.381 577.515C696.957 576.926 695.432 576.624 693.891 576.625C692.351 576.624 690.825 576.926 689.402 577.515C687.978 578.104 686.685 578.967 685.596 580.057C684.506 581.146 683.643 582.439 683.054 583.863C682.465 585.286 682.163 586.812 682.164 588.352ZM703.102 588.352C703.103 589.562 702.866 590.76 702.403 591.878C701.941 592.996 701.262 594.012 700.407 594.867C699.551 595.723 698.535 596.401 697.417 596.864C696.299 597.326 695.101 597.563 693.891 597.562C692.681 597.563 691.483 597.326 690.365 596.863C689.247 596.401 688.231 595.723 687.376 594.867C686.521 594.012 685.842 592.996 685.38 591.878C684.917 590.76 684.68 589.562 684.681 588.352C684.68 587.142 684.918 585.944 685.38 584.826C685.842 583.708 686.521 582.693 687.376 581.837C688.232 580.982 689.247 580.303 690.365 579.841C691.483 579.378 692.681 579.141 693.891 579.142C695.101 579.141 696.299 579.378 697.417 579.841C698.535 580.303 699.551 580.981 700.406 581.837C701.262 582.692 701.94 583.708 702.403 584.826C702.866 585.944 703.103 587.142 703.102 588.352Z" fill="black"/>
<path d="M689.064 595.076H691.582V589.626H693.388L695.935 595.076H698.719L696.083 589.39C697.623 588.827 698.719 587.376 698.719 585.658C698.719 583.437 696.942 581.66 694.75 581.66H689.094V595.046L689.064 595.076ZM691.582 584.177H694.721C694.914 584.178 695.104 584.218 695.282 584.293C695.459 584.368 695.62 584.478 695.755 584.615C695.89 584.753 695.996 584.916 696.068 585.095C696.139 585.274 696.175 585.465 696.172 585.658C696.172 586.487 695.52 587.109 694.721 587.109H691.582V584.177Z" fill="black"/>
</svg>
