<svg width="960" height="640" viewBox="0 0 960 640" fill="none" xmlns="http://www.w3.org/2000/svg">
<path d="M480 638.9C303.9 638.9 161.1 496.1 161.1 320C161.1 143.9 303.9 1.1001 480 1.1001C656.1 1.1001 798.9 143.9 798.9 320C798.9 496.1 656.1 638.9 480 638.9Z" fill="#FFB81C"/>
<path d="M479.8 620.499C313.9 620.499 179.4 485.999 179.4 320.099C179.4 154.199 313.9 19.6992 479.8 19.6992C645.7 19.6992 780.2 154.199 780.2 320.099C780.2 485.999 645.7 620.499 479.8 620.499Z" fill="#003087"/>
<path d="M592.599 73.9C617.599 82.1 638.099 89.8 637.199 92C636.299 94.3 615.099 88.3 590.099 80C552.399 67.6 505.999 50.3 506.599 49.1C506.999 47.9 554.899 61.5 592.599 73.9ZM611.499 283.399C612.599 284.899 561.599 305.699 519.599 320.699C491.699 330.599 467.799 337.899 465.799 335.199C463.799 332.499 486.399 323.299 514.299 313.399C556.199 298.399 610.399 281.899 611.499 283.399ZM274.899 200.699C272.399 195.899 269.699 183.699 269.699 171.099C269.699 135.799 293.499 124.099 328.399 117.299C334.299 116.199 335.199 115.499 339.199 109.599C365.699 71.099 398.999 51.899 435.999 51.899C458.899 51.899 473.799 57.199 543.699 81.999C562.599 88.699 585.199 96.999 613.199 106.999C626.599 111.799 641.299 116.899 657.399 122.499C679.299 130.099 686.199 133.599 686.199 137.599C686.199 142.299 677.799 143.299 677.799 147.099C677.799 150.099 689.099 153.499 699.599 154.499C689.599 162.499 658.099 157.699 658.099 149.999C658.099 145.899 664.499 143.799 664.499 140.599C664.499 135.799 645.099 126.199 624.799 124.099C632.799 150.999 625.899 161.199 625.899 167.199C625.899 172.899 634.799 175.799 645.999 173.499C651.599 179.999 660.399 185.699 667.299 188.099C666.199 189.899 665.599 193.299 666.299 195.299C669.199 194.199 673.599 193.199 676.599 193.199C682.599 199.899 685.299 213.299 684.099 221.699C677.099 219.299 668.099 217.999 662.199 217.799C656.099 208.699 646.199 200.199 636.199 194.999C618.799 192.499 591.799 197.499 576.399 203.199C584.499 204.399 600.399 203.999 608.099 202.999C611.599 205.999 618.399 209.599 622.499 211.499C621.299 213.599 621.299 216.699 621.999 218.499C625.099 216.699 628.799 215.299 631.799 214.899C638.399 219.899 644.199 231.299 645.499 240.999C639.099 239.799 631.099 239.399 625.599 239.699C615.099 229.499 598.799 219.699 587.099 219.699C574.399 219.699 562.699 226.199 554.699 226.199C542.399 226.199 530.099 212.599 510.699 212.599C505.299 212.599 500.099 213.599 494.799 215.499C495.899 226.599 502.399 238.699 506.699 244.599C503.199 244.999 497.699 244.899 494.299 244.599C497.299 248.999 501.499 251.699 504.099 252.399C496.599 256.899 491.999 261.399 489.399 269.899C495.299 271.399 501.599 270.799 505.099 269.099C507.499 265.999 511.299 263.199 514.999 262.199C525.299 268.099 531.099 277.399 531.899 283.899C524.499 284.599 517.299 287.299 513.599 289.599C506.799 287.499 501.499 286.799 496.999 286.799C488.799 286.799 482.099 289.399 475.999 289.399C469.799 289.399 465.599 285.899 464.599 282.399C466.399 276.799 467.999 267.899 467.999 260.599C467.999 240.499 449.899 223.999 420.399 221.899C427.299 225.199 435.499 230.899 438.299 235.299C432.299 237.999 425.799 245.299 425.799 251.599C425.799 256.799 429.999 261.699 434.399 263.199C436.799 261.399 440.599 259.599 443.399 258.799C450.899 265.499 455.399 275.699 455.499 283.399C450.099 282.799 440.899 284.099 435.599 285.199C430.699 281.099 426.599 278.699 422.899 277.099C415.599 274.099 409.799 275.099 404.099 273.499C399.399 272.299 395.999 269.099 395.599 266.499C401.499 261.099 407.499 250.899 407.499 240.599C407.499 226.199 398.899 217.799 391.199 217.799C385.099 217.799 380.299 222.899 380.299 230.199C380.299 238.399 387.099 246.599 397.399 247.399C391.399 253.599 384.199 257.999 375.499 257.999C370.199 257.999 366.199 256.399 363.999 256.399C360.099 256.399 355.699 258.099 353.799 258.099C352.899 258.099 352.399 257.599 352.399 256.699C352.399 253.599 358.099 246.399 361.499 243.199C355.699 242.699 351.699 243.599 347.799 246.699C342.299 250.999 339.899 257.699 333.099 257.699C326.699 257.699 323.999 249.999 318.899 245.299C315.299 241.899 312.699 241.899 306.999 236.699C297.999 228.399 295.899 219.599 294.299 217.599C291.399 214.299 279.199 208.899 274.899 200.699ZM330.999 214.199C330.999 209.399 327.899 205.699 323.999 204.399C324.399 199.799 326.499 195.399 328.999 193.399C326.799 192.399 322.799 192.799 320.599 195.399C318.599 197.699 317.799 201.499 317.199 205.499C316.699 208.599 316.299 211.799 315.599 214.699C314.399 219.599 312.199 222.099 310.399 222.499C311.999 223.499 314.599 224.199 316.699 223.299C320.199 221.699 321.899 217.999 322.499 213.199C324.099 213.999 325.599 215.899 325.599 217.999C325.599 220.899 323.299 223.099 320.099 223.999C326.199 224.399 330.999 219.899 330.999 214.199ZM282.099 149.799C297.499 145.199 308.399 147.999 308.399 155.899C308.399 160.799 304.699 163.399 304.699 168.399C304.699 172.899 308.599 175.099 312.999 175.099C323.299 175.099 331.899 166.499 331.899 155.499C331.899 144.999 323.999 136.299 309.799 136.299C298.899 136.199 287.499 142.299 282.099 149.799Z" fill="white"/>
<path d="M651.601 520.5C645.901 520.5 641.701 525.2 638.101 529.7C627.301 543.2 616.301 550.6 599.101 550.6C572.601 550.6 546.901 528.2 546.901 500.6C546.901 483.8 554.401 465.2 554.401 451.3C554.401 440.6 547.701 434.9 540.401 434.9C537.001 434.9 534.601 436.8 534.601 438.2C534.601 440.6 542.601 437.5 542.601 448.8C542.601 462 533.701 481.8 533.701 502.5C533.701 535.8 565.001 562.6 597.401 562.6C616.801 562.6 631.301 553.4 641.901 539.2C643.401 542.5 646.901 545 651.401 545C657.901 545 662.801 539.6 662.801 532.6C662.701 526.5 657.901 520.5 651.601 520.5ZM559.901 467.3C564.201 471.4 580.001 483.1 598.001 494.8C616.001 506.5 633.101 516.2 638.701 518.4C639.901 518.9 640.701 519 640.801 518.7C641.001 518.4 640.901 518.1 639.401 517.2C626.801 509.4 613.101 500.6 599.801 492C586.601 483.4 573.001 474.4 560.701 466.1C559.201 465.1 558.901 465.1 558.701 465.4C558.601 465.7 559.001 466.4 559.901 467.3ZM560.601 491.6C560.501 492.1 560.501 492.7 560.401 493.3C560.301 493.9 560.301 494.4 560.201 495C560.101 498.5 565.501 501.6 568.501 496.6C568.301 497.9 568.201 499.1 568.001 500.4C567.901 503.8 573.301 507 576.301 501.9C576.101 503.2 576.001 504.4 575.801 505.7C575.701 509.1 581.201 512.2 584.201 507.2C584.101 508.5 583.901 509.7 583.801 511C583.701 514.4 589.201 517.5 592.201 512.4C592.101 513.7 591.901 514.9 591.801 516.2C591.401 519.6 597.201 522.6 600.201 517.6L599.801 521.4C599.701 524.8 605.201 527.8 608.301 522.8L607.901 526.6C607.801 530.4 614.001 532.6 616.701 528.1C616.601 529.1 616.501 529.7 616.401 530.7C615.801 536 621.701 539 625.701 536C628.301 534 631.801 530.6 634.001 527.8C637.401 523.5 631.401 519.8 628.101 522.5C627.201 523.2 626.401 523.9 625.501 524.6C625.601 523.1 625.601 521.6 625.701 520.1C625.801 517 620.301 513.5 617.401 520.5C617.501 518.7 617.501 516.9 617.601 515.1C617.701 512 612.201 508.5 609.301 515.5C609.401 513.7 609.501 511.9 609.501 510.1C609.601 506.9 604.101 503.5 601.301 510.4C601.401 508.6 601.501 506.8 601.501 504.9C601.601 501.8 596.201 498.2 593.301 505.2C593.401 503.4 593.501 501.6 593.501 499.7C593.601 496.5 588.201 493 585.301 499.9C585.401 498.1 585.501 496.2 585.601 494.4C585.701 491.2 580.301 487.6 577.401 494.6C577.501 492.8 577.601 490.9 577.701 489.1C577.801 485.9 572.401 482.3 569.601 489.3C569.701 487.5 569.801 485.6 569.901 483.8C570.001 480.7 565.101 477.9 562.801 482C562.601 482.3 562.301 482.8 562.101 483.4C562.201 481.8 562.301 480.1 562.401 478.5C562.501 474.5 555.901 472.8 554.501 476.8C553.601 479.4 552.801 486 552.701 489.8C552.701 493.3 558.101 495.9 560.601 491.6ZM417.401 448.8C417.401 437.4 425.401 440.6 425.401 438.2C425.401 436.8 423.001 434.9 419.601 434.9C412.201 434.9 405.601 440.6 405.601 451.3C405.601 465.3 413.101 483.8 413.101 500.6C413.101 528.2 387.401 550.7 360.901 550.7C343.701 550.7 332.701 543.3 321.901 529.8C318.301 525.3 314.101 520.6 308.401 520.6C302.101 520.6 297.301 526.6 297.301 532.7C297.301 539.7 302.201 545.1 308.701 545.1C313.101 545.1 316.601 542.6 318.201 539.3C328.801 553.4 343.301 562.7 362.701 562.7C395.101 562.7 426.401 535.9 426.401 502.6C426.301 481.8 417.401 462.1 417.401 448.8ZM321.301 518.5C326.801 516.2 343.901 506.6 362.001 494.9C380.001 483.2 395.801 471.5 400.101 467.3C401.101 466.4 401.401 465.7 401.201 465.5C401.001 465.2 400.701 465.2 399.201 466.2C386.901 474.5 373.301 483.5 360.101 492.1C346.901 500.7 333.101 509.4 320.501 517.3C319.001 518.2 318.901 518.5 319.101 518.8C319.301 519 320.101 519 321.301 518.5ZM397.701 478.3C397.801 479.9 397.901 481.6 398.001 483.2L397.301 481.8C394.901 477.7 390.001 480.6 390.201 483.6C390.301 485.4 390.401 487.3 390.501 489.1C387.601 482.1 382.301 485.8 382.401 488.9C382.501 490.7 382.601 492.6 382.701 494.4C379.801 487.4 374.401 491 374.501 494.2C374.601 496 374.701 497.9 374.801 499.7C371.901 492.7 366.501 496.3 366.601 499.5C366.701 501.3 366.801 503.1 366.801 505C363.901 498 358.501 501.6 358.601 504.7C358.701 506.5 358.801 508.3 358.801 510.2C356.001 503.3 350.501 506.7 350.601 509.9C350.701 511.7 350.701 513.5 350.801 515.3C347.901 508.3 342.501 511.8 342.501 515C342.601 516.8 342.601 518.6 342.701 520.4C339.801 513.5 334.401 516.9 334.401 520C334.501 521.5 334.501 523 334.601 524.5C333.701 523.8 332.901 523.1 332.001 522.4C328.701 519.7 322.701 523.4 326.101 527.7C328.301 530.5 331.801 533.9 334.401 535.9C338.301 538.9 344.301 535.9 343.701 530.6C343.601 529.6 343.501 529 343.401 528C346.101 532.5 352.301 530.3 352.201 526.5C352.101 525.3 351.901 524 351.801 522.8C354.901 527.9 360.401 524.9 360.301 521.4L359.901 517.6C362.901 522.6 368.701 519.6 368.301 516.2C368.201 514.9 368.001 513.7 367.901 512.4C370.901 517.5 376.401 514.4 376.301 511L375.801 507.2C378.801 512.3 384.301 509.2 384.201 505.7C384.001 504.4 383.901 503.2 383.701 501.9C386.801 507 392.201 503.8 392.001 500.4C391.801 499.1 391.701 497.9 391.501 496.6C394.501 501.7 399.901 498.5 399.801 495L399.601 493.3C399.501 492.7 399.501 492.2 399.401 491.6C401.901 495.8 407.401 493.2 407.301 489.6C407.301 485.8 406.401 479.1 405.501 476.6C404.201 472.6 397.501 474.3 397.701 478.3Z" fill="#FFB81C"/>
<path d="M480 410.901C392.3 345.501 290.3 260.101 227.9 185.801C228.9 197.501 237.7 222.001 258.1 244.401C312.2 303.501 391 368.401 463 423.401C449.4 433.301 436.3 442.701 423.9 451.401C423.4 454.201 423.9 460.701 424.5 463.601C425.5 466.401 428.7 470.901 430.9 472.701C446.4 461.401 462.9 449.201 480 436.301C497 449.201 513.6 461.401 529.1 472.701C531.4 470.901 534.5 466.401 535.5 463.601C536 460.701 536.5 454.301 536.1 451.401C523.7 442.701 510.6 433.301 497 423.401C569 368.401 647.8 303.501 701.9 244.401C722.4 222.001 731.2 197.501 732.1 185.801C669.7 260.201 567.7 345.501 480 410.901Z" fill="white"/>
<path d="M320.099 224.101C323.199 223.201 325.499 221.001 325.499 218.101C325.499 216.001 323.999 214.101 322.499 213.301C321.899 218.101 320.199 221.801 316.699 223.401C317.299 223.601 318.599 224.001 320.099 224.101Z" fill="#C8102E"/>
<path d="M708.1 568.1C699.7 568.1 692.9 574.9 692.9 583.3C692.9 591.7 699.7 598.5 708.1 598.5C716.5 598.5 723.3 591.7 723.3 583.3C723.2 574.9 716.4 568.1 708.1 568.1ZM708.1 595.2C701.5 595.2 696.2 589.9 696.2 583.3C696.2 576.7 701.5 571.4 708.1 571.4C714.7 571.4 720 576.7 720 583.3C720 589.9 714.7 595.2 708.1 595.2ZM714.3 579.8C714.3 576.9 712 574.6 709.2 574.6H701.9V592H705.2V585H707.5L710.8 592H714.4L711 584.7C712.9 583.9 714.3 582 714.3 579.8ZM709.1 581.7H705V577.9H709.1C710.1 577.9 711 578.7 711 579.8C711 580.8 710.2 581.7 709.1 581.7Z" fill="#003087"/>
</svg>
