<svg width="960" height="640" viewBox="0 0 960 640" fill="none" xmlns="http://www.w3.org/2000/svg">
<path d="M766.302 447.056C758.02 447.056 751.297 453.77 751.297 462.057C751.297 470.335 758.02 477.058 766.302 477.058C774.584 477.058 781.297 470.335 781.297 462.058C781.297 453.77 774.584 447.056 766.302 447.056ZM766.302 473.84C764.754 473.841 763.222 473.537 761.792 472.945C760.362 472.354 759.062 471.486 757.968 470.391C756.874 469.297 756.006 467.998 755.414 466.567C754.823 465.137 754.519 463.605 754.52 462.057C754.52 455.547 759.784 450.283 766.302 450.283C772.812 450.283 778.082 455.547 778.082 462.057C778.082 468.569 772.812 473.839 766.302 473.839V473.84ZM772.466 458.58C772.464 457.231 771.927 455.938 770.974 454.984C770.019 454.032 768.725 453.497 767.376 453.498H760.148V470.621H763.361V463.667H765.667L768.913 470.621H772.466L769.077 463.37C770.067 463.019 770.924 462.37 771.531 461.512C772.137 460.655 772.464 459.631 772.466 458.58ZM767.376 460.452H763.361V456.705H767.376C768.408 456.705 769.253 457.544 769.253 458.58C769.252 459.077 769.054 459.553 768.702 459.904C768.35 460.255 767.873 460.452 767.376 460.452Z" fill="#010101"/>
<path d="M877.239 220.219C866.317 143.992 799.686 120.279 759.632 112.854L793.896 90.3108C793.896 90.3108 614.891 51.4608 383.356 124.585C171.819 191.391 65.0639 296.226 82.7619 419.778C93.6819 496.011 160.312 519.72 200.362 527.141L166.1 549.689C166.1 549.689 345.105 588.536 576.65 515.425C788.182 448.615 894.932 343.784 877.239 220.219Z" fill="#A2AAAD"/>
<path d="M866.603 223.57C852.167 122.789 727.688 121.092 727.688 121.092L763.622 97.4492C763.622 97.4492 593.666 69.8622 384.954 135.777C200.658 193.975 75.2731 289.83 93.4021 416.424C107.838 517.221 232.317 518.911 232.317 518.911L196.387 542.54C196.387 542.54 366.334 570.132 575.053 504.222C759.349 446.015 884.737 350.172 866.602 223.57H866.603Z" fill="white"/>
<path d="M847.273 229.68C828.838 101.019 629.473 128.266 526.479 160.79C471.316 178.208 435.229 195.889 435.229 195.889C622.063 129.037 753.035 176.759 753.035 176.759C691.04 172.407 632.753 192.503 632.753 192.503C632.753 192.503 695.376 205.118 703.693 263.233C714.688 339.963 649.375 427.782 448.063 491.358C338.31 526.006 245.963 531.504 245.963 531.504C245.963 531.504 376.19 550.666 572.809 488.571C754.769 431.11 862.833 338.38 847.273 229.68Z" fill="#C8102E"/>
<path d="M480.245 394.698C536.097 377.058 583.549 350.749 609.053 325.65C623.153 311.77 630.573 298.264 628.928 286.797C628.296 282.423 626.351 278.586 623.299 275.263C603.903 254.132 538.479 254.422 463.543 278.083C376.818 305.478 310.245 353.777 314.855 385.978C319.47 418.178 393.516 422.084 480.245 394.698Z" fill="#C8102E"/>
<path d="M387.195 151.419C205.229 208.889 97.1701 301.621 112.741 410.316C131.165 538.973 330.533 511.739 433.524 479.206C488.689 461.779 524.774 444.103 524.774 444.103C337.937 510.955 206.964 463.23 206.964 463.23C268.963 467.584 327.254 447.496 327.254 447.496C327.254 447.496 264.63 434.874 256.314 376.755C245.324 300.03 310.63 212.211 511.945 148.642C621.698 113.985 714.042 108.485 714.042 108.485C714.042 108.485 583.82 89.3298 387.195 151.419Z" fill="#010101"/>
<path d="M451.797 229.861C382.691 251.681 346.541 279.307 334.055 308.255L308.945 366.422C308.945 366.422 339.422 311.792 462.787 272.838C555.809 243.458 612.591 250.87 623.296 275.263C626.348 278.586 628.293 282.423 628.925 286.797C630.57 298.264 623.149 311.77 609.05 325.65C585.748 358.421 541.257 393.666 502.22 417.472C533.394 407.63 673.31 341.245 663.159 270.371C653.733 204.604 571.977 191.906 451.797 229.861Z" fill="#010101"/>
<path d="M466.279 314.658C430.068 326.098 402.161 345.428 403.942 357.851C405.717 370.269 436.507 371.079 472.717 359.643C508.923 348.205 536.831 328.872 535.056 316.448C533.271 304.024 502.477 303.221 466.279 314.658Z" fill="#010101"/>
</svg>
