<svg width="960" height="640" viewBox="0 0 960 640" fill="none" xmlns="http://www.w3.org/2000/svg">
<path d="M671.546 469.2C663.264 469.2 656.541 475.914 656.541 484.202C656.541 492.48 663.264 499.202 671.546 499.202C679.828 499.202 686.541 492.48 686.541 484.202C686.541 475.914 679.828 469.2 671.546 469.2ZM671.546 495.984C669.215 495.987 666.936 495.298 664.997 494.003C663.059 492.708 661.549 490.867 660.658 488.713C660.067 487.283 659.763 485.75 659.764 484.202C659.764 477.692 665.028 472.428 671.546 472.428C678.056 472.428 683.326 477.692 683.326 484.202C683.326 490.714 678.056 495.984 671.546 495.984ZM677.71 480.725C677.71 479.719 677.412 478.736 676.852 477.9C676.293 477.063 675.497 476.412 674.567 476.029C673.95 475.774 673.288 475.643 672.62 475.643H665.392V492.765H668.605V485.811H670.911L674.157 492.765H677.71L674.321 485.515C675.311 485.164 676.168 484.515 676.775 483.658C677.382 482.8 677.709 481.776 677.71 480.725ZM672.62 482.597H668.605V478.85H672.62C673.652 478.85 674.497 479.689 674.497 480.725C674.495 481.222 674.296 481.698 673.945 482.048C673.593 482.399 673.117 482.596 672.62 482.597Z" fill="#041E42"/>
<path d="M689.149 449.661L822.299 143.24C822.299 143.24 725.937 200.306 615.844 243.921L805.023 103.271L685.948 123.761C668.908 113.554 609.678 82.857 514.008 82.857C514.008 82.857 505.623 83.055 498.465 83.227C494.953 72.9 478.3 24 478.3 24L447.771 87.295C273.417 109.715 137.699 212.69 137.699 323.806C137.699 373.462 159.009 438.771 257.121 474.042L207.628 596.363L338.569 493.105C366.705 496.903 397.863 498.888 431.517 498.888C470.903 498.888 509.636 495.908 546.825 490.191L690.103 616L641.213 468.48C641.213 468.48 670.038 459.174 689.149 449.661Z" fill="#A2AAAD"/>
<path d="M797.707 170.909C797.707 170.909 685.412 236.297 560.355 279.485L555.957 267.361L770.429 118.608L532.033 179.66L665.441 125.918C665.441 125.918 608.95 94.3899 514.009 94.3899C506.076 94.3899 498.159 94.5819 490.267 94.9529L476.454 54.3799L402.228 208.274L288.988 240.436L394.088 197.318L428.556 127.058L435.778 112.344L442.054 99.5599C283.836 122.22 149.232 216.538 149.232 323.806C149.232 383.926 182.298 439.005 272.884 467.327L226.087 569.302L335.116 481.062C363.35 485.151 395.363 487.363 431.516 487.363C476.814 487.363 516.681 483.506 550.51 478.025L671.41 585.47L626.23 461.025C661.396 450.679 680.238 441.225 680.238 441.225L797.708 170.908L797.707 170.909Z" fill="#041E42"/>
<path d="M342.908 314.784L352.256 294.406L297.513 279.346C297.513 279.346 281.939 307.176 342.908 314.784Z" fill="#A2AAAD"/>
<path d="M677.432 162.833L503.023 205.087L472.303 109.055L423.642 225.203L291.322 258.317L383.947 280.987L366.177 316.502C367.778 316.541 369.415 316.584 371.08 316.617C373.306 316.652 375.579 316.682 377.938 316.682C384.332 316.682 390.82 316.477 397.416 316.076C413.564 315.104 430.296 312.978 447.341 309.941C460.298 307.629 473.44 304.788 486.64 301.521C504.065 297.221 521.61 292.154 539.022 286.584L528.987 259.879L677.432 162.833ZM608.76 471.992C604.078 473.732 600.245 475.344 597.147 477.892C594.225 480.303 591.963 483.557 590.313 488.557C589.684 490.509 589.177 492.498 588.795 494.513L629.229 526.413L608.76 471.993V471.992ZM295.213 474.26C293.946 473.828 292.645 473.506 291.323 473.297C290.179 473.127 289.026 473.025 287.87 472.993L265.875 516.939L307.194 486.153C304.572 481.353 301.523 476.508 295.213 474.26Z" fill="#A2AAAD"/>
<path d="M497.951 411.862C446.766 402.184 416.144 392.282 416.144 392.282C416.144 392.282 439.773 383.129 474.696 367.105C505.869 352.797 546.05 333.019 586.416 309.389C618.883 290.401 651.476 268.938 679.617 245.823C679.617 245.823 515.81 335.194 379.755 335.194C288.361 335.194 246.063 292.804 246.063 264.37C246.063 179.654 395.181 135.818 428.557 127.058L435.779 112.344C292.503 140.547 239.223 196.834 239.223 196.834C239.223 196.834 191.331 225.801 173.198 279.558C168.651 292.973 166.337 307.043 166.348 321.208C166.348 385.981 208.798 470.688 426.446 470.688C580.806 470.688 662.976 429.742 662.976 429.742C637.841 429.003 612.74 427.363 587.722 424.824C553.585 421.372 523.249 416.644 497.952 411.862H497.951ZM626.351 124.791C626.351 124.791 581.475 102.946 493.968 105.828L497.998 117.66C507.673 116.543 560.366 111.533 626.351 124.791Z" fill="#C8102E"/>
<path d="M352.244 382.93C406.168 382.93 451.279 373.293 474.696 367.106C505.869 352.797 546.05 333.019 586.416 309.389C552.497 322.251 445.149 360.516 369.108 360.516C253.756 360.516 217.714 293.697 217.714 255.989C217.714 222.275 239.224 196.835 239.224 196.835C239.224 196.835 199.477 224.6 199.477 270.85C199.477 346.936 275.49 382.93 352.244 382.93Z" fill="white"/>
<path d="M396.613 418.545C182.26 418.545 172.733 304.361 173.199 279.559C168.959 292.112 166.348 306.009 166.348 321.209C166.348 321.209 168.577 447.548 413.471 447.548C493.201 447.548 564.974 430.736 587.723 424.826C553.586 421.373 523.25 416.646 497.953 411.863C480.953 414.538 447.133 418.545 396.613 418.545ZM666.347 326.952C659.372 312.324 639.041 309.788 620.903 321.241C602.775 332.741 593.683 353.87 600.643 368.498C607.572 383.138 627.884 385.669 646.036 374.199C664.194 362.689 673.226 341.573 666.347 326.952Z" fill="white"/>
<path d="M484.894 381.46L484.754 376.324L480.235 381.974L473.165 382.895L477.565 385.269L473.165 390.997L480.687 387.06L485.895 390.787L484.959 384.66L491.954 380.677L484.894 381.46ZM539.297 355.685L539.134 350.438L534.444 356.274L527.073 357.207L531.597 359.714L527.057 365.637L534.924 361.543L540.278 365.444L539.383 359.05L546.61 354.904L539.297 355.685ZM578.856 359.917L578.707 355.095L574.447 360.395L567.776 361.261L571.908 363.555L567.776 368.935L574.856 365.213L579.765 368.729L578.945 362.959L585.477 359.183L578.856 359.917ZM524.264 389.577V384.807L519.903 390.034L513.223 390.694L517.3 393.082L513.005 398.422L520.2 394.854L525.03 398.492L524.324 392.649L530.969 389.009L524.264 389.577ZM563.426 395.094L563.383 390.271L559.001 395.534L552.303 396.205L556.383 398.582L552.162 403.897L559.307 400.294L564.132 403.951L563.437 398.149L570.084 394.466L563.426 395.094ZM595.753 321.648L595.545 315.543L590.175 322.305L581.657 323.368L586.903 326.283L581.657 333.085L590.677 328.365L596.914 332.875L595.813 325.497L604.2 320.691L595.753 321.648ZM649.109 289.977L644.246 298.849L654.409 292.122L663.535 296.812L660.227 288.054L669.569 281.262L659.082 283.375L657.228 276.032L652.168 284.842L641.67 287.092L649.109 289.977ZM734.109 246.188L721.542 247.614L720.47 238.321L713.22 248.613L700.61 250.277L708.922 254.665L701.934 265.127L714.859 257.907L724.815 264.737L722.231 253.553L734.109 246.188ZM667.58 399.742L667.534 392.353L660.784 400.393L650.467 401.48L656.785 405.095L650.18 413.297L661.194 407.797L668.668 413.363L667.591 404.427L677.853 398.815L667.58 399.742ZM687.266 351.093L687.091 344.334L681.024 351.841L671.563 353.086L677.475 356.274L671.541 363.881L681.625 358.659L688.592 363.656L687.388 355.443L696.658 350.071L687.266 351.093ZM704.229 303.245L704.016 295.856L697.45 304.035L687.172 305.356L693.554 308.829L687.172 317.136L698.092 311.427L705.628 316.879L704.368 307.957L714.445 302.117L704.229 303.245ZM612.914 394.362L607.866 400.432L600.146 401.197L604.822 403.935L599.917 410.065L608.199 405.935L613.813 410.117L612.974 403.442L620.615 399.25L612.947 399.9L612.914 394.362ZM472.302 125.4L447.34 238.802L496.282 207.046L472.302 125.4ZM649.065 177.584L447.34 238.802C447.34 238.802 521.459 254.979 523.713 255.292C525.996 255.623 649.065 177.584 649.065 177.584ZM486.64 301.523L447.341 238.803V309.943C460.298 307.63 473.44 304.789 486.64 301.523ZM371.08 316.618C373.306 316.653 375.579 316.683 377.937 316.683C384.332 316.683 390.82 316.478 397.417 316.077L447.341 238.803L388.736 281.942L371.08 316.618Z" fill="white"/>
<path d="M426.17 227.195L317.44 256.552L447.34 238.802L426.17 227.195ZM590.312 488.557L617.122 509.776L597.147 477.892C594.224 480.303 591.962 483.557 590.312 488.557ZM274.576 506.212L295.212 474.26C293.945 473.828 292.644 473.506 291.322 473.297L274.576 506.211V506.212Z" fill="white"/>
<path d="M623.624 325.456C608.857 334.765 601.107 352.205 606.308 364.386C611.467 376.55 627.644 378.844 642.395 369.516C657.145 360.184 664.855 342.755 659.703 330.626C654.452 318.425 638.363 316.152 623.624 325.456Z" fill="#C8102E"/>
</svg>
