<svg width="960" height="640" viewBox="0 0 960 640" fill="none" xmlns="http://www.w3.org/2000/svg">
<path d="M810.708 258.763C810.708 258.763 816.631 236.593 816.631 207.75C816.631 105.113 736.585 26.6899 620.776 26.6899C537.336 26.6899 466.437 88.6279 428.318 88.6279C412.052 88.6279 391.931 60.7889 391.931 60.7889C391.931 60.7889 369.787 75.6709 385.785 109.51C385.785 109.51 359.567 88.2199 319.752 88.2199C261.425 88.2199 242.874 134.912 242.874 134.912C198.506 150.449 201.777 175.277 165.885 178.112C165.885 178.112 169.855 217.357 218.303 218.855C199.807 253.068 143.369 258.171 143.369 258.171C143.369 258.171 159.361 288.125 208.867 288.125C240.817 288.125 263.072 275.769 263.072 275.769C213.485 302.459 245.409 339.503 196.503 363.604C196.503 363.604 207.295 369.697 220.346 371.839C220.346 371.839 221.279 402.635 231.206 432.013C231.206 432.013 217.484 420.76 190.453 425.487C190.453 425.487 208.68 446.078 210.067 472.251C212.29 514.209 234.921 557.621 278.182 557.621C302.196 557.621 315.366 546.044 315.366 546.044C309.511 567.916 272.17 582.289 272.17 582.289C272.17 582.289 291.952 600.809 321.397 600.809C367.335 600.809 373.875 552.224 422.997 552.224C460.589 552.224 493.066 584.67 552.775 584.67C703.804 584.67 790.625 425.71 797.682 364.762H637.048C637.048 364.762 616.211 428.435 569.443 428.435C527.326 428.435 504.52 396.814 504.52 347.821C504.52 285.751 554.45 179.933 631.512 179.933C659.652 179.933 667.592 202.928 667.592 221.612C667.592 241.928 661.214 258.762 661.214 258.762H810.708V258.763ZM183.081 186.387C209.786 183.53 223.353 146.821 267.886 146.821C303.242 146.821 325.553 176.971 325.553 176.971C271.222 160.471 278.205 202.897 219.905 202.897C192.005 202.897 183.081 186.387 183.081 186.387ZM277.975 543.845C232.884 543.845 223.228 482.066 223.228 465.951C223.228 457.005 216.482 442.496 216.482 442.496C245.378 451.813 246.685 502.12 288.717 502.12C312.356 502.12 328.858 482.89 355.175 492.531C314.729 513.811 315.781 543.845 277.975 543.845ZM631.919 162.675C550.729 162.675 487.298 267.243 487.298 348.372C487.298 405.236 515.522 446.462 569.757 446.462C625.491 446.462 649.237 381.762 649.237 381.762H776.958C766.41 442.485 676.45 569.087 552.843 569.087C496.605 569.087 464.835 536.22 422.787 536.22C365.959 536.22 358.953 587.31 320.824 587.31C309.319 587.31 301.74 583.638 301.74 583.638C346.822 562.502 320.309 506.168 386.312 487.364C365.862 476.317 345.568 486.292 317.282 486.292C263.323 486.292 232.729 423.96 234.887 377.363C234.887 377.363 251.777 408.549 291.598 408.549C326.813 408.549 334.601 388.615 374.015 384.789C365.705 371.217 343.567 366.077 324.908 362.307C301.656 357.602 290.252 332.917 272.245 332.917C253.228 332.917 251.226 361.203 224.875 359.644C224.875 359.644 237.754 353.416 242.011 328.904C246.247 304.494 260.448 286.126 286.766 286.126C313.236 286.126 339.709 306.102 348.583 303.368C310.189 276.261 315.033 252.982 282.668 252.982C251.114 252.982 250.835 274.612 206.713 274.612C188.001 274.612 176.018 265.659 176.018 265.659C238.863 250.939 221.315 197.974 301.572 197.974C341.846 197.974 354.527 215.673 387.448 215.673C330.122 175.053 333.012 128.36 286.412 128.36C267.749 128.36 255.159 140.524 255.159 140.524C255.159 140.524 273.304 102.663 321.307 102.663C369.75 102.663 386.188 144.443 448.867 147.389C397.159 126.208 395.725 86.5259 395.725 86.5259C395.725 86.5259 408.073 104.163 427.255 104.163C478.306 104.163 541.371 41.8079 621.275 41.8079C724.495 41.8079 801.83 116.473 801.83 207.878C801.83 229.548 798.102 242.764 798.102 242.764H682.655C682.655 242.764 686.274 234.038 686.274 220.141C686.274 193.191 667.411 162.675 631.919 162.675ZM246.919 369.017C257.651 366.632 264.044 349.082 274.394 349.082C285.568 349.082 286.486 364.992 331.844 380.014C327.665 381.934 313.123 394.088 291.66 394.088C259.215 394.088 246.918 369.017 246.918 369.017H246.919Z" fill="#F1BE48"/>
<path d="M798.102 242.763C798.102 242.763 801.83 229.546 801.83 207.877C801.83 116.472 724.494 41.8071 621.274 41.8071C541.371 41.8071 478.306 104.162 427.255 104.162C408.073 104.162 395.725 86.5251 395.725 86.5251C395.725 86.5251 397.159 126.206 448.866 147.388C386.188 144.442 369.75 102.662 321.307 102.662C273.304 102.662 255.159 140.523 255.159 140.523C255.159 140.523 267.749 128.359 286.412 128.359C333.012 128.359 330.122 175.051 387.448 215.671C354.528 215.671 341.846 197.973 301.572 197.973C221.315 197.973 238.862 250.938 176.018 265.658C176.018 265.658 188.001 274.61 206.713 274.61C250.835 274.61 251.114 252.981 282.668 252.981C315.032 252.981 310.189 276.26 348.583 303.367C339.709 306.101 313.235 286.125 286.766 286.125C260.448 286.125 246.246 304.494 242.011 328.902C237.754 353.415 224.876 359.642 224.876 359.642C251.226 361.202 253.228 332.915 272.246 332.915C290.252 332.915 301.656 357.6 324.909 362.305C343.567 366.075 365.706 371.215 374.015 384.789C334.601 388.614 326.813 408.548 291.598 408.548C251.777 408.548 234.887 377.362 234.887 377.362C232.729 423.959 263.323 486.291 317.281 486.291C345.568 486.291 365.861 476.316 386.311 487.362C320.309 506.166 346.822 562.501 301.741 583.637C301.741 583.637 309.319 587.309 320.824 587.309C358.954 587.309 365.959 536.219 422.787 536.219C464.835 536.219 496.605 569.086 552.843 569.086C676.45 569.086 766.41 442.484 776.958 381.762H649.238C649.238 381.762 625.491 446.462 569.757 446.462C515.522 446.462 487.297 405.236 487.297 348.372C487.297 267.242 550.729 162.675 631.919 162.675C667.411 162.675 686.274 193.19 686.274 220.139C686.274 234.037 682.654 242.762 682.654 242.762H798.102V242.763Z" fill="#C8102E"/>
<path d="M325.552 176.969C325.552 176.969 303.241 146.82 267.885 146.82C223.352 146.82 209.785 183.53 183.08 186.387C183.08 186.387 192.004 202.896 219.904 202.896C278.204 202.896 271.221 160.47 325.552 176.969ZM355.174 492.53C328.857 482.89 312.354 502.12 288.716 502.12C246.684 502.12 245.377 451.812 216.481 442.495C216.481 442.495 223.227 457.004 223.227 465.95C223.227 482.065 232.883 543.844 277.974 543.844C315.779 543.844 314.728 513.811 355.174 492.53ZM422.83 578.501C413.215 578.501 405.426 586.289 405.426 595.904C405.426 605.516 413.216 613.311 422.83 613.311C432.434 613.311 440.223 605.516 440.223 595.904C440.223 586.289 432.433 578.501 422.83 578.501ZM422.83 609.576C415.274 609.576 409.164 603.452 409.164 595.904C409.164 588.35 415.274 582.236 422.83 582.236C430.37 582.236 436.501 588.35 436.501 595.904C436.501 603.452 430.37 609.576 422.831 609.576H422.83Z" fill="#C8102E"/>
<path d="M429.403 589.828C428.626 587.35 426.197 585.763 423.601 585.763H415.314V605.763H419.314V597.763H422.166L426.196 605.763H429.697L425.745 597.296C427.209 596.775 428.411 595.702 429.094 594.307C429.778 592.912 429.889 591.304 429.403 589.828ZM423.469 593.763H419.314V589.763H423.606C423.891 589.761 424.174 589.82 424.434 589.937C424.694 590.053 424.926 590.225 425.114 590.439C425.303 590.653 425.443 590.905 425.526 591.178C425.609 591.451 425.632 591.738 425.594 592.021C425.47 593.046 424.502 593.763 423.469 593.763Z" fill="#C8102E"/>
</svg>
