<svg width="960" height="640" viewBox="0 0 960 640" fill="none" xmlns="http://www.w3.org/2000/svg">
<path d="M811.276 352.398C802.994 352.398 796.27 359.111 796.27 367.398C796.27 375.677 802.994 382.4 811.276 382.4C819.557 382.4 826.27 375.677 826.27 367.399C826.27 359.111 819.557 352.398 811.276 352.398ZM811.276 379.181C809.728 379.182 808.196 378.879 806.765 378.287C805.335 377.695 804.036 376.828 802.941 375.733C801.847 374.639 800.979 373.34 800.387 371.91C799.796 370.479 799.492 368.947 799.493 367.399C799.493 360.889 804.758 355.624 811.276 355.624C817.786 355.624 823.056 360.889 823.056 367.399C823.056 373.911 817.786 379.181 811.276 379.181ZM817.439 363.921C817.437 362.572 816.9 361.28 815.946 360.326C814.991 359.374 813.698 358.839 812.349 358.839H805.121V375.962H808.334V369.008H810.64L813.886 375.962H817.44L814.05 368.711C815.04 368.359 815.897 367.71 816.503 366.853C817.11 365.995 817.436 364.971 817.439 363.921ZM812.349 365.793H808.334V362.047H812.349C813.382 362.047 814.226 362.885 814.226 363.922C814.224 364.419 814.026 364.895 813.674 365.245C813.322 365.596 812.846 365.793 812.349 365.793Z" fill="black"/>
<path d="M777.075 368.809C800.243 335.245 812.129 301.704 812.129 269.034C812.129 182.857 724.001 124.932 592.813 124.932C592.813 124.932 586.547 125.039 582.189 125.107C568.919 103.36 544.206 91.247 523.426 86.814L483.684 24L399.486 161.592C247.043 218.343 140.755 324.324 140.755 419.972C140.755 455.732 156.097 487.426 184.884 512.195L121.336 616C121.336 616 232.816 598.24 401.473 588.47L411.767 561.236C461.177 556.015 512.607 543.294 561.564 524.271C562.007 527.568 562.756 531.034 564.469 534.449L573.689 552.855C587.489 580.472 614.85 613.391 666.757 613.391C799.135 613.391 838.632 501.547 838.632 501.547C840.342 413.555 777.075 368.809 777.075 368.809Z" fill="white"/>
<path d="M767.042 370.323C790.916 337.599 804.716 303.093 804.716 269.033C804.716 191.358 727.371 132.338 592.812 132.338C587.931 132.338 583.038 132.45 578.137 132.602C565.657 108.182 537.53 96.707 518.792 93.359L483.799 38.0229L404.503 167.566C262.823 219.65 148.166 321.675 148.166 419.972C148.166 455.363 164.269 486.862 194.476 510.687L135.902 606.389C135.902 606.389 256.932 588.837 396.245 581.335L406.434 554.373C461.889 549.023 517.487 534.506 568.818 513.488C568.508 515.597 567.552 524.032 571.097 531.128L580.307 549.56C594.887 578.702 621.303 605.983 666.748 605.983C793.734 605.983 831.225 500.277 831.225 500.277C831.225 441.236 804.125 398.397 767.042 370.323Z" fill="#236093"/>
<path d="M792.385 466.666C784.284 479.008 771.017 493.436 767.115 497.605L767.043 534.53L764.653 534.768L759.615 535.248L746.879 515.547C654.512 580.407 585.199 540.514 585.199 540.514L606.012 572.54C643.083 620.064 764.194 602.927 815.828 514.983L808.824 514.711C807.607 494.73 792.385 466.666 792.385 466.666Z" fill="black"/>
<path d="M656.451 329.392L544.105 151.762C540.239 150.932 536.095 150.541 531.717 150.541L644.514 328.885C648.432 328.935 652.419 329.089 656.451 329.392ZM314.396 352.398L484.064 75.2041L495.02 92.5371C499.49 92.9881 503.74 93.5771 507.75 94.2901L483.929 56.6221L312.857 336.115C312.877 339.483 313.129 345.437 314.396 352.398Z" fill="#C2C6C9"/>
<path d="M502.812 464.097C438.369 464.097 395.246 496.359 336.547 496.359C254.833 496.359 229.782 438.697 229.782 398.796C229.782 275.842 374.733 201.718 374.733 201.718L377.586 197.057C377.101 197.271 375.852 197.866 373.991 198.776C349.914 210.65 219.824 280.251 219.824 398.796C219.824 417.776 224.189 434.899 231.861 449.601C233.583 452.888 235.48 456.08 237.544 459.164L155.166 593.722C155.166 593.722 256.804 579.229 389.307 571.875L420.027 490.589C446.902 482.678 473.127 474.743 506.974 474.743C578.653 474.743 624.724 513.123 624.724 513.123C624.724 513.123 598.484 464.097 502.812 464.097Z" fill="#C2C6C9"/>
<path d="M531.717 150.54C502.279 150.625 461.975 169.064 419.324 199.184L438.73 167.554L452.017 156.807L462.138 120.115L478.578 115.057L483.423 91.6501C487.296 91.8364 491.163 92.1319 495.02 92.5361L484.064 75.2041L314.396 352.398C318.008 372.254 329.937 400.321 368.546 400.321C445.86 400.321 557.638 328.854 642.669 328.854C643.272 328.854 643.895 328.884 644.513 328.884L531.717 150.542V150.54ZM243.879 467.617L174.314 581.254C174.314 581.254 260.974 569.665 382.378 562.449L408.236 493.998C385.172 500.549 360.783 506.241 330.056 506.241C295.455 506.241 264.193 491.986 243.879 467.617Z" fill="#8A2432"/>
<path d="M701.195 563.496L706.874 554.116C629.961 579.594 598.18 553.23 598.18 553.23C624.193 582.469 680.127 569.681 701.195 563.496Z" fill="#C2C6C9"/>
<path d="M609.781 568.853C631.931 595.989 699.354 593.179 752.155 561.589L756.114 551.146C723.02 573.856 649.426 594.888 609.781 568.853ZM485.082 275.088L450.217 367.771C450.217 367.771 401.679 386.113 369.652 391.348C433.875 396.211 545.422 323.527 618.32 323.527C585.507 313.273 506.67 344.342 506.67 344.342L485.082 275.088Z" fill="#C2C6C9"/>
<path d="M484.213 305.304C477.601 322.875 470.063 342.931 462.889 361.999L497.447 347.75C493.341 334.597 488.695 319.71 484.213 305.304Z" fill="#236093"/>
<path d="M373.99 198.776C265.26 241.052 180.939 316.725 180.939 392.819C180.939 425.694 195.639 451.293 218.913 470.753L231.861 449.601C224.189 434.899 219.824 417.776 219.824 398.796C219.824 280.251 349.914 210.65 373.991 198.776H373.99ZM752.561 360.41C765.528 339.002 772.795 316.742 772.795 294.436C772.795 209.592 674.849 173.151 584.214 165.954C583.62 172.982 582.026 180.602 579.189 188.854L668.909 330.694C696.916 334.476 726.46 344.224 752.561 360.41ZM544.105 151.763C556.865 154.488 566.725 161.853 572.624 174.735C579.98 146.674 570.797 105.44 507.751 94.2889C503.531 93.546 499.285 92.9612 495.021 92.5359C491.165 92.1319 487.297 91.8359 483.423 91.6499L478.577 115.057L462.137 120.114L452.017 156.806L438.73 167.554L419.324 199.184C461.974 169.064 502.279 150.624 531.717 150.54C536.095 150.54 540.239 150.932 544.105 151.763Z" fill="white"/>
<path d="M642.74 336.625C549.578 336.625 447.232 409.213 366.882 409.213C343.03 409.213 335.837 400.361 335.837 400.361L332.357 405.765C332.357 405.765 233.864 358.486 368.357 212.118C368.357 212.118 252.553 272.501 243.33 394.669L250.335 388.826C250.335 388.826 246.69 471.042 339.787 471.042C414.662 471.042 441.215 443.247 510.682 443.247C658.882 443.247 682.629 527.73 682.629 527.73C682.629 527.73 585.508 556.36 579.102 502.729C579.102 502.729 564.288 565.562 688.767 533.939C688.767 533.939 696.629 521.632 695.691 505.587C695.691 505.587 707.178 517.128 709.169 525.94C709.169 525.94 718.595 515.164 703.477 486.127C703.477 486.127 716.381 497.923 724.781 515.124L729.989 510.741C729.989 510.741 730.38 498.172 705.366 464.431L688.359 475.112C688.359 475.112 648.742 400.274 501.459 409.882C501.459 409.882 624.113 366.374 695.469 454.957L710.842 444.436C710.842 444.436 753.652 486.039 764.652 534.768L767.042 534.53L767.114 497.605L767.205 453.496L779.613 468.023C779.613 468.023 785.619 457.103 778.419 434.285C778.419 434.285 807.235 462.445 815.827 514.983L818.047 485.743C818.047 460.551 776.217 336.625 642.74 336.625ZM749.976 420.604L745.722 452.307L725.839 431.34L716.109 436.424C702.732 419.476 651.172 376.559 590.8 376.559C504.192 376.559 430.096 439.097 355.92 439.097C274.955 439.097 271.694 390.757 271.694 371.627C271.694 336.115 292.484 297.392 292.484 297.392C285.364 319.119 255.016 426.101 361.551 426.101C445.386 426.101 490.308 368.218 588.026 368.218C682.046 368.218 720.001 421.809 720.001 421.809L727.311 417.202L741.188 432.152L742.249 416.685L750.791 401.741C731.047 362.788 686.918 349.094 686.918 349.094C744.713 359.947 762.028 402.131 762.028 402.131L749.976 420.604Z" fill="white"/>
<path d="M426.722 500.655L418.502 522.428C467.306 520.736 516.672 510.776 562.435 494.858C512.249 471.567 434.669 497.854 426.722 500.655Z" fill="white"/>
<path d="M558.911 143.247C532.335 117.959 469.511 138.609 469.511 138.609L467.83 145.361C531.074 121.747 558.911 143.247 558.911 143.247Z" fill="#236093"/>
<path d="M440.836 177.264C519.474 133.3 551.658 145.111 563.751 155.7C526.315 116.415 447.382 167.236 447.382 167.236L440.837 177.266L440.836 177.264Z" fill="#C2C6C9"/>
</svg>
