<svg width="960" height="640" viewBox="0 0 960 640" fill="none" xmlns="http://www.w3.org/2000/svg">
<path d="M597.954 597.562C589.673 597.562 582.949 604.275 582.949 612.562C582.949 620.84 589.673 627.563 597.954 627.563C606.236 627.563 612.949 620.84 612.949 612.563C612.949 604.275 606.236 597.562 597.954 597.562ZM597.954 624.345C595.623 624.346 593.345 623.655 591.407 622.361C589.469 621.066 587.958 619.226 587.066 617.073C586.475 615.643 586.171 614.11 586.172 612.562C586.172 606.052 591.436 600.788 597.954 600.788C604.464 600.788 609.734 606.052 609.734 612.562C609.734 619.075 604.464 624.345 597.954 624.345ZM604.118 609.085C604.118 608.417 603.986 607.756 603.73 607.139C603.474 606.522 603.099 605.962 602.626 605.49C601.671 604.537 600.377 604.003 599.028 604.003H591.8V621.126H595.013V614.172H597.319L600.565 621.126H604.118L600.729 613.875C601.719 613.523 602.576 612.874 603.182 612.017C603.789 611.159 604.116 610.135 604.118 609.085ZM599.028 610.957H595.013V607.21H599.028C599.525 607.211 600.002 607.409 600.354 607.76C600.706 608.112 600.904 608.589 600.905 609.086C600.903 609.583 600.705 610.059 600.353 610.409C600.001 610.76 599.525 610.957 599.028 610.957Z" fill="black"/>
<path d="M614.284 388.965C617.7 383.096 620.812 377.155 623.542 371.229L869.457 239.529H610.699C591.3 219.198 563.247 206.816 528.758 203.321L508.256 0L386.098 202.282H320.345L298.081 239.53H90.5449L230.652 352.404L143.669 497.985H207.499L121.717 640L386.903 497.97C394.761 497.912 402.617 497.686 410.465 497.292L571.435 626.996L554.165 455.498C578.225 438.805 597.941 416.964 614.284 388.965Z" fill="#00823E"/>
<path d="M613.167 361.568L815.957 252.958H604.707C585.699 230.287 555.368 217.558 516.536 215.896L498.935 41.3999L393.678 215.698H327.953L305.705 252.958H128.605L248.168 349.27L167.33 484.54H231.287L158.505 605.064L383.523 484.54C393.98 484.538 404.434 484.229 414.873 483.613L554.867 596.388L540.001 448.778C565.381 432.738 585.919 410.922 602.68 382.203C606.682 375.345 610.211 368.421 613.167 361.568Z" fill="black"/>
<path d="M595.7 292.278C595.7 292.278 593.662 285.631 590.698 279.804L549.484 299.937C552.164 306.938 556.004 323.671 545.771 348.541C534.096 376.865 499.337 426.961 404.533 426.961H277.332L214.668 457.686H326.948L312.564 461.576L232.066 535.202L376.791 457.686H382.829C397.397 457.686 410.912 457.131 423.486 456.053L448.951 452.98C453.88 452.18 458.633 451.28 463.243 450.298C510.554 440.194 541.063 420.094 563.303 392.387C569.221 385.004 574.575 377.092 579.483 368.669C586.392 356.809 591.265 345.472 594.292 334.766C598.726 319.031 599.107 304.683 595.699 292.278H595.7ZM302.705 310.32L204.747 279.811L204.74 279.804L283.187 343.004L302.705 310.32ZM452.254 242.556H492.231L480.293 124.216L452.254 242.556ZM604.7 305.842C605.662 307.721 606.54 309.642 607.331 311.599C607.495 312.002 607.629 312.419 607.784 312.822C608.375 314.347 608.916 315.892 609.404 317.453C609.574 318.033 609.729 318.607 609.906 319.187C610.333 320.739 610.72 322.302 611.066 323.875C611.172 324.398 611.299 324.908 611.406 325.438C611.833 327.61 612.182 329.796 612.452 331.993L612.459 331.987L675.15 298.084L708.933 279.804L604.7 305.842ZM513.15 452.73C510.285 453.037 507.436 453.27 504.606 453.46C504.401 453.473 504.189 453.488 503.984 453.496C501.24 453.686 498.504 453.814 495.816 453.91C495.582 453.927 495.356 453.933 495.123 453.938C492.4 454.032 489.728 454.088 487.111 454.108H486.764C484.076 454.125 481.44 454.117 478.894 454.08V454.088L521.713 535.202L513.15 452.73Z" fill="#A2AAAD"/>
<path d="M486.991 271.374H370.421L370.194 271.26L277.334 426.96L340.174 396.268L376.029 337.721L387.005 319.802L378.885 313.267L362.663 300.192L362.656 300.185H459.915C461.761 300.185 463.535 300.206 465.282 300.256C465.423 300.256 465.558 300.263 465.684 300.269C467.234 300.311 468.754 300.375 470.232 300.46C470.706 300.489 471.152 300.524 471.639 300.56C472.735 300.63 473.818 300.701 474.879 300.8C475.486 300.857 476.073 300.934 476.674 300.99C477.53 301.09 478.399 301.189 479.241 301.288C479.906 301.38 480.55 301.486 481.201 301.584C481.921 301.691 482.629 301.804 483.308 301.931C484.001 302.051 484.652 302.185 485.31 302.327C485.908 302.45 486.504 302.58 487.099 302.717C487.785 302.878 488.443 303.063 489.079 303.24C489.588 303.381 490.111 303.522 490.592 303.67C491.24 303.873 491.884 304.09 492.522 304.322C493.58 304.696 494.623 305.114 495.648 305.573L496.717 306.075C497.609 306.532 498.484 307.022 499.339 307.546C499.892 307.899 500.429 308.254 500.952 308.635C501.2 308.812 501.432 308.997 501.667 309.179C502.19 309.59 502.677 310.007 503.151 310.452C503.342 310.629 503.512 310.814 503.697 310.998C504.17 311.478 504.63 311.959 505.039 312.475C505.181 312.638 505.301 312.808 505.429 312.977C505.859 313.53 506.269 314.095 506.639 314.703C506.709 314.823 506.787 314.964 506.858 315.092C507.252 315.752 507.608 316.435 507.925 317.136C507.954 317.193 507.961 317.256 507.996 317.313C508.335 318.097 508.633 318.911 508.886 319.767L508.893 319.76L549.486 299.937C538.362 274.225 506.759 271.374 486.993 271.374H486.991Z" fill="#A2AAAD"/>
<path d="M423.486 456.062L521.713 535.202L478.893 454.089C466.207 453.91 455.506 453.167 448.951 452.98L423.485 456.053M269.54 473.183L232.066 535.203L312.564 461.576M340.172 396.268L277.332 426.96H404.533C499.337 426.96 534.097 376.865 545.771 348.541C556.004 323.671 552.164 306.938 549.484 299.937L508.89 319.76C509.124 320.552 509.337 321.343 509.506 322.2C513.099 341.074 497.668 368.054 471.544 383.334C450.902 395.406 426.066 396.268 404.61 396.268H340.17" fill="white"/>
<path d="M370.192 271.26L370.419 271.374H486.991C506.757 271.374 538.361 274.224 549.484 299.937L590.698 279.804C593.662 285.632 595.699 292.278 595.699 292.278C599.319 296.705 602.275 301.196 604.701 305.842L708.933 279.804H590.698C578.025 256.53 549.251 242.556 507.817 242.556H452.254L480.293 124.216V124.209L408.818 242.556H343.2L320.938 279.804H204.748V279.811L302.706 310.319L283.188 343.004L214.669 457.686L277.333 426.96L370.193 271.26H370.192Z" fill="white"/>
</svg>
