<svg width="960" height="640" viewBox="0 0 960 640" fill="none" xmlns="http://www.w3.org/2000/svg">
<g clip-path="url(#clip0_1_2743)">
<path d="M493.692 514.808C485.41 514.808 478.688 521.521 478.688 529.808C478.688 538.086 485.41 544.809 493.692 544.809C501.974 544.809 508.688 538.086 508.688 529.809C508.688 521.521 501.974 514.808 493.692 514.808ZM493.692 541.591C492.144 541.593 490.611 541.289 489.181 540.697C487.751 540.105 486.452 539.238 485.357 538.143C484.263 537.049 483.395 535.749 482.804 534.319C482.212 532.889 481.908 531.356 481.91 529.808C481.91 523.298 487.174 518.034 493.692 518.034C500.202 518.034 505.472 523.298 505.472 529.808C505.472 536.321 500.202 541.591 493.692 541.591ZM499.856 526.331C499.856 525.663 499.724 525.002 499.468 524.385C499.212 523.768 498.837 523.208 498.364 522.736C497.409 521.783 496.115 521.248 494.766 521.249H487.538V538.372H490.751V531.418H493.056L496.303 538.372H499.856L496.466 531.121C497.456 530.77 498.314 530.121 498.921 529.264C499.528 528.406 499.854 527.382 499.856 526.331ZM494.766 528.203H490.751V524.456H494.766C495.263 524.457 495.74 524.655 496.092 525.006C496.444 525.358 496.642 525.835 496.643 526.332C496.643 526.578 496.594 526.822 496.499 527.049C496.405 527.276 496.266 527.483 496.092 527.656C495.918 527.83 495.711 527.968 495.483 528.062C495.256 528.155 495.012 528.204 494.766 528.203Z" fill="#C8102E"/>
<path d="M840.593 195.27C876.933 164.217 912.151 114.143 912.151 56.8022C912.151 48.5022 902.026 46.1672 897.921 51.8102C860.477 102.907 825.167 122.32 803.838 129.71C839.306 102.858 874.091 59.0142 882.988 9.29223C883.966 0.220235 874.098 -2.42777 869.538 2.32023C826.111 45.7402 766.324 92.0762 605.651 92.0762C566.827 92.0762 522.445 90.9502 493.746 90.9502C363.296 90.9502 315.322 171.633 304.507 194.032C293.767 192.48 282.893 191.523 272.083 191.523C148.443 191.523 47.8521 292.114 47.8521 415.765C47.8501 539.405 148.44 640 272.082 640C363.08 640 443.524 586.264 478.668 502.767C481.141 503.02 483.765 503.442 485.978 503.442C514.392 503.442 520.351 495.132 520.351 488.139C520.351 484.389 516.636 479.861 514.797 477.223C556.48 476.998 568.705 475.045 586.745 468.812C589.679 467.897 591.402 465.171 591.402 462.272C591.402 456.122 578.791 445.942 569.658 438.03C627.958 437.052 670.886 426.639 670.886 413.004C670.886 410.341 670.633 406.984 655.161 394.798C688.053 385.852 745.842 363.672 745.842 349.231C745.842 343.634 741.012 340.204 735.369 336.271C786.569 316.979 829.621 282.985 829.621 270.796C829.621 260.97 815.145 260.136 807.968 259.581C833.48 243.24 869.004 215.389 869.004 203.361C869.004 190.904 849.482 195.811 840.593 195.27Z" fill="#C8102E"/>
<path d="M825.63 198.457C866.431 167.883 905.216 115.079 905.216 56.8021C905.216 55.5771 904.006 55.3871 903.499 55.8981C840.43 142.005 783.078 141.158 783.078 141.158C780.57 141.158 779.977 137.64 781.969 136.253C822.689 112.303 866.364 62.8981 876.172 8.06809C876.306 7.33309 875.208 6.44309 874.435 7.21009C828.117 53.5331 764.46 99.0021 605.648 99.0021C554.789 99.0021 528.248 97.8771 493.744 97.8771C356.032 97.8771 313.684 189.409 308.671 201.525C296.582 199.476 284.342 198.445 272.081 198.443C152.064 198.443 54.769 295.734 54.769 415.765C54.769 535.778 152.064 633.077 272.08 633.077C363.98 633.077 442.552 576.031 474.325 495.428C478.389 496.121 482.311 496.515 485.97 496.515C508.111 496.515 513.427 491.573 513.427 488.139C513.427 485.81 499.267 470.335 506.297 470.335C555.403 470.335 566.455 468.502 584.484 462.272C575.834 448.735 544.505 431.212 560.637 431.212C638.464 431.212 663.969 416.187 663.969 413.004C663.969 409.285 639.153 391.414 639.153 391.414C675.001 385.504 738.921 356.914 738.921 349.231C738.921 344.784 720.688 337.32 723.611 333.105C780.45 314.2 822.693 277.469 822.693 270.796C822.693 265.442 789.375 266.068 789.375 266.068V262.528C818.187 247.549 862.076 211.329 862.076 203.361C862.076 198.285 820.891 206.791 825.63 198.457Z" fill="white"/>
<path d="M325.434 374.708C318.401 365.568 309.079 358.286 298.314 353.73L296.566 355.444L300.176 380.27C301.303 381.161 302.385 382.107 303.419 383.105L321.606 383.256C322.924 380.426 324.2 377.576 325.434 374.708ZM246.742 355.813L266.854 370.799C268.281 370.637 269.716 370.541 271.152 370.511L289.042 352.907L288.679 350.497C283.254 349.118 277.678 348.421 272.081 348.422C263.401 348.419 254.803 350.1 246.763 353.372L246.742 355.813ZM290.307 361.604L280.461 371.267C284.571 372.036 288.553 373.376 292.291 375.249L290.307 361.604ZM297.61 453.15C294.159 455.504 290.401 457.372 286.441 458.701L297.501 466.937L297.611 453.15H297.61ZM207.798 515.227L239.822 483.721C227.302 477.779 216.695 468.456 209.152 456.949L182.297 492.976C189.692 501.572 198.279 509.065 207.798 515.227ZM309.47 390.229C311.234 392.804 312.724 395.555 313.916 398.439C315.383 395.752 316.803 393.04 318.176 390.303L309.47 390.229ZM249.278 487.457C248.495 487.206 247.716 486.941 246.942 486.662L214.053 519.009C226.997 526.299 241.203 531.073 255.923 533.077L249.278 487.457ZM309.227 443.61L307.577 443.856C306.687 444.981 305.743 446.062 304.748 447.096L304.53 472.186L306.49 473.638C312.544 470.029 317.996 465.496 322.65 460.203C315.974 454.139 311.193 448.391 309.227 443.61ZM246.555 378.377C250 376.013 253.76 374.145 257.725 372.826L246.668 364.576L246.555 378.376V378.377ZM205.262 450.318C204.884 449.589 204.516 448.855 204.157 448.116L158.031 447.726C162.087 462.233 168.838 475.605 177.696 487.281L205.262 450.318ZM297.424 475.717L277.323 460.724C275.896 460.885 274.463 460.979 273.027 461.005L255.132 478.602L255.477 481.022C260.904 482.402 266.482 483.098 272.081 483.094C280.761 483.099 289.359 481.421 297.4 478.152L297.424 475.717ZM253.869 469.913L263.702 460.243C259.596 459.474 255.616 458.138 251.878 456.273L253.869 469.913ZM304.439 483.689L304.055 529.809C318.552 525.756 331.921 519.009 343.603 510.143L306.631 482.581C305.902 482.957 305.181 483.331 304.439 483.689ZM234.69 441.291C232.335 437.841 230.473 434.079 229.156 430.115L220.903 441.172L234.69 441.292V441.291ZM240.744 448.418L215.664 448.208L214.208 450.163C221.511 462.423 232.592 472.185 245.858 477.789L247.6 476.069L243.994 451.254C242.869 450.358 241.784 449.412 240.744 448.418ZM239.428 384.424L239.632 359.341L237.683 357.878C225.416 365.185 215.664 376.266 210.046 389.539L211.77 391.291L236.593 387.668C237.487 386.543 238.433 385.461 239.428 384.424ZM217.926 397.539L227.594 407.379C228.364 403.27 229.704 399.289 231.576 395.551L217.926 397.539ZM206.814 399.16C205.446 404.589 204.754 410.166 204.752 415.765C204.746 424.444 206.426 433.042 209.698 441.08L212.132 441.101L227.126 420.993C226.954 419.567 226.86 418.133 226.844 416.697L209.237 398.816L206.814 399.161V399.16ZM256.711 489.406L263.184 533.851C274.493 534.703 285.866 533.931 296.956 531.557L297.333 486.634C289.227 489.52 280.686 490.993 272.081 490.989C266.815 490.989 261.671 490.447 256.711 489.406ZM337.887 326.428C337.887 323.364 337.82 320.293 337.718 317.201C337.268 316.894 336.821 316.589 336.371 316.296L304.344 347.796C313.688 352.243 322.016 358.569 328.807 366.377C333.754 353.439 337.887 338.888 337.887 326.427V326.428ZM237.539 348.932C238.264 348.559 238.989 348.182 239.727 347.834L240.114 301.711C225.617 305.761 212.245 312.508 200.559 321.376L237.539 348.932ZM287.458 342.118L280.978 297.665C278.04 297.458 275.078 297.328 272.081 297.328C263.551 297.328 255.223 298.246 247.202 299.973L246.83 344.886C254.936 342.001 263.477 340.529 272.081 340.535C277.354 340.535 282.494 341.084 287.458 342.118ZM365.267 488.818C351.597 481.747 338.714 473.428 328.66 465.325C324.151 470.453 318.976 474.954 313.272 478.708L349.289 505.549C355.142 500.515 360.486 494.893 365.267 488.818ZM330.127 312.518C317.182 305.226 302.974 300.45 288.253 298.44L294.895 344.067C295.686 344.32 296.464 344.584 297.235 344.855L330.127 312.518ZM153.658 415.765C153.658 424.3 154.566 432.619 156.289 440.637L201.203 441.01C198.322 432.905 196.853 424.367 196.858 415.765C196.858 410.489 197.399 405.355 198.43 400.378L153.992 406.865C153.768 409.826 153.656 412.795 153.658 415.765ZM154.763 399.59L200.386 392.945C200.636 392.153 200.91 391.393 201.185 390.609L168.841 357.723C161.542 370.663 156.765 384.87 154.763 399.59ZM172.623 351.479L204.119 383.499C210.064 371.015 219.328 360.406 230.897 352.833L194.877 325.974C186.277 333.367 178.782 341.956 172.623 351.479ZM272.078 440.181C285.564 440.181 296.496 429.248 296.496 415.763C296.496 402.277 285.564 391.345 272.078 391.345C258.592 391.345 247.66 402.277 247.66 415.763C247.66 429.248 258.592 440.181 272.078 440.181Z" fill="#C8102E"/>
<path d="M272.08 269.255C191.168 269.255 125.58 334.85 125.58 415.765C125.58 496.677 191.168 562.265 272.08 562.265C321.475 562.265 365.153 537.822 391.7 500.371C386.134 498.408 380.48 496.093 374.877 493.514C351.339 524.578 314.06 544.651 272.08 544.651C200.895 544.651 143.184 486.943 143.184 415.765C143.184 344.573 200.895 286.865 272.08 286.865C295.861 286.865 318.144 293.321 337.267 304.557C337.091 298.172 337.059 291.597 337.563 284.681C317.859 274.813 295.618 269.255 272.08 269.255Z" fill="#C8102E"/>
<path d="M434.91 506.049C425.448 508.314 413.24 506.883 400.13 503.09C372.225 543.933 325.282 570.75 272.078 570.75C186.494 570.75 117.096 501.363 117.096 415.765C117.096 413.018 117.174 410.298 117.304 407.593C112.512 414.865 113.894 426.864 105.396 426.864C98.656 426.864 102.392 417.682 97.459 417.682C94.389 417.682 93.959 421.894 90.142 421.894C89.695 421.894 89.298 421.735 89.009 421.735C88.189 421.735 87.824 423.515 86.269 423.515C84.285 423.515 82.892 421.172 81.316 421.172C79.539 421.172 78.973 424.564 76.616 424.564C74.199 424.564 71.859 420.518 70.916 418.668C72.472 528.458 161.939 616.965 272.081 616.965C356.374 616.965 428.547 565.132 458.498 491.601C435.931 484.776 414.366 473.262 414.366 473.262C415.742 486.707 434.91 506.049 434.91 506.049ZM90.853 338.836C95.5 342.677 91.796 349.396 95.131 354.019C120.653 280.871 190.237 228.384 272.081 228.384C298.828 228.384 324.262 234.002 347.28 244.098C349.052 239.837 351.008 235.655 353.144 231.564C328.339 220.631 300.921 214.548 272.081 214.548C187.539 214.548 115.197 266.701 85.411 340.574C87.068 341.66 88.893 337.217 90.853 338.836ZM517.772 132.05H628.476C769.896 132.05 831.815 81.4899 856.205 36.6719C857.612 33.9769 855.881 33.4119 853.193 35.7999C822.405 63.4219 776.468 111.635 588.9 111.635H509.747C385.238 111.635 338.351 167.777 326.123 205.222C332.318 206.813 338.441 208.675 344.473 210.802C366.607 170.951 408.793 132.05 517.772 132.05Z" fill="#C8102E"/>
<path d="M515.177 160.597C404.394 160.597 340.583 236.683 347.886 309.38C353.328 363.545 323.018 407.55 323.018 407.55C323.018 407.55 365.296 388.406 365.296 311.277C365.296 238.171 438.022 184.963 499.314 184.963C558.584 184.963 627.355 185.335 661.454 185.335C842.286 185.335 886.041 101.792 892.271 85.4902C893.369 83.0452 891.786 83.5402 891.191 84.6772C853.437 135.592 800.571 164.667 657.121 164.667C564.972 164.667 535.833 160.597 515.177 160.597Z" fill="#C8102E"/>
<path d="M556.48 223.902C526.566 223.902 523.562 232.229 523.562 232.229C522.616 233.39 523.098 236.116 521.002 236.911C514.169 239.55 506.606 233.889 500.724 241.502C497.171 246.1 488.552 240.429 482.962 243.676C481.706 244.411 482.982 247.596 483.954 248.017C486.571 249.167 490.892 248.827 492.517 250.177C494.233 251.584 494.082 253.597 495.676 254.775C497.649 256.221 501.354 256.865 503.004 259.145C504.294 260.9 504.706 264.39 506.578 264.492C551.484 267.042 597.582 267.035 640.195 250.526C645.021 242.926 598.389 223.902 556.48 223.902ZM379.975 322.928C380.566 327.272 379.433 333.942 380.334 334.03C411.591 337.442 443.319 331.884 472.243 318.608C480.292 315.192 440.832 294.647 408.003 294.647C397.336 294.647 390.072 299.185 390.072 299.185C388.242 300.237 386.775 304.525 384.647 307.72C383.061 310.094 386.097 313.813 384.823 315.343C382.466 318.183 379.557 319.923 379.975 322.927V322.928ZM422.721 246.842C421.209 247.096 420.072 249.552 418.951 251.145C416.115 255.138 407.13 254.255 407.204 258.8C407.306 267.088 398.074 268.604 396.608 274.574C395.461 279.253 392.946 282.788 392.601 287.822C425.765 288.002 459.881 285.863 489.281 268.98C496.967 265.48 448.789 243.075 422.721 246.842ZM528.308 218.41C525.895 208.79 514.222 206.988 506.265 202.334C503.109 200.484 499.405 201.328 495.76 202.893C487.862 206.285 477.706 200.526 469.555 206.383C467.234 208.068 465.992 211.203 462.991 211.98C459.266 212.948 455.508 213.102 451.705 213.584C450.309 213.778 447.692 214.72 447.864 216.304C448.624 223.068 442.33 224.479 437.338 226.224C432.456 227.941 434.19 234.379 434.038 239.121C466.347 239.532 499.96 234.98 528.308 218.41ZM363.592 377.944C371.898 382.264 412.069 376.46 433.012 363.444C411.499 345.196 377.07 338.575 377.07 338.575C372.296 351.602 367.357 364.565 363.592 377.945V377.944Z" fill="#C8102E"/>
<path d="M357.569 385.55C353.646 387.636 349.147 393.557 352.707 395.963C359.081 400.283 369.657 409.964 418.439 409.964C465.941 409.964 484.013 395.284 493.001 386.169C493.001 380.287 451.211 368.249 445.601 371.517C443.877 372.372 443.673 374.099 443.441 374.859C441.566 375.594 435.761 375.685 434.382 376.692C431.142 379.07 431.786 382.95 430.921 383.179C423.508 385.022 414.32 380.354 407.301 383.551C405.419 384.421 405.581 389.658 403.087 389.849C398.004 390.232 392.41 387.21 387.569 388.755C386.708 389.04 384.09 389.419 382.37 390.503C379.71 389.138 378.296 388.807 374.82 387.966C372.25 387.336 369.765 389.103 366.617 388.568C363.669 388.055 360.358 384.065 357.569 385.55ZM550.189 351.254C558.962 346.687 569.519 346.254 575.964 337.541C536.588 316.975 490.606 319.104 484.991 322.354C483.605 323.164 481.991 326.031 480.231 327.153C477.529 328.926 475.021 328.074 473.231 329.865C472.158 330.938 473.336 333.773 472.579 334.822C471.591 336.212 469.41 336.458 468.049 337.192C466.666 337.949 463.746 336.714 461.572 337.632C459.405 338.551 459.317 340.58 457.9 341.298C452.619 343.989 444.957 340.869 441.32 340.925C439.444 340.957 439.93 343.915 440.535 344.51C442.889 346.842 449.699 347.553 449.439 351.008C449.379 351.715 447.747 354.125 446.716 354.258C450.326 361.966 483.911 372.186 528.089 357.533C535.466 355.313 543.093 354.941 550.189 351.253V351.254ZM600.445 294.496C604.058 292.076 608.663 292.048 610.815 288.628C615.582 282.44 569.579 272.214 550.913 272.214C532.363 272.214 498.109 276.868 492.231 278.933C489.796 279.946 489.666 284.913 486.809 285.265C481.308 285.941 475.859 286.609 470.325 287.073C468.506 287.221 468.963 290.137 469.53 290.584C473.128 293.49 474.24 295.291 475.756 299.741C475.908 300.16 479.644 299.791 480.46 300.487C484.055 303.59 486.623 308.005 491.126 309.099C512.912 314.326 533.97 315.769 556.271 310.587C558.659 310.038 560.408 308.096 562.539 307.836C570.363 306.823 578.504 306.351 584.569 300.575C588.849 296.491 595.679 297.708 600.445 294.496ZM653.358 200.31C654.638 199.516 653.597 195.375 652.524 195.217C647.529 194.457 642.118 192.438 636.714 197.289C634.885 198.939 631.48 195.389 628.951 196.917C626.903 198.134 624.884 201.409 622.981 202.257C617.799 204.561 612.771 199.178 607.051 199.847C605.373 200.033 605.781 203.766 604.114 204.157C599.193 205.321 594.894 199.963 592.118 201.764C587.868 204.504 584.298 207.994 579.154 205.679C574.215 203.435 567.694 198.767 564.316 201.708C558.451 206.83 551.317 199.408 546.16 201.408C541.79 203.101 530.04 205.901 538.055 210.548C562.955 225.622 614.949 222.628 653.358 200.311V200.31ZM406.541 482.974C405.24 480.614 401.873 481.88 399.555 480.516C397.873 479.496 397.068 475.992 395.421 474.637C394.148 473.589 391.076 475.967 389.497 475.045C387.257 473.729 385.547 470.891 383.798 468.935C381.853 466.778 380.066 464.432 378.152 462.272C376.358 460.242 374.441 458.385 372.15 457.03C370.919 456.302 368.527 457.875 367.039 457.488C364.404 456.784 362.87 452.204 360.714 450.29C359.476 449.192 357.499 449.041 356.404 448C355.282 446.92 355.043 444.936 353.864 443.63C352.306 441.92 350.026 441.312 348.341 439.933C346.058 438.065 344.349 433.333 342.59 430.727C340.834 428.12 338.234 427.831 336.546 425.548C334.431 422.685 333.193 417.876 330.607 414.978C328.018 412.05 321.535 416.722 319.554 420.666C316.304 427.117 316.494 435.311 321.45 440.841C345.83 468.076 377.487 490.665 413.718 496.628C411.016 492.73 408.167 485.933 406.541 482.974ZM486.707 473.856C483.017 472.829 479.781 470.789 476.4 469.392C474.314 468.534 472.305 471.77 470.057 470.433C465.509 467.718 461.597 463.827 457.977 460.935C455.107 458.638 449.351 452.875 446.877 454.036C445.903 454.469 444.503 459.823 442.153 458.061C436.486 453.815 432.806 449.248 427.519 444.616C425.095 442.508 422.787 449.477 419.713 448C412.642 444.563 409.795 436.9 404.357 431.47C398.01 425.151 391.942 417.83 383.211 415.515C381.761 415.135 382.56 417.25 381.201 418.312C374.532 423.519 367.19 414.625 360.713 411.656C354.772 408.912 349.544 404.557 342.86 404.103C341.442 403.998 341.506 406.137 342.044 406.773C380.122 451.817 432.957 485.61 490.989 484.248C492.336 484.217 495.083 484.368 492.825 481.571C491.02 479.355 488.995 474.493 486.707 473.856ZM540.605 441.045C538.91 440.795 536.278 443.085 534.808 442.807C530.308 441.963 526.748 437.921 521.288 435.037C519.037 433.851 517.865 439.173 516.1 439.061C507.048 438.544 493.968 428.947 485.888 424.106C484.456 423.241 475.82 424.964 474.388 425.253C469.192 426.298 462.582 417.201 458.498 415.283C455.402 413.841 451.092 412.314 448.155 414.513C444.169 417.478 439.434 415.888 435.068 415.829C433.376 415.793 431.881 419.396 429.781 420.057C423.828 421.967 417.239 417.827 411.396 420.743C411.227 420.823 410.429 422.045 410.474 422.467C410.875 426.129 414.967 426.745 417.665 428.391C459.51 454.934 524.131 463.528 560.137 455.475C560.953 455.222 559.68 452.144 557.252 450.29C554.741 448.362 551.039 447.637 549.477 446.543C545.843 443.996 543.905 441.541 540.605 441.045ZM624.841 402.418C620.412 403.73 616.986 400.483 613.306 401.888C612.462 402.218 611.885 403.611 611.181 403.618C604.244 403.755 599.621 396.29 592.558 396.853C590.81 396.99 590.844 400.083 589.356 400.434C585.005 401.454 581.146 396.188 577.223 398.077C574.426 399.445 572.456 399.343 569.776 398.556C566.3 397.536 563.718 394.446 560.362 393.916C557.396 393.451 554.48 396.392 551.134 395.418C542.811 392.994 536.356 385.082 527.42 386.978C523.009 387.91 519.216 384.892 516.17 386.718C512.828 388.698 511.878 391.108 508.49 393.121C506.197 394.514 500.825 394.338 498.422 395.794C496.603 396.909 496.139 399.716 494.057 400.578C490.148 402.193 485.522 401.046 481.86 403.118C481.43 403.358 481.188 405.402 482.757 405.841C516.877 417.405 572.101 430.129 638.065 413.011C640.099 412.391 640.521 411.174 638.867 409.264C635.244 405.074 630.267 400.804 624.841 402.418ZM703.783 344.605C697.954 347.317 691.203 344.305 684.741 345.84C683.052 346.24 684.347 348.647 682.658 348.883C676.323 349.78 669.751 348.161 663.813 350.48C659.169 352.284 653.597 350.234 648.485 350.364C646.54 350.416 646.495 353.024 646.195 355.137C645.921 356.928 643.215 358.001 642.417 357.765C636.085 355.883 630.017 355.201 623.597 354.258C607.474 351.877 591.513 346.751 576.354 351.278C571.408 352.763 564.851 354.001 561.062 357.85C559.606 359.341 558.054 362.282 556.116 362.99C546.839 366.363 536.736 366.99 527.491 370.282C524.697 371.267 519.375 375.186 521.366 375.7C521.366 375.7 549.889 383.98 581.009 383.98C640.901 383.98 686.559 369.244 719.959 351.022C718.041 348.602 708.199 342.551 703.783 344.605ZM769.505 279.01C765.832 280.22 760.819 276.752 757.678 279.07C752.988 282.528 747.479 281.902 742.663 281.406C740.366 281.163 736.763 280.354 734.73 281.944C733.415 282.978 735.304 284.635 736.535 285.747C724.413 289.919 711.041 285.989 699.545 290.657C698.683 291.007 698.165 295.227 696.041 295.65C685.487 297.782 675.612 293.638 665.146 295.555C662.486 296.047 663.666 301.679 660.883 301.813C651.486 302.273 642.333 301.483 632.947 301.092C621.781 300.627 611.495 304.677 600.959 307.906C597.824 308.849 596.885 313.83 593.511 314.34C584.403 315.73 575.134 314.136 566.828 318.238C566.268 318.512 566.23 321.306 566.842 321.636C577.022 327.388 588.688 331.36 595.646 340.661C666.486 339.916 742.712 330.656 801.694 282.296C802.858 281.353 795.872 279.896 792.111 279.024C788.445 278.173 785.427 278.173 780.981 276.72C777.026 275.415 773.374 277.744 769.505 279.01ZM843.057 212.385C842.337 211.952 831.617 210.021 825.689 211.414C824.419 211.713 823.67 213.781 822.481 213.974C814.826 215.202 809.433 218.858 801.658 219.097C800.033 219.135 796.536 220.293 794.443 221.288C791.622 222.65 787.756 219.34 785.553 221.809C784.133 223.403 786.609 227.23 784.03 228.447C777.258 231.635 769.343 225.915 762.712 230.238C760.781 231.487 764.752 235.715 762.262 236.503C752.728 239.483 736.243 224.683 730.002 240.049C729.032 242.463 726.045 241.372 724.18 240.887C722.375 240.419 719.825 239.585 718.752 240.478C712.912 245.231 709.479 247.128 701.265 244.823C699.189 244.225 699.151 250.403 695.115 249.421C690.5 248.31 686.064 244.981 681.845 246.867C679.883 247.743 681.329 252.875 678.472 253.154C666.99 254.248 655.156 252.594 644.577 257.294C641.967 258.459 641.724 263.151 638.069 263.754C630.019 265.086 621.989 264.147 614.467 266.588C613.247 266.979 613.532 270.564 615.393 270.835C620.216 271.552 625.696 270.803 629.397 273.009C633.939 275.721 636.817 283.365 641.284 283.545C732.257 285.304 797.976 252.703 843.057 215.104C844.841 213.556 843.916 212.913 843.057 212.385ZM820.757 159.021C819.392 159.641 819.825 164.144 817.225 165.351C812.747 167.411 807.653 167.351 802.868 168.805C801.057 169.367 801.158 171.774 799.646 172.717C797.103 174.338 793.659 172.991 791.801 174.363C780.309 182.785 766.648 179.007 753.885 181.117C754.086 190.735 738.903 184.861 732.68 189.047C725.883 193.602 726.787 192.357 716.673 192.452C713.531 192.487 715.227 197.124 712.698 197.177C704.635 197.321 694.215 194.763 688.203 196.512C687.123 196.825 686.771 201.908 684.632 202.482C680.245 203.657 675.64 204.132 671.436 205.462C668.182 206.492 672.436 212.642 668.076 214.024C660.671 216.367 652.516 214.657 645.048 218.889C642.118 220.564 637.819 218.984 634.013 219.684C630.776 220.264 629.538 223.664 632.183 225.158C634.576 226.506 638.572 226.154 640.929 227.318C646.399 230.016 650.937 233.921 656.816 234.291C752.921 240.204 877.23 171.891 896.811 89.1459C897.493 85.8159 895.966 86.4299 895.287 88.2859C874.437 137.935 820.757 159.021 820.757 159.021Z" fill="#C8102E"/>
</g>
<defs>
<clipPath id="clip0_1_2743">
<rect width="960" height="640" fill="white"/>
</clipPath>
</defs>
</svg>
