<svg width="960" height="640" viewBox="0 0 960 640" fill="none" xmlns="http://www.w3.org/2000/svg">
<path d="M714.97 558.035C706.688 558.035 699.965 564.749 699.965 573.036C699.965 581.314 706.688 588.037 714.97 588.037C723.252 588.037 729.965 581.314 729.965 573.037C729.965 564.749 723.252 558.035 714.97 558.035ZM714.97 584.819C713.422 584.82 711.89 584.516 710.46 583.925C709.03 583.333 707.73 582.465 706.636 581.371C705.542 580.276 704.674 578.977 704.082 577.547C703.491 576.117 703.187 574.584 703.188 573.036C703.188 566.526 708.452 561.262 714.97 561.262C721.48 561.262 726.75 566.526 726.75 573.036C726.75 579.548 721.48 584.819 714.97 584.819ZM721.134 569.559C721.132 568.211 720.595 566.918 719.642 565.964C718.687 565.011 717.393 564.476 716.044 564.477H708.816V581.6H712.029V574.646H714.334L717.581 581.6H721.134L717.744 574.348C718.733 573.996 719.59 573.347 720.197 572.49C720.803 571.633 721.131 570.609 721.134 569.559ZM716.044 571.431H712.029V567.684H716.043C716.541 567.685 717.018 567.882 717.37 568.234C717.722 568.586 717.92 569.063 717.921 569.56C717.919 570.057 717.72 570.532 717.368 570.883C717.016 571.234 716.541 571.431 716.044 571.431Z" fill="#00205B"/>
<path d="M480 640C656.734 640 800 496.737 800 320C800 143.283 656.734 0 480 0C303.267 0 160 143.282 160 320C160 496.737 303.268 640 480 640Z" fill="white"/>
<path d="M497.813 15.3481C534.35 72.6051 550.817 93.7112 550.817 125.763C550.817 164.24 518.482 195.435 480.001 195.435C441.511 195.435 409.184 164.24 409.184 125.763C409.184 93.7112 425.65 72.6051 462.185 15.3481C301.927 24.5681 174.811 157.43 174.811 320C174.811 488.56 311.447 625.208 480.001 625.208C648.556 625.208 785.191 488.56 785.191 320C785.191 157.43 658.075 24.5681 497.813 15.3481ZM480.001 597.412C326.791 597.412 202.598 473.202 202.598 320C202.598 191.475 290.023 83.3691 408.645 51.8741C402.343 59.7141 381.397 88.5681 381.397 125.762C381.397 179.502 425.63 223.222 480.001 223.222C534.376 223.222 578.604 179.502 578.604 125.762C578.604 88.5681 557.649 59.7151 551.356 51.8741C669.984 83.3701 757.406 191.475 757.406 320C757.406 473.202 633.203 597.412 480.001 597.412Z" fill="#00205B"/>
<path d="M537.744 353.266H517.832V385.055C517.832 391.426 512.666 396.599 506.29 396.599C499.932 396.599 494.758 391.426 494.758 385.055V344.54H517.832V314.515H494.758V291.13C494.758 284.759 499.932 279.593 506.29 279.593C512.666 279.593 517.832 284.759 517.832 291.13V305.696H537.744V238.379H453.602V279.593C461.744 279.593 468.35 286.183 468.35 294.343V388.157C468.35 389.266 468.132 390.364 467.708 391.388C467.284 392.413 466.662 393.343 465.878 394.128C465.094 394.912 464.164 395.534 463.139 395.958C462.115 396.382 461.017 396.6 459.908 396.6V566.6C459.908 578.745 453.558 584.282 450.523 586.244C460.303 587.444 470.147 588.043 480 588.038C492.192 588.038 504.167 587.118 515.851 585.368C515.851 585.368 537.743 581.024 537.743 561.72V353.266H537.744Z" fill="#00205B"/>
<path d="M453.603 353.266H433.696V388.186C433.696 392.832 429.931 396.599 425.287 396.599C420.643 396.599 416.873 392.832 416.873 388.187V288.04C416.872 286.93 417.09 285.832 417.514 284.806C417.938 283.781 418.56 282.85 419.344 282.065C420.128 281.28 421.06 280.658 422.085 280.234C423.11 279.809 424.209 279.591 425.318 279.592V238.378H382.026V279.592C386.683 279.592 390.462 283.369 390.462 288.04V388.156C390.462 392.815 386.682 396.599 382.026 396.599V544.672C382.026 557.038 375.257 561.095 372.043 562.328C391.141 572.058 411.843 579.288 433.663 583.561C433.663 583.561 453.603 586.598 453.603 566.598V353.266Z" fill="#00205B"/>
<path d="M375.719 544.672V396.6C371.058 396.6 367.279 392.816 367.279 388.154V288.04C367.279 285.801 368.167 283.653 369.749 282.068C370.533 281.283 371.463 280.661 372.488 280.237C373.512 279.812 374.61 279.594 375.719 279.594V238.376H332.429V279.594C337.085 279.594 340.867 283.369 340.867 288.04V388.153C340.867 392.815 337.085 396.599 332.429 396.599V497.466C332.429 518.524 321.622 521.858 315.982 522.152C329.45 535.276 344.478 546.698 360.728 556.162C360.728 556.162 375.72 561.832 375.72 544.672M709.869 305.695V260.344C709.869 248.266 699.991 238.381 687.911 238.381H661.996C649.918 238.381 640.036 248.266 640.036 260.344V320.916C640.036 324.143 641.996 328.543 644.405 330.678L679.097 361.704C681.501 363.859 683.467 368.264 683.467 371.474V384.845C683.467 391.339 678.193 396.599 671.702 396.599C665.209 396.599 659.949 391.339 659.949 384.845V353.27H640.035V525.947C683.091 485.981 709.869 430.056 709.869 368.127V359.204C709.869 355.984 707.911 351.6 705.516 349.446L670.816 318.423C668.403 316.26 666.44 311.877 666.44 308.649V288.093C666.44 283.406 670.26 279.595 674.96 279.595C679.653 279.595 683.467 283.405 683.467 288.093V305.696H709.869V305.695Z" fill="#00205B"/>
<path d="M326.12 497.466V260.347C326.12 248.261 316.243 238.377 304.164 238.377H272.089C260.009 238.377 250.123 248.261 250.123 260.347V368.126C250.123 422.116 270.471 471.538 304.204 509.791C310.8 518.392 326.12 520.851 326.12 497.466ZM299.716 385.011C299.716 391.406 294.528 396.595 288.13 396.595C281.724 396.595 276.539 391.406 276.539 385.011V291.181C276.539 284.768 281.724 279.595 288.129 279.595C289.651 279.594 291.158 279.893 292.564 280.475C293.971 281.057 295.249 281.91 296.325 282.986C297.401 284.062 298.254 285.34 298.836 286.747C299.418 288.153 299.717 289.66 299.716 291.182V385.011ZM625.296 388.153V339.038C625.296 330.626 615.86 326.773 615.86 326.773C615.86 326.773 625.296 322.918 625.296 314.516V260.344C625.296 248.263 615.409 238.381 603.336 238.381H544.046L544.038 279.594C545.709 279.592 547.343 280.087 548.732 281.015C550.122 281.943 551.205 283.263 551.843 284.807C552.267 285.832 552.485 286.931 552.484 288.04V388.153C552.486 389.824 551.992 391.458 551.064 392.847C550.135 394.237 548.815 395.319 547.271 395.957C546.246 396.381 545.147 396.599 544.038 396.599V561.719C544.038 570.277 540.592 576.737 535.938 581.446C551.502 577.713 566.441 572.541 580.583 565.956C580.583 565.956 590.739 561.024 590.739 542.541V396.599C584.193 396.599 578.899 391.291 578.899 384.757V348.114C578.899 343.092 582.953 339.038 587.962 339.038C589.758 339.035 591.514 339.566 593.008 340.563C594.502 341.56 595.666 342.979 596.353 344.638C596.809 345.74 597.043 346.921 597.041 348.114V544.446C597.041 550 596.278 554.649 595.105 558.561C606.792 552.059 617.895 544.559 628.291 536.146C628.291 536.146 633.741 531.632 633.741 510.166V396.599C632.632 396.599 631.533 396.381 630.509 395.957C629.484 395.532 628.553 394.91 627.769 394.125C626.186 392.541 625.297 390.393 625.296 388.153ZM598.881 304.516C598.881 310.036 594.411 314.516 588.889 314.516C583.369 314.516 578.899 310.036 578.899 304.516V289.586C578.898 288.274 579.156 286.974 579.657 285.761C580.159 284.549 580.895 283.447 581.823 282.519C582.75 281.591 583.852 280.855 585.065 280.353C586.277 279.851 587.577 279.593 588.889 279.594C590.202 279.593 591.501 279.85 592.714 280.352C593.927 280.854 595.028 281.59 595.956 282.519C596.884 283.447 597.62 284.548 598.122 285.761C598.624 286.973 598.882 288.273 598.881 289.585V304.516Z" fill="#00205B"/>
<path d="M531.599 126.773C531.599 90.6272 500.244 71.3192 480.001 20.8452C459.756 71.3192 428.4 90.6252 428.4 126.772C428.4 151.475 448.802 175.531 480 175.531C511.209 175.531 531.599 151.476 531.599 126.773Z" fill="#D14520"/>
</svg>
