<svg width="960" height="640" viewBox="0 0 960 640" fill="none" xmlns="http://www.w3.org/2000/svg">
<path d="M557.355 613.388V625.212H554.398V613.388H550.975V610.451H560.777V613.388H557.355ZM573.378 625.212V616.5L570.888 621.928H568.276L565.786 616.5V625.213H562.83V610.45H565.786L569.582 618.333L573.378 610.45H576.334V625.211L573.378 625.212ZM201.877 71.3942V189.438C201.877 221.631 206.478 306.475 249.077 398.779C301.037 511.362 377.477 577.664 480 630.905C581.68 578.093 658.633 512.08 710.924 398.779C753.524 306.475 758.124 221.631 758.124 189.438V71.3922C672.136 26.6272 573.815 8.07422 480 8.07422C387.055 8.07422 288.424 26.3292 201.877 71.3942Z" fill="#041E42"/>
<path d="M216.971 80.552V189.438C216.971 220.633 221.434 302.865 262.781 392.453C311.093 497.133 384.364 564.227 480 613.898C576.02 564.027 649.074 496.769 697.219 392.453C738.564 302.865 743.028 220.633 743.028 189.438V80.552C666.872 40.904 567.198 23.166 480 23.166C392.499 23.166 292.978 40.976 216.972 80.552H216.971Z" fill="#B9975B"/>
<path d="M593.357 301.246C605.779 294.258 622.473 278.728 622.473 278.728C631.403 252.33 639.117 216.938 639.117 216.938C639.117 213.444 634.896 207.765 634.896 207.765C630.673 205.583 620.92 204.127 620.92 204.127C606.506 206.456 587.727 220.577 572.777 232.305C580.543 232.305 594.133 229.796 594.133 229.796C591.414 236.784 581.708 255.032 581.708 255.032C587.92 255.419 599.956 252.702 599.956 252.702C595.297 267.066 586.369 284.552 586.369 284.552L593.357 301.246ZM489.506 252.12C487.559 251.295 485.603 250.492 483.638 249.712C480.081 248.298 476.505 246.933 472.91 245.617C472.91 245.617 471.727 245.625 469.396 245.89C468.813 245.957 468.157 246.04 467.43 246.142C465.682 246.392 463.94 246.689 462.207 247.032C453.087 248.824 438.204 252.882 417.797 262.071H417.796L416.044 258.469L413.707 253.668L390.314 285.863H390.316C398.263 287.349 406.492 287.833 414.054 287.797C430.688 287.716 444.084 285.117 444.084 285.117C452.79 277.779 460.505 269.82 465.786 264.037C467.278 262.404 468.749 260.752 470.2 259.083C471.754 257.296 472.731 256.121 473.005 255.807C478.442 254.254 482.714 253.478 489.506 252.121V252.12ZM525.235 273.367C512.037 262.885 503.484 260.041 503.484 260.041C503.484 260.041 504.275 275.047 503.111 279.803C490.283 297.406 474.984 313.909 474.984 313.909L520.868 292.875C523.525 283.083 525.235 273.367 525.235 273.367Z" fill="#041E42"/>
<path d="M479.998 158.859C337.852 158.859 243.516 204.907 235.93 208.729C240.432 297.439 277.177 457.658 428.696 562.294C448.972 551.439 462.487 533.181 470.521 518.954C486.496 538.268 488.148 565.219 488.149 565.234C486.984 578.435 479.998 593.111 479.998 593.111H479.999C493.195 586.264 506.068 578.811 518.577 570.777C538.83 557.753 557.157 543.756 573.734 529.057L573.735 529.059C574.211 528.637 574.685 528.213 575.161 527.789C628.596 472.505 630.124 389.651 630.124 389.651C618.477 341.317 598.017 324.539 598.017 324.539C602.093 346.651 604.616 370.916 604.616 370.916C591.611 399.643 568.318 418.861 568.318 418.861C547.354 421.191 530.734 419.101 501.641 409.252C476.405 400.71 457.675 387.415 457.675 387.415C457.675 387.415 448.067 386.832 437.002 387.997C427.638 388.982 416.329 391.491 416.329 391.491C428.849 369.362 436.275 346.88 437.627 336.654C429.105 327.637 419.889 319.058 410.467 312.278C389.733 313.244 373.237 314.444 373.237 314.444L380.225 286.105C380.225 286.105 375.456 290.076 370.127 295.406C364.406 301.127 358.096 308.234 358.096 308.234C345.671 313.279 328.201 315.997 328.201 315.997C319.273 313.669 310.731 307.845 310.731 307.845C331.696 276.788 365.86 264.363 365.86 264.363C359.647 256.989 360.036 251.165 360.036 251.165C368.746 245.407 376.703 240.665 383.735 236.786C382.013 241.338 381.775 244.55 381.775 244.55C381.775 244.55 393.73 234.91 401.009 230.542C406.3 227.386 411.667 224.359 417.105 221.466C422.378 204.476 431.418 190.699 433.748 188.742C433.748 188.742 438.511 187.98 440.981 188.274C441.444 193.832 447.791 202.69 450.372 206.086C437.186 210.393 425.766 218.974 425.766 218.974C425.766 218.974 454.738 211.245 480.383 210.386C515.128 209.221 536.541 217.057 536.541 217.057C531.321 224.592 524.254 232.531 524.254 232.531C581.728 213.048 587.729 198.157 618.883 191.461C630.239 193.304 640.525 196.992 640.525 196.992C647.902 204.756 649.649 212.715 649.649 212.715C645.379 245.908 631.985 283.194 631.985 283.194C621.503 296.004 603.451 307.651 603.451 307.651C621.503 305.323 648.291 297.153 648.291 297.153C664.945 309.307 686.811 335.724 695.883 347.097C714.77 294.712 722.198 245.559 724.069 208.729C716.484 204.907 622.149 158.859 479.999 158.859H479.998Z" fill="#041E42"/>
<path d="M320.437 381.996C320.437 381.996 328.002 370.03 333.76 364.538L325.675 341.798C322.64 338.959 319.966 336.141 317.525 332.966C315.468 330.283 313.537 327.505 311.739 324.641L303.742 345.502C303.742 345.502 311.119 366.077 320.437 381.996ZM331.307 394.014C331.307 394.014 335.966 410.127 349.942 421.191C349.942 421.191 370.906 412.456 401.187 409.558C401.187 409.558 362.364 393.642 337.131 375.783C337.131 375.783 331.696 382.757 331.307 394.014ZM444.086 285.117C444.086 285.117 430.689 287.717 414.054 287.797C406.492 287.832 398.263 287.349 390.316 285.863L407.398 293.853C419.728 294.435 434.186 294.242 449.035 290.748C456.121 284.148 467.185 272.113 473.009 262.02C473.009 262.02 473.202 259.302 473.006 255.807C472.731 256.122 471.754 257.296 470.2 259.083C468.749 260.752 467.277 262.404 465.785 264.037C460.505 269.821 452.791 277.779 444.085 285.117H444.086ZM394.975 386.654C394.975 386.654 396.37 384.458 398.257 380.8C390.857 373.936 382.746 368.893 382.746 368.893C391.69 368.644 399.34 369.963 402.825 370.693C403.385 369.263 403.931 367.761 404.46 366.205C395.652 359.178 385.01 354.191 385.01 354.191C394.767 352.761 404.32 353.473 407.679 353.806C407.919 352.434 408.109 351.044 408.266 349.644C397.753 342.454 382.455 338.224 382.455 338.224C389.338 335.987 395.692 334.974 399.755 334.517L392.061 325.493C392.061 325.493 383.424 325.105 374.106 325.833C362.092 326.64 351.074 328.212 351.074 328.212C349.243 329.588 346.457 331.802 344.407 333.404C340.675 336.746 339.332 338.587 336.935 341.606L337.31 363.788C344.452 367.118 372.466 379.934 394.975 386.654ZM513.77 450.307C513.77 450.307 517.847 459.915 520.467 473.6C522.712 485.328 521.632 492.526 521.632 492.526C484.362 449.822 430.304 423.536 430.304 423.536C430.304 423.536 505.23 485.262 488.148 565.234C486.983 578.435 479.997 593.111 479.997 593.111C493.193 586.264 506.067 578.811 518.576 570.777C538.829 557.753 557.156 543.756 573.733 529.057C552.718 481.952 513.77 450.307 513.77 450.307ZM417.796 262.07C438.204 252.881 453.088 248.824 462.207 247.032C463.94 246.689 465.682 246.392 467.43 246.142C468.084 246.049 468.74 245.966 469.396 245.891C471.729 245.624 472.907 245.617 472.907 245.617H472.911C445.819 240.837 413.706 253.667 413.706 253.667L416.044 258.47L417.796 262.07Z" fill="white"/>
<path d="M428.171 275.235C424.189 276.855 418.801 274.733 416.911 272.695C415.455 275.169 413.805 277.953 413.805 277.953C413.805 277.953 425.065 283.194 438.264 276.788C446.388 272.845 448.359 265.724 448.359 265.724C443.389 266.106 438.522 266.73 434.148 267.564C433.63 269.518 432.102 273.632 428.17 275.234L428.171 275.235ZM235.421 188.907C308.648 155.587 399.391 140.41 480.001 140.41C560.343 140.41 651.208 155.54 724.58 188.921V91.7472C724.58 91.7472 628.301 41.6152 480 41.6152C331.699 41.6152 235.42 91.7472 235.42 91.7472L235.421 188.907Z" fill="#C8102E"/>
<path d="M366.875 120.352C359.909 121.651 352.966 123.069 346.048 124.605V73.9488C341.795 74.8948 337.548 75.8878 333.309 76.9218V140.382C344.429 137.663 355.622 135.253 366.875 133.156V120.352ZM480.46 97.3768C481.485 97.3768 482.507 97.3798 483.532 97.3868C486.97 105.85 490.406 114.342 493.844 122.86C498.445 122.965 503.044 123.12 507.644 123.324C504.21 114.729 500.771 106.159 497.336 97.6198C498.756 97.6598 500.177 97.7038 501.598 97.7548C503.609 94.1772 505.624 90.6019 507.643 87.0288V70.8168C505.637 67.0847 503.625 63.3553 501.608 59.6288C490.231 59.2302 478.844 59.1462 467.462 59.3768C467.462 80.5298 467.462 101.682 467.46 122.833C471.793 122.745 476.126 122.703 480.46 122.707V97.3768ZM480.46 72.0508C485.19 72.0558 489.922 72.1138 494.653 72.2248V84.7498C489.923 84.6375 485.192 84.5791 480.46 84.5748V72.0508ZM283.278 129.555C288.111 127.93 292.964 126.366 297.836 124.862V112.057C292.964 113.561 288.111 115.125 283.278 116.75V104.226C290.04 101.954 296.84 99.798 303.676 97.7598V84.9578C292.629 88.2494 281.676 91.8495 270.83 95.7538C270.83 116.907 270.83 138.06 270.828 159.213C274.962 157.723 279.112 156.279 283.278 154.88V129.555ZM663.049 125.138C667.623 126.558 672.179 128.03 676.719 129.555V154.88C680.879 156.28 685.031 157.724 689.167 159.213V106.718C687.245 102.377 685.318 98.0391 683.384 93.7038C674.433 90.5817 665.411 87.6663 656.326 84.9598C654.376 88.0298 652.422 91.1098 650.468 94.1998V146.704C654.675 147.912 658.869 149.164 663.049 150.46V125.138ZM663.049 99.8118C667.623 101.231 672.18 102.704 676.719 104.231V116.753C672.175 115.227 667.619 113.753 663.049 112.337V99.8118ZM431.009 124.652C433.016 120.845 435.027 117.042 437.044 113.241V71.7088C435.036 68.2028 433.024 64.6988 431.008 61.1968C421.66 61.9388 412.331 62.8968 403.027 64.0668C401.02 67.9768 399.018 71.8888 397.021 75.8038V117.352C399.021 120.732 401.023 124.122 403.027 127.522C412.331 126.353 421.661 125.396 431.008 124.652H431.009ZM409.942 76.0428C414.65 75.5058 419.362 75.0228 424.079 74.5928V112.437C419.361 112.865 414.649 113.347 409.942 113.886V76.0428ZM550.973 63.3398C546.663 62.8408 542.348 62.3878 538.029 61.9788V125.439C542.348 125.847 546.662 126.299 550.973 126.797V63.3398ZM620.776 128.004V86.4718C618.804 82.3624 616.827 78.2557 614.844 74.1518C603.688 71.656 592.466 69.4695 581.189 67.5948V131.053C592.466 132.926 603.689 135.112 614.844 137.608C616.824 134.398 618.801 131.196 620.776 128.004ZM608.016 123.314C603.366 122.327 598.705 121.396 594.033 120.52V82.6748C598.701 83.5528 603.363 84.4848 608.016 85.4698V123.314Z" fill="white"/>
</svg>
