<svg width="960" height="640" viewBox="0 0 960 640" fill="none" xmlns="http://www.w3.org/2000/svg">
<path d="M211.346 0.0170898V445.823L480.358 639.983L748.654 445.823V0.0180898L211.346 0.0170898Z" fill="black"/>
<path d="M224.645 13.3159V439.026L480.354 623.574L735.354 439.026V13.3159H224.645Z" fill="#A2AAAD"/>
<path d="M480.357 608.191L722.887 432.652V25.7832H237.111V432.654L450.693 586.785L480.357 608.191ZM252.625 40.0402H708.128V308.85H252.625V40.0402ZM252.625 322.905H708.128V423.2L480.376 587.816L480.374 587.818L388.414 521.348L252.624 423.199V322.903L252.625 322.905Z" fill="white"/>
<path d="M266.969 54.4342H266.971V54.4302H693.768V287.688H693.765V287.691H266.97V54.4342H266.969Z" fill="#A2AAAD"/>
<path d="M266.978 347.878H266.974V415.838L480.371 570.063L480.373 570.061L693.781 415.84V347.88L266.978 347.878ZM693.769 287.688V54.4302H266.971V287.688H693.769Z" fill="black"/>
<path d="M480.357 608.191L722.887 432.652V25.7832H237.111V432.654L450.693 586.785L480.357 608.191ZM252.625 40.0402H708.128V308.85H252.625V40.0402ZM252.625 322.905H708.128V423.2L480.376 587.816L480.374 587.818L388.414 521.348L252.624 423.199V322.903L252.625 322.905Z" fill="white"/>
<path d="M661.826 547.436C661.83 546.359 661.513 545.305 660.916 544.409C660.319 543.513 659.468 542.815 658.472 542.404C657.811 542.132 657.102 541.993 656.387 541.996H648.66V560.33H652.107V552.875H654.575L657.999 560.33H661.828L658.224 552.557C659.278 552.178 660.19 551.482 660.834 550.566C661.479 549.649 661.825 548.557 661.826 547.436ZM656.388 549.431H652.107V545.442H656.387C657.499 545.442 658.404 546.336 658.404 547.436C658.403 547.7 658.35 547.96 658.248 548.203C658.147 548.446 657.998 548.667 657.81 548.852C657.623 549.038 657.401 549.184 657.157 549.283C656.913 549.383 656.652 549.433 656.388 549.431Z" fill="black"/>
<path d="M655.233 535.121C646.397 535.121 639.213 542.303 639.213 551.164C639.213 559.989 646.397 567.184 655.233 567.184C664.094 567.184 671.276 559.989 671.276 551.164C671.276 542.303 664.094 535.121 655.233 535.121ZM655.233 563.739C648.3 563.739 642.657 558.109 642.657 551.164C642.657 544.208 648.3 538.588 655.233 538.588C662.213 538.588 667.833 544.208 667.833 551.164C667.833 558.109 662.213 563.739 655.233 563.739ZM693.769 287.688V54.4302H266.971V287.688H693.769ZM266.978 347.878H266.974V415.838L480.371 570.063L480.373 570.061L693.781 415.84V347.88L266.978 347.878Z" fill="black"/>
<path d="M645.201 116.712H518.881V166H645.201V116.712ZM641.5 162.308H522.581V120.393H641.498V162.308H641.5Z" fill="#A2AAAD"/>
<path d="M401.581 221.727H319.267V171.058C319.267 117.813 330.479 95.5772 332.574 91.8872C332.787 91.5112 332.904 91.3302 332.909 91.3232H279.789C279.842 91.4032 293.439 112.435 293.439 171.055C293.439 229.787 279.787 250.781 279.787 250.781H453.385L453.395 250.766C453.513 250.606 467.851 230.953 467.851 201.082C467.676 201.264 447.856 221.727 401.58 221.727H401.581ZM667.298 171.055C667.298 164.46 667.478 158.366 667.784 152.698C670.204 107.898 680.971 91.3232 680.971 91.3232H483.081C483.133 91.4032 496.771 112.435 496.771 171.055C496.771 215.109 489.068 237.931 485.217 246.585C483.942 249.453 483.091 250.765 483.081 250.78H522.571V191.388H641.499V250.78H680.969C680.929 250.718 668.586 231.645 667.399 179.228C667.339 176.581 667.298 173.875 667.298 171.055ZM641.498 162.308H522.579V120.393H641.496V162.308H641.498Z" fill="#A2AAAD"/>
<path d="M437.457 220.812C427.85 223.5 415.962 225.408 401.553 225.408H315.569V171.055C315.569 151.287 317.102 135.764 319.157 123.76C320.791 114.211 322.75 106.896 324.548 101.536C325.278 99.3378 326.093 97.1692 326.992 95.0348H285.699C286.6 97.1688 287.416 99.3374 288.146 101.536C289.946 106.896 291.905 114.211 293.538 123.76C295.591 135.764 297.122 151.286 297.122 171.055V171.058C297.122 190.602 295.626 206.002 293.608 217.949C291.841 228.415 289.679 236.199 287.75 241.723C287.126 243.53 286.442 245.317 285.699 247.079H451.397C452.626 245.145 454.897 241.196 457.18 235.63C459.387 230.237 461.08 224.648 462.237 218.937C462.908 215.648 463.399 212.325 463.707 208.983C461.758 210.306 459.748 211.537 457.682 212.67C452.596 215.476 445.92 218.446 437.457 220.812ZM664.581 196.964C663.972 189.259 663.595 180.685 663.595 171.062C663.595 162.972 663.851 155.587 664.295 148.862C665.726 127.088 669.118 112.263 672.161 102.832C673.188 99.6418 674.176 97.0368 675.029 95.0308H489.03C490.72 98.9838 492.914 105.176 494.93 113.951C497.896 126.851 500.474 145.389 500.474 171.062C500.474 196.96 497.85 215.601 494.849 228.512C492.856 237.103 490.699 243.182 489.03 247.079H518.879V187.673H518.881V187.666H645.202V247.079H675.027C674.159 245.039 673.153 242.376 672.107 239.11C669.257 230.23 666.129 216.576 664.581 196.964ZM645.201 166H518.878V116.712H645.2L645.201 166ZM557.085 403.942C557.063 403.972 544.155 421.202 541.754 424.417L541.751 424.414L541.745 424.422C539.593 421.784 536.608 418.892 532.948 416.078C526.835 411.402 519.984 407.78 512.677 405.362L512.678 405.357C513.428 403.541 516.042 397.171 517.575 393.434L518.717 390.644L515.607 391.906C513.014 392.963 510.422 394.022 507.831 395.083L507.836 395.072L507.821 395.078C508.147 394.395 508.491 393.758 508.499 393.743L502.331 394.06C499.206 394.225 495.882 394.403 494.974 394.46C494.843 394.222 494.594 393.779 494.277 393.214C493.246 391.382 491.404 388.122 489.79 385.261C488.376 382.759 487.14 380.573 486.797 379.961C487.076 379.469 487.585 378.578 488.129 377.632C489.046 376.023 490.061 374.249 490.229 373.996C490.413 373.813 491.171 373.159 491.925 372.516C492.773 371.783 493.612 371.063 493.612 371.063L489.735 363.701L485.867 363.967L481.487 364.273L481.45 365.29C481.41 366.482 481.345 368.356 481.331 368.84L480.75 369.784L480.383 370.403L480.376 370.391L480.372 370.397L479.854 369.547L479.414 368.835C479.394 368.115 479.25 364.297 479.249 364.272L475.658 364.021L470.996 363.701L469.27 366.974L467.123 371.062C467.123 371.062 470.103 373.61 470.526 373.991C470.784 374.404 473.196 378.631 473.97 379.961C473.103 381.487 466.72 392.778 465.793 394.459C464.785 394.398 460.957 394.195 457.622 394.019C454.75 393.87 452.243 393.742 452.243 393.742C452.462 394.192 452.689 394.639 452.924 395.082C452.149 394.764 451.124 394.344 450.016 393.892C446.503 392.462 442.151 390.694 442.04 390.648C442.063 390.708 443.338 393.831 444.732 397.239C446.082 400.53 447.539 404.076 448.068 405.357L448.066 405.358L448.067 405.362C436.147 409.302 426.978 415.906 421.298 421.829C421.268 421.859 421.231 421.892 421.202 421.923C421.129 421.999 421.074 422.071 421.002 422.148C420.305 422.882 419.635 423.64 418.991 424.422L418.437 423.68C415.057 419.166 403.667 403.94 403.667 403.94L400.389 405.362L416.206 496.131C416.206 496.131 438.746 501.894 480.372 501.894C521.988 501.894 544.528 496.131 544.528 496.131L560.355 405.362L558.38 404.502L557.085 403.942Z" fill="white"/>
<path d="M452.887 436.757C450.123 436.757 447.855 439.005 447.855 441.769V441.771C447.856 444.533 450.124 446.811 452.887 446.811C455.681 446.811 457.917 444.533 457.918 441.771V441.769C457.918 441.109 457.788 440.456 457.535 439.846C457.283 439.237 456.912 438.683 456.444 438.217C455.977 437.752 455.422 437.383 454.811 437.132C454.201 436.882 453.547 436.754 452.887 436.757ZM506.821 436.757C504.058 436.757 501.789 439.005 501.789 441.769V441.771C501.791 444.533 504.059 446.811 506.821 446.811C509.604 446.811 511.862 444.533 511.863 441.771V441.769C511.863 439.005 509.605 436.757 506.821 436.757Z" fill="black"/>
<path d="M541.658 430.326V430.327L541.628 430.284C540.84 429.007 539.976 427.778 539.04 426.604C538.085 425.408 537.067 424.265 535.989 423.179L535.906 423.096C534.798 421.987 533.637 420.932 532.427 419.936L532.257 419.796C531.023 418.79 529.745 417.838 528.428 416.943C528.328 416.874 528.227 416.807 528.125 416.738C526.647 415.747 525.126 414.82 523.568 413.96C521.956 413.07 520.31 412.244 518.632 411.485C516.898 410.7 515.135 409.979 513.347 409.326C511.671 408.713 509.976 408.153 508.264 407.649C508.179 407.624 508.097 407.596 508.012 407.571L508.014 407.567L510.678 401.077L512.268 397.204L512.27 397.198L490.441 406.993V401.621L480.378 384.268L480.374 384.275L470.284 401.621V406.993L470.277 406.99L448.465 397.198L450.485 402.105L452.734 407.571C441.158 410.942 431.496 416.372 424.774 423.139C422.533 425.395 420.618 427.799 419.069 430.326L404.977 411.444L404.973 411.437L409.823 439.646L418.893 492.39C418.893 492.39 436.879 496.88 467.208 497.73L467.252 497.731C467.252 497.731 446.636 495.805 434.385 491.127L434.37 491.121C435.776 491.32 437.183 491.51 438.592 491.693C442.664 492.224 447.45 492.77 452.522 493.198C457.772 493.641 463.294 493.955 468.612 493.956L468.654 493.957C468.654 493.957 460.131 493.063 451.211 491.021C447.635 490.202 443.996 489.204 440.814 487.997L440.851 488.002C443.671 488.382 446.908 488.778 450.355 489.138C457.16 489.85 464.836 490.418 472.11 490.42H472.14C472.14 490.42 455.83 488.73 444.705 484.658L444.702 484.657C447.8 484.002 450.914 483.431 454.042 482.944C461.945 481.704 470.824 480.852 480.378 480.852C488.115 480.852 495.418 481.419 502.124 482.292C507.117 482.941 511.789 483.755 516.014 484.657L516.005 484.66C504.91 488.73 488.617 490.42 488.617 490.42H488.644C496.002 490.419 503.774 489.835 510.64 489.111C513.742 488.785 516.839 488.414 519.931 487.998C516.671 489.232 512.934 490.248 509.277 491.078C500.443 493.08 492.081 493.958 492.081 493.958L492.109 493.957C497.458 493.956 503.015 493.637 508.298 493.19C513.567 492.744 518.548 492.17 522.715 491.62C524.011 491.45 525.242 491.281 526.365 491.122L526.352 491.127C514.111 495.805 493.483 497.732 493.483 497.732L493.54 497.73C523.871 496.88 541.832 492.39 541.832 492.39L555.771 411.449L555.773 411.438L541.658 430.326ZM490.452 445.509V408.963L496.766 406.128L508.868 400.694L508.865 400.701L496.585 430.594L490.452 445.526V445.509ZM506.536 411.143L506.538 411.139C516.84 414.152 525.618 418.891 531.918 424.685C534.928 427.455 537.38 430.462 539.148 433.642L539.15 433.646L535.617 438.367L535.305 438.782C532.994 434.236 529.776 430.212 525.85 426.957C525.309 426.507 524.755 426.072 524.19 425.653C523.806 425.369 523.423 425.109 523.04 424.846C522.868 424.728 522.695 424.598 522.524 424.484C522.157 424.241 521.794 424.021 521.429 423.796C521.242 423.681 521.053 423.554 520.866 423.444C520.508 423.231 520.156 423.039 519.802 422.844C519.615 422.74 519.425 422.627 519.239 422.528C518.885 422.339 518.539 422.17 518.191 421.998C518.013 421.909 517.831 421.812 517.654 421.728C517.307 421.562 516.97 421.414 516.632 421.264C516.464 421.19 516.292 421.108 516.128 421.037C515.77 420.884 515.425 420.747 515.081 420.611C514.949 420.559 514.811 420.5 514.681 420.45C514.311 420.308 513.956 420.18 513.605 420.058C513.512 420.025 513.413 419.987 513.321 419.955C512.95 419.828 512.577 419.707 512.202 419.591C512.16 419.577 512.113 419.561 512.071 419.549C509.257 418.685 507.379 418.456 507.271 418.443L507.239 418.439C511.803 420.126 515.586 422.103 518.746 424.269C524.451 428.179 528.062 432.724 530.218 437.409C531.046 439.204 531.693 441.076 532.15 442.999L528.562 447.826C528.562 447.831 529.025 460.716 526.448 466.148C525.902 465.945 525.354 465.747 524.804 465.556C524.431 465.426 524.057 465.295 523.644 465.159V465.156C526.514 453.321 525.195 444.813 522.228 438.741C521.884 438.039 521.51 437.352 521.107 436.682C520.827 436.219 520.528 435.792 520.231 435.361C520.109 435.184 519.996 434.991 519.872 434.82C519.562 434.393 519.238 434 518.914 433.606C518.791 433.456 518.674 433.29 518.548 433.144C518.221 432.763 517.884 432.414 517.548 432.064C517.418 431.928 517.293 431.779 517.162 431.648C516.812 431.298 516.457 430.979 516.102 430.661C515.982 430.551 515.862 430.429 515.74 430.323C515.369 430.005 514.989 429.697 514.602 429.399C514.504 429.323 514.406 429.236 514.308 429.162C513.919 428.87 513.523 428.587 513.119 428.315C513.043 428.263 512.966 428.203 512.89 428.152C512.494 427.89 512.092 427.637 511.684 427.394C511.627 427.36 511.568 427.319 511.511 427.286C511.096 427.04 510.674 426.805 510.246 426.581L510.203 426.557C507.228 424.997 504.982 424.46 504.91 424.442L504.898 424.44C524.042 434.306 522.263 451.922 518.367 463.532L518.365 463.539C517.449 463.296 516.465 463.039 515.441 462.779C514.664 462.58 513.886 462.39 513.106 462.209L511.075 452.171L510.445 449.063C511.764 448.701 512.928 447.916 513.757 446.828C514.587 445.739 515.035 444.409 515.034 443.041C515.034 440.814 513.848 438.876 512.095 437.751C511.83 437.422 511.535 437.118 511.214 436.844C510.007 435.763 508.446 435.161 506.826 435.153C503.166 435.153 500.186 438.123 500.186 441.773C500.186 443.744 501.079 445.486 502.456 446.689C502.773 446.965 503.089 447.243 503.455 447.454L496.773 459.632C495.719 459.522 494.632 459.44 493.551 459.352C492.372 459.254 491.192 459.171 490.011 459.102C488.977 459.042 487.947 458.972 486.905 458.931L506.535 411.143H506.536ZM506.826 447.454C503.712 447.454 501.155 444.897 501.155 441.774C501.155 438.659 503.712 436.112 506.826 436.112C509.096 436.112 511.058 437.482 511.953 439.432C512.282 440.149 512.477 440.937 512.477 441.773C512.477 442.581 512.3 443.348 511.994 444.045C511.116 446.045 509.127 447.454 506.826 447.454ZM480.366 397.451L480.378 397.435L488.617 408.19L480.378 417.954L480.366 417.94L472.14 408.19L480.366 397.451ZM451.87 400.699L451.868 400.694L468.442 408.136L470.284 408.963V445.526L468.944 442.263L451.87 400.7V400.699ZM421.585 433.647C423.513 430.175 426.259 426.911 429.657 423.937C435.886 418.485 444.337 414.021 454.198 411.139L454.201 411.147L473.831 458.931C472.543 458.982 471.269 459.062 469.998 459.143C467.952 459.273 465.924 459.428 463.953 459.632L463.837 459.42L457.861 448.53L457.859 448.527C458.84 447.987 459.658 447.192 460.225 446.227C460.793 445.261 461.091 444.161 461.086 443.041C461.086 441.927 460.796 440.885 460.286 439.981C460.276 439.963 460.259 439.949 460.249 439.931C459.738 439.047 459.021 438.299 458.158 437.751C457.54 436.941 456.742 436.285 455.828 435.834C454.914 435.383 453.907 435.15 452.888 435.153C451.188 435.153 449.65 435.816 448.476 436.875C447.131 438.087 446.269 439.825 446.269 441.773C446.269 442.827 446.518 443.825 446.959 444.711C447.698 446.196 448.963 447.354 450.507 447.96L447.609 462.21C447.483 462.24 447.372 462.27 447.248 462.299C445.488 462.715 443.863 463.145 442.361 463.539L442.36 463.536C442.169 462.96 441.987 462.38 441.815 461.798C439.707 454.788 438.602 446.012 442.117 438.086C444.404 432.931 448.643 428.14 455.827 424.44L455.813 424.444C455.744 424.46 454.434 424.776 452.51 425.611L452.486 425.622C452.112 425.785 451.716 425.967 451.299 426.17C451.241 426.199 451.177 426.235 451.117 426.264C450.729 426.456 450.344 426.657 449.964 426.866C449.873 426.916 449.776 426.978 449.684 427.03C449.308 427.244 448.928 427.463 448.537 427.71C448.425 427.78 448.31 427.864 448.197 427.936C447.808 428.186 447.425 428.444 447.047 428.711C446.929 428.796 446.809 428.897 446.69 428.985C446.305 429.271 445.918 429.56 445.53 429.88C445.408 429.981 445.287 430.098 445.166 430.203C444.781 430.532 444.396 430.863 444.016 431.227C443.896 431.342 443.779 431.475 443.66 431.593C443.281 431.97 442.902 432.348 442.533 432.763C442.417 432.893 442.307 433.043 442.193 433.176C441.828 433.603 441.463 434.03 441.113 434.496C441.006 434.64 440.909 434.804 440.803 434.951C440.457 435.432 440.113 435.916 439.789 436.439C439.679 436.616 439.584 436.816 439.478 436.997C439.173 437.518 438.866 438.039 438.587 438.602C438.2 439.382 437.85 440.179 437.54 440.992C435.292 446.868 434.55 454.712 437.081 465.158C436.144 465.472 435.213 465.802 434.287 466.148C433.457 464.391 432.946 461.852 432.63 459.222C431.97 453.724 432.174 447.826 432.174 447.826L430 444.903L428.585 443C428.595 442.962 428.607 442.924 428.615 442.886C430.512 434.977 435.77 426.902 447.485 421.036C449.436 420.061 451.44 419.194 453.487 418.44L453.467 418.442C453.39 418.451 450.841 418.749 447.181 420.022C447.131 420.039 447.074 420.064 447.023 420.082C445.722 420.538 444.445 421.06 443.198 421.647C443.117 421.685 443.042 421.714 442.96 421.753C442.934 421.765 442.906 421.782 442.879 421.795C437.049 424.602 430.079 429.679 425.43 438.783L421.967 434.16L421.584 433.648L421.585 433.647ZM456.554 446.072C455.564 446.921 454.294 447.454 452.889 447.454C449.785 447.454 447.249 444.897 447.249 441.774C447.249 438.659 449.785 436.112 452.889 436.112C453.703 436.115 454.506 436.294 455.243 436.638C457.197 437.535 458.56 439.496 458.56 441.773C458.56 443.496 457.772 445.028 456.554 446.072ZM414.924 458.642L414.099 453.816C414.167 453.787 414.252 453.798 414.326 453.784C414.46 453.759 414.589 453.725 414.74 453.724H414.748C415.436 453.724 416.032 454.051 416.453 454.551C416.82 454.987 417.058 455.553 417.058 456.187C417.058 457.494 416.133 458.523 414.93 458.64L414.923 458.642H414.924ZM415.717 463.209L415.563 462.302C417.027 462.067 418.302 461.229 419.189 460.039C420.017 458.926 420.463 457.575 420.46 456.187C420.46 454.69 419.95 453.337 419.136 452.268C418.088 450.894 416.523 450.001 414.748 450.001H414.743C414.313 449.998 413.885 450.054 413.47 450.166L413.294 449.259C413.769 449.15 414.254 449.091 414.742 449.084H414.748C418.408 449.084 421.378 452.249 421.378 456.187C421.378 459.745 418.914 462.704 415.718 463.21L415.717 463.209ZM546.037 457.263L545.802 458.642H545.799C544.605 458.526 543.668 457.496 543.668 456.187C543.668 455.257 544.174 454.475 544.888 454.057C545.218 453.863 545.577 453.724 545.978 453.724L545.988 453.725C546.221 453.725 546.434 453.735 546.628 453.816L546.038 457.263H546.037ZM547.42 449.263L547.267 450.161V450.166C546.847 450.053 546.413 449.997 545.977 450.001C545.192 450.001 544.444 450.173 543.763 450.483C541.708 451.418 540.265 453.616 540.265 456.187C540.265 459.301 542.41 461.859 545.163 462.302L545.103 462.74L545.039 463.21L545.019 463.205C544.232 463.079 543.475 462.806 542.789 462.4C540.738 461.188 539.358 458.856 539.358 456.188V456.186C539.358 452.249 542.318 449.084 545.978 449.084C546.175 449.084 546.345 449.132 546.531 449.151C546.829 449.181 547.135 449.196 547.421 449.259L547.42 449.263ZM552.687 418.581L547.587 448.356L547.586 448.362C547.425 448.326 547.259 448.3 547.094 448.271C546.733 448.201 546.366 448.162 545.998 448.155C541.832 448.155 538.44 451.754 538.44 456.188C538.438 458.197 539.175 460.137 540.511 461.637C541.347 462.577 542.379 463.322 543.551 463.756C543.971 463.912 544.408 464.029 544.857 464.105L544.864 464.107L541.862 481.515L540.421 489.868L540.42 489.874C538.582 489.169 535.577 488.086 531.65 486.874C525.773 485.072 519.807 483.574 513.775 482.387C504.215 480.495 492.82 479.027 480.378 479.027C458.097 479.027 439.143 483.707 428.198 487.147C425.537 487.977 422.902 488.887 420.296 489.875L417.028 470.883L415.862 464.107C418.186 463.716 420.162 462.203 421.288 460.116C421.941 458.91 422.284 457.56 422.285 456.188C422.285 453.988 421.448 451.998 420.101 450.548C418.732 449.073 416.837 448.156 414.748 448.156C414.366 448.162 413.986 448.203 413.611 448.279C413.463 448.306 413.311 448.329 413.171 448.362L413.169 448.356L408.016 418.566L408.015 418.563L430.349 448.383C430.181 453.326 430.495 457.232 430.971 460.254C431.871 465.956 433.359 468.458 433.359 468.458C433.359 468.458 436.628 467.142 441.234 465.758C443.844 464.967 446.487 464.292 449.156 463.736L451.241 453.485L452.208 448.733C452.454 448.839 452.718 448.905 452.975 448.983C453.571 449.167 454.189 449.3 454.858 449.3C455.288 449.303 455.717 449.258 456.137 449.166L456.14 449.172L458.362 453.216L462.938 461.543L462.942 461.55C462.942 461.55 465.518 461.303 468.626 461.07C471.413 460.861 474.626 460.663 476.81 460.663L472.665 447.826L475.48 440.589L480.366 428.029L480.378 427.998L487.431 446.228L488.049 447.826L483.904 460.663H483.91C486.31 460.663 489.924 460.899 492.867 461.127C495.631 461.342 497.804 461.55 497.804 461.55L497.807 461.545L505.125 448.155C505.13 448.155 505.128 448.162 505.133 448.164C505.173 448.176 505.197 448.228 505.197 448.228C505.704 448.556 506.252 448.815 506.827 449C507.414 449.188 508.025 449.289 508.641 449.3L511.579 463.736C514.037 464.248 516.472 464.862 518.879 465.576L518.909 465.584L518.947 465.596C523.834 467.037 527.355 468.458 527.355 468.458L527.358 468.453C527.388 468.403 530.072 463.889 530.403 453.13C530.448 451.662 530.453 450.087 530.397 448.383L541.06 434.12L552.69 418.563L552.687 418.581Z" fill="black"/>
<path d="M469.507 400.991L469.941 400.244L480.354 382.277L480.364 382.294L484.338 389.117L491.253 400.991H499.873L500.936 398.95H492.346L481.52 380.256L486.86 371.172L488.119 369.873L488.115 369.868L488.021 369.728L487.232 368.563H487.223L485.97 368.656L485.263 368.708L485.262 368.712L485.186 369.093L484.943 370.306L480.362 378.253L480.354 378.266L478.123 374.368L475.797 370.306L475.467 368.708L474.677 368.649L473.51 368.563H473.508L473.263 368.921L472.613 369.871L472.611 369.873L472.795 370.057L473.91 371.172L476.17 375.046L479.21 380.256L468.377 398.944L468.373 398.95H459.805L460.835 400.991H469.507ZM467.525 467.92C467.445 467.87 467.376 467.802 467.291 467.76L467.293 467.763C467.389 467.89 467.443 468.038 467.521 468.174C467.808 468.665 468.013 469.197 468.013 469.801C468.015 470.46 467.82 471.104 467.454 471.653C467.089 472.201 466.568 472.628 465.959 472.88C465.555 473.047 465.121 473.132 464.683 473.131H464.631L464.639 473.134C464.756 473.192 464.881 473.231 465.003 473.278C465.177 473.342 465.357 473.39 465.539 473.421C465.685 473.447 465.827 473.482 465.982 473.482C467.632 473.482 468.962 472.121 468.962 470.44C468.962 469.385 468.378 468.454 467.525 467.92ZM441.61 472.332L441.6 472.325C441.821 472.592 441.995 472.903 442.118 473.242C442.139 473.299 442.139 473.364 442.158 473.422C442.249 473.728 442.321 474.046 442.321 474.387C442.321 475.127 442.065 475.809 441.649 476.367C441.044 477.177 440.089 477.717 439.001 477.717H438.949C439.175 477.831 439.414 477.915 439.661 477.969C439.86 478.015 440.062 478.048 440.269 478.048C441.07 478.047 441.839 477.729 442.405 477.162C442.972 476.596 443.29 475.827 443.29 475.026C443.29 473.855 442.603 472.849 441.61 472.332ZM496.778 467.76C496.903 467.924 496.98 468.113 497.077 468.292C497.325 468.752 497.507 469.241 497.509 469.794L497.51 469.801C497.512 470.348 497.378 470.887 497.121 471.37C496.863 471.853 496.49 472.264 496.035 472.568C495.483 472.937 494.834 473.133 494.17 473.131H494.118L494.126 473.134C494.25 473.197 494.386 473.241 494.518 473.29C494.678 473.35 494.843 473.39 495.013 473.42C495.157 473.447 495.299 473.482 495.448 473.482C495.831 473.482 496.192 473.394 496.529 473.263C497.101 473.045 497.594 472.658 497.942 472.154C498.29 471.65 498.477 471.052 498.479 470.44C498.479 469.285 497.768 468.255 496.778 467.76ZM522.536 472.341C522.527 472.337 522.521 472.329 522.512 472.325C522.651 472.488 522.733 472.694 522.835 472.885C523.074 473.335 523.245 473.83 523.245 474.387C523.245 476.202 521.76 477.717 519.925 477.717H519.873C520.043 477.809 520.235 477.879 520.433 477.934C520.676 478.004 520.931 478.047 521.193 478.047C522.269 478.047 523.175 477.444 523.711 476.589C524.001 476.126 524.214 475.609 524.214 475.026C524.215 474.458 524.05 473.902 523.74 473.426C523.44 472.966 523.025 472.592 522.536 472.341ZM482.806 444.765L482.81 444.771C482.852 444.822 482.872 444.892 482.911 444.947C483.28 445.458 483.528 446.077 483.528 446.756C483.528 448.62 482.067 450.106 480.261 450.141C480.635 450.321 481.044 450.426 481.466 450.426C481.875 450.426 482.279 450.344 482.655 450.184C482.72 450.156 482.765 450.1 482.828 450.068C483.811 449.57 484.508 448.586 484.508 447.426C484.507 446.867 484.346 446.319 484.044 445.848C483.743 445.377 483.313 445.001 482.806 444.765ZM480.198 450.148C480.219 450.148 480.24 450.142 480.261 450.141C480.224 450.123 480.183 450.116 480.146 450.097L480.198 450.147V450.148Z" fill="black"/>
<path d="M467.362 469.796C467.362 468.343 466.156 467.126 464.682 467.126C463.973 467.127 463.293 467.408 462.791 467.908C462.289 468.409 462.005 469.087 462.001 469.796C461.997 470.15 462.064 470.5 462.198 470.828C462.331 471.155 462.528 471.453 462.778 471.703C463.028 471.953 463.324 472.151 463.651 472.286C463.978 472.42 464.328 472.489 464.681 472.487C465.034 472.488 465.384 472.419 465.71 472.284C466.037 472.15 466.333 471.952 466.583 471.702C466.833 471.452 467.03 471.155 467.164 470.828C467.297 470.501 467.365 470.15 467.362 469.797V469.796ZM439.002 477.091C439.446 477.091 439.848 476.953 440.217 476.756C441.081 476.298 441.691 475.406 441.691 474.38C441.691 472.988 440.645 471.93 439.317 471.772C439.212 471.759 439.12 471.712 439.011 471.712L439 471.71C437.525 471.71 436.309 472.874 436.309 474.38C436.309 475.844 437.525 477.092 439 477.092H439.002V477.091ZM495.215 472.278C495.704 472.074 496.122 471.729 496.415 471.287C496.708 470.845 496.863 470.326 496.86 469.796C496.86 468.843 496.31 468.03 495.534 467.556C495.126 467.308 494.676 467.126 494.169 467.126C493.425 467.126 492.758 467.431 492.275 467.918C491.778 468.417 491.499 469.092 491.498 469.796C491.498 470.175 491.572 470.532 491.706 470.855C491.908 471.341 492.25 471.756 492.688 472.047C493.127 472.338 493.643 472.491 494.169 472.487C494.539 472.487 494.892 472.413 495.215 472.277V472.278ZM519.925 477.091C521.378 477.091 522.594 475.844 522.594 474.381C522.595 473.674 522.316 472.996 521.818 472.495C521.571 472.247 521.277 472.05 520.954 471.915C520.631 471.781 520.284 471.711 519.934 471.711L519.924 471.709C518.439 471.709 517.222 472.874 517.222 474.38C517.222 475.844 518.438 477.092 519.923 477.092H519.925V477.091ZM481.242 449.269C481.731 449.058 482.148 448.708 482.44 448.262C482.733 447.816 482.889 447.295 482.888 446.762C482.888 445.308 481.671 444.112 480.197 444.112C478.722 444.112 477.516 445.308 477.516 446.762C477.516 447.889 478.193 448.854 479.153 449.268C479.483 449.411 479.838 449.485 480.198 449.485C480.557 449.485 480.912 449.411 481.242 449.268V449.269ZM415.339 443.152L415.333 443.134L414.523 444.947L413.541 447.141L413.539 447.145L415.03 447.202L416.77 447.269H416.776L416.42 446.248L415.339 443.152ZM418.304 447.824L418.312 447.829L419.462 448.571L421.016 449.576L421.017 449.571L421.924 445.287L421.818 445.361L418.304 447.824ZM423.505 453.738L426.493 450.481L426.495 450.479L422.092 450.831L423.504 453.738H423.505ZM423.79 455.342L423.6 457.495L423.501 458.601L427.739 457.311L427.73 457.307L423.79 455.342ZM423.096 459.706L423.094 459.71L421.333 462.45L425.643 463.295L424.401 461.545L423.096 459.706ZM419.752 463.743L418.252 464.394L416.788 465.03L417.299 465.54L419.906 468.138L419.932 468.164L419.757 463.741L419.752 463.743ZM547.189 447.14L545.685 443.78L545.395 443.13V443.132L545.215 443.648L543.951 447.275L547.189 447.14ZM538.816 445.293L538.812 445.291L539.709 449.581L539.722 449.572L540.811 448.865L542.411 447.827L540.408 446.415L538.816 445.293ZM537.232 453.738L537.24 453.721L538.448 451.251L538.655 450.829L534.231 450.479L537.232 453.738ZM536.959 455.341L532.994 457.308L532.99 457.311L537.227 458.6L536.959 455.341ZM535.072 463.297L539.402 462.452L537.639 459.709L535.072 463.297ZM543.934 465.029L543.265 464.737L540.975 463.739V463.743L540.82 468.159V468.163L542.049 466.926L543.934 465.029ZM483.809 407.88C483.81 407.426 483.722 406.976 483.549 406.555C483.376 406.135 483.122 405.753 482.801 405.432C482.48 405.11 482.099 404.854 481.68 404.68C481.26 404.505 480.81 404.415 480.356 404.415H480.354C478.468 404.416 476.911 405.963 476.911 407.88C476.911 409.736 478.468 411.272 480.354 411.273H480.356C482.263 411.273 483.81 409.737 483.81 407.88H483.809ZM480.356 410.83C479.566 410.83 478.846 410.497 478.316 409.976C478.034 409.704 477.81 409.378 477.656 409.019C477.501 408.659 477.42 408.272 477.417 407.88C477.417 406.24 478.747 404.9 480.356 404.9C482.006 404.9 483.326 406.24 483.326 407.88C483.326 408.745 482.92 409.514 482.304 410.059C481.782 410.521 481.113 410.83 480.356 410.83ZM497.306 417.435C497.706 417.43 498.102 417.351 498.473 417.201C498.524 417.181 498.57 417.158 498.62 417.135C499.175 416.88 499.648 416.475 499.984 415.965C500.32 415.455 500.506 414.862 500.522 414.251C500.522 414.227 500.534 414.208 500.534 414.185C500.534 413.633 500.392 413.091 500.124 412.608C499.855 412.126 499.468 411.721 498.999 411.43C498.694 411.045 498.313 410.728 497.879 410.498C497.387 410.231 496.837 410.091 496.277 410.09C495.799 410.09 495.346 410.185 494.934 410.357C494.311 410.616 493.778 411.054 493.404 411.616C493.03 412.178 492.831 412.838 492.833 413.513C492.833 414.72 493.448 415.793 494.391 416.403C494.705 416.605 495.056 416.756 495.431 416.843C495.552 416.933 495.694 416.978 495.825 417.048C496.265 417.284 496.742 417.442 497.267 417.442C497.281 417.442 497.293 417.434 497.307 417.434L497.306 417.435ZM493.327 413.516V413.514C493.327 413.127 493.403 412.743 493.552 412.385C493.7 412.027 493.917 411.702 494.191 411.428C494.465 411.155 494.79 410.937 495.148 410.789C495.506 410.641 495.89 410.565 496.277 410.565C497.884 410.565 499.194 411.895 499.194 413.515C499.193 415.133 497.884 416.463 496.276 416.463C495.693 416.463 495.123 416.29 494.639 415.966C494.154 415.642 493.776 415.182 493.552 414.644C493.404 414.286 493.327 413.903 493.327 413.516ZM465.692 411.431C465.643 411.368 465.579 411.32 465.527 411.261C465.207 410.894 464.813 410.6 464.37 410.398C463.927 410.197 463.447 410.092 462.96 410.091C462.402 410.091 461.882 410.235 461.414 410.47C460.289 411.033 459.505 412.174 459.505 413.514C459.505 414.801 460.239 415.909 461.293 416.491C461.556 416.637 461.826 416.775 462.125 416.845L462.132 416.849C462.666 417.237 463.292 417.443 463.96 417.443C463.974 417.443 463.986 417.435 464.001 417.435C464.416 417.43 464.811 417.345 465.176 417.2C465.219 417.182 465.258 417.163 465.301 417.144C465.858 416.891 466.333 416.487 466.671 415.977C467.009 415.467 467.197 414.873 467.213 414.261C467.213 414.234 467.229 414.212 467.229 414.185C467.228 413.633 467.087 413.091 466.818 412.609C466.549 412.127 466.161 411.722 465.692 411.431ZM465.908 413.516C465.905 414.297 465.594 415.045 465.041 415.597C464.489 416.149 463.741 416.46 462.96 416.463C462.179 416.46 461.431 416.148 460.879 415.596C460.327 415.044 460.014 414.297 460.01 413.516V413.514C460.013 412.733 460.325 411.985 460.878 411.432C461.43 410.88 462.179 410.568 462.96 410.565C463.742 410.568 464.49 410.879 465.043 411.432C465.595 411.985 465.907 412.734 465.909 413.515L465.908 413.516Z" fill="black"/>
<path d="M480.351 405.251C478.918 405.251 477.753 406.426 477.753 407.88C477.755 408.567 478.03 409.224 478.516 409.709C478.758 409.948 479.044 410.138 479.359 410.266C479.674 410.395 480.011 410.46 480.351 410.458C481.805 410.458 482.971 409.314 482.971 407.88C482.973 407.184 482.698 406.515 482.207 406.021C481.964 405.777 481.674 405.583 481.356 405.451C481.037 405.319 480.696 405.251 480.351 405.251ZM496.277 410.92C494.833 410.92 493.637 412.064 493.637 413.518C493.637 414.972 494.833 416.137 496.277 416.137C496.97 416.135 497.634 415.858 498.124 415.367C498.613 414.877 498.887 414.213 498.886 413.52C498.886 412.828 498.611 412.164 498.121 411.675C497.878 411.434 497.591 411.243 497.274 411.113C496.958 410.984 496.619 410.918 496.277 410.919V410.92ZM462.961 410.92C462.619 410.917 462.279 410.983 461.962 411.112C461.645 411.242 461.357 411.433 461.115 411.675C460.872 411.916 460.68 412.204 460.549 412.52C460.418 412.836 460.351 413.176 460.352 413.518C460.349 413.862 460.415 414.202 460.546 414.52C460.676 414.838 460.869 415.127 461.112 415.37C461.355 415.613 461.643 415.806 461.96 415.938C462.277 416.07 462.618 416.137 462.961 416.137C463.478 416.137 463.984 415.983 464.413 415.696C464.843 415.408 465.178 415 465.376 414.523C465.574 414.045 465.626 413.519 465.526 413.012C465.425 412.505 465.176 412.039 464.811 411.673C464.568 411.431 464.279 411.24 463.962 411.111C463.644 410.982 463.304 410.916 462.961 410.919V410.92Z" fill="black"/>
<path d="M470.283 445.524V408.964L468.441 408.136L451.869 400.699L468.942 442.263L470.283 445.524ZM467.213 414.261C467.199 414.873 467.012 415.469 466.674 415.979C466.335 416.489 465.86 416.893 465.301 417.144C464.893 417.33 464.45 417.429 464.001 417.434C463.986 417.434 463.974 417.443 463.96 417.443C463.303 417.445 462.663 417.237 462.132 416.849C461.831 416.778 461.558 416.639 461.292 416.491C460.239 415.91 459.505 414.801 459.505 413.515C459.505 412.175 460.289 411.033 461.414 410.47C461.882 410.233 462.404 410.087 462.963 410.087C463.45 410.087 463.93 410.191 464.373 410.394C464.815 410.596 465.209 410.892 465.526 411.26C465.579 411.32 465.643 411.368 465.692 411.431C466.161 411.722 466.548 412.128 466.817 412.609C467.085 413.091 467.227 413.634 467.228 414.185C467.228 414.212 467.214 414.235 467.213 414.261ZM508.864 400.701L496.765 406.128L490.451 408.963V445.509L496.585 430.594L508.864 400.701ZM495.434 416.851C495.063 416.764 494.709 416.612 494.39 416.403C493.91 416.09 493.516 415.661 493.244 415.156C492.972 414.652 492.831 414.087 492.832 413.514C492.832 412.09 493.692 410.875 494.932 410.358C495.345 410.184 495.8 410.088 496.28 410.088C496.839 410.089 497.389 410.23 497.879 410.498C498.309 410.728 498.691 411.042 498.999 411.431C499.467 411.723 499.854 412.128 500.122 412.61C500.391 413.092 500.533 413.634 500.534 414.185C500.534 414.208 500.521 414.228 500.521 414.251C500.504 415.045 500.194 415.805 499.651 416.385C499.36 416.7 499.009 416.955 498.619 417.135C498.569 417.158 498.524 417.181 498.473 417.201C498.102 417.351 497.706 417.43 497.306 417.435C497.292 417.435 497.28 417.443 497.266 417.443C496.741 417.443 496.263 417.285 495.824 417.049C495.694 416.981 495.551 416.937 495.434 416.851ZM488.602 408.19L480.365 397.45L472.139 408.19L480.365 417.94L488.602 408.19ZM480.355 411.273H480.353C478.456 411.273 476.91 409.737 476.91 407.88C476.909 407.427 476.997 406.977 477.169 406.558C477.341 406.138 477.594 405.756 477.914 405.435C478.234 405.113 478.614 404.857 479.032 404.682C479.451 404.507 479.9 404.417 480.353 404.415H480.355C480.81 404.415 481.26 404.504 481.68 404.679C482.1 404.853 482.481 405.108 482.802 405.43C483.123 405.752 483.378 406.134 483.551 406.555C483.724 406.975 483.812 407.426 483.81 407.88C483.81 409.737 482.262 411.273 480.355 411.273Z" fill="#A2AAAD"/>
<path d="M541.06 434.12L530.397 448.382C530.453 450.087 530.448 451.662 530.403 453.129C530.083 463.952 527.36 468.453 527.36 468.453L527.356 468.458C527.356 468.458 523.834 467.037 518.947 465.595L518.909 465.584L518.879 465.575C516.464 464.862 514.02 464.25 511.553 463.741L508.635 449.305C508.021 449.294 507.412 449.191 506.828 449C506.253 448.815 505.705 448.556 505.198 448.228C505.198 448.228 505.173 448.176 505.133 448.163L505.13 448.161L497.808 461.545H497.807L497.804 461.549C497.804 461.549 495.631 461.342 492.867 461.127C489.92 460.901 486.303 460.668 483.909 460.668L483.911 460.663H483.905L488.05 447.825L487.431 446.227L480.366 428.029L475.48 440.589L472.68 447.831L476.815 460.668C474.634 460.668 471.419 460.864 468.627 461.07C465.519 461.303 462.942 461.55 462.942 461.55L462.938 461.543L462.916 461.545L458.363 453.216L456.141 449.172C455.717 449.262 455.285 449.307 454.852 449.305C454.185 449.305 453.57 449.168 452.975 448.983C452.718 448.904 452.455 448.839 452.208 448.733L451.242 453.485L449.171 463.741C446.338 464.317 443.611 465.046 441.234 465.758C436.628 467.142 433.36 468.458 433.36 468.458C433.36 468.458 431.87 465.956 430.972 460.254C430.49 457.232 430.168 453.325 430.322 448.378L408.016 418.567L413.17 448.356C413.315 448.326 413.463 448.304 413.61 448.279C413.985 448.203 414.366 448.162 414.748 448.155C416.838 448.155 418.732 449.073 420.101 450.547C421.517 452.081 422.299 454.095 422.29 456.183C422.288 457.557 421.944 458.909 421.288 460.116C420.163 462.203 418.187 463.716 415.862 464.106L417.028 470.882L420.31 489.869C422.911 488.882 425.542 487.974 428.198 487.146C439.133 483.708 458.084 479.022 480.352 479.022C492.807 479.022 504.21 480.493 513.775 482.387C519.807 483.575 525.773 485.073 531.651 486.875C535.576 488.085 538.581 489.165 540.421 489.868L541.861 481.515L544.857 464.105C544.412 464.029 543.975 463.912 543.552 463.755C542.376 463.324 541.344 462.58 540.512 461.637C539.175 460.137 538.438 458.196 538.44 456.187C538.44 451.754 541.832 448.155 545.998 448.155C546.366 448.161 546.733 448.2 547.094 448.27C547.259 448.298 547.425 448.324 547.587 448.356L552.687 418.581L541.06 434.119V434.12ZM419.908 468.164L417.3 465.54L416.789 465.03L418.252 464.395L419.753 463.741V463.743L419.758 463.741L419.933 468.164L419.907 468.138L419.908 468.164ZM416.773 447.274L415.031 447.202L413.54 447.145L413.542 447.141L413.525 447.14L414.523 444.947L415.333 443.134L415.34 443.152L415.35 443.129L416.42 446.248L416.777 447.268H416.771L416.773 447.274ZM421.021 449.574L421.018 449.571V449.576L419.462 448.571L418.309 447.831L418.313 447.829L418.305 447.824L421.819 445.361L421.929 445.284L421.021 449.574ZM422.093 450.831L426.496 450.479L426.494 450.481H426.496L423.506 453.74V453.738L422.093 450.831ZM421.33 462.452L423.094 459.709L423.097 459.706L424.402 461.544L425.651 463.297L421.331 462.452H421.33ZM423.502 458.601L423.601 457.495L423.785 455.337L427.734 457.307H427.731L427.741 457.312L423.502 458.6V458.601ZM436.31 474.381C436.31 472.874 437.526 471.71 439.001 471.71L439.012 471.712H439.014C439.122 471.712 439.214 471.76 439.318 471.772C440.646 471.93 441.692 472.988 441.692 474.38C441.692 475.405 441.082 476.298 440.218 476.756C439.851 476.954 439.453 477.094 439.014 477.094C439.01 477.094 439.007 477.091 439.003 477.091H439C437.525 477.091 436.309 475.844 436.309 474.381H436.31ZM440.282 478.053C440.07 478.053 439.863 478.018 439.661 477.969C439.414 477.915 439.175 477.83 438.949 477.717H438.955L438.942 477.712H439.014C440.089 477.712 441.043 477.177 441.649 476.367C442.065 475.809 442.321 475.127 442.321 474.387C442.321 474.047 442.249 473.728 442.157 473.422C442.139 473.364 442.139 473.299 442.118 473.242C441.998 472.909 441.823 472.599 441.599 472.325L441.609 472.332L441.602 472.319C442.602 472.835 443.293 473.846 443.293 475.031C443.293 476.681 441.952 478.053 440.282 478.053ZM462.002 469.796C462.006 469.087 462.29 468.409 462.792 467.908C463.294 467.408 463.973 467.127 464.682 467.126C466.157 467.126 467.363 468.343 467.363 469.796C467.366 470.328 467.211 470.848 466.917 471.292C466.622 471.735 466.203 472.081 465.712 472.285C465.386 472.419 465.036 472.488 464.683 472.487C464.33 472.489 463.979 472.421 463.652 472.287C463.325 472.152 463.028 471.954 462.779 471.703C462.529 471.453 462.331 471.156 462.198 470.828C462.064 470.501 461.998 470.15 462.002 469.797V469.796ZM465.988 473.485C465.829 473.485 465.687 473.448 465.539 473.421C465.356 473.39 465.177 473.342 465.003 473.277C464.88 473.231 464.753 473.191 464.637 473.134H464.639L464.631 473.131H464.683C465.121 473.132 465.554 473.047 465.959 472.88C466.364 472.713 466.731 472.468 467.041 472.159C467.35 471.849 467.595 471.481 467.762 471.077C467.929 470.672 468.014 470.239 468.013 469.801C468.013 469.197 467.808 468.665 467.521 468.174C467.437 468.034 467.38 467.882 467.277 467.752C467.283 467.754 467.287 467.759 467.293 467.762C467.293 467.762 467.293 467.76 467.291 467.759C467.376 467.802 467.444 467.869 467.525 467.919C468.395 468.461 468.968 469.382 468.968 470.443C468.968 472.113 467.628 473.485 465.988 473.485ZM477.506 446.759C477.506 445.304 478.712 444.109 480.196 444.109C481.692 444.109 482.898 445.304 482.898 446.759C482.9 447.478 482.617 448.168 482.111 448.679C481.605 449.189 480.917 449.479 480.198 449.484C479.839 449.484 479.483 449.41 479.154 449.268C478.664 449.057 478.246 448.707 477.953 448.26C477.66 447.814 477.505 447.292 477.506 446.758V446.759ZM482.828 450.069C482.765 450.1 482.72 450.156 482.655 450.184C482.279 450.344 481.874 450.426 481.466 450.426C481.044 450.426 480.636 450.321 480.261 450.141C480.24 450.141 480.219 450.148 480.198 450.148L480.146 450.097C480.182 450.117 480.224 450.123 480.261 450.141C482.067 450.106 483.528 448.62 483.528 446.756C483.528 446.078 483.28 445.458 482.911 444.946C482.87 444.891 482.851 444.82 482.805 444.768C482.807 444.768 482.808 444.77 482.81 444.771L482.806 444.765C483.313 445.001 483.742 445.377 484.043 445.848C484.345 446.319 484.506 446.866 484.508 447.425C484.508 448.585 483.811 449.57 482.828 450.068V450.069ZM491.708 470.855C491.568 470.518 491.497 470.157 491.498 469.793C491.498 469.066 491.794 468.401 492.277 467.918C492.524 467.667 492.819 467.467 493.144 467.331C493.469 467.195 493.818 467.126 494.17 467.126C494.677 467.126 495.127 467.308 495.535 467.556C496.317 468.026 496.87 468.837 496.87 469.793C496.872 470.325 496.716 470.845 496.422 471.288C496.127 471.73 495.707 472.075 495.216 472.278C494.893 472.413 494.54 472.488 494.17 472.488C493.644 472.492 493.128 472.339 492.689 472.048C492.25 471.757 491.908 471.341 491.707 470.855H491.708ZM496.529 473.263C496.186 473.405 495.819 473.48 495.447 473.485C495.301 473.485 495.157 473.448 495.013 473.421C494.845 473.392 494.679 473.348 494.518 473.29C494.382 473.24 494.242 473.195 494.117 473.134H494.126C494.123 473.134 494.12 473.132 494.118 473.131H494.169C494.608 473.134 495.043 473.049 495.449 472.882C495.856 472.716 496.225 472.47 496.536 472.16C496.847 471.85 497.093 471.48 497.259 471.074C497.426 470.668 497.511 470.233 497.509 469.794C497.507 469.241 497.324 468.751 497.076 468.292C496.976 468.11 496.898 467.919 496.766 467.752C496.771 467.754 496.774 467.758 496.778 467.76C497.768 468.254 498.479 469.285 498.479 470.44C498.477 471.052 498.29 471.65 497.942 472.154C497.594 472.658 497.101 473.044 496.529 473.263ZM517.223 474.38C517.223 472.874 518.44 471.71 519.925 471.71L519.935 471.712C520.286 471.71 520.633 471.777 520.958 471.911C521.282 472.045 521.576 472.242 521.823 472.491C522.071 472.739 522.267 473.034 522.4 473.359C522.533 473.683 522.599 474.031 522.596 474.382C522.596 475.835 521.4 477.094 519.936 477.094C519.932 477.094 519.929 477.091 519.926 477.091H519.925C518.439 477.091 517.223 475.844 517.223 474.381V474.38ZM523.711 476.59C523.184 477.445 522.287 478.053 521.204 478.053C520.931 478.053 520.675 478.006 520.433 477.934C520.239 477.882 520.051 477.809 519.873 477.717H519.887L519.874 477.712H519.936C521.761 477.712 523.236 476.207 523.236 474.382C523.236 473.826 523.066 473.335 522.835 472.885C522.733 472.694 522.651 472.488 522.512 472.325C522.521 472.329 522.527 472.337 522.536 472.341C522.531 472.335 522.529 472.326 522.524 472.319C523.024 472.578 523.444 472.959 523.74 473.426C524.04 473.89 524.214 474.437 524.214 475.026C524.214 475.61 524.001 476.126 523.711 476.59ZM540.971 463.74L540.976 463.743V463.739L543.266 464.737L543.94 465.03L542.05 466.926L540.82 468.163L540.821 468.159L540.816 468.164L540.97 463.741L540.971 463.74ZM532.989 457.307L536.959 455.337V455.342H536.96L537.228 458.6L532.991 457.311L532.996 457.308L532.989 457.307ZM539.403 462.452L535.073 463.297L537.64 459.709L539.403 462.452ZM538.449 451.252L537.259 453.739L537.241 453.721L537.233 453.737L534.233 450.479L538.656 450.829L538.449 451.252ZM540.812 448.865L539.722 449.573L539.71 449.58L538.813 445.29L538.817 445.293L538.815 445.284L540.409 446.415L542.412 447.827L540.812 448.865ZM547.19 447.141L543.952 447.275L545.215 443.648L545.394 443.128L545.395 443.132L545.396 443.13L545.686 443.78L547.198 447.14L547.19 447.141Z" fill="#A2AAAD"/>
</svg>
