<svg width="960" height="640" viewBox="0 0 960 640" fill="none" xmlns="http://www.w3.org/2000/svg">
<path d="M623.499 543.034C615.218 543.034 608.494 549.748 608.494 558.035C608.494 566.313 615.218 573.036 623.499 573.036C631.781 573.036 638.494 566.313 638.494 558.036C638.494 549.748 631.781 543.034 623.499 543.034ZM623.499 569.818C620.374 569.819 617.376 568.579 615.165 566.37C614.071 565.276 613.203 563.976 612.612 562.546C612.02 561.116 611.716 559.583 611.717 558.035C611.717 551.525 616.982 546.261 623.499 546.261C630.009 546.261 635.279 551.525 635.279 558.035C635.279 564.547 630.009 569.818 623.499 569.818ZM629.663 554.558C629.663 553.89 629.531 553.229 629.275 552.612C629.019 551.995 628.644 551.435 628.171 550.963C627.216 550.011 625.922 549.476 624.573 549.476H617.345V566.599H620.558V559.645H622.864L626.11 566.599H629.663L626.274 559.348C627.264 558.997 628.121 558.347 628.727 557.49C629.334 556.633 629.661 555.609 629.663 554.558ZM624.573 556.43H620.558V552.683H624.573C625.605 552.683 626.45 553.522 626.45 554.558C626.449 555.055 626.251 555.532 625.899 555.883C625.547 556.233 625.07 556.43 624.573 556.43Z" fill="#0E4431"/>
<path d="M913.574 168.562C913.574 168.562 882.686 158.278 855.956 153.14C856.284 153.08 885.812 129.482 885.812 129.482C885.812 129.482 766.706 98.02 624.957 107.434C624.957 107.434 604.311 40 508.997 40C438.072 40 397.59 84.462 385.003 119.093C251.277 149.026 149.49 217.448 149.49 217.448L174.057 235.965C111.133 269.495 46.4268 322.749 46.4268 322.749C46.4268 322.749 52.7728 354.669 91.4148 405.504C91.4148 405.504 117.289 425.297 185.435 451.04C185.435 451.04 198.47 447.754 204.941 444.459C214.291 447.584 223.938 450.219 233.442 451.961C233.056 460.541 230.576 472.827 246.422 487.411L234.906 493.517C234.906 493.517 249.136 528.766 327.553 547.287C357.495 540.067 493.7 514.317 540.703 600L777.652 366.977H727.194L913.574 168.562Z" fill="#DDC9A3"/>
<path d="M868.308 178.483C839.472 167.546 800.92 159.511 800.92 159.511L824.892 140.999C695.392 115.054 606.685 123.242 606.685 123.242C606.685 123.242 588.932 55.9302 502.669 55.9302C419.271 55.9302 394.293 130.423 394.293 130.423C280.13 152.923 172.685 218.56 172.685 218.56L198.858 238.292C131.536 271.417 61.7749 327.83 61.7749 327.83C71.6409 358.684 100.517 395.935 100.517 395.935C127.329 414.592 186.163 437.482 186.163 437.482C194.635 435.543 203.79 430.405 203.79 430.405C203.79 430.405 233.022 442.025 264.215 442.025C275.615 442.025 288.367 440.655 288.367 436.2C288.367 428.506 264.992 426.16 264.992 417.548C264.992 411.272 279.042 402.465 332.454 402.465C364.438 402.465 400.644 404.699 400.644 404.699C374.316 404.699 322.617 411.391 322.617 423.659C322.617 433.165 357.747 433.661 357.747 446.467C357.747 465.001 330.237 471.344 298.193 471.344C269.498 471.344 255.888 463.166 249.363 463.166C246.863 463.166 245.336 464.409 245.336 466.022C245.336 472.686 258.123 486.082 268.359 489.841L254.519 497.881C270.045 518.435 327.844 533.857 327.844 533.857C492.747 497.875 543.494 580.127 543.494 580.127L736.708 380.047H691.248L868.308 178.483Z" fill="#0E4431"/>
<path d="M579.847 145.916C526.714 144.182 473.358 147.338 422.35 155.14C421.959 158.363 421.721 161.64 421.721 164.967C421.721 168.661 422.001 172.287 422.473 175.849C472.123 170.549 526.853 168.755 581.553 174.549C581.925 171.4 582.147 168.209 582.147 164.967C582.147 158.398 581.332 152.032 579.847 145.916ZM501.941 245.18C531.466 245.18 557.256 229.198 571.183 205.43C527.648 211.006 485.953 218.261 449.381 225.546C463.474 237.766 481.823 245.179 501.941 245.179V245.18ZM501.941 84.7622C460.969 84.7622 427.198 115.48 422.35 155.14C422.35 155.14 462.578 137.023 572.017 126C558.324 101.403 532.081 84.7622 501.94 84.7622H501.941Z" fill="#EAAA00"/>
<path d="M579.845 145.916C581.368 152.152 582.14 158.548 582.145 164.967C582.145 168.21 581.923 171.4 581.551 174.548C616.352 178.227 651.157 184.972 684.653 195.848C646.861 197.134 608.347 200.671 571.181 205.429C557.254 229.198 531.464 245.179 501.938 245.179C481.822 245.179 463.472 237.767 449.379 225.546C371.903 240.992 317.474 256.582 317.474 256.582C355.832 258.289 377.505 267.182 377.505 267.182C278.372 287.224 186.205 325.432 156.275 338.505C163.425 349.876 172.741 363.17 172.741 363.17L157.936 381.485C184.399 386.3 217.193 383.498 217.193 383.498L266.353 353.392L304.929 364.964L316.557 349.067H303.886L329.29 308.107L350.647 349.05H341.081L347.551 363.17L374.203 358.434L385.553 343.977H375.406L390.553 320.692H379.147L403.127 280.102L423.612 322.018L414.538 322.014L428.277 346.471H417.443L439.637 386.906L461.811 355.762H446.588L469.516 321.281H454.799L487.854 264.533L516.524 322H504.593L524.133 355.747H510.333L529.266 397.627L561.36 345.183H543.65L569.872 302.524H553.782L588.875 231.209L625.731 305.899H612.791L636.519 345.172H620.294L638.465 384.081L668.115 338.927H652.172L686.597 289.304H668.115L723.265 213.191L752.318 265.548L814.153 189.463C742.908 162.809 661.663 148.587 579.845 145.916ZM421.719 164.967C421.719 161.639 421.957 158.363 422.348 155.14C347.796 166.54 278.248 187.878 221.825 218.427C221.825 218.427 308.909 187.974 422.471 175.849C421.998 172.288 421.719 168.661 421.719 164.967Z" fill="#AC1A2E"/>
<path d="M511.161 193.93C406.476 197.312 312.342 223.425 312.32 223.425C311.6 218.754 310.89 214.237 310.16 209.542C306.917 215.028 303.833 220.285 300.592 225.727C300.582 225.727 253.234 243.082 222.006 259.487C262.077 245.672 294.58 237.161 294.58 237.161C291.382 244.046 288.145 250.912 284.868 257.759C290.878 252.393 296.61 247.256 302.621 241.876C306.927 244.171 311.047 246.423 315.398 248.74C314.788 243.62 314.218 238.642 313.601 233.453C313.617 233.443 419.231 204.076 511.161 193.93Z" fill="white"/>
</svg>
