<svg width="960" height="640" viewBox="0 0 960 640" fill="none" xmlns="http://www.w3.org/2000/svg">
<path d="M734.892 524.554C726.61 524.554 719.887 531.268 719.887 539.555C719.887 547.833 726.61 554.556 734.892 554.556C743.173 554.556 749.887 547.833 749.887 539.556C749.887 531.268 743.174 524.554 734.892 524.554ZM734.892 551.338C733.345 551.339 731.812 551.034 730.383 550.442C728.953 549.85 727.654 548.983 726.56 547.888C725.465 546.794 724.598 545.495 724.006 544.066C723.414 542.636 723.109 541.104 723.11 539.556C723.11 533.046 728.374 527.781 734.892 527.781C741.402 527.781 746.672 533.045 746.672 539.556C746.672 546.068 741.402 551.338 734.892 551.338ZM741.056 536.078C741.054 534.73 740.517 533.437 739.563 532.483C739.091 532.011 738.53 531.636 737.913 531.381C737.296 531.126 736.634 530.995 735.966 530.996H728.738V548.119H731.951V541.165H734.256L737.503 548.119H741.056L737.666 540.868C738.656 540.517 739.513 539.868 740.12 539.01C740.727 538.153 741.054 537.129 741.056 536.078ZM735.966 537.95H731.95V534.203H735.965C736.463 534.204 736.94 534.401 737.292 534.753C737.644 535.105 737.842 535.582 737.843 536.079C737.841 536.576 737.643 537.052 737.291 537.403C736.939 537.753 736.463 537.95 735.966 537.95Z" fill="#001E62"/>
<path d="M771.166 316.53L824.672 260.32L794.281 120.217L659.109 80.08L646.952 91.35C601.75 77.86 520.453 63.905 466.146 64C264.956 64.35 106.881 176.223 106.27 318.677C106.27 440.56 211.393 576 467.863 576C671.076 576 853.729 440.716 853.729 440.716L771.166 316.53Z" fill="white"/>
<path d="M753.304 314.974L809.4 256.042L782.346 131.28L662.782 95.7872L650.526 107.147C610.166 93.8302 523.888 77.9132 466.159 78.0142C269.949 78.3542 120.852 185.981 120.279 318.746C119.685 457.92 254.67 561.981 467.861 561.981C617.046 561.981 769.895 482.353 834.487 437.085L753.303 314.973L753.304 314.974Z" fill="#001E62"/>
<path d="M489.923 362.192H457.325V389.831L489.923 389.793V362.192ZM688.205 325.462C662.872 303.154 625.983 279.787 579.278 268.428V371.881C614.528 362.135 653.205 345.591 688.205 325.461V325.462ZM366.316 375.937V263.812C333.937 273.174 297.65 291.499 297.65 320.519C297.65 340.383 328.317 364.361 366.316 375.937ZM458.057 277.338H489.738V251.079L458.057 249.791V277.338Z" fill="white"/>
<path d="M732.318 327.962C732.318 327.962 647.645 385.737 554.298 403.175V239.135C655.66 251.887 715.7 318.158 715.7 318.158L783.24 248.347L761.55 150.429L669.258 123.439L657.553 136.201C620.103 121.565 542.84 102.601 457.183 102.601C285.694 102.601 145.648 199.765 145.397 319.676C145.149 436.456 264.017 537.552 455.886 537.552C633.142 537.552 761.082 453.115 801.152 430.482L732.318 327.962ZM439.776 297.062V229.87C463.226 228.693 489.248 229.914 507.656 232.11V297.063L439.776 297.062ZM507.656 341.497V409.155C488.565 411.429 459.456 411.992 439.776 410.538V341.497H507.656ZM391.06 233.775V405.91C362.804 405.91 272.619 372.75 272.619 320.512C272.619 255.937 364.776 238.105 391.06 233.775Z" fill="white"/>
<path d="M727.376 352.23C616.578 417.292 542.842 429.923 452.882 429.08C326.441 427.887 254.435 377.301 254.435 317.052C254.435 262.734 320.489 210.965 455.433 210.965C546.223 210.965 655.707 235.295 714.175 292.927L762.859 243.312L746.235 164.568L674.452 143.593L661.42 158.321C622.078 142.55 555.581 120.745 453.29 120.745C298.948 120.745 163.594 209.893 163.594 317.815C163.594 430.555 281.45 518.957 448.724 518.957C618.366 518.957 717.941 455.004 775.455 424.833L727.375 352.229L727.376 352.23Z" fill="#A6192E"/>
</svg>
