<svg width="960" height="640" viewBox="0 0 960 640" fill="none" xmlns="http://www.w3.org/2000/svg">
<path d="M699.637 509.553C691.355 509.553 684.631 516.267 684.631 524.554C684.631 532.832 691.355 539.555 699.637 539.555C707.918 539.555 714.631 532.832 714.631 524.555C714.631 516.267 707.918 509.553 699.637 509.553ZM699.637 536.337C698.089 536.339 696.556 536.035 695.126 535.443C693.696 534.851 692.397 533.983 691.302 532.889C690.208 531.795 689.34 530.495 688.748 529.065C688.157 527.635 687.853 526.102 687.854 524.554C687.854 518.044 693.119 512.78 699.637 512.78C706.147 512.78 711.417 518.044 711.417 524.554C711.417 531.067 706.147 536.337 699.637 536.337ZM705.8 521.077C705.798 519.728 705.262 518.435 704.308 517.481C703.835 517.009 703.274 516.635 702.657 516.38C702.04 516.125 701.378 515.994 700.71 515.995H693.482V533.118H696.695V526.164H699.001L702.247 533.118H705.8L702.411 525.867C703.401 525.516 704.258 524.867 704.865 524.01C705.472 523.152 705.798 522.128 705.8 521.077ZM700.71 522.949H696.695V519.202H700.71C701.743 519.202 702.587 520.042 702.587 521.078C702.584 521.575 702.385 522.05 702.034 522.4C701.682 522.751 701.206 522.948 700.71 522.949Z" fill="black"/>
<path d="M792.934 88.59C792.934 0.00299835 693.204 0.003 679.777 0.003L655.612 0C655.612 0 689.731 34.3 689.731 46.688C689.731 47.3542 689.599 48.0138 689.343 48.6291C689.088 49.2444 688.714 49.8033 688.242 50.2739C687.77 50.7445 687.211 51.1175 686.595 51.3717C685.979 51.6258 685.319 51.7561 684.653 51.755H597.756C596.411 51.7563 595.12 51.2233 594.168 50.273C593.215 49.3228 592.68 48.0333 592.678 46.688C592.678 34.301 626.797 0 626.797 0C593.681 0 546.197 7.402 513.209 30.847C503.892 29.9114 494.535 29.4425 485.171 29.442C331.924 29.442 207.686 153.683 207.686 306.939C207.686 337.179 212.538 366.278 221.486 393.524C200.969 418.599 167.064 469.938 167.064 535.384C167.064 591.944 195.013 640 195.013 640C195.013 640 244.779 567.135 356.309 567.135C364.849 567.135 367.051 559.687 367.399 558.245C403.153 575.031 443.064 584.436 485.171 584.436C638.424 584.436 762.662 460.189 762.662 306.939C762.662 257.713 749.832 211.493 727.35 171.418C758.072 161.978 792.934 137.536 792.934 88.59Z" fill="white"/>
<path d="M781.499 88.5901C781.499 33.5781 731.012 9.52308 680.203 11.4251C680.203 11.4251 701.18 31.6531 701.18 46.6771C701.18 54.6571 695.226 63.1801 678.54 63.1801H603.358C586.454 63.1801 576.367 57.3701 576.367 47.6301C576.367 31.6681 601.468 13.0291 601.468 13.0291C601.468 13.0291 550.58 16.0931 516.516 42.7781C506.227 41.5731 495.782 40.8781 485.172 40.8781C338.237 40.8781 219.118 159.996 219.118 306.939C219.118 357.572 233.268 404.902 257.823 445.189C253.843 447.299 249.826 448.703 244.222 448.703C225.592 448.703 225.482 407.405 225.482 407.405C225.482 407.405 178.496 462.189 178.496 535.383C178.496 580.45 197.536 619.217 197.536 619.217C197.536 619.217 250.26 555.696 356.31 555.696C356.31 555.696 306.014 535.49 306.014 511.094C306.02 511.085 306.237 508.499 307.939 505.314C354.992 547.381 417.082 572.991 485.172 572.991C632.122 572.991 751.238 453.88 751.238 306.939C751.238 254.228 735.842 205.135 709.402 163.799C735.062 159.704 781.499 142.166 781.499 88.5901ZM247.1 306.94C247.1 175.452 353.693 68.8621 485.171 68.8621C488.261 68.8621 491.31 68.9801 494.365 69.0931C489.452 78.8131 486.512 90.1741 486.512 103.518C486.512 164.678 554.305 165.273 554.305 165.273L521.229 252.658L463.76 179.874C443.353 154.039 422.214 148.608 408.072 148.608C379.205 148.608 356.832 169.051 341.583 209.36L267.87 404.157C254.567 374.472 247.102 341.581 247.102 306.939L247.1 306.94ZM276.828 422.14C292.227 417.142 315.802 411.296 341.86 411.296C375.338 411.296 405.575 419.518 405.575 419.518L434.853 342.182L462.607 392.556L437.442 418.876C422.145 434.888 383.991 424.88 341.86 424.88C312.615 424.88 294.837 428.183 282.825 432.345C280.741 428.994 278.741 425.592 276.828 422.14ZM723.248 306.94C723.248 438.423 616.666 545.01 485.171 545.01C429.341 545.01 378.043 525.747 337.441 493.55C376.656 495.256 398.095 520.603 453.327 520.603C534.449 520.603 581.97 471.435 599.392 425.397L690.075 185.75C711.127 221.254 723.248 262.67 723.248 306.94Z" fill="black"/>
<path d="M702.81 23.1802C702.81 23.1802 712.605 32.3872 712.605 46.6772C712.605 60.9672 701.477 74.6192 678.541 74.6192H603.358C574.144 74.6192 564.938 59.6942 564.938 47.6302C564.938 35.5672 571.777 29.1072 571.777 29.1072C571.777 29.1072 497.938 43.4972 497.938 103.518C497.938 154.001 554.387 153.848 554.387 153.848H570.849L524.773 275.595L454.79 186.955C450.443 181.455 433.426 160.039 408.073 160.039C372.824 160.039 357.5 199.586 352.272 213.398L277.907 409.905C277.907 409.905 305.425 399.865 341.861 399.865C372.593 399.865 398.454 406.076 398.454 406.076L432.92 315L476.657 394.39L445.697 426.778C425.331 448.085 382.807 436.302 341.861 436.302C265.415 436.302 272.797 460.122 244.221 460.122C223.979 460.122 218.731 435.547 218.731 435.547C218.731 435.547 189.924 483.299 189.924 535.384C189.924 569.202 201.797 598.948 201.797 598.948C201.797 598.948 261.37 548.239 321.382 548.239C321.382 548.239 294.589 535.383 294.589 511.094C294.589 504.187 303.757 482.039 333.289 482.039C379.024 482.039 398.073 509.181 453.328 509.181C530.649 509.181 573.598 461.276 588.711 421.359L689.931 153.849C689.931 153.849 770.076 154.001 770.076 88.5902C770.076 28.5782 702.81 23.1802 702.81 23.1802Z" fill="#CC0000"/>
</svg>
