<svg width="960" height="640" viewBox="0 0 960 640" fill="none" xmlns="http://www.w3.org/2000/svg">
<path d="M585.237 535.795C576.955 535.795 570.232 542.508 570.232 550.795C570.232 559.074 576.955 565.797 585.237 565.797C593.519 565.797 600.232 559.074 600.232 550.796C600.232 542.508 593.519 535.795 585.237 535.795ZM585.237 562.578C583.69 562.579 582.157 562.275 580.727 561.684C579.297 561.093 577.997 560.225 576.903 559.13C575.809 558.036 574.941 556.736 574.35 555.306C573.758 553.876 573.454 552.344 573.455 550.796C573.455 544.286 578.719 539.021 585.237 539.021C591.747 539.021 597.017 544.286 597.017 550.796C597.017 557.308 591.747 562.578 585.237 562.578ZM591.401 547.318C591.401 546.65 591.269 545.988 591.013 545.371C590.757 544.754 590.382 544.194 589.909 543.722C589.436 543.25 588.875 542.876 588.258 542.621C587.64 542.366 586.979 542.235 586.311 542.236H579.083V559.359H582.296V552.405H584.602L587.848 559.359H591.401L588.012 552.108C589.002 551.756 589.859 551.107 590.466 550.25C591.072 549.392 591.399 548.368 591.401 547.318ZM586.311 549.19H582.296V545.443H586.311C586.808 545.444 587.285 545.642 587.637 545.993C587.989 546.345 588.187 546.822 588.188 547.319C588.187 547.816 587.988 548.292 587.636 548.643C587.284 548.993 586.808 549.19 586.311 549.19Z" fill="#041E42"/>
<path d="M871.345 262.779C870.389 260.44 868.6 258.539 866.323 257.444L822.731 236.389L809.287 226.054L789.707 201.767L783.26 172.813C782.95 171.419 782.351 170.105 781.503 168.956C780.654 167.808 779.574 166.85 778.332 166.144L747.699 148.736L728.43 129.38C727.518 128.465 726.441 127.73 725.256 127.216L605.305 75.0528C603.394 74.2221 601.275 73.9936 599.231 74.3978L435.77 107.047C391.266 103.573 352.264 109.157 350.615 109.39C340.585 111.057 340.532 121.89 344.019 125.371L99.354 174.253C96.9145 174.741 94.7367 176.102 93.229 178.081L67.337 212.121C62.737 218.171 66.203 227.41 74.165 228.447C75.957 228.681 252.92 252.909 252.92 360.255C252.92 399.78 225.79 438.645 225.512 439.036C221.59 444.599 223.972 453.538 232.042 454.996L332 473.043C339.573 479.097 365.009 496.966 402.019 496.966C445.846 496.966 458.254 480.389 461.099 466.8C482.826 457.553 510.14 435.646 510.14 417.962C510.14 406.955 500.237 399.559 490.981 399.559C489.929 399.559 488.981 399.941 487.973 400.109C487.973 400.109 483.305 391.479 472.019 391.479C467.195 391.479 461.948 393.897 457.859 395.636C467.878 384.129 484.437 370.403 510.922 361.639C551.774 348.089 605.026 336.609 631.701 331.238C591.153 449.069 452.298 510.962 450.835 511.593C442.571 515.186 444.065 525.654 447.469 527.828L432.28 534.622C421.486 539.382 426.084 555.107 437.27 554.157C583.821 541.696 691.596 490.392 766.649 397.653H796.841C798.591 397.653 800.299 397.2 801.828 396.373C831.356 379.87 851.185 380.547 851.378 380.56C855.443 380.732 859.305 378.502 861.088 374.87C875.722 345.122 891.482 329.357 891.632 329.216C893.81 327.028 895.911 322.924 893.932 318.055L871.345 262.78V262.779Z" fill="#FFB81C"/>
<path d="M817.334 245.134L802.094 233.417L780.244 206.325L773.284 175.032L741.433 156.932L721.198 136.594L601.235 84.4209L436.488 117.323C391.983 113.646 352.103 119.507 352.103 119.507L365.952 131.42L101.361 184.27L75.473 218.312C75.473 218.312 263.143 242.522 263.143 360.255C263.143 403.662 233.854 444.934 233.854 444.934L336.424 463.441C336.424 463.441 361.938 486.729 402.02 486.729C448.653 486.729 451.653 467.189 451.653 459.576C472.155 452.952 499.925 430.422 499.925 417.961C499.925 412.966 494.726 409.786 490.985 409.786C487.884 409.786 483.69 412.239 480.276 413.711C482.227 409.36 479.43 401.703 472.017 401.703C465.807 401.703 455.297 410.508 434.92 412.401C434.92 412.401 450.513 370.865 507.705 351.921C565.494 332.78 646.675 317.887 646.675 317.887C612.289 452.712 454.915 520.972 454.915 520.972L512.984 507.899C486.067 522.11 436.4 543.976 436.4 543.976C582.784 531.516 689.315 481.13 764.079 384.67L769.165 387.421H796.844C829.885 369 851.93 370.347 851.93 370.347C867.63 338.41 884.464 321.922 884.464 321.922L861.884 266.649L817.334 245.134Z" fill="#041E42"/>
<path d="M213.826 243.726C219.406 247.096 224.84 250.702 230.115 254.532C235.703 252.667 241.315 250.87 246.947 249.143C256.837 211.323 277.099 186.233 277.099 186.233C235.105 201.93 217.301 236.21 213.826 243.726ZM388.014 157.41C388.014 157.41 404.803 185.982 434.719 185.982L465.795 183.837L491.323 157.162L526.185 151.799C513.265 143.969 498.691 138.331 483.83 134.324L454.684 175.028L473.207 131.735C467.856 130.573 462.471 129.574 457.059 128.74L431.944 163.736L447.484 127.422C441.16 126.654 434.815 126.07 428.457 125.671L409.247 152.451L420.87 125.275C393.748 124.135 373.944 126.331 373.944 126.331L380.618 132.09L388.015 157.41H388.014ZM427.285 425.616C430.953 442.193 442.035 446.877 443.098 453.077C443.098 453.077 471.898 447.154 491.019 418.691C453.774 437.434 427.285 425.616 427.285 425.616ZM764.326 356.902C764.326 340.662 737.45 325.089 724.789 325.089C672.626 325.089 673.342 435.893 489.444 529.778C646.064 507.148 764.326 400.615 764.326 356.902Z" fill="white"/>
<path d="M400.238 195.252L399.799 199.894C388.157 202.248 369.896 209.738 352.472 223.407L439.18 211.1L446.615 193.699C400.507 200.465 379.725 161.234 379.725 161.234L376.196 149.257L108.592 209.137C137.464 211.133 169.295 220.317 198.291 235.101C205.205 212.003 222.354 194.09 222.354 194.09L369.348 161.194C369.348 161.194 375.166 180.094 400.238 195.252Z" fill="white"/>
<path d="M796.307 285.037L819.18 276.977C819.18 276.977 846.28 294.13 858.396 272.139L816.993 252.653C805.408 259.358 794.045 262.869 783.531 264.381V264.385C752.482 268.84 728.846 255.8 728.846 255.8C703.101 255.8 685.522 259.94 670.434 267.469H670.43C658.132 273.609 647.49 282.001 635.443 292.266L671.602 252.486L677.214 219.441L573.964 207.698C580.569 231.156 597.039 243.974 597.039 243.974L577.608 265.344L554.704 290.542C546.159 287.956 537.139 286.506 527.79 286.292C527.242 273.548 532.245 259.048 543.459 245.134C528.614 256.327 519.648 270.683 517.774 286.591C511.244 287.094 504.874 288.237 498.732 289.933C495.518 279.338 495.872 266.288 500.764 252.102C492.118 265.284 488.557 279.25 490.342 292.64C484.217 294.95 478.33 297.85 472.767 301.3C467.363 293.074 464.054 282.103 463.808 269.025C460.686 282.423 461.553 294.921 466.284 305.665C446.705 320.255 437.881 337.921 437.881 337.921C375.675 326.71 338.023 378.757 336.7 415.283C332.754 389.937 340.862 345.113 390.958 323.781L407.585 284.918C408.589 282.53 409.947 280.306 411.613 278.322L411.622 278.32C415.534 273.644 421.238 270.377 429.49 268.235C469.592 257.824 510.565 235.211 532.214 206.615L473.844 208.34C447.567 228.17 436.399 255.105 436.399 255.105L418.603 259.267L439.183 211.1L352.473 223.408C327.705 242.828 304.616 274.728 304.616 322.131C304.616 345.806 312.442 365.186 312.502 365.334L312.503 365.341C312.503 365.341 302.686 351.993 296.888 329.254L296.887 329.256C294.117 318.411 292.718 307.262 292.723 296.069C292.723 272.741 299.444 250.56 307.027 232.959V232.956C316.839 210.176 328.093 195.06 328.093 195.06C328.093 195.06 296.005 208.061 273.953 241.326L273.949 241.327C267.093 251.67 261.211 263.973 257.564 278.447C273.46 295.272 285.286 314.553 290.614 335.63C292.652 343.674 293.744 351.993 293.744 360.54C293.744 401.266 276.72 426.889 276.72 426.889L333.698 438.448C333.698 438.448 355.241 469.804 401.506 469.804C416.138 469.804 435.366 468.185 435.366 458.849C435.366 451.799 418.051 442.232 418.051 421.808C418.051 388.66 459.694 354.248 504.379 339.524C556.595 322.324 636.363 302.291 676.491 302.291C790.306 302.291 786.553 377.428 786.553 377.428L792.076 377.172C817.408 362.932 839.836 360.221 846.376 359.724C847.014 359.666 847.653 359.628 848.293 359.609C848.293 359.609 859.525 338.646 872.553 323.444C872.553 323.444 855.646 287.987 796.307 285.037Z" fill="white"/>
<path d="M473.84 208.34L532.21 206.613C542.007 193.674 547.843 179.514 547.843 164.701C547.843 139.151 534.757 124.188 534.757 124.188L598.082 110.146L617.776 119.809C617.776 119.809 571.243 137.686 571.243 188.131C571.241 194.748 572.157 201.332 573.964 207.697L677.214 219.439C677.214 219.439 688.578 247.038 719.884 247.038C735.033 247.038 746.614 238.642 746.614 238.642C780.552 264.294 811.641 250.134 811.641 250.134L800.005 240.479L788.892 246.389L795.801 236.024L791.554 231.198L776.546 238.94L785.942 224.689L782.681 220.925L770.011 226.502L777.271 214.138L772.165 206.295C767.403 227.19 748.77 229.691 732.757 228.432L731.925 219.192C728.332 221.441 724.178 222.631 719.94 222.626C707.441 222.626 697.317 212.496 697.317 200.013C697.317 192.857 662.062 161.33 662.062 161.33L707.684 175.416C745.912 187.23 744.244 206.194 744.677 216.479C751.117 219.317 765.615 221.396 772.165 206.295L767.341 181.189L736.973 166.463L716.116 146.948L599.3 99.7241L484.32 125.23C511.407 131.754 533.83 145.895 533.83 145.895C533.83 145.895 542.441 165.704 531.225 187.756C507.131 188.768 488.229 197.487 473.84 208.34ZM760.078 191.595L754.399 213.564C754.399 196.937 744.559 187.398 715.459 170.27L760.078 191.595Z" fill="white"/>
<path d="M819.18 276.976C819.18 276.976 803.53 269.856 783.532 264.386C752.482 268.841 728.846 255.8 728.846 255.8C703.101 255.8 685.522 259.94 670.434 267.469C836.524 282.073 857.345 318.896 846.369 359.724C847.009 359.667 847.651 359.628 848.293 359.609C848.293 359.609 859.525 338.646 872.553 323.444C872.553 323.444 855.646 287.988 796.307 285.038L819.181 276.976H819.18ZM307.027 232.959C295.953 235.556 284.925 238.345 273.949 241.327C267.093 251.671 261.211 263.974 257.563 278.447C273.46 295.272 285.286 314.554 290.613 335.631C292.624 333.431 294.717 331.307 296.888 329.265C294.118 318.418 292.718 307.266 292.723 296.07C292.723 272.741 299.444 250.56 307.027 232.959ZM677.214 219.441C642.048 213.065 607.449 209.371 573.964 207.698C580.569 231.156 597.039 243.974 597.039 243.974L577.608 265.344C612.692 264.682 649.327 266.164 649.327 266.164L635.443 292.266L671.602 252.486L677.214 219.441ZM436.399 255.106L418.603 259.268L439.183 211.1C407.851 214.15 378.72 218.512 352.473 223.408C327.705 242.828 304.616 274.728 304.616 322.131C304.616 345.898 312.504 365.341 312.504 365.341C306.07 337.814 321.117 310.867 321.117 310.867C321.117 310.867 355.751 288.743 411.622 278.32C415.534 273.644 421.238 270.377 429.49 268.235C469.592 257.824 510.565 235.211 532.213 206.615C512.203 206.575 492.697 207.189 473.844 208.34C447.567 228.17 436.399 255.106 436.399 255.106ZM243.583 265.152C244.443 259.764 245.565 254.421 246.947 249.143C241.316 250.871 235.706 252.666 230.117 254.526C234.747 257.885 239.24 261.43 243.583 265.152ZM723.056 215.648C727.812 215.648 731.326 213.411 731.326 213.411C731.031 211.794 730.664 210.191 730.227 208.607C729.067 209.337 727.412 210.066 725.457 210.066C720.313 210.066 717.136 206.114 717.136 201.755C717.136 198.051 719.678 194.702 723.309 193.755C718.759 187.322 714.209 184.607 714.209 184.607C714.209 184.607 706.269 189.047 706.269 198.837C706.269 208.633 714.493 215.648 723.056 215.648Z" fill="#FFB81C"/>
</svg>
