<svg width="960" height="640" viewBox="0 0 960 640" fill="none" xmlns="http://www.w3.org/2000/svg">
<path d="M729.637 562.769C721.355 562.769 714.631 569.482 714.631 577.769C714.631 586.048 721.355 592.771 729.637 592.771C737.918 592.771 744.631 586.048 744.631 577.77C744.631 569.482 737.918 562.769 729.637 562.769ZM729.637 589.552C727.306 589.556 725.026 588.867 723.087 587.572C721.148 586.278 719.638 584.436 718.748 582.281C718.156 580.851 717.852 579.318 717.854 577.77C717.854 571.26 723.119 565.996 729.637 565.996C736.147 565.996 741.417 571.26 741.417 577.77C741.417 584.282 736.147 589.552 729.637 589.552ZM735.8 574.293C735.798 572.945 735.261 571.652 734.308 570.698C733.353 569.745 732.059 569.211 730.71 569.211H723.482V586.333H726.695V579.379H729.001L732.247 586.333H735.8L732.411 579.083C733.401 578.732 734.258 578.083 734.865 577.226C735.472 576.368 735.798 575.344 735.8 574.293ZM730.71 576.165H726.695V572.418H730.71C731.743 572.418 732.587 573.257 732.587 574.293C732.585 574.79 732.386 575.265 732.034 575.616C731.683 575.967 731.207 576.164 730.71 576.165Z" fill="#00468B"/>
<path d="M480 0C296.8 0 148.301 143.271 148.301 320.007C148.301 496.735 296.801 640 480.001 640C663.191 640 811.697 496.735 811.697 320.007C811.697 143.27 663.191 0 479.999 0H480Z" fill="#00468B"/>
<path d="M480.001 23.5769C309.843 23.5769 171.912 156.293 171.912 320.007C171.912 483.71 309.843 616.427 480.002 616.427C650.147 616.427 788.087 483.71 788.087 320.007C788.087 156.293 650.147 23.5769 480.001 23.5769Z" fill="#F26924"/>
<path d="M255.054 390.43V371.08L235.934 354.288V391.638C241.767 390.08 248.953 392.071 255.054 390.43Z" fill="#00468B"/>
<path d="M768.492 302.401C741.36 311.918 707.578 323.019 681.395 332.013C672.579 330.578 666.548 335.515 660.292 339.655C650.963 343.686 639.208 342.069 630.005 345.985C621.425 353.077 608.72 356.073 598.188 351.579C595.358 348.355 591.634 344.449 587.18 345.472C580.18 346.166 578.718 358.854 570.054 352.241C564.707 355.058 560.031 358.973 554.122 360.399L545.224 362.601L541.877 369.737L538.825 376.221L536.782 380.576L533.736 387.061L531.693 391.422L528.634 397.907L526.584 402.265L523.544 408.753L499.042 460.92C498.285 462.532 497.173 463.953 495.79 465.076C494.408 466.2 492.789 466.997 491.056 467.408L451.557 476.822C451.742 477.01 451.944 477.179 452.063 477.418L478.199 531.688V482.139C478.198 481.79 478.271 481.445 478.413 481.126C478.556 480.807 478.764 480.523 479.025 480.291C479.286 480.059 479.593 479.885 479.926 479.781C480.259 479.676 480.611 479.644 480.957 479.686L495.14 481.359C495.741 481.427 496.296 481.714 496.698 482.166C497.1 482.617 497.321 483.201 497.319 483.806V573.422C497.319 574.722 496.304 575.806 494.994 575.879L479.182 576.821C478.704 576.849 478.229 576.738 477.814 576.5C477.398 576.262 477.061 575.908 476.844 575.482L445.919 515.184V572.622C445.92 572.975 445.844 573.324 445.697 573.646C445.551 573.967 445.336 574.253 445.069 574.484C444.805 574.715 444.494 574.888 444.158 574.989C443.821 575.09 443.467 575.119 443.119 575.072L428.936 573.128C428.344 573.047 427.801 572.753 427.408 572.302C427.016 571.851 426.801 571.272 426.803 570.674V482.718L410.243 486.666L423.363 569.785C423.415 570.117 423.382 570.456 423.265 570.771C423.148 571.086 422.952 571.366 422.696 571.583C422.44 571.805 422.13 571.957 421.797 572.024C421.465 572.09 421.12 572.069 420.798 571.963L404.902 566.789C404.555 566.677 404.247 566.471 404.01 566.194C403.774 565.916 403.621 565.578 403.566 565.218L400.567 546.383L379.767 539.604L375.846 555.116C375.778 555.377 375.658 555.621 375.493 555.835C375.328 556.049 375.122 556.227 374.887 556.359C374.65 556.487 374.389 556.566 374.12 556.592C373.852 556.618 373.581 556.59 373.323 556.509L358.115 551.571C357.638 551.417 357.237 551.087 356.995 550.647C356.753 550.208 356.688 549.693 356.812 549.207L370.41 496.16L357.236 499.305C356.335 499.516 355.39 499.441 354.532 499.092C353.675 498.742 352.947 498.135 352.45 497.354C352.12 496.834 351.902 496.25 351.809 495.641L343.714 442.521C343.626 441.939 343.655 441.346 343.798 440.775C343.941 440.204 344.195 439.667 344.547 439.195C344.9 438.724 345.342 438.327 345.849 438.027C346.356 437.728 346.917 437.533 347.5 437.452L480.283 419.172C482.205 418.91 484.032 418.18 485.605 417.045C487.177 415.91 488.446 414.406 489.3 412.665L497.716 395.579L500.883 389.151L503.007 384.835L506.167 378.403L508.297 374.095L511.455 367.666L512.305 365.946C506.128 365.556 497.061 370.222 492.445 371.258C485.431 373.384 474.817 369.796 472.26 379.048C468.157 382.09 461.388 382.963 456.563 380.622C450.849 371.853 440.873 379.161 434.266 379.273C423.747 380.873 415.388 372.101 405.576 377.111C392.889 384.756 377.744 370.458 367.066 382.527C360.261 383.043 353.876 379.819 346.561 380.328C335.841 380.295 326.588 383.668 316.599 385.457C305.313 392.884 289.801 389.299 276.799 388.34C270.255 390.982 262.153 390.248 255.054 390.43V461.74C255.054 465.953 252.878 467.133 249.485 462.246L235.934 442.776V391.637C231.506 389.339 227.783 395.003 223.683 396.757C219.582 398.7 215.981 395.331 214.248 391.967C214.248 390.169 212.995 388.559 211.203 387.649C209.077 387.312 205.373 388.532 202.136 389.782C200.779 384.803 199.572 379.784 198.515 374.733C201.24 373.02 204.566 370.713 203.61 367.64C201.802 363.91 196.871 364.267 195.605 359.773C196.141 355.309 197.45 349.453 202.761 348.395C206.699 344.668 206.193 337.168 204.976 332.013C201.418 327.367 196.606 323.591 198.555 317.017C198.555 315.252 196.753 313.095 198.571 311.482C202.873 309.729 207.142 313.79 210.181 316.68C213.031 317.265 213.769 314.005 214.969 312.401C216.041 310.129 214.262 307.424 211.96 306.875C210.002 307.388 208.18 305.966 208.101 304.177C208.819 301.171 209.818 298.314 213.253 297.475C216.957 296.188 220.568 297.616 223.57 299.597C227.118 302.815 226.748 307.98 230.336 310.675C234.949 306.403 231.436 297.653 236.81 293.566C244.475 290.193 251.925 284.489 261.227 285.944C263.737 290.782 262.054 299.714 270.07 300.074C272.265 298.132 272.44 293.116 276.548 295.097C280.145 296.562 279.914 302.778 284.189 301.899C288.508 293.887 280.314 287.266 281.365 279.621C287.115 275.855 294.738 279.102 298.822 283.569C300.651 287.303 293.475 289.426 298.435 292.504C305.588 289.826 308.795 298.054 315.101 296.449C319.158 288.986 327.881 288.096 335.176 290.081C345.903 289.938 352.123 306.006 363.333 299.637C369.447 295.53 381.322 301.241 383.18 291.466C382.45 287.197 385.488 283.239 389.116 282.075C395.144 280.236 400.818 292.745 405.851 283.318C415.236 287.088 426.3 286.933 436.624 288.586C452.506 297.002 473.394 295.818 491.32 296.373C506.905 304.653 529.06 292.848 546.897 295.683L555.24 278.725L485.352 128.195V268.154C485.351 269.332 484.883 270.461 484.05 271.294C483.218 272.127 482.089 272.596 480.911 272.598H412.951C412.184 272.598 411.43 272.4 410.762 272.022C410.095 271.644 409.536 271.1 409.141 270.442L364.523 196.027V268.154C364.522 269.332 364.054 270.461 363.222 271.294C362.39 272.127 361.261 272.596 360.083 272.598H299.5C298.916 272.599 298.338 272.484 297.799 272.261C297.259 272.038 296.77 271.71 296.357 271.297C295.524 270.463 295.056 269.333 295.055 268.154V106.77C231.397 157.664 190.867 234.281 190.867 320.006C190.867 473.224 320.305 597.431 480.001 597.431C639.684 597.431 769.13 473.223 769.13 320.006C769.13 314.086 768.875 308.226 768.492 302.4V302.401ZM311.024 451.251C311.024 454.591 308.94 457.362 304.681 453.523L294.619 444.476C292.489 442.544 291.907 440.842 291.907 438.596V434.727C291.907 432.419 290.988 430.481 289.606 429.182L284.246 424.364C280.952 421.394 280.215 425.508 280.215 425.508V428.348C280.215 431.56 282.097 434.06 282.097 434.06L303.137 461.433C307.397 466.988 311.024 475.212 311.024 483.357V499.777C311.024 514.076 305.022 520.104 298.078 513.911L269.488 488.161C263.652 482.901 261.098 475.076 261.098 471.194V456.294C261.098 451.43 262.051 449.915 263.942 451.734L276.429 463.146C278.33 464.683 280.215 467.835 280.215 469.624V472.917C280.215 475.562 280.02 478.621 281.951 480.103L287.354 484.719C289.344 486.511 291.908 486.776 291.908 483.869V480.252C291.908 478.029 291.378 476.204 289.967 474.379L264.977 441.744C262.755 438.841 261.099 435.938 261.099 431.007V405.321C261.099 399.143 268.545 390.701 279.233 400.328L306.841 425.178C308.567 426.735 311.024 430.141 311.024 435.815V451.251ZM354.699 546.145C354.699 546.581 354.583 547.009 354.364 547.385C354.144 547.762 353.829 548.074 353.45 548.289C353.072 548.505 352.643 548.617 352.207 548.613C351.771 548.609 351.344 548.49 350.969 548.268L320.441 530.163C320.073 529.943 319.768 529.631 319.556 529.258C319.345 528.884 319.234 528.462 319.234 528.033V438.735C319.234 437.845 319.707 437.035 320.478 436.595C320.856 436.377 321.286 436.263 321.722 436.267C322.159 436.27 322.587 436.39 322.961 436.615L337.137 445.021C337.507 445.238 337.813 445.548 338.025 445.92C338.237 446.292 338.348 446.713 338.347 447.141V522.631L353.492 531.601C353.861 531.822 354.166 532.135 354.377 532.509C354.589 532.883 354.7 533.305 354.699 533.735V546.145ZM568.907 550.113C568.907 552.563 568.907 564.071 549.787 567.48L511.045 574.404C510.689 574.465 510.325 574.448 509.976 574.354C509.627 574.26 509.303 574.093 509.025 573.862C508.75 573.63 508.528 573.341 508.375 573.015C508.222 572.689 508.142 572.334 508.139 571.974V482.817C508.139 481.627 508.972 480.622 510.129 480.39L549.787 472.49C568.907 468.688 568.907 480.139 568.907 480.139V550.113ZM536.5 420.683V398.142C536.5 390.559 554.697 384.409 577.144 384.409C599.59 384.409 617.79 390.559 617.79 398.141V420.684C617.79 428.269 599.59 434.41 577.144 434.41C554.697 434.41 536.5 428.269 536.5 420.683ZM618.99 460.643C618.99 461.393 618.56 462.084 617.88 462.415L599.504 471.409C599.172 471.571 598.893 471.823 598.698 472.136C598.504 472.45 598.403 472.813 598.406 473.182V491.339C598.406 491.844 598.6 492.329 598.948 492.696C599.295 493.062 599.77 493.281 600.274 493.308C600.608 493.325 600.94 493.256 601.24 493.108L616.14 485.82C616.44 485.671 616.773 485.602 617.108 485.618C617.442 485.634 617.767 485.735 618.051 485.912C618.637 486.279 618.991 486.908 618.991 487.595V500.35C618.992 500.731 618.882 501.105 618.674 501.424C618.466 501.744 618.169 501.996 617.82 502.149L599.567 510.372C599.22 510.527 598.925 510.78 598.719 511.1C598.512 511.42 598.404 511.793 598.406 512.174V529.164C598.406 529.826 598.746 530.451 599.306 530.818C599.868 531.188 600.569 531.238 601.187 530.957L616.203 524.195C616.505 524.061 616.835 524.005 617.164 524.032C617.493 524.06 617.809 524.17 618.084 524.353C618.647 524.713 618.99 525.332 618.99 526.007V538.688C618.99 539.468 618.53 540.173 617.82 540.487L582.074 556.581C581.773 556.717 581.443 556.776 581.114 556.751C580.785 556.727 580.467 556.62 580.189 556.441C579.627 556.081 579.289 555.453 579.289 554.775V464.977C579.289 464.227 579.709 463.546 580.391 463.208L616.14 445.709C616.596 445.489 617.119 445.45 617.602 445.602C618.085 445.754 618.492 446.085 618.739 446.527C618.902 446.82 618.989 447.15 618.99 447.485V460.643ZM677.331 499.559L666.221 507.099C665.351 507.684 664.181 507.502 663.545 506.662L646.906 484.897L643.771 487.073V521.304C643.771 521.956 643.441 522.571 642.901 522.941L627.731 533.232C627.435 533.437 627.088 533.555 626.728 533.576C626.369 533.596 626.011 533.517 625.693 533.347C625.378 533.177 625.114 532.926 624.929 532.619C624.745 532.312 624.647 531.96 624.645 531.602V442.812C624.645 442.158 624.962 441.552 625.501 441.182L655.308 420.614C664.418 414.334 672.391 415.495 672.391 427.965V451.5C672.391 466.691 661.208 475.031 661.208 475.031L677.781 496.73C677.946 496.942 678.065 497.186 678.132 497.446C678.198 497.706 678.211 497.977 678.169 498.242C678.127 498.508 678.03 498.761 677.886 498.988C677.742 499.215 677.553 499.409 677.331 499.56V499.559ZM718.305 387.233C718.305 389.299 718.097 392.328 716.202 394.276L705.062 405.796C703.779 407.123 702.982 406.273 702.982 404.844V397.847C702.982 394.395 701.636 394.388 699.758 396.3L697.975 398.135C695.373 400.83 695.373 404.702 695.373 406.161V411.028C695.373 414.07 696.233 416.272 699.417 416.831L708.299 418.379C712.505 419.113 718.305 421.911 718.305 428.716C718.305 434.406 718.305 444.291 710.829 454.171L692.625 478.211C685.075 488.148 677.672 485.357 677.672 471.029V463.046C677.672 460.506 678.327 458.959 679.775 457.64L691.917 445.144C693.997 443.044 695.373 443.041 695.373 446.337V450.286C695.373 454.918 698.983 451.218 700.548 449.664C702.118 448.1 702.982 447.181 702.982 443.457V441.146C702.982 438.699 701.08 437.756 697.682 436.996L687.156 434.632C678.955 432.912 677.672 427.238 677.672 420.902V411.865C677.672 405.073 678.786 399.186 683.72 393.635L702.982 372.389C710.009 364.615 718.305 363.461 718.305 375.559V387.233Z" fill="#00468B"/>
<path d="M397.529 527.286L391.884 491.749L383.994 522.879L397.529 527.286ZM650.842 442.839L644.619 447.131C644.356 447.313 644.142 447.556 643.994 447.839C643.846 448.123 643.77 448.438 643.772 448.758V464.538C643.772 465.265 644.172 465.947 644.817 466.284C645.469 466.624 646.256 466.574 646.857 466.164L651.15 463.192C653.444 461.615 655.31 457.862 655.31 454.647V445.447C655.31 442.799 653.329 441.119 650.842 442.839ZM541.475 492.34L527.266 495.171V555.146L542.351 552.451C549.788 551.115 549.788 542.706 549.788 542.706V498.416C549.788 498.416 549.788 490.681 541.475 492.341V492.34ZM418.666 66.73C418.666 66.1455 418.781 65.5668 419.005 65.0269C419.228 64.4869 419.556 63.9963 419.969 63.583C420.382 63.1698 420.873 62.842 421.413 62.6184C421.953 62.3948 422.532 62.2798 423.116 62.28H529.819C530.667 62.28 531.497 62.5228 532.211 62.9796C532.925 63.4365 533.494 64.0883 533.849 64.858L595.329 197.297L646.549 93.29C599.459 61.373 542.034 42.564 480.002 42.564C441.701 42.564 405.162 49.78 371.703 62.759L418.666 153.466V66.73ZM621.657 261.252C633.898 257.526 645.145 250.935 655.372 241.719C664.502 238.717 675.13 236.961 684.945 238.389L685.86 239.669C685.172 243.403 680.487 246.259 677.266 248.201C670.332 248.339 661.936 247.133 656.566 252.44C649.069 260.264 639.622 265.571 632.612 273.22C633.161 275.703 635.998 277.683 634.394 280.494C629.044 284.27 620.489 281.417 617.646 289.052C615.278 303.695 596.936 292.352 589.756 301.822C586.255 306.419 575.862 312.001 568.008 314.082L560.485 330.089C569.228 333.184 581.305 337.833 589.33 336.577C608.06 330.578 615.278 302.074 637.172 303.764C649.496 305.926 660.365 302.194 668.946 294.003C677.336 290.818 677.99 304.346 685.718 302.924C686.389 297.981 686.822 291.88 692.49 289.786C695.175 288.731 699.487 289.092 699.838 292.643C693.915 301.019 706.762 303.731 704.94 311.598C705.975 314.964 709.89 314.964 712.602 314.121C717.079 305.563 726.355 304.826 734.862 304.346C741.529 294.581 757.322 303.695 760.982 289.971L767.146 287.891C758.433 215.428 720.676 151.481 665.269 107.046L583.513 281.076C595.937 276.811 613.301 271.851 621.657 261.252Z" fill="#00468B"/>
<path d="M489.3 412.665C488.446 414.406 487.176 415.91 485.604 417.044C484.032 418.179 482.204 418.91 480.283 419.172L347.5 437.452C346.917 437.532 346.355 437.728 345.848 438.027C345.341 438.326 344.899 438.723 344.547 439.195C344.194 439.667 343.939 440.204 343.796 440.775C343.654 441.346 343.626 441.94 343.714 442.522L351.809 495.641C351.901 496.251 352.119 496.834 352.449 497.355C352.779 497.875 353.215 498.321 353.727 498.663C354.236 499.006 354.811 499.239 355.415 499.35C356.019 499.46 356.639 499.445 357.236 499.305L370.41 496.16L378.26 465.51C378.323 465.26 378.435 465.025 378.589 464.818C378.743 464.611 378.936 464.437 379.157 464.305C379.379 464.173 379.624 464.085 379.879 464.048C380.134 464.011 380.394 464.025 380.644 464.088L406.456 470.401C406.833 470.491 407.175 470.691 407.438 470.976C407.7 471.261 407.872 471.618 407.931 472.001L410.243 486.666L426.803 482.718V476.065C426.801 475.716 426.873 475.37 427.016 475.051C427.158 474.732 427.367 474.447 427.629 474.216C427.89 473.984 428.198 473.81 428.532 473.706C428.865 473.603 429.217 473.572 429.564 473.615L450.129 476.049C450.704 476.101 451.17 476.422 451.557 476.822L491.057 467.408C492.79 466.996 494.408 466.199 495.79 465.076C497.173 463.952 498.284 462.532 499.042 460.92L523.545 408.753L497.715 395.579L489.3 412.665ZM500.884 389.15L526.584 402.265L528.634 397.907L503.007 384.835L500.884 389.15ZM538.825 376.221L513.585 363.341L512.305 365.947L511.455 367.667L536.782 380.576L538.825 376.221ZM506.168 378.404L531.693 391.422L533.736 387.061L508.297 374.095L506.168 378.404ZM595.327 197.297L533.848 64.8591C533.492 64.0896 532.924 63.4379 532.21 62.9808C531.496 62.5237 530.666 62.2802 529.818 62.2791H423.116C422.532 62.2789 421.953 62.3939 421.413 62.6175C420.873 62.8411 420.382 63.1688 419.969 63.5821C419.556 63.9953 419.228 64.4859 419.004 65.0259C418.78 65.5658 418.665 66.1446 418.665 66.729V153.466L371.702 62.7601C343.714 73.6221 317.895 88.5131 295.055 106.772V268.155C295.054 268.739 295.169 269.317 295.392 269.856C295.615 270.396 295.943 270.886 296.356 271.298C297.19 272.131 298.321 272.599 299.5 272.599H360.083C362.533 272.599 364.523 270.609 364.523 268.155V196.028L409.141 270.443C409.535 271.101 410.094 271.646 410.761 272.024C411.429 272.402 412.184 272.6 412.951 272.599H480.911C483.358 272.599 485.351 270.609 485.351 268.155V128.196L555.24 278.726L546.897 295.682L516.746 356.913L541.877 369.737L545.224 362.601L560.484 330.089L568.007 314.081L583.513 281.076L665.268 107.046C659.234 102.208 652.981 97.6481 646.548 93.2901L595.327 197.297ZM577.143 411.87C599.591 411.87 617.788 405.723 617.788 398.14C617.788 390.557 599.591 384.41 577.143 384.41C554.695 384.41 536.498 390.557 536.498 398.14C536.498 405.723 554.695 411.87 577.143 411.87Z" fill="white"/>
</svg>
