<svg width="960" height="640" viewBox="0 0 960 640" fill="none" xmlns="http://www.w3.org/2000/svg">
<path d="M729.635 562.769C721.353 562.769 714.629 569.482 714.629 577.769C714.629 586.048 721.353 592.771 729.635 592.771C737.916 592.771 744.629 586.048 744.629 577.77C744.629 569.482 737.916 562.769 729.635 562.769ZM729.635 589.552C728.087 589.554 726.554 589.25 725.124 588.658C723.694 588.067 722.394 587.199 721.3 586.105C720.205 585.01 719.337 583.711 718.746 582.281C718.154 580.851 717.85 579.318 717.852 577.77C717.852 571.26 723.117 565.996 729.635 565.996C736.145 565.996 741.415 571.26 741.415 577.77C741.415 584.282 736.145 589.552 729.635 589.552ZM735.798 574.293C735.798 573.625 735.666 572.964 735.41 572.347C735.154 571.73 734.779 571.17 734.306 570.698C733.351 569.745 732.057 569.211 730.708 569.211H723.48V586.333H726.693V579.379H728.999L732.245 586.333H735.798L732.409 579.083C733.399 578.731 734.255 578.082 734.862 577.225C735.469 576.367 735.795 575.343 735.798 574.293ZM730.708 576.165H726.693V572.418H730.708C731.741 572.418 732.585 573.257 732.585 574.293C732.584 574.79 732.385 575.266 732.034 575.617C731.682 575.968 731.205 576.165 730.708 576.165ZM741.543 106.267L787.885 24H632.879L610.656 45.61L588.433 24H371.571L349.346 45.61L327.124 24H172.113L218.467 106.267V505.85C218.467 513.892 218.467 576.635 294.288 576.635H414.225C457.283 576.635 478.269 615.999 478.269 615.999H481.729C481.729 615.999 502.721 576.635 545.779 576.635H665.713C741.533 576.635 741.543 513.892 741.543 505.85V106.267Z" fill="#154B94"/>
<path d="M438.824 222.718L706.707 416.728V222.718H438.824Z" fill="#C32032"/>
<path d="M253.303 195.399H706.709V206.332H253.303V195.399ZM253.303 505.851C253.303 537.715 275.203 541.806 294.29 541.806H414.227C441.521 541.806 463.607 556.129 479.998 569.286C496.393 556.129 518.481 541.806 545.781 541.806H589.218L253.303 298.524V505.851ZM253.303 276L620.317 541.806H635.923L253.303 264.692V276ZM392.114 222.718L706.708 450.568V439.266L407.726 222.718H392.114ZM521.851 438.666L548.389 457.888L556.12 447.223L540.432 435.863L552.94 418.583L568.628 429.948L576.35 419.271L560.672 407.921L573.189 390.648L588.865 402.002L596.593 391.328L570.048 372.106L521.851 438.666ZM388.973 240.956L364.423 223.187L316.22 289.739L327.074 297.613L348.656 267.806L354.719 272.196L344.529 310.252L355.395 318.114L365.7 279.598C372.502 282.403 380.581 280.301 385.092 274.09L392.614 263.696C397.881 256.419 396.254 246.238 388.974 240.956H388.973ZM380.279 257.869L375.695 264.184C375.263 264.783 374.716 265.29 374.087 265.677C373.458 266.065 372.759 266.324 372.029 266.441C371.3 266.558 370.555 266.53 369.836 266.359C369.117 266.188 368.44 265.877 367.841 265.444L356.388 257.138L367.561 241.718L379.021 250.016C380.228 250.891 381.039 252.21 381.275 253.682C381.511 255.155 381.153 256.66 380.279 257.869ZM603.709 497.946L614.014 459.429C620.81 462.244 628.892 460.149 633.4 453.925L640.93 443.534C646.2 436.26 644.571 426.076 637.297 420.8L612.735 403.019L564.522 469.573L575.394 477.448L596.974 447.649L603.026 452.036L592.849 490.09L603.709 497.946ZM615.872 421.556L627.332 429.856C628.54 430.731 629.352 432.049 629.588 433.522C629.824 434.995 629.467 436.501 628.593 437.71L624.015 444.022C622.199 446.538 618.681 447.098 616.162 445.28L604.696 436.976L615.872 421.556ZM465.549 296.425L417.34 362.983L428.206 370.851L457.146 330.891L445.655 383.486L456.515 391.352L504.718 324.789L493.861 316.929L464.922 356.878L476.41 304.281L465.549 296.425ZM362.711 323.415L373.575 331.286L387.285 320.268L405.35 333.355L399.166 349.814L410.026 357.682L439.998 277.925L429.147 270.054L362.712 323.414L362.711 323.415ZM409.444 322.465L396.345 312.985L420.213 293.815L409.444 322.465ZM541.941 351.745L532.841 345.155C525.551 339.883 515.38 341.506 510.104 348.781L480.997 388.981C475.721 396.257 477.347 406.434 484.637 411.711L493.733 418.301C495.969 419.918 498.579 420.941 501.318 421.275L501.127 423.657L506.911 427.858L532.689 392.266L511.542 376.943L504.968 386.027L515.255 393.475L507.075 404.761C506.424 405.662 505.521 406.349 504.479 406.737C503.437 407.124 502.304 407.194 501.222 406.937C500.504 406.766 499.827 406.455 499.229 406.022L494.586 402.656C492.076 400.838 491.506 397.316 493.331 394.809L519.481 358.693C519.915 358.094 520.462 357.587 521.091 357.2C521.72 356.813 522.42 356.554 523.149 356.438C523.879 356.321 524.624 356.35 525.343 356.521C526.061 356.693 526.739 357.004 527.337 357.438L531.977 360.795C533.184 361.669 533.995 362.987 534.233 364.458C534.47 365.93 534.114 367.435 533.243 368.645L526.861 377.455L537.718 385.324L545.572 374.476C550.842 367.198 549.222 357.024 541.941 351.745ZM677.757 450.11C667.82 442.906 653.926 445.127 646.734 455.067C633.681 473.088 658.867 494.967 652.016 504.431C648.806 508.864 642.606 509.86 638.165 506.64C633.735 503.441 632.742 497.242 635.953 492.8L639.088 488.472L628.231 480.607L625.227 484.743C617.679 495.177 620.012 509.765 630.445 517.314C640.875 524.863 655.455 522.538 663.007 512.099C675.935 494.259 650.755 472.361 657.727 462.74C658.405 461.803 659.262 461.009 660.248 460.403C661.233 459.797 662.329 459.392 663.471 459.211C664.614 459.029 665.781 459.074 666.906 459.343C668.031 459.612 669.092 460.1 670.028 460.779C673.97 463.627 674.854 469.132 671.999 473.083L669.392 476.671L680.249 484.539L682.709 481.13C689.911 471.197 687.697 457.3 677.757 450.11ZM356.351 168.556H336.983V147.223H356.351V134.051H336.983V112.725H356.351V99.5369H323.574V181.728H356.351V168.556ZM600.562 144.936H608.037L622.117 181.728H635.527L621.273 144.485C628.435 142.767 633.745 136.342 633.745 128.654V115.826C633.745 106.836 626.465 99.5379 617.475 99.5379H587.151V181.728H600.561L600.562 144.936ZM600.562 112.725H614.712C617.825 112.725 620.344 115.238 620.344 118.339V126.137C620.344 127.631 619.751 129.063 618.695 130.12C617.639 131.176 616.206 131.77 614.712 131.77H600.562V112.725ZM270.983 132.385L292.533 181.728H305.948V99.5379H292.532V148.89L270.983 99.5379H257.581V181.728H270.984L270.983 132.385ZM548.097 181.728H559.319C568.321 181.728 575.61 174.433 575.61 165.446V115.826C575.61 106.836 568.32 99.5359 559.319 99.5359H548.096C539.101 99.5359 531.806 106.837 531.806 115.826V165.446C531.806 174.433 539.102 181.728 548.097 181.728ZM545.221 118.338C545.221 115.238 547.737 112.725 550.841 112.725H556.574C557.686 112.723 558.773 113.051 559.698 113.667C560.623 114.284 561.343 115.162 561.768 116.189C562.051 116.87 562.197 117.601 562.198 118.339V162.936C562.198 163.674 562.052 164.405 561.77 165.087C561.487 165.769 561.072 166.389 560.55 166.911C560.028 167.433 559.408 167.846 558.726 168.129C558.044 168.411 557.312 168.556 556.574 168.556H550.841C549.351 168.555 547.922 167.962 546.868 166.909C545.815 165.855 545.222 164.426 545.221 162.936V118.338ZM663.695 147.702L669.705 138.048L689.022 181.728H702.432L677.559 125.464L693.734 99.5369H680.319L663.695 126.2V99.5379H650.285V181.728H663.695V147.702ZM493.361 181.728H506.774V147.702L524.474 99.5369H511.064L500.06 129.464L489.06 99.5369H475.65L493.362 147.702L493.361 181.728ZM398.529 181.728L405.557 138.648L412.585 181.728H428.626L442.042 99.5379H428.626L420.615 148.704L412.585 99.5369H398.529L390.505 148.704L382.494 99.5369H369.078L382.494 181.728H398.529Z" fill="white"/>
<path d="M634.453 27.863L610.656 51.008L586.862 27.863H373.141L349.347 51.008L325.553 27.863H178.736L222.34 105.246V505.851C222.34 525.974 229.346 572.768 294.289 572.768H414.225C452.739 572.768 474.13 602.368 479.997 611.732C485.876 602.368 507.267 572.768 545.78 572.768H665.714C730.66 572.768 737.675 525.974 737.675 505.851V105.246L781.27 27.863H634.453ZM719.995 100.619V505.851C719.995 528.314 710.579 555.087 665.714 555.087H545.78C515.3 555.087 493.598 572.219 479.997 585.842C466.417 572.219 444.703 555.087 414.225 555.087H294.29C249.431 555.087 240.01 528.314 240.01 505.851V100.62L208.977 45.54H318.377L349.347 75.656L380.322 45.541H579.686L610.657 75.656L641.625 45.541H751.028L719.996 100.62L719.995 100.619Z" fill="white"/>
</svg>
