<svg width="960" height="640" viewBox="0 0 960 640" fill="none" xmlns="http://www.w3.org/2000/svg">
<g clip-path="url(#clip0_1_2874)">
<mask id="mask0_1_2874" style="mask-type:luminance" maskUnits="userSpaceOnUse" x="0" y="0" width="960" height="640">
<path d="M0 0H960V640H0V0Z" fill="white"/>
</mask>
<g mask="url(#mask0_1_2874)">
<path d="M807.359 168.725C759.479 120.85 695.983 94.259 628.362 93.722C633.232 71.426 640.812 47.625 650.982 22.78L651.169 22.311C652.148 19.896 652.527 17.2798 652.274 14.6863C652.021 12.0928 651.143 9.59918 649.716 7.419C648.288 5.2419 646.354 3.44277 644.079 2.17524C641.805 0.907701 639.258 0.209414 636.655 0.14L636.181 0.129C633.121 0.043 630.061 0 627 0C601.644 0 551.07 3.023 497.23 23.285C440.339 44.692 394.837 79.213 361.977 125.895C348.432 145.141 330.181 176.458 320.165 216.355C318.769 221.905 317.5 227.485 316.359 233.093C314.491 233.131 312.612 233.147 310.728 233.147C288.246 233.147 261.176 230.667 230.285 225.759C202.843 221.395 157.14 206.109 147.32 202.394C140.156 199.679 133.057 196.793 126.03 193.74L117.739 190.078L77.6289 172.269L101.729 219.223C111.102 239.209 119.665 255.4 125.962 265.235C142.365 290.847 161.318 311.843 183.31 328.657L205.239 369.267C218.139 393.191 231.212 412.319 245.194 427.754C252.975 436.339 261.587 443.876 267.436 448.682C275.494 455.308 284.499 461.36 294.207 466.666L305.629 491.436C306.832 494.034 318.882 515.296 336.707 532.956C348.213 544.356 368.582 557.349 379.594 561.851L380.951 562.421C389.34 565.976 411.619 575.413 447.087 575.413C453.645 575.413 460.537 575.056 467.578 574.359L468.473 574.269C473.784 581.023 476.553 586.069 476.935 589.671C477.217 592.263 476.233 594.669 474.317 598.996C473.311 601.024 470.751 603.546 467.787 606.469L467.669 606.586C465.902 608.332 463.896 610.312 461.937 612.505L461.367 613.143C459.228 615.523 457.848 618.488 457.405 621.657C456.963 624.826 457.477 628.056 458.882 630.931C461.564 636.439 467.254 640 473.38 640C473.715 640 474.05 639.99 474.396 639.973L475.243 639.915C488.07 639.111 514.548 631.872 532.416 609.827C536.897 604.297 540.671 598.555 543.827 592.434C570.087 601.391 597.774 605.931 626.265 605.931C694.674 605.931 758.984 579.287 807.359 530.918C855.729 482.538 882.373 418.228 882.373 349.818C882.373 281.415 855.729 217.1 807.359 168.725Z" fill="white"/>
<path d="M801.005 175.079C754.327 128.402 692.274 102.699 626.26 102.699C623.36 102.699 620.368 102.764 617.361 102.87C622.992 72.0319 633.275 42.3279 642.654 19.3999L642.84 18.9369C643.276 17.869 643.445 16.7111 643.334 15.5631C643.222 14.415 642.834 13.3113 642.201 12.3469C641.569 11.3834 640.713 10.5869 639.707 10.0253C638.7 9.46381 637.573 9.15387 636.421 9.12193L635.931 9.11193C632.955 9.02561 629.978 8.98228 627.001 8.98193C602.257 8.98193 552.902 11.9369 500.397 31.6939C445.225 52.4519 401.129 85.8869 369.328 131.068C356.219 149.686 338.559 179.981 328.878 218.542C326.942 226.249 325.256 234.016 323.822 241.832L322.954 241.87C318.968 242.045 314.854 242.136 310.729 242.136C287.773 242.136 260.23 239.613 228.871 234.636C200.758 230.166 154.144 214.582 144.138 210.798C135.881 207.664 127.708 204.313 119.628 200.748L115.828 199.068L97.6309 190.982L108.169 212.751C117.186 232.529 127.016 250.215 133.531 260.391C158.072 298.713 188.495 326.288 226.534 344.687C249.005 355.556 275.048 360.341 288.572 362.225C298.7 363.635 315.955 364.965 324.077 364.965H324.088L325.653 364.95C326.361 367.69 327.133 370.474 327.963 373.295C327.478 373.295 326.994 373.3 326.515 373.3C311.016 373.3 297.061 372.188 279.843 369.586C265.595 367.43 252.283 364.412 239.148 360.373C233.485 358.627 227.583 356.721 222.734 354.598L202.812 345.868L213.143 365.003C225.703 388.278 238.366 406.832 251.853 421.718C259.267 429.898 267.522 437.121 273.143 441.741C280.934 448.149 289.673 453.993 299.116 459.113C324.604 472.914 348.614 479.073 376.956 479.073C377.317 479.073 377.684 479.067 378.057 479.062L382.837 479.019C384.96 481.751 387.121 484.453 389.319 487.125C386.701 487.295 384.231 487.37 381.559 487.37C377.876 487.37 373.666 487.22 368.317 486.907C353.952 486.061 330.31 480.877 323.806 477.774L305.093 468.816L313.783 487.663C314.848 489.951 326.398 510.091 343.036 526.575C353.484 536.921 372.814 549.375 383.071 553.565L384.46 554.15C392.385 557.508 413.445 566.428 447.083 566.428H447.088C453.353 566.428 459.942 566.088 466.685 565.418L472.066 564.88C473.306 566.093 474.392 567.27 475.291 568.403C489.609 586.51 486.798 593.008 482.471 602.775C480.821 606.24 477.702 609.311 474.094 612.872L473.988 612.978C472.226 614.718 470.405 616.512 468.633 618.498L468.063 619.131C467.145 620.157 466.545 621.427 466.333 622.787C466.122 624.147 466.309 625.54 466.872 626.796C467.434 628.053 468.347 629.12 469.502 629.869C470.657 630.617 472.004 631.016 473.381 631.016C473.53 631.016 473.679 631.016 473.833 631.005L474.679 630.946C486.043 630.238 509.525 623.793 525.434 604.169C531.884 596.212 536.137 588.469 539.139 581.199C566.687 591.646 595.998 596.947 626.261 596.947C692.269 596.947 754.328 571.24 801.005 524.563C847.682 477.886 873.384 415.826 873.384 349.823C873.384 283.815 847.683 221.756 801.005 175.079Z" fill="#010101"/>
<path d="M866.251 349.82C866.251 413.923 841.289 474.189 795.958 519.52C750.633 564.845 690.368 589.812 626.265 589.812C596.747 589.812 568.251 584.639 541.475 574.457C542.629 571.029 543.56 567.724 544.359 564.595C545.679 559.443 546.419 553.833 547.015 547.925C549.495 547.185 552.853 545.94 559.528 542.938C567.448 539.372 572.636 536.908 573.472 536.514C590.568 541.336 608.328 543.784 626.265 543.784C678.073 543.784 726.778 523.607 763.417 486.973C800.051 450.339 820.228 401.629 820.228 349.821C820.228 294.952 796.836 242.426 756.046 205.675C756.019 205.025 755.982 202.103 757.227 197.978C757.525 196.994 757.829 195.935 758.127 194.886C758.425 193.827 758.712 192.826 758.994 191.9C773.641 206.547 782.168 203.838 782.471 203.7C783.025 203.372 783.658 203.201 784.302 203.205C787.304 203.205 790.412 206.585 790.758 206.968L790.801 207.021L790.854 206.963L790.801 207.011L791.046 206.755L791.296 206.495V206.489C790.87 206.005 787.394 201.849 789.018 198.585C789.172 198.223 792.626 189.505 777.144 173.065L776.76 172.655L776.547 173.176C776.489 173.326 775.164 176.774 776.473 182.921L776.526 183.326C776.526 183.363 776.946 186.844 775.02 189.032C773.977 190.218 772.412 190.82 770.384 190.82L768.713 190.703C766.11 189.873 763.614 189.453 761.299 189.453L759.809 189.516C760.085 188.814 760.399 188.09 760.761 187.313C761.427 185.881 762.055 184.433 762.369 183.05L763.343 182.895C766.169 182.895 769.288 185.46 769.655 185.769L769.708 185.817L769.751 185.753L769.703 185.812L769.916 185.519L770.123 185.226C769.661 184.822 765.615 181.171 766.781 177.716C766.882 177.333 769.101 168.221 751.495 154.074L751.053 153.718L750.92 154.266C750.883 154.42 750.048 158.024 752.192 163.931L752.294 164.32C752.304 164.357 753.268 168.008 751.399 170.451C750.26 171.947 748.281 172.708 745.582 172.713C744.062 172.443 742.522 172.304 740.978 172.298C736.848 172.298 734.671 173.368 734.581 173.416L734.081 173.666L734.522 174.017C738.147 176.897 741.351 178.962 744.22 180.505L743.288 180.857C742.458 181.171 741.606 181.501 740.696 181.825C738.456 182.635 736.246 183.56 734.788 184.199C733.37 184.83 731.986 185.536 730.642 186.312C699.501 166.39 663.41 155.858 626.265 155.858C621.991 155.858 617.675 156.001 613.39 156.283C612.586 141.136 613.72 125.499 616.115 110.048C619.495 109.904 622.891 109.829 626.265 109.829C690.368 109.829 750.633 134.797 795.958 180.122C841.288 225.452 866.251 285.718 866.251 349.821" fill="#B9975B"/>
<path d="M772.024 401.285L769.416 412.521L776.681 443.13C776.681 443.13 755.419 446.462 745.955 447.888C743.045 457.655 728.466 495.981 728.466 495.981L725.549 494.539C723.431 473.6 712.531 462.892 700.082 454.876C693.094 450.384 685.11 447.303 677.494 444.881C667.206 441.613 656.529 439.633 645.73 438.052C647.593 433.667 647.076 428.382 645.724 425.076C643.51 419.647 640.168 415.954 637.15 412.1C650.44 409.838 651.978 400.439 651.446 394.707C649.769 397.634 642.664 409.657 632.174 407.289C610.613 381.885 606.94 380.507 604.854 372.31C603.364 366.456 606.115 358.93 612.268 354.773C623.519 347.78 630.54 354.88 641.924 369.192C647.976 376.797 669.834 405.799 684.205 422.102C695.195 434.577 706.192 442.602 719.817 449.74C727.306 453.668 735.949 456.628 735.949 456.628L737.737 453.769C737.737 453.769 727.077 443.146 720.286 429.649C716.948 423.022 714.426 415.991 712.834 409.136C708.864 392.008 712.68 374.354 712.68 374.354C712.68 374.354 702.583 376.02 693.184 362.171C690.72 358.541 688.41 350.079 687.68 344.687C687.164 340.844 686.802 337.864 686.744 334.655C704.02 318.895 727.54 290.702 736.54 288.611C739.26 294.258 778.576 377.633 778.576 377.633L769.762 381.863L769.799 391.455L746.786 408.332L772.025 401.285H772.024Z" fill="white"/>
<path d="M505.402 596.347C505.508 595.581 505.567 595.038 505.582 594.873C506.732 583.696 503.528 575.953 500.441 569.576C497.53 563.562 493.692 558.947 490.009 554.736C483.436 547.206 474.819 540.633 470.274 537.386C469.492 536.827 391.79 480.612 358.296 399.116C332.589 336.616 335.708 280.906 342.846 245.176C345.203 233.366 348.126 222.301 352.042 210.336L352.165 209.943C366.141 167.188 387.133 137.755 402.281 120.591C451.363 64.9561 530.182 31.4831 618.991 28.4441C612.562 44.4811 606.638 64.1841 601.359 87.0971C600.374 91.3871 591.933 129.191 594.067 159.971C566.785 168.071 542.312 181.341 521.305 199.431C506.674 212.029 493.714 228.406 484.809 245.544C473.483 267.355 471.296 285.068 469.699 298.001C469.507 299.561 469.321 301.061 469.129 302.493C466.633 321.079 472.722 368.267 498.626 398.313C505.726 406.557 515.583 418.783 528.064 434.254L528.224 434.456C536.522 444.745 545.884 456.353 556.417 469.249C552.622 473.059 544.197 482.039 536.787 499.608C533.083 508.39 530.737 516.878 529.81 524.831C529.443 527.961 529.187 531.244 528.91 534.709C528.165 544.167 527.33 554.822 524.009 565.376C521.789 572.439 519.235 578.171 515.977 583.414C512.954 588.289 509.175 592.872 505.402 596.347Z" fill="#C8102E"/>
<path d="M763.394 374.32L745.771 384.991L746.208 386.056L775.593 378.977L763.394 374.32ZM743.926 334.402C743.926 334.402 743.644 329.894 742.462 328.122C741.281 326.35 747.752 323.587 747.752 323.587L744.405 321.757L743.596 323.209L728.486 328.499L715.893 338.825L726.693 335.35L748.881 338.181L743.926 334.402ZM683.117 143.779C683.873 142.331 685.459 141.602 687.827 141.602C689.76 141.602 691.543 142.102 691.883 142.203L691.953 142.219L692.048 141.879L692.091 141.517C691.5 141.331 686.331 139.627 685.997 135.992C685.933 135.599 684.288 126.369 662.472 120.526L661.929 120.382L662.025 120.935C662.051 121.095 662.743 124.741 667.113 129.291L667.347 129.579C667.368 129.611 669.721 132.57 668.997 135.556C668.555 137.386 667.049 138.876 664.585 139.968C657.623 141.708 654.915 144.913 654.802 145.051L654.445 145.487L654.988 145.626C660.529 147.079 665.538 147.813 669.87 147.813C679.817 147.813 682.952 143.997 683.117 143.779Z" fill="#010101"/>
<path d="M714.518 151.827C716.87 151.827 719.276 152.865 719.739 153.073L719.803 153.104L719.952 152.774L720.042 152.424C719.484 152.157 714.598 149.757 714.762 146.111C714.757 145.717 714.406 136.344 693.606 127.552L693.085 127.333L693.105 127.893C693.111 128.053 693.292 131.756 696.981 136.861L697.178 137.191C697.198 137.223 699.12 140.48 697.992 143.338C697.3 145.084 695.602 146.356 693.01 147.096C685.878 147.856 682.754 150.661 682.62 150.784L682.205 151.162L682.727 151.38C689.977 154.392 696.331 155.925 701.627 155.925C708.167 155.925 710.691 153.578 710.84 153.429C711.601 152.365 712.841 151.827 714.518 151.827Z" fill="#010101"/>
<path d="M741.87 160.107C741.918 159.719 742.86 150.389 723.47 138.807L722.986 138.514L722.927 139.079C722.912 139.238 722.581 142.921 725.525 148.478L725.679 148.845C725.695 148.882 727.153 152.368 725.637 155.045C724.71 156.679 722.853 157.702 720.187 158.079L719.228 158.063C712.698 158.063 709.521 160.208 709.388 160.299L708.924 160.613L709.409 160.9C719.697 166.973 726.675 168.25 730.714 168.25C734.945 168.245 736.84 166.915 736.974 166.813C737.692 166.053 738.676 165.663 739.895 165.663C742.545 165.663 745.484 167.473 745.83 167.691L745.894 167.729L746.085 167.425L746.224 167.09C745.707 166.755 741.199 163.7 741.87 160.107ZM800.977 226.492L802.334 226.215C805.517 226.215 808.412 230.398 808.732 230.877L808.769 230.93L809.067 230.728L809.327 230.478C808.992 229.962 806.097 225.348 808.162 222.335C808.364 221.994 812.989 213.84 799.934 195.415L799.604 194.957L799.322 195.447C799.247 195.579 797.442 198.831 797.906 205.127L797.896 205.489C797.896 205.761 797.752 212.159 792.014 212.159C791.131 212.159 790.146 212.004 789.14 211.727C784.744 209.614 781.38 209.3 779.773 209.3C778.883 209.3 778.389 209.39 778.368 209.396L777.814 209.502L778.144 209.96C788.906 224.959 797.017 226.582 800.008 226.582L800.977 226.492Z" fill="#010101"/>
<path d="M816.156 251.62L817.056 251.503C820.451 251.503 822.953 256.468 823.23 257.033L823.261 257.091L823.581 256.937L823.879 256.718C823.613 256.165 821.388 251.188 823.847 248.495C824.097 248.187 829.802 240.745 819.407 220.696L819.147 220.196L818.807 220.643C818.705 220.771 816.486 223.725 816.065 229.994L816.007 230.399C815.964 230.639 815.054 236.259 810.217 236.259C809.083 236.259 807.805 235.945 806.475 235.365C801.025 231.751 797.006 231.565 796.255 231.565L795.564 231.597L795.824 232.092C805.804 251.087 814.943 251.63 815.954 251.63L816.156 251.62Z" fill="#010101"/>
<path d="M827.717 278.606L828.154 278.579C831.804 278.579 833.753 284.258 833.977 284.934L833.997 285.008L834.338 284.892L834.663 284.727C834.483 284.136 832.96 278.904 835.77 276.573C836.058 276.301 842.737 269.717 835.211 248.428L835.025 247.896L834.621 248.29C834.504 248.401 831.89 251.025 830.608 257.194L830.501 257.566C830.485 257.614 828.952 262.623 824.758 262.623C823.417 262.623 821.932 262.123 820.378 261.164C815.002 256.411 810.824 255.991 810.648 255.98L810.084 255.927L810.281 256.459C817.919 277.712 827.26 278.579 827.717 278.606Z" fill="#010101"/>
<path d="M830.583 288.64C825.921 283.195 821.833 282.2 821.663 282.157L821.12 282.034L821.232 282.583C825.868 304.686 834.996 306.837 835.448 306.927C839.402 307.002 840.638 313.314 840.77 314.059L840.786 314.134L841.138 314.07L841.478 313.942C841.382 313.335 840.595 307.944 843.703 306.022C844.023 305.799 851.548 300.2 847.035 278.069L846.918 277.521L846.465 277.856C846.343 277.952 843.383 280.193 841.265 286.122L841.111 286.468C841.09 286.516 839.121 290.742 835.427 290.742C833.894 290.742 832.249 290.018 830.583 288.639M657.292 134.579C658.09 122.763 621.845 132.189 621.845 132.189C621.845 132.189 656.52 146.001 657.292 134.579ZM636.072 565.065L636.142 565.411V565.368L636.152 565.411L636.131 564.693L635.817 564.698C634.651 564.698 628.818 564.512 627.987 560.823C627.838 560.461 623.921 551.94 601.344 551.759H600.779L601.014 552.27C601.083 552.43 602.861 556.23 609.072 559.695C611.222 561.425 612.282 563.255 612.233 565.14C612.153 568.21 609.109 570.452 609.077 570.478L608.88 570.632C603.393 573.906 601.759 577.285 601.69 577.429L601.45 577.939L602.222 577.945C624.624 577.945 628.6 569.515 628.765 569.137C630.031 565.73 635.465 565.432 636.083 565.411L636.072 565.065Z" fill="#010101"/>
<path d="M665.916 562.173L665.858 561.833L665.975 562.163L665.969 562.125L665.985 562.162L665.863 561.455L665.793 561.465L665.853 561.694V561.806L665.793 561.465C664.985 561.589 664.168 561.651 663.351 561.651C661.067 561.651 658.171 561.161 657.267 558.745C657.118 558.501 653.504 552.8 638.841 552.8C636.004 552.8 632.901 553.019 629.617 553.45L629.064 553.524L629.362 553.998C629.458 554.148 631.746 557.665 638.372 560.236C640.742 561.656 642.045 563.323 642.252 565.191C642.599 568.251 639.895 570.886 639.868 570.912L639.565 571.2C634.69 575.155 633.556 578.678 633.513 578.827L633.343 579.364L633.902 579.29C656.277 576.224 659.066 567.272 659.178 566.867C659.96 563.333 665.278 562.285 665.911 562.173H665.916Z" fill="#010101"/>
<path d="M694.86 554.143L694.786 554.163C694.424 554.276 692.576 554.818 690.608 554.818C688.318 554.818 686.765 554.105 685.972 552.642C685.849 552.487 682.768 548.831 673.203 548.831C668.753 548.831 663.591 549.634 657.859 551.215L657.316 551.365L657.678 551.795C657.795 551.928 660.547 555.101 667.471 556.729C670.005 557.809 671.527 559.279 671.995 561.104C672.762 564.079 670.446 567.071 670.42 567.103L670.202 567.385C665.885 571.994 665.241 575.655 665.214 575.81L665.124 576.369L665.667 576.214C687.404 570.094 688.931 560.838 688.99 560.428C689.272 556.808 694.424 555.036 695.01 554.845L694.903 554.515L695.068 554.829L695.057 554.792L695.078 554.824L694.86 554.143Z" fill="#010101"/>
<path d="M722.574 542.892L722.51 542.924L722.632 543.126L722.664 543.233L722.51 542.924C722.041 543.142 719.583 544.239 717.203 544.239C715.58 544.239 714.366 543.717 713.563 542.637C713.462 542.541 710.993 540.311 704.712 540.311C699.347 540.311 692.891 541.923 685.525 545.106L685.008 545.33L685.428 545.702C685.556 545.819 688.718 548.582 695.802 549.242C698.463 549.96 700.177 551.206 700.89 552.946C702.056 555.788 700.177 559.072 700.156 559.099L700.039 559.333C696.345 564.538 696.207 568.29 696.207 568.45L696.191 569.014L696.707 568.785C717.39 559.721 717.629 550.344 717.624 549.928C717.411 546.309 722.264 543.84 722.824 543.568L722.674 543.254L722.877 543.541L722.861 543.51L722.882 543.541L722.574 542.892Z" fill="#010101"/>
<path d="M748.468 527.928L748.415 527.965L748.558 528.152L748.601 528.258L748.415 527.965C748.085 528.184 745.105 530.073 742.422 530.073C741.24 530.073 740.277 529.701 739.505 528.923C739.431 528.87 737.595 527.609 733.539 527.609C729.473 527.609 722.442 528.929 712.074 535.236L711.594 535.528L712.063 535.838C712.191 535.922 715.273 537.945 721.547 537.945L722.825 537.913C725.56 538.253 727.429 539.254 728.381 540.877C729.931 543.533 728.52 547.041 728.504 547.077L728.419 547.312C725.475 552.981 725.859 556.722 725.879 556.882L725.944 557.441L726.423 557.148C745.658 545.311 744.599 535.997 744.54 535.582C743.827 532.026 748.298 528.907 748.809 528.567L748.617 528.274L748.857 528.534L748.835 528.498L748.867 528.53L748.468 527.928Z" fill="#010101"/>
<path d="M772.046 509.534L771.993 509.577V509.582C771.631 509.891 768.507 512.542 765.653 512.542C764.776 512.542 764.009 512.292 763.307 511.748C763.259 511.727 762.019 511.104 759.555 511.104C755.244 511.104 747.829 512.962 737.009 521.792L736.578 522.148L737.083 522.393C737.169 522.436 739.255 523.425 743.193 523.425C744.753 523.425 746.403 523.271 748.032 522.957H748.234C750.9 522.957 752.827 523.702 753.955 525.161C755.835 527.577 754.929 531.218 754.919 531.255L754.866 531.5C752.731 537.52 753.636 541.17 753.673 541.33L753.812 541.873L754.248 541.516C771.663 527.141 769.326 518.056 769.215 517.656C768.012 514.229 772.009 510.53 772.467 510.114L772.237 509.859L772.515 510.077L772.488 510.045L772.52 510.072L772.046 509.534Z" fill="#010101"/>
<path d="M792.861 488.06L792.818 488.113C792.467 488.518 789.375 491.961 786.362 491.961C785.724 491.961 785.122 491.801 784.521 491.461C784.489 491.451 783.786 491.211 782.466 491.211C778.81 491.211 771.012 493.01 759.856 505.033L759.479 505.448L760.006 505.624C760.054 505.634 761.225 506.007 763.354 506.007C765.727 506.007 768.298 505.555 770.927 504.677C773.817 504.234 775.994 504.772 777.335 506.273C779.268 508.439 778.9 511.899 778.895 511.936L778.846 512.346C777.616 518.504 778.991 521.936 779.049 522.086L779.268 522.607L779.645 522.192C794.915 505.549 791.349 496.874 791.179 496.49C789.519 493.265 792.967 489.05 793.361 488.581L793.101 488.353L793.404 488.533L793.372 488.507L793.409 488.528L792.861 488.06Z" fill="#010101"/>
<path d="M810.514 463.914L810.476 463.973C810.146 464.473 807.294 468.715 804.1 468.715L802.716 468.438L801.913 468.38C799.576 468.38 791.108 469.599 780.165 485.289L779.846 485.752L780.4 485.848C780.415 485.853 780.852 485.928 781.64 485.928C783.268 485.928 786.67 485.592 791.087 483.4C792.183 483.07 793.2 482.904 794.105 482.904C799.741 482.904 799.97 489.222 799.975 489.494L799.986 489.814C799.603 496.147 801.455 499.388 801.535 499.521L801.822 500.011L802.136 499.542C814.958 480.952 810.226 472.856 810.008 472.505C807.922 469.545 810.738 464.91 811.078 464.361H811.083L810.79 464.175L811.115 464.308L811.078 464.287L811.12 464.303L810.514 463.914Z" fill="#010101"/>
<path d="M825.287 437.931L824.974 437.788L825.313 437.878L825.276 437.857L825.315 437.867L824.664 437.569L824.633 437.633C824.362 438.213 821.902 443.238 818.49 443.238L817.565 443.12H817.469C816.463 443.12 807.351 443.674 797.558 462.92L797.355 463.447H797.941C798.686 463.447 802.683 463.255 808.107 459.551C809.522 458.901 810.822 458.571 811.977 458.571C816.746 458.571 817.719 464.117 817.756 464.351L817.826 464.761C818.326 471.021 820.588 473.948 820.683 474.075L821.035 474.517L821.285 474.011C831.419 453.824 825.618 446.463 825.352 446.138C822.866 443.493 825.031 438.49 825.287 437.931Z" fill="#010101"/>
<path d="M835.455 411.023V411.018L835.125 410.911L835.476 410.959L835.439 410.949H835.476L834.795 410.741L834.774 410.805C834.561 411.475 832.639 417.208 828.962 417.208L828.493 417.181C828.1 417.213 818.769 418.144 811.27 439.45L811.084 439.982L811.643 439.929C811.818 439.913 815.996 439.461 821.287 434.713C822.899 433.697 824.395 433.186 825.741 433.186C829.904 433.186 831.468 438.156 831.484 438.205L831.569 438.433C832.884 444.693 835.551 447.338 835.668 447.45L836.072 447.843L836.258 447.311C843.635 425.963 836.913 419.433 836.61 419.145C833.81 416.857 835.269 411.651 835.455 411.023Z" fill="#010101"/>
<path d="M844.198 390.906C841.111 389 841.893 383.603 841.988 382.996L841.648 382.938L841.925 382.928L841.999 382.938L841.962 382.928H841.999L841.297 382.81L841.287 382.88H841.281C841.153 383.609 839.924 389.937 835.895 390.028C835.512 390.108 826.389 392.268 821.769 414.378L821.652 414.926L822.2 414.798C822.37 414.755 826.453 413.766 831.068 408.353C832.776 406.926 834.426 406.208 835.958 406.208C839.648 406.208 841.622 410.428 841.643 410.471L841.755 410.695C843.878 416.719 846.88 418.992 847.008 419.083L847.46 419.418L847.572 418.864C852.069 396.734 844.539 391.145 844.198 390.906ZM565.838 556.086C565.838 556.086 598.368 574.646 600.684 563.026C602.919 551.802 565.838 556.086 565.838 556.086ZM844.088 337.245C838.015 337.245 833.092 342.168 833.092 348.241C833.092 354.314 838.015 359.237 844.088 359.237C850.16 359.237 855.084 354.314 855.084 348.241C855.084 342.168 850.161 337.245 844.088 337.245Z" fill="#010101"/>
<path d="M573.563 418.009C584.841 430.016 594.783 440.613 598.605 449.049C598.807 449.496 598.993 449.938 599.164 450.369C599.35 450.858 599.516 451.353 599.664 451.854C599.776 452.232 599.877 452.604 599.957 452.972C600.277 454.387 600.521 455.755 600.712 457.07C600.904 458.38 601.037 459.646 601.122 460.854C601.202 462.068 601.24 463.234 601.24 464.351C601.235 465.472 601.19 466.592 601.107 467.709C601.047 468.538 600.965 469.365 600.862 470.189L600.766 470.924C600.393 473.585 599.867 475.927 599.388 477.992C603.151 474.91 608.409 470.205 612.529 466.458L613.62 465.463C615.03 464.17 616.259 463.042 617.174 462.195C617.674 461.732 618.181 461.269 618.698 460.806C619.219 460.343 619.746 459.87 620.284 459.396C621.359 458.443 622.476 457.474 623.62 456.479C627.9 452.748 632.269 448.948 635.654 445.291C637.676 443.104 639.354 440.964 640.435 438.931L640.758 438.335C641.977 436.073 642.796 434.54 642.748 431.847C642.732 431.152 642.672 430.459 642.568 429.771C642.38 428.434 642.022 427.127 641.503 425.881C640.646 423.853 639.369 421.942 637.623 419.659C635.857 417.342 634.043 415.061 632.183 412.819C630.881 411.254 629.561 409.703 628.224 408.168C627.418 407.248 626.607 406.333 625.792 405.421C624.879 404.409 623.962 403.401 623.04 402.398C622.484 401.794 621.925 401.193 621.363 400.594C620.921 400.115 620.475 399.641 620.039 399.167C619.507 398.603 618.978 398.045 618.458 397.491C618.367 397.39 618.276 397.294 618.186 397.198C617.84 396.831 617.495 396.469 617.154 396.108C616.782 395.713 616.414 395.319 616.047 394.936C608.75 387.182 603.635 381.476 601.453 375.153C601.069 374.092 600.784 372.998 600.602 371.885C600.559 371.661 600.537 371.433 600.505 371.204C600.495 371.129 600.485 371.06 600.479 370.991C600.249 369.289 600.209 367.566 600.362 365.855C602.682 349.781 622.779 339.014 636.99 356.887L642.54 363.79C642.54 363.79 668.695 396.8 682.672 413.735L689.867 422.224C690.128 422.501 690.353 422.746 690.544 422.937C702.334 436.787 723.835 447.75 728.993 450.119C728.62 449.677 728.189 449.166 727.72 448.597C725.15 445.457 721.366 440.475 718.258 434.955C717.408 433.454 716.625 431.916 715.91 430.346C715.771 430.042 715.633 429.734 715.495 429.426C714.68 427.624 713.897 425.807 713.148 423.976C711.641 420.25 710.226 416.156 709.092 411.42C708.513 408.983 708.041 406.522 707.677 404.043L707.612 403.617C707.495 402.765 707.389 401.93 707.292 401.11C707.229 400.54 707.171 399.976 707.117 399.423C707.037 398.594 706.972 397.764 706.92 396.932C706.915 396.873 706.91 396.82 706.91 396.762C706.854 395.947 706.813 395.13 706.787 394.313C706.742 393.097 706.723 391.88 706.729 390.663C706.735 389.502 706.767 388.4 706.815 387.368C706.902 385.193 707.087 383.023 707.367 380.864C707.373 380.794 707.383 380.736 707.394 380.672C707.548 379.464 707.709 378.57 707.81 378.032C706.778 377.791 705.763 377.485 704.769 377.117C702.082 376.132 698.314 374.301 694.886 371.027C693.025 369.257 691.44 367.218 690.186 364.977C686.754 358.861 683.502 351.489 682.858 339.12C682.07 339.7 681.288 340.296 680.495 340.898C676.907 343.618 673.198 346.438 668.594 348.615C666.081 349.802 661.467 351.649 655.984 352.277C654.737 352.423 653.483 352.498 652.227 352.501C651.171 352.501 650.116 352.444 649.066 352.331C648.052 352.218 647.046 352.046 646.053 351.814C632.976 348.78 624.909 342.713 620.656 332.728C619.686 330.465 619.004 328.089 618.628 325.655C618.445 324.446 618.335 323.227 618.297 322.004C618.265 320.768 618.307 319.534 618.43 318.284C618.69 315.558 619.165 312.604 619.984 309.661C620.348 308.336 620.783 307.032 621.289 305.754C622.055 303.808 623.016 301.944 624.159 300.192C624.546 299.607 624.956 299.032 625.393 298.478C626.498 297.06 627.762 295.772 629.16 294.641C630.033 293.935 630.958 293.297 631.928 292.731C632.258 292.533 632.598 292.347 632.944 292.166C633.652 291.801 634.378 291.469 635.117 291.171C635.649 290.96 636.191 290.773 636.74 290.611C638.442 290.129 640.202 289.887 641.971 289.893C648.587 289.893 654.878 293.06 657.784 297.728C657.884 297.451 657.987 297.148 658.099 296.828C658.859 294.566 659.807 291.182 660.919 287.184C663.464 278.067 666.939 265.581 671.719 253.712C672.43 251.941 673.134 250.166 673.831 248.389C674.37 247.005 674.915 245.623 675.466 244.243C679.33 234.551 683.55 224.859 689.872 217.131C681.08 210.835 672.83 206.896 665.618 204.437C665.027 204.234 664.433 204.039 663.836 203.852C652.696 200.339 644.244 200.339 640.411 200.339L639.039 200.344C624.626 200.536 612.07 202.532 600.126 206.619C595.767 208.121 591.501 209.882 587.352 211.893C586.249 212.429 585.152 212.979 584.063 213.543C583.542 213.82 583.015 214.081 582.488 214.363C572.908 219.526 564.074 226.19 556.276 234.008C556.256 234.03 556.238 234.051 556.217 234.067C545.609 244.712 536.913 257.48 530.845 271.441C528.411 277.044 526.414 282.827 524.873 288.738C523.223 295.082 521.696 301.848 520.972 309.245C520.67 312.303 520.521 315.375 520.526 318.448C520.536 322.418 520.812 326.564 521.445 330.923C521.695 332.663 522.006 334.436 522.378 336.246C523.022 339.379 523.818 342.478 524.763 345.533C527.025 352.942 530.325 360.904 534.987 369.511C537.116 373.439 539.558 377.318 542.198 381.135C551.326 394.314 562.988 406.747 573.563 418.009Z" fill="#B9975B"/>
<path d="M636.231 16.252L635.725 16.242C632.816 16.1578 629.907 16.1168 626.997 16.119C602.737 16.119 554.357 19.009 502.905 38.372C449.101 58.613 406.118 91.186 375.158 135.176C362.4 153.304 345.214 182.784 335.793 220.28C320.22 282.291 325.441 329.32 329.939 351.828C334.298 373.688 343.963 400.826 355.151 422.653C357.397 427.044 368.867 447.232 376.483 458.281C384.286 469.591 392.731 480.446 401.775 490.791C413.873 504.628 421.548 511.904 427.711 517.759C429.824 519.759 431.649 521.489 433.39 523.235C442.188 532.07 451.821 539.475 460.321 546.005C469.007 552.679 476.507 558.443 480.887 563.978C497.919 585.513 493.762 594.891 488.956 605.748C486.768 610.389 483.048 614.062 479.104 617.948C477.384 619.645 475.607 621.396 473.947 623.248L473.382 623.887L474.234 623.828C484.437 623.19 505.54 617.383 519.894 599.681C530.534 586.551 534.739 573.931 537.448 563.324C539.14 556.702 539.838 548.937 540.578 540.724C541.008 535.898 541.461 530.916 542.126 526.019C543.206 518.131 545.612 509.791 548.726 503.133C553.761 492.344 559.158 484.212 565.178 478.309C563.325 476.414 561.526 474.456 559.738 472.486C553.288 479.219 545.639 490.758 541.898 499.535C535.186 515.289 534.382 524.433 533.797 531.112C533.642 532.906 533.504 534.455 533.275 535.94C533.03 537.537 532.887 539.602 532.711 541.992C532.041 551.226 530.922 566.677 521.891 583.048C515.531 594.566 506.999 603.193 495.838 609.388C498.541 605.519 501.5 597.658 500.622 587.955C498.935 569.247 484.432 554.76 472.562 545.903C436.477 518.956 406.384 488.139 383.126 454.305C360.287 421.083 345.129 386.578 338.066 351.748C329.476 309.34 330.934 264.946 342.282 223.346C353.256 183.13 373.215 146.145 400.003 116.376C452.769 57.726 530.779 25.78 625.618 23.97L624.522 27.067C619.418 41.507 614.144 56.442 609.79 72.893C606.415 85.651 603.664 98.531 601.375 112.279C598.682 128.507 597.719 145.341 598.836 158.999L606.24 157.306C603.456 107.749 620.935 53.642 636.04 16.721L636.231 16.252ZM752.83 196.714C754.102 191.961 755.933 188.129 757.146 185.59C758.072 183.658 758.626 182.492 758.562 181.827L758.541 181.657L758.402 181.567L757.46 181.396C751.835 181.396 727.995 188.038 704.912 208.376C689.776 221.708 684.107 236.025 680.355 245.499L679.737 247.048C670.253 270.764 661.615 302.555 659.465 315.296C658.049 309.905 656.042 303.598 653.876 300.996C651.747 298.43 648.229 295.018 642.311 295.018C641.395 295.018 640.426 295.098 639.447 295.263C633.773 296.205 628.643 300.814 626.37 306.988L626.306 307.169C624.773 311.326 623.331 315.243 623.538 322.109C623.65 325.919 624.709 329.97 626.306 332.669C631.98 342.276 640.756 347.146 652.386 347.146C653.886 347.146 655.452 347.066 657.043 346.906C661.567 346.454 666.378 344.596 670.956 341.536C681.526 334.473 690.073 325.404 699.127 315.802C704.257 310.368 709.564 304.742 715.28 299.521C718.798 296.311 727.043 288.796 735.457 283.889C741.727 280.238 748.013 277.662 754.155 276.23L755.124 275.698L754.922 274.458L754.698 273.894C752.612 268.454 750.893 261.476 749.429 252.551C748.231 245.185 747.519 237.898 747.944 226.258C748.173 219.861 750.062 207.055 752.83 196.714ZM577.804 517.562C584.644 514.448 591.717 511.228 599.147 508.067C615.375 501.18 627.484 496.954 642.354 492.994C657.278 489.018 672.282 485.441 691.762 485.319H692.092C697.68 485.319 704.78 486.159 709.645 487.373C702.88 467.286 679.249 460.363 670.297 457.743C661.787 455.253 642.104 451.99 635.653 451.378L634.733 451.293L635.483 450.75C637.601 449.206 638.788 447.727 640.278 445.853L641.465 444.384L641.588 444.24L641.779 444.267C653.19 445.603 665.479 448.157 675.491 451.277C686.104 454.582 695.179 459.037 702.465 464.524C706.489 467.553 709.916 471.347 713.259 476.462C717.469 482.897 718.927 492.946 718.89 499.593V500.237L718.352 499.881C713.317 496.565 708.149 494.521 702.992 493.803C699.304 493.292 695.338 493.036 691.202 493.036C680.904 493.036 669.397 494.585 656.043 497.773C643.621 500.733 631.385 504.437 618.637 509.099C604.363 514.31 593.127 519.254 577.623 526.205C575.258 527.267 572.899 528.34 570.545 529.425C562.976 532.89 555.78 536.185 547.855 538.921C548.116 536.041 548.393 533.124 548.728 530.229C559.075 526.083 568.586 521.761 577.804 517.562Z" fill="#B9975B"/>
<path d="M447.086 559.296C414.891 559.296 394.799 550.78 387.236 547.576L385.82 546.986C376.33 543.106 357.766 531.13 348.053 521.502C332.395 505.992 321.207 486.704 320.259 484.666L319.855 483.787L320.728 484.208C328.743 488.035 353.428 493.176 367.895 494.028C373.398 494.352 377.735 494.501 381.557 494.501C386.901 494.501 391.292 494.203 396.082 493.709C396.407 494.081 396.726 494.459 397.056 494.837C398.929 496.98 400.822 499.105 402.735 501.213C397.753 501.692 391.957 501.99 384.383 502.171L383.085 502.187C373.648 502.187 346.893 500.202 339 498.222C354.115 517.813 367.692 531.141 391.473 541.03C400.192 544.652 409.287 547.294 418.59 548.907C427.777 550.498 438.448 551.27 451.227 551.27C453.037 551.27 454.927 551.249 456.907 551.222C460.153 553.718 463.219 556.076 465.976 558.317C459.589 558.955 453.25 559.296 447.086 559.296ZM333.72 388.343C331.858 388.412 329.995 388.446 328.132 388.444C312.202 388.444 291.227 386.534 272.019 383.329C254.689 380.439 242.208 377.374 235.747 374.436C236.167 375.106 236.673 375.921 237.247 376.858C243.134 386.416 256.93 408.786 274.776 423.54C290.429 436.479 309.866 450.69 335.386 457.992C347.506 461.457 357.661 463.192 373.144 464.368C374.93 466.908 376.748 469.426 378.599 471.92C378.051 471.926 377.498 471.942 376.955 471.942C349.864 471.942 326.903 466.05 302.511 452.84C293.479 447.943 285.122 442.354 277.671 436.234C272.231 431.763 264.259 424.785 257.137 416.93C244.039 402.474 231.707 384.378 219.417 361.614L218.939 360.72L219.865 361.13C225.055 363.408 231.191 365.388 237.045 367.187C250.527 371.338 264.173 374.425 278.773 376.634C296.363 379.295 310.648 380.434 326.514 380.434C327.994 380.434 329.511 380.418 331.034 380.397C331.884 383.037 332.784 385.687 333.721 388.343M264.592 254.844L264.028 254.786C231.487 251.396 194.758 242.624 173.191 236.136C157.575 231.447 142.752 226.301 129.143 220.856L128.622 220.627C133.337 230.83 138.878 240.974 145.089 250.762C161.822 277.156 181.659 298.52 204.039 314.264C233.201 334.776 266.152 343.393 275.402 345.197L275.412 345.064H275.732L275.892 345.085L277.084 345.33C281.102 346.123 301.971 350.056 318.992 350.056C320.376 350.057 321.761 350.027 323.144 349.966C323.324 350.924 323.5 351.866 323.676 352.75C324.011 354.41 324.378 356.113 324.766 357.827C324.549 357.833 324.326 357.833 324.086 357.833C316.203 357.833 299.422 356.533 289.554 355.161C276.445 353.33 251.233 348.711 229.645 338.267C192.82 320.459 163.35 293.724 139.532 256.542C132.991 246.323 123.32 229.563 114.395 207.747L114.022 206.831L113.969 206.81L113.931 206.65L113.506 205.836L114.315 206.198H114.48L114.533 206.294C123.805 210.424 132.916 214.181 141.619 217.471C151.769 221.308 199.1 237.121 227.756 241.677C259.483 246.717 287.398 249.272 310.726 249.272C315.064 249.272 319.269 249.176 323.271 248.995C322.867 251.486 322.494 253.945 322.154 256.372C316.065 257.074 309.726 257.421 302.854 257.421C289.294 257.421 276.168 256.053 264.592 254.844Z" fill="#B9975B"/>
<path d="M829.437 534.47C822.033 534.47 816.023 540.478 816.023 547.89C816.023 555.296 822.033 561.306 829.437 561.306C836.849 561.306 842.857 555.296 842.857 547.89C842.857 540.478 836.849 534.47 829.437 534.47ZM829.437 558.43C823.617 558.43 818.894 553.712 818.894 547.89C818.894 542.071 823.618 537.348 829.437 537.348C835.268 537.348 839.982 542.071 839.982 547.89C839.982 553.712 835.268 558.43 829.437 558.43Z" fill="#010101"/>
<path d="M834.945 544.778C834.948 543.877 834.682 542.996 834.182 542.247C833.683 541.497 832.971 540.914 832.139 540.57C831.587 540.34 830.995 540.222 830.398 540.222L823.926 540.219V555.555H826.809V549.316H828.871L831.776 555.555H834.949L831.925 549.064C832.808 548.747 833.572 548.165 834.112 547.398C834.653 546.631 834.944 545.716 834.945 544.778ZM830.398 546.452H826.808V543.1H830.398C830.832 543.115 831.244 543.298 831.546 543.611C831.848 543.924 832.017 544.341 832.017 544.776C832.017 545.211 831.848 545.628 831.546 545.941C831.244 546.254 830.832 546.437 830.398 546.452Z" fill="#010101"/>
</g>
</g>
<defs>
<clipPath id="clip0_1_2874">
<rect width="960" height="640" fill="white"/>
</clipPath>
</defs>
</svg>
