<svg width="960" height="640" viewBox="0 0 960 640" fill="none" xmlns="http://www.w3.org/2000/svg">
<path d="M437.927 458.938C429.646 458.938 422.922 465.651 422.922 473.938C422.922 482.217 429.646 488.94 437.927 488.94C446.209 488.94 452.922 482.217 452.922 473.939C452.922 465.651 446.209 458.938 437.927 458.938ZM437.927 485.721C436.379 485.722 434.847 485.419 433.416 484.827C431.986 484.235 430.687 483.367 429.593 482.273C428.498 481.179 427.631 479.879 427.039 478.449C426.447 477.019 426.144 475.487 426.145 473.939C426.145 467.429 431.41 462.164 437.927 462.164C444.437 462.164 449.707 467.429 449.707 473.939C449.707 480.451 444.437 485.721 437.927 485.721ZM444.091 470.461C444.091 469.793 443.959 469.132 443.703 468.514C443.447 467.897 443.072 467.337 442.599 466.865C442.127 466.393 441.565 466.019 440.948 465.764C440.331 465.509 439.669 465.378 439.001 465.379H431.773V482.502H434.986V475.548H437.292L440.538 482.502H444.091L440.702 475.251C441.692 474.9 442.549 474.251 443.156 473.393C443.763 472.536 444.09 471.512 444.092 470.461H444.091ZM439.001 472.333H434.986V468.586H439.001C439.498 468.587 439.975 468.785 440.327 469.136C440.679 469.488 440.877 469.965 440.878 470.462C440.875 470.959 440.677 471.434 440.326 471.785C439.974 472.135 439.498 472.332 439.001 472.333Z" fill="black"/>
<path d="M604.217 80H137.66V102.021C137.66 136.109 150.984 168.124 173.785 191.336H137.66V213.362C137.66 247.442 150.984 279.462 173.785 302.66H137.66V324.69C137.66 358.763 150.984 390.779 173.785 414.002H137.66V436.025C137.66 504.383 189.988 560 254.316 560H362.513L435.951 435.847C477.264 486.216 539.196 516.239 604.217 516.239C724.488 516.239 822.34 418.399 822.34 298.127C822.34 177.85 724.488 80 604.217 80Z" fill="black"/>
<path d="M604.217 87.5039H145.16V102.021C145.16 142.347 164.47 177.921 193.721 198.836H145.161V213.363C145.161 253.675 164.471 289.243 193.721 310.164H145.161V324.691C145.161 365.004 164.471 400.571 193.721 421.491H145.161V436.025C145.161 500.242 194.127 552.492 254.316 552.492H358.237L434.901 422.884C474.579 476.634 537.251 508.739 604.217 508.739C720.351 508.739 814.834 414.257 814.834 298.127C814.834 181.989 720.351 87.5039 604.217 87.5039Z" fill="white"/>
<path d="M604.217 102.021H163.877C163.877 158.334 206.246 203.979 258.513 203.979H424.386C426.969 203.979 429.069 206.079 429.069 208.668C429.069 211.257 426.969 213.362 424.386 213.362H163.878C163.878 269.667 206.246 315.311 258.513 315.311H358.533C361.117 315.311 363.224 317.411 363.224 320.009C363.224 322.585 361.117 324.691 358.534 324.691H163.877C163.877 380.993 206.245 426.639 258.512 426.639H292.68C293.925 426.639 295.118 427.133 295.998 428.014C296.879 428.894 297.373 430.087 297.373 431.332C297.373 432.577 296.879 433.77 295.998 434.65C295.118 435.531 293.925 436.025 292.68 436.025H163.877C163.877 492.32 206.245 537.97 258.512 537.97H349.96L520.905 248.947C537.745 220.481 568.745 201.39 604.216 201.39C657.64 201.39 700.949 244.7 700.949 298.128C700.949 351.541 657.64 394.86 604.216 394.86C551.462 394.86 508.576 352.622 507.506 300.12L442.82 409.498C478.201 460.67 537.285 494.22 604.217 494.22C712.516 494.22 800.312 406.421 800.312 298.128C800.312 189.82 712.516 102.021 604.217 102.021Z" fill="black"/>
<path d="M604.217 242.473C573.481 242.473 548.572 267.389 548.572 298.127C548.572 328.852 573.481 353.77 604.217 353.77C634.957 353.77 659.869 328.852 659.869 298.127C659.869 267.389 634.957 242.473 604.217 242.473Z" fill="#D24303"/>
</svg>
