<svg width="960" height="640" viewBox="0 0 960 640" fill="none" xmlns="http://www.w3.org/2000/svg">
<path d="M527.212 563.333C518.93 563.333 512.207 570.046 512.207 578.333C512.207 586.612 518.93 593.335 527.212 593.335C535.493 593.335 542.207 586.612 542.207 578.334C542.207 570.046 535.493 563.333 527.212 563.333ZM527.212 590.116C524.881 590.118 522.602 589.428 520.664 588.133C518.725 586.839 517.215 584.999 516.323 582.845C515.732 581.415 515.428 579.882 515.429 578.334C515.429 571.824 520.694 566.559 527.212 566.559C533.722 566.559 538.992 571.824 538.992 578.334C538.992 584.846 533.722 590.116 527.212 590.116ZM533.375 574.856C533.375 574.188 533.243 573.527 532.987 572.91C532.731 572.293 532.356 571.733 531.883 571.261C530.928 570.308 529.634 569.774 528.285 569.774H521.057V586.897H524.27V579.943H526.576L529.822 586.897H533.376L529.986 579.646C530.976 579.294 531.833 578.645 532.439 577.788C533.046 576.93 533.373 575.906 533.375 574.856ZM528.285 576.728H524.27V572.981H528.285C528.783 572.982 529.26 573.179 529.612 573.531C529.964 573.883 530.162 574.359 530.163 574.857C530.162 575.354 529.963 575.83 529.611 576.181C529.259 576.532 528.782 576.729 528.285 576.728Z" fill="black"/>
<path d="M770.21 95.226H726.835C725.073 90.19 722.123 85.256 717.773 80.916C705.188 68.313 688.28 66.265 678.433 76.105C676.353 78.192 674.8 80.678 673.767 83.437C670.867 81.315 667.234 79.395 662.901 77.679C656.811 64.892 648.211 46.814 628.881 46.814C621.977 46.814 615.794 48.957 610.934 51.37C596.683 40.083 565.783 18.956 534.242 18.956C499.705 18.956 451.784 50.67 437.732 50.67C427.495 50.67 404.529 0 368.874 0C349.721 0 330.316 12.981 307.194 26.928C285.137 40.139 279.24 56.117 272.859 72.964C270.684 78.457 261.066 88.506 254.389 95.226H143.719L332.173 422.941H203.153L162.063 496.934H351.373C357.863 496.934 365.072 494.713 371.495 491.334L456.974 640L540.152 495.335H609.427V454.765H604.776C604.73 440.673 594.062 425.307 588.713 418.523L587.691 412.663L603.584 385.002L696.221 350.84C711.261 345.294 718.247 331.818 721.497 321.287C721.497 321.287 731.717 321.185 741.037 310.482C747.569 312.165 755.878 313.902 762.316 313.902C776.333 313.902 791.055 305.891 794.857 290.974C794.857 290.974 809.695 281.856 816.281 253.824L700.964 215.648L770.21 95.226Z" fill="white"/>
<path d="M680.361 237.164L694.839 241.954L694.744 251.291C687.033 250.998 680.864 249.53 680.864 272.075C680.864 288.895 684.072 294.345 684.072 299.088C684.072 307.135 683.386 309.045 658.092 309.045C658.092 309.045 654.141 304.249 640.265 298.876C640.265 298.876 640.003 297.592 639.437 295.236L746.58 108.908H714.12C716.522 104.296 714.155 96.628 708.107 90.578C701.259 83.738 692.303 81.584 688.111 85.775C686.201 87.678 685.621 90.572 686.181 93.808L672.838 107.798C673.198 105.685 673.952 94.582 652.995 88.598C646.681 76.104 641.415 60.485 628.882 60.485C618.642 60.485 609.754 68.273 609.754 68.273C609.754 68.273 571.468 32.626 534.244 32.626C501.932 32.626 457.354 64.351 437.733 64.351C416.797 64.351 398.297 13.668 368.875 13.668C353.061 13.668 334.388 26.387 314.291 38.625C294.203 50.825 290.457 65.78 285.559 78.043C282.315 86.171 272.039 97.066 260.035 108.908H167.383L355.573 436.198C354.143 436.456 352.753 436.633 351.48 436.633H211.205L185.305 483.249H351.374C358.437 483.249 368.118 479.004 372.886 473.79L375.536 470.922L456.975 612.552L532.234 481.653H595.757V468.446H580.494L577.785 459.953H580.112L591.109 454.867C591.109 442.176 575.85 424.359 575.85 424.359L573.36 410.147L594.204 373.888L691.496 338.004C708.746 331.648 710.671 306.506 710.671 306.506C710.671 306.506 726.489 313.937 735.226 294.636C735.226 294.636 752.77 300.242 762.316 300.242C770.601 300.242 782.185 295.767 782.185 283.32C782.185 283.32 794.961 275.666 799.138 262.571L684.511 224.604L680.361 237.164ZM689.891 98.99C693.887 98.99 696.183 100.536 696.183 102.775C696.183 105.003 688.101 115.618 677.853 115.618C675.693 115.618 675.193 114.437 675.193 113.768C675.193 110.503 685.874 98.99 689.891 98.99ZM681.253 121.002C690.707 132.405 691.043 144.922 691.043 144.922L678.519 122.94C678.519 120.7 681.253 121.002 681.253 121.002ZM675.434 128.5C675.434 128.5 689.24 143.777 689.24 152.393C689.24 157.113 685.469 155.216 685.469 155.216L672.092 135.178L675.434 128.5ZM677.666 165.523C671.105 165.523 664.858 147.721 664.858 147.721C664.858 147.721 665.516 144.121 669.025 144.121C680.227 153.677 677.666 165.523 677.666 165.523ZM655.361 156.061C666.489 156.061 670.868 176.329 669.885 180.008C659.089 180.008 655.361 156.061 655.361 156.061ZM659.273 192.529C643.551 192.529 635.588 164.116 635.588 164.116C635.588 164.116 635.904 160.179 647.035 161.052C647.035 161.052 662.831 177.1 659.273 192.529ZM669.722 121.249C669.722 135.529 653.2 153.069 645.015 153.069C640.703 153.069 640.053 149.652 640.053 149.652C640.053 149.652 650.26 127.942 665.393 118.197C665.393 118.197 669.722 118.31 669.722 121.249ZM655.106 99.255C661.954 95.343 672.07 107.995 662.41 112.891C648.142 119.873 632.798 149.38 632.798 149.38C625.918 150.54 623.358 146.324 623.358 146.324C623.358 146.324 626.396 117.854 655.106 99.255ZM481.313 346.37C476.001 352.422 461.092 342.04 466.751 336.116L622.554 172.365C628.324 166.603 635.974 173.737 630.506 179.857L481.314 346.369L481.313 346.37ZM491.903 365.464L490.538 369.927L485.247 369.1L486.092 361.265C489.187 360.416 490.475 364.615 491.903 365.464ZM475.866 357.838C481.226 357.838 481.009 365.545 481.009 378.307C481.009 386.821 477.755 390.237 475.519 390.237C471.505 390.237 471.71 384.08 470.479 381.89C470.479 381.89 472.135 379.722 472.135 375.382C472.135 371.024 469.949 357.838 475.866 357.838ZM403.066 342.642C399.567 346.122 393.282 345.684 393.282 345.684C393.282 345.684 376.176 330.634 386.614 316.164C397.674 322.94 403.065 342.642 403.065 342.642H403.066ZM394.936 311.176C394.936 304.7 408.711 300.154 408.711 312.304C408.711 327.68 411.671 327.432 411.671 329.544C411.671 332.402 406.107 330.364 406.107 330.364C406.107 325.667 394.937 317.638 394.937 311.176H394.936ZM423.776 340.782C430.464 340.782 428.136 349.299 428.136 349.299C416.139 346.438 398.326 363.486 398.326 363.486C398.326 363.486 397.119 360.823 397.119 357.834C397.119 352.04 410.179 340.782 423.775 340.782H423.776ZM414.204 310.052C414.204 301.247 422.566 297.02 422.566 321.476C419.647 324.383 414.204 319.863 414.204 310.051V310.052ZM408.339 364.339C419.463 400.121 429.583 419.369 429.583 419.369L425.629 421.435C425.629 421.435 405.414 407.145 402.499 373.528L408.339 364.339ZM416.446 359.889C435.996 349.104 443.732 381.89 443.732 381.89C443.732 413.137 440.676 418.361 440.676 418.361C436.112 417.176 425.296 396.056 416.446 359.889ZM436.763 332.862C434.578 334.093 429.834 334.33 429.834 327.21C429.834 320.323 427.574 310.362 430.654 303.642C441.425 308.732 434.046 327.454 436.763 332.862ZM435.589 348.178C435.589 345.833 438.529 342.052 444.096 342.052C449.674 342.052 454.849 343.01 454.849 348.932C454.849 356.168 446.098 361.01 444.566 361.01C441.871 361.01 435.589 354.325 435.589 348.178ZM441.507 307.264C441.507 307.264 449.999 306.373 449.999 316.857C449.999 320.977 450.006 327.878 450.42 330.924C448.51 333.881 442.907 331.483 442.907 331.483C442.907 331.483 440.102 315.937 441.507 307.264ZM451.531 373.528C451.531 373.528 462.952 362.047 462.952 389.665C462.952 413.002 447.24 424.756 447.24 415.56C447.24 409.904 453.137 410.548 451.53 373.528H451.531ZM457.091 315.336C457.091 315.336 462.56 312.817 462.56 324.203C462.56 335.684 461.35 335.003 459.617 335.968C459.617 335.968 454.947 328.876 457.091 315.336ZM462.542 366.337C460.862 366.337 457.947 364.54 457.947 362.213C457.947 355.075 459.867 350.933 463.334 350.933C465.439 350.933 466.316 353.243 466.316 355.701C466.316 363.674 463.709 366.337 462.542 366.337ZM619.703 157.697C619.703 157.697 625.197 155.295 628.284 165.075C623.382 164.817 620.4 166.978 620.4 166.978C620.4 166.978 617.5 160.972 619.703 157.697ZM635.086 67.062L641.146 80.046C634.722 80.046 630.258 70.347 630.258 68.462C630.258 66.008 634.51 65.813 635.086 67.062ZM621.656 67.812L640.87 93.961C640.87 93.961 639.37 97.077 636.717 94.241L615.802 71.971C615.802 71.971 616.799 67.812 621.656 67.812ZM611.911 77.513L634.775 103.703C636.01 104.941 631.829 108.255 629.465 105.938L603.563 80.602C603.563 80.602 608.873 74.036 611.911 77.513ZM598.279 86.374C602.124 86.374 626.735 105.383 626.735 110.996C626.735 111.646 624.938 114.183 623.895 113.444L592.701 91.163C592.701 91.163 594.438 86.374 598.279 86.374ZM587.516 98.658C599.556 104.116 610.252 110.918 621.093 118.113C622.894 119.326 620.06 124.961 618.31 124.034L585.506 106.231C585.506 106.231 584.502 102.663 587.516 98.658ZM583.791 113.444C590.48 115.354 612.403 127.458 615.24 129.336C617.68 130.92 614.203 134.546 613.032 134.051L582.107 119.584C582.107 119.584 580.045 117.264 583.791 113.444ZM577.901 125.972C590.186 129.435 605.771 137.68 605.771 137.68C583.858 138.777 577.085 128.501 577.085 128.501L577.901 125.972ZM439.374 122.828C485.983 122.828 537.681 167.152 573.12 216.3L476.245 318.095C422.145 289.518 369.714 244.151 369.714 185.835C369.714 153.445 397.774 122.828 439.374 122.828ZM313.13 53.025C320.898 49.318 326.356 56.728 326.356 56.728C325.294 59.594 316.812 65.618 316.812 71.627C316.812 74.863 332.818 75.136 332.818 87.505C332.818 92.91 330.058 95.626 330.058 95.626L323.724 96.153C323.724 96.153 326.451 93.475 326.451 88.396C326.451 84.031 322.054 80.268 318.991 80.268C309.894 80.268 312.031 93.43 305.716 88.208C307.591 77.962 311.963 69.947 313.13 53.025ZM282.499 97.087C299.449 114.051 307.099 132.699 307.099 132.699C303.679 141.177 266.412 158.127 266.412 158.127L288.455 117.45L233.333 164.93C233.333 164.93 234.182 142.879 240.959 135.246C247.75 127.644 282.499 97.087 282.499 97.087ZM217.769 477.462H195.153L214.611 442.43H237.245L217.769 477.462ZM368.614 469.864C364.917 473.907 356.867 477.462 351.374 477.462H334.764L350.614 442.43H351.48C360.036 442.43 371.443 437.673 377.481 431.59L404.254 404.59L414.738 419.556L368.614 469.864ZM544.713 459.954H562.225L559.792 468.446H539.839L544.713 459.953V459.954ZM490.124 451.924C488.688 450.095 490.234 446.501 493.52 443.913C496.856 441.295 500.736 440.697 502.15 442.547C503.604 444.376 502.08 447.984 498.762 450.587C495.43 453.18 491.56 453.774 490.124 451.924ZM577.244 472.921H591.304V477.204H479.901C481.645 467.834 487.007 461.333 488.231 459.954H492.097L499.44 472.921H511.558L515.676 459.953H522.47L527.217 472.921H563.165L566.855 459.953H573.108L577.244 472.921ZM581.803 352.439C565.988 352.439 535.863 344.979 503.183 330.947L587.095 237.274C605.13 266.777 616.375 296.007 616.375 316.728C616.375 348.403 596.433 352.438 581.803 352.438V352.439ZM709.783 255.391L714.498 248.461L742.495 257.721L742.745 266.321L709.783 255.391ZM763.353 292.821C759.25 293.804 755.483 292.768 754.949 290.476C754.379 288.223 757.279 285.552 761.372 284.562C765.44 283.578 769.239 284.654 769.769 286.918C770.328 289.195 767.452 291.838 763.353 292.821ZM758.415 271.513L763.375 264.648L769.348 266.632L771.152 275.733L758.415 271.513ZM687.344 230.246L793.191 265.28C789.471 272.467 783.103 277.302 780.769 278.919L776.011 277.349L773.224 263.199L761.69 259.383L753.971 270.033L747.258 267.809L746.844 254.477L712.694 243.169L705.368 253.939L699.192 251.889L699.33 238.737L685.992 234.323L687.342 230.245L687.344 230.246Z" fill="black"/>
<path d="M395.251 370.917C389.239 356.433 391.895 353.132 391.895 353.132C391.895 353.132 372.582 337.265 378.312 317.524C378.312 317.524 328.602 245.494 328.602 202.787C328.602 180.68 339.33 182.831 339.33 164.759C339.33 149.921 329.178 138.832 321.906 138.832C313.569 138.832 287.546 156.015 249.434 178.476L263.858 145.418L229.098 181.041C229.098 181.041 222.308 146.267 241.012 127.581C244.043 124.524 247.152 121.507 250.24 118.487H183.93L364.889 433.167C368.186 431.593 371.231 429.658 373.357 427.5L401.884 398.74C397.321 388.054 395.252 376.983 395.252 370.917H395.251ZM613.139 150.508L609.753 142.878C592.22 145.832 576.529 136.943 572.044 134.63C567.549 132.349 572.454 122.526 572.454 122.526C572.454 122.526 571.238 120.407 568.482 118.486H550.142C546.69 121.586 545.884 126.368 548.706 129.279C568.167 149.476 583.791 171.151 596.238 192.045L616.58 170.659L613.139 150.509V150.508ZM687.506 121.401C698.153 133.986 693.76 146.871 693.76 146.871C693.76 156.606 688.614 156.443 688.614 156.443C688.614 179.085 676.729 175.109 676.729 175.109C676.729 204.909 643.904 192.829 643.904 192.829C638.549 192.136 634.089 190.651 630.46 188.889L608.236 213.689C622.643 241.738 631.28 266.664 635.886 282.199L729.994 118.486H690.124L687.506 121.401ZM535.138 359.053C535.138 357.052 505.298 349.128 493.591 344.643C482.888 348.849 496.791 350.996 496.791 364.897C496.791 373.135 492.781 382.798 492.781 382.798L486.821 384.488C486.821 384.488 474.961 406.366 467.341 403.144C456.465 422.272 452.015 426.698 434.736 426.698C429.186 426.698 424.302 425.081 420.008 422.378L382.313 463.491L456.975 593.335L521.188 481.654H475.025C475.025 469.762 482.587 459.954 482.587 459.954C482.587 441.026 494.245 436.994 502.929 436.219C521.382 434.596 528.905 436.198 528.905 427.182C528.905 420.815 528.35 413.302 528.35 413.302H535.138C535.138 388.507 528.205 382.487 528.205 369.832C528.205 364.985 535.138 362.892 535.138 359.053ZM529.733 466.784L533.659 459.954H527.208L529.733 466.784Z" fill="#FFB81C"/>
<path d="M502.027 468.447H508.298L511.004 459.954H497.221L502.027 468.447ZM564.694 405.974L579.168 380.801L563.025 388.724L564.694 405.974Z" fill="#FFB81C"/>
</svg>
