<svg width="960" height="640" viewBox="0 0 960 640" fill="none" xmlns="http://www.w3.org/2000/svg">
<path d="M225.143 521.143C349.845 532.046 428.94 567.213 467.429 640C599.232 618.638 721.143 534.106 721.143 425.143C721.143 279.972 545.261 257.152 540.571 214.857C614.553 241.67 695.994 213.447 734.857 121.143C619.927 112.654 535.8 70.723 499.43 0C358.465 25.097 245.714 116.317 245.714 214.857C245.714 358.787 430.704 396.892 451.429 427.429C350.465 389.145 263.387 432.775 225.143 521.143Z" fill="#001425"/>
<path d="M443.888 207.418C428.108 191.386 421.535 178.833 421.535 162.263C421.535 143.315 430.675 134.044 430.675 123.415C430.675 114.294 424.945 107.139 413.965 104.96C420.482 97.9459 429.312 93.7089 437.531 93.7089C484.575 93.7089 498.466 197.676 596.619 193.943C631.604 190.589 664.656 173.577 685.432 143.763C599.716 132.636 521.466 96.2089 483.234 34.2949C443.569 41.5149 277.247 98.9089 281.454 218.871C285.839 343.97 470.831 378.733 522.579 432.454C563.381 474.813 534.645 517.498 508.342 533.019C467.711 427.349 334.19 419.832 281.035 496.109C366.75 507.237 445 543.663 483.233 605.577C577.785 585.74 623.397 502.83 606.035 443.028C577.304 344.059 390.745 326.649 341.261 233.948C314.817 181.791 336.561 126.099 384.906 93.6949C365.935 118.152 356.854 146.342 357.263 172.723C361.55 177.401 363.383 188.361 363.42 188.583C364.044 192.413 365.169 200.493 363.168 205.444C365.28 210.991 367.992 216.287 371.231 221.364C377.704 222.984 384.979 231.424 385.131 231.597C392.251 239.783 393.36 244.947 393.539 246.912C397.937 250.834 402.658 254.627 407.649 258.315C411.813 257.818 418.151 259.839 424.616 263.948C432.049 268.815 435.753 273.628 436.802 277.246C442.057 280.299 447.361 283.265 452.713 286.144C456.872 285.012 463.707 286.332 470.586 289.847C477.471 293.37 482.551 298.212 484.036 302.273C489.487 304.993 494.978 307.708 500.48 310.432C504.637 309.229 511.54 310.422 518.478 313.955C525.265 317.412 530.227 322.175 531.811 326.199C537.401 329.088 542.957 332.043 548.477 335.063C553.584 334.024 561.727 337.131 566.16 339.764C572.708 343.681 577.212 348.758 578.535 352.872C584.082 356.474 589.449 360.176 594.583 364.003C598.923 363.801 605.306 366.285 611.266 371.361C617.69 376.954 620.992 383.107 621.135 387.39C625.585 392.143 629.661 397.09 633.305 402.254C638.563 403.57 643.87 409.654 646.82 415.759C650.91 424.665 650.372 430.943 649.172 434.183C656.269 456.325 658.182 484.205 646.771 516.28C646.653 516.615 646.503 517.007 646.337 517.422C670.213 491.429 686.36 459.425 685.013 421.002C680.626 295.904 495.636 261.14 443.887 207.418H443.888Z" fill="#96D8D8"/>
<path d="M514.882 220.542C493.742 196.226 480.24 153.13 456.932 136.288C446.48 173.397 468.255 213.994 514.882 220.542Z" fill="#C8102E"/>
<path d="M498.141 569.365C490.518 591.71 483.234 605.577 483.234 605.577C445.001 543.663 366.751 507.237 281.035 496.109C369.601 451.706 461.296 498.421 498.141 569.365ZM685.431 143.764C596.865 188.166 505.171 141.451 468.326 70.5079C475.949 48.1629 483.234 34.2949 483.234 34.2949C445.779 41.1149 277.212 97.9009 281.454 218.871C285.839 343.97 470.831 378.733 522.579 432.454C563.381 474.813 534.645 517.498 508.342 533.019C505.341 546.626 501.705 558.919 498.141 569.365C517.411 566.008 575.828 535.084 576.212 475.573C576.742 393.553 470.732 371.821 390.381 322.046C324.242 281.075 311.404 240.418 308.051 214.686C300.165 154.15 342.884 98.8659 404.985 72.7859C396.077 80.3809 389.168 87.7859 384.905 93.6949C365.935 118.152 356.854 146.342 357.263 172.723C361.55 177.401 363.383 188.362 363.42 188.583C364.044 192.413 365.169 200.493 363.168 205.444C365.28 210.991 367.992 216.287 371.231 221.364C377.704 222.984 384.979 231.424 385.131 231.597C392.251 239.783 393.36 244.948 393.539 246.912C397.937 250.834 402.658 254.627 407.649 258.315C411.813 257.818 418.151 259.839 424.616 263.948C432.049 268.814 435.753 273.628 436.802 277.246C442.057 280.299 447.361 283.265 452.713 286.144C456.872 285.012 463.707 286.332 470.586 289.847C477.471 293.37 482.551 298.212 484.036 302.273C489.487 304.993 494.978 307.707 500.48 310.432C504.637 309.229 511.54 310.423 518.478 313.955C525.265 317.412 530.227 322.175 531.811 326.2C537.431 329.11 542.997 332.06 548.477 335.063C553.584 334.024 561.727 337.131 566.16 339.764C572.708 343.681 577.212 348.758 578.535 352.872C584.082 356.474 589.449 360.176 594.583 364.003C598.923 363.801 605.306 366.285 611.266 371.361C617.69 376.954 620.992 383.107 621.135 387.391C625.585 392.143 629.661 397.089 633.305 402.255C638.563 403.57 643.87 409.654 646.82 415.759C650.91 424.665 650.372 430.943 649.172 434.183C656.269 456.325 658.182 484.205 646.771 516.28C677.291 464.563 674.351 413.218 640.235 369.808C568.949 279.103 389.583 268.266 390.254 164.3C390.414 139.567 400.734 119.892 413.966 104.961C420.482 97.9469 429.312 93.7089 437.531 93.7089C484.575 93.7089 498.466 197.677 596.619 193.944C631.604 190.59 664.656 173.578 685.431 143.764Z" fill="#639FB6"/>
<path d="M624.607 612.477V598.977H619.562V596.147H632.823V598.977H627.917V612.477H624.607ZM634.797 612.477V596.147H639.961L642.932 607.393L645.923 596.146H651.089V612.477H647.938V599.456L644.406 612.477H641.417L637.906 599.456V612.477H634.797Z" fill="#001425"/>
</svg>
