<svg width="960" height="640" viewBox="0 0 960 640" fill="none" xmlns="http://www.w3.org/2000/svg">
<path d="M527.22 583.52C518.939 583.52 512.215 590.233 512.215 598.521C512.215 606.798 518.939 613.521 527.22 613.521C535.502 613.521 542.215 606.798 542.215 598.521C542.215 590.233 535.502 583.52 527.22 583.52ZM527.22 610.304C525.672 610.305 524.139 610.002 522.709 609.41C521.279 608.818 519.98 607.95 518.886 606.856C517.792 605.761 516.924 604.462 516.332 603.032C515.741 601.601 515.437 600.069 515.438 598.521C515.438 592.011 520.703 586.747 527.22 586.747C533.73 586.747 539 592.011 539 598.521C539 605.033 533.73 610.304 527.22 610.304ZM533.384 595.044C533.381 593.695 532.845 592.402 531.892 591.448C530.937 590.495 529.643 589.96 528.294 589.961H521.066V607.085H524.279V600.13H526.585L529.831 607.085H533.384L529.995 599.833C530.985 599.482 531.841 598.833 532.448 597.976C533.055 597.118 533.382 596.094 533.384 595.044ZM528.294 596.916H524.279V593.169H528.294C529.326 593.169 530.171 594.008 530.171 595.044C530.169 595.541 529.97 596.017 529.619 596.368C529.267 596.718 528.791 596.915 528.294 596.916Z" fill="black"/>
<path d="M815.66 249.602L805.264 268.11L806.978 278.863C779.468 332.741 749.465 382.744 738.719 400.34C734.553 390.895 729.061 385.314 718.433 379.63C718.433 379.63 767.25 291.055 780.451 220.808C743.527 239.095 704.851 257.182 704.851 257.182L771.006 150.158C771.006 150.158 643.794 177.986 543.156 188.025C434.666 28.192 336.023 0 336.023 0C336.023 0 404.346 111.876 417.049 190.1C278.692 177.112 165.861 150.158 165.861 150.158L286.326 345.015C215.836 349.199 97.2422 353.035 97.2422 353.035C127.472 383.261 224.711 421.578 353.312 453.35L376.258 490.488C300.625 547.498 255.034 625.993 255.034 625.993L262.675 640C262.675 640 300.212 637.755 346.255 636.115C346.255 636.115 358.787 595.656 410.313 545.581L468.443 639.615L541.342 521.702L549.279 520.782L553.684 523.427C552.479 524.631 551.667 526.955 549.934 529.721C555.983 533.834 556.157 534.518 556.446 541.839C556.446 541.839 564.498 544.676 574.448 541.411L577.218 536.414L580.607 537.947C581.031 541.489 582.015 545.346 582.015 545.346C591.288 549.708 599.137 543.913 599.137 543.913C623.893 549.003 640.64 546.101 646.189 544.754C670.685 551.497 686.542 546.935 693.114 544.084C704.376 548.739 716.044 551.761 748.374 551.761C763.279 551.761 779.161 550.841 779.161 539.721C779.161 524.111 764.238 466.801 749.101 435.088C749.101 435.088 760.214 442.908 770.187 444.903L784.029 434.888C777.742 427.497 778.936 425.337 779.777 419.611C774.841 415.427 767.93 414.457 767.93 414.457C781.463 398.922 809.733 362.682 843.528 297.82C850.634 296.744 859.738 292.57 860.831 281.379C862.036 269.194 862.756 263.94 862.756 252.361C841.361 242.563 815.66 249.601 815.66 249.601V249.602Z" fill="white"/>
<path d="M731.938 177.633L670.875 275.177C677.55 272.077 684.59 268.865 691.611 265.665L756.776 160.255C756.776 160.255 645.923 184.469 545.02 194.7C547.422 198.442 549.77 202.21 552.098 206.03C621.383 198.717 693.673 185.295 731.938 177.633Z" fill="black"/>
<path d="M741.696 435.409C733.264 400.34 731.888 393.936 713.266 384.516L710.18 380.563C744.508 319.09 769.36 245.732 769.36 236.953C769.36 234.825 768.377 234.194 767.098 234.858C712.482 262.547 652.502 287.249 639.237 296.516L635.68 301.431C606.312 275.263 581.118 256.862 571.37 250.005C510.314 130.206 416.647 45.998 356.304 15.835C356.304 28.345 416.031 120.291 425.183 197.553C317.142 190.189 180.104 160.255 180.104 160.255L298.096 351.13C201.196 357.068 116.186 359.074 116.186 359.074C116.186 365.811 224.394 417.554 384.153 453.684C419.088 461.604 445.113 460.349 462.128 460.349C458.991 456.903 455.818 453.491 452.608 450.113C475.768 464.234 496.888 478.312 515.906 490.964C511.134 491.029 505.934 491.05 500.203 491.05C461.789 491.05 432.75 489.047 414.366 487.664C409.811 487.314 405.887 487.022 402.672 486.794C401.04 486.694 399.604 486.616 398.328 486.544L380.254 457.676C372.966 456.066 365.998 454.368 361.19 453.193L385.34 492.24C362.783 508.464 304.86 557.634 262.904 626.17L266.572 632.935C266.572 632.935 307.109 630.419 341.377 629.45C341.377 629.45 356.746 585.612 411.704 534.888L468.444 626.634L537.273 515.293C541.731 514.815 546.225 514.288 550.841 513.732C555.606 516.718 560.204 519.52 564.584 522.043C562.232 523.447 560.254 525.251 558.732 527.953C558.732 527.953 562.695 530.668 562.952 536.014C562.952 536.014 566.355 536.563 569.909 535.558C569.909 535.558 572.332 531.88 574.432 527.439C578.944 529.742 583.188 531.744 587.166 533.334C587.13 537.176 587.776 540.02 587.776 540.02C587.776 540.02 592.17 541.36 597.448 536.656C627.957 543.606 646.187 537.711 646.187 537.711C677.151 546.878 692.894 536.627 692.894 536.627C705.022 541.902 715.162 544.946 748.375 544.946C766.399 544.946 772.351 542.757 772.351 539.721C772.351 525.236 757.015 465.916 741.696 435.408V435.409ZM468.443 573.388L436.011 521.98C448.595 521.751 472.563 521.003 503.022 518.551L468.443 573.388Z" fill="black"/>
<path d="M750.635 424.622L751.736 428.666C751.736 428.666 761.673 435.445 768.851 437.447L774.585 433.313C774.585 433.313 771.285 429.093 772.322 422.908C764.863 418.071 750.635 424.622 750.635 424.622ZM820.149 255.522L812.379 269.372L814.072 279.968C779.205 348.551 740.385 410.623 740.385 410.623L745.179 422.266L750.856 418.328L754.734 418.667C754.734 418.667 791.9 383.122 839.252 291.341C839.252 291.341 852.952 291.801 854.075 280.691C855.183 269.457 855.957 261.649 855.957 257.151C838.903 250.952 820.149 255.521 820.149 255.521V255.522Z" fill="black"/>
<path d="M425.254 522.928C424.328 523.698 423.486 524.482 422.578 525.266L468.443 598.522L519.388 517.125C517.92 517.275 516.43 517.404 514.976 517.525L468.443 591.921L425.254 522.928ZM724.425 182.822L664.862 277.986C666.837 277.059 668.832 276.144 670.875 275.178L731.938 177.633C693.674 185.296 621.384 198.718 552.098 206.031C552.791 207.171 553.471 208.323 554.162 209.467C619.382 202.438 686.771 190.189 724.425 182.822ZM402.673 486.795L385.098 458.739C383.491 458.389 381.865 458.047 380.255 457.677L398.328 486.546C399.604 486.617 401.04 486.695 402.673 486.795ZM565.293 533.306C569.994 526.962 573.184 522.914 573.94 520.369C569.791 522.172 564.477 523.163 561.583 527.569C561.583 527.569 563.697 529.629 565.293 533.306ZM589.457 537.662C589.457 537.662 592.594 537.255 595.338 534.504C595.338 534.504 592.426 529.999 590.688 525.808C588.62 531.075 589.458 537.662 589.458 537.662H589.457ZM574.966 426.591C577.476 446.564 582.272 455.033 582.272 455.033C582.272 455.033 589.8 460.927 604.134 466.793C589.657 440.013 574.966 426.591 574.966 426.591ZM418.162 515.714L423.929 512.485C423.929 512.485 447.612 516.305 589.533 501.665C586.153 499.205 584.479 499.69 584.479 494.045C584.479 492.241 584.785 491.942 581.691 491.942C578.605 491.942 577.279 491.122 573.626 491.122C569.075 491.122 562.286 495.684 492.746 495.684C437.415 495.684 398.645 491.037 396.086 491.037C393.559 491.037 388.576 495.777 373.757 507.695C373.757 507.695 402.897 507.317 418.162 515.715V515.714ZM345.822 604.616C324.498 600.539 280.461 607.902 280.461 607.902L268.66 624.917L337.589 621.681L345.822 604.616ZM820.003 277.526C796.957 318.912 771.888 373.77 744.463 407.704L752.367 402.75L754.099 401.035L752.67 405.69L756.02 404.097L750.98 412.978L755.675 409.211C755.675 409.211 779.133 382.831 838.457 275.67C825.263 273.67 820.003 277.526 820.003 277.526ZM822.426 261.449L817.618 269.054C817.618 269.054 829.233 266.838 844.691 268.131L850.286 260.248C833.261 257.036 822.426 261.448 822.426 261.448V261.449Z" fill="#E57200"/>
<path d="M749.248 408.488C749.248 408.488 747.056 410.266 743.648 411.214L746.542 417.344L748.328 415.965L747.615 413.759L750.595 408.081L749.248 408.488ZM769.823 424.394C765.001 421.885 755.61 425.6 755.61 425.6C755.61 425.6 765.14 427.831 770.525 430.284C770.525 430.284 769.57 428.088 769.823 424.394Z" fill="#E57200"/>
<path d="M402.674 486.795C405.888 487.023 409.812 487.315 414.367 487.665L397.68 461.212C393.795 460.542 389.497 459.666 385.099 458.739L402.674 486.795ZM436.011 521.98C429.707 522.08 426.243 522.072 426.243 522.072C425.893 522.357 425.59 522.65 425.255 522.928L468.445 591.921L514.977 517.525C510.885 517.91 506.915 518.265 503.023 518.551L468.444 573.388L436.011 521.98ZM707.421 194.459L650.344 284.982C654.638 282.836 659.567 280.477 664.864 277.986L724.426 182.822C686.772 190.189 619.383 202.438 554.164 209.467C555.734 212.047 557.277 214.643 558.794 217.254C612.386 211.349 667.286 202.014 707.421 194.459ZM426.392 216.424C426.392 212.204 426.2 207.938 425.819 203.604C388.695 207.532 366.569 216.299 358.069 220.28C371.096 216.649 394.209 215.536 426.392 216.424ZM708.506 387.58C708.506 387.58 663.349 324.198 576.514 260.251C583.892 275.512 590.76 291.276 596.939 307.557C597.816 309.845 597.685 311.841 595.735 311.841C576.717 311.841 509.57 274.911 443.61 281.528C477.868 314.15 511.926 359.928 478.902 343.237C478.902 343.237 513.384 364.517 553.882 407.194C584.052 407.194 590.051 412.284 591.825 416.503C595.261 424.647 600.261 439.115 620.013 462.41C629.08 462.41 630.738 461.818 634.059 453.67C634.059 453.67 636.529 464.07 631.989 471.698C673.157 504.224 753.095 536.992 765.316 536.992C770.235 536.992 760.106 492.256 736.954 438.46C729.391 404.385 725.217 394.834 708.506 387.58ZM333.271 348.84C333.271 348.84 345.046 355.768 364.381 370.36C359.634 362.144 347.11 353.202 333.399 344.88L303.311 347.086L305.531 350.678C314.723 350.091 323.971 349.467 333.271 348.839V348.84ZM510.468 401.538C505.703 427.283 510.689 447.948 510.689 447.948C509.873 439.343 516.656 410.487 516.656 410.487L510.468 401.537V401.538ZM495.35 386.84C490.606 416.382 497.289 439.95 497.289 439.95C495.863 429.093 501.526 397.126 501.526 397.126L495.35 386.84ZM480.391 373.474C475.498 405.048 483.125 430.262 483.125 430.262C481.706 415.897 486.579 382.427 486.579 382.427L480.391 373.474ZM446.358 321.371C446.358 321.371 388.296 273.324 316.216 261.224C313.611 261.224 308.4 272.18 308.4 272.18C308.4 272.18 316.031 265.298 318.351 265.298C380.077 277.18 446.358 321.371 446.358 321.371Z" fill="#006272"/>
<path d="M611.865 526.962C620.273 521.98 626.435 517.24 626.435 517.24C598.706 518.451 588.256 515.072 588.256 515.072C593.218 510.119 599.416 505.849 603.34 501.928C600.353 502.399 597.284 502.727 594.287 502.983C594.251 504.331 592.772 505.863 588.542 508.429C580.392 509.741 572.224 510.946 564.042 512.043C566.32 514.467 568.75 516.826 571.449 519.065C573.327 518.451 575.329 517.845 577.469 517.119C577.469 518.815 577.016 520.775 576.367 522.736C579.883 525.119 583.639 527.128 587.572 528.73C588.007 526.014 588.823 523.177 590.47 520.611C591.874 521.003 592.637 525.109 593.425 526.235C595.481 529.244 598.183 529.735 598.685 532.215C610.311 534.889 625.059 535.63 644.508 533.185L649.904 528.809C621.449 529.322 611.864 526.963 611.864 526.963L611.865 526.962ZM565.778 485.256C553.343 489.226 548 486.446 548 486.446C550.438 484.016 552.014 479.246 552.014 479.246C541.008 482.319 537.594 479.261 537.594 479.261C539.34 478.206 541.104 473.986 541.104 473.986C526.819 473.986 519.014 476.339 519.014 476.339C530.879 477.829 538.652 483.039 545.256 489.775C554.562 489.112 560.257 488.278 564.246 487.629L565.778 485.256Z" fill="white"/>
<path d="M541.702 478.051C541.702 478.051 547.729 478.414 554.711 475.926C554.711 475.926 555.081 480.602 551.92 484.8C551.92 484.8 557.826 484.758 569.965 481.95C569.965 481.95 568.917 484.373 567.452 487.081C569.648 486.718 571.302 486.483 573.044 486.483C576.947 486.483 577.414 487.303 580.839 487.303C587.297 487.303 588.092 488.643 589.047 496.163C590.355 498.08 591.87 499.378 592.903 500.497C597.683 500.126 603.189 499.606 608.727 498.821C608.727 498.821 602.565 507.375 593.267 513.676C593.267 513.676 619.07 516.107 632.435 514.432C632.435 514.432 626.665 521.475 618.728 525.523C618.728 525.523 636.563 526.663 655.719 526.336C655.719 526.336 651.959 530.492 648.214 533.514C648.214 533.514 671.886 538.854 688.723 534.847C627.913 510.661 594.446 474.051 543.551 474.051C542.796 476.197 541.702 478.051 541.702 478.051ZM296.369 587.517L282.691 605.031C282.691 605.031 322.908 598.758 347.026 602.421L353.722 590.938C340.572 584.124 296.37 587.517 296.37 587.517H296.369Z" fill="white"/>
<path d="M302.622 579.675L298.385 584.985C298.385 584.985 339.902 581.828 355.049 588.827L364.9 574.001C351.478 571.827 302.622 579.675 302.622 579.675ZM309.81 570.879L304.978 576.745C304.978 576.745 354.704 568.997 366.465 571.855L367.338 570.658C355.028 566.602 309.811 570.878 309.811 570.878L309.81 570.879ZM326.562 551.633L312.06 568.163C312.06 568.163 352.37 563.978 368.917 568.626L385.637 549.309C368.657 546.515 326.562 551.633 326.562 551.633ZM348.188 529.885L329.082 548.845C329.082 548.845 364.33 544.07 387.578 547.121L396.717 537.027C388.01 529.6 348.188 529.885 348.188 529.885Z" fill="white"/>
<path d="M351.812 526.577L350.811 527.483C350.811 527.483 385.193 526.955 398.387 535.195L400.369 533.107C389.702 527.047 351.812 526.577 351.812 526.577ZM370.812 510.154L354.396 524.254C354.396 524.254 392.696 524.952 402.097 531.274L416.211 517.354C403.805 510.311 370.812 510.154 370.812 510.154ZM348.857 603.96L349.377 607.432L354.863 597.802L354.329 594.472L348.857 603.96ZM356.164 591.422L356.727 594.751L365.958 581.265L365.355 577.458L356.164 591.422ZM367.269 574.75L367.919 578.727L368.806 577.587L368.043 573.687L367.269 574.75ZM369.939 571.178L370.719 575.227L386.419 557.557L385.76 552.737L369.939 571.178ZM387.795 550.45L388.483 555.304L397.973 545.16L396.773 540.52L387.795 550.45ZM398.662 538.467L399.874 543.164L401.72 541.24L401.064 535.858L398.662 538.467ZM403.128 533.677L403.805 539.123L416.275 526.891L416.122 520.554L403.128 533.677Z" fill="white"/>
</svg>
