<svg width="960" height="640" viewBox="0 0 960 640" fill="none" xmlns="http://www.w3.org/2000/svg">
<path d="M461.02 570.855V582.68H458.064V570.855H454.641V567.918H464.443V570.855H461.02ZM477.044 582.68V573.967L474.554 579.395H471.942L469.452 573.967V582.68H466.496V567.918H469.452L473.248 575.801L477.044 567.918H480V582.68H477.043H477.044Z" fill="#041E42"/>
<path d="M830.309 40H251.399C289.746 99.818 302.495 119.49 269.88 118.554L221.789 40H129.689L338.881 381.732C336.063 381.616 333.204 381.441 330.423 381.441C244.676 381.441 177.51 429.437 177.51 490.728C177.51 552.004 244.676 600 330.423 600C416.174 600 483.344 552.004 483.344 490.728C483.344 475.219 479.023 460.275 470.502 446.288L423.622 369.72C423.622 369.72 461.36 377.304 489.679 364.223L476.012 346.623C476.012 346.623 533.545 351.96 586.552 336.16L568.582 317.108C568.582 317.108 649.261 315.054 705.178 243.324H699.603C699.603 243.324 741.251 223.234 758.806 178.809H753.381C753.381 178.809 780.072 158.938 789.163 118.098H781.293C781.293 118.098 823.693 88.206 830.309 40Z" fill="#041E42"/>
<path d="M815.99 50.0859H270.156C314.88 117.851 301.684 128.766 264.291 128.766L216.13 50.0859H147.703L357.889 393.456C348.91 392.264 339.774 391.531 330.424 391.531C250.334 391.531 187.607 435.099 187.607 490.728C187.607 546.342 250.334 589.898 330.424 589.898C410.515 589.898 473.254 546.342 473.254 490.728C473.254 477.1 469.434 463.921 461.881 451.55L402.365 354.327C402.365 354.327 443.765 367.962 472.781 358.912L454.443 335.292C454.443 335.292 522.798 340.972 568.509 331.739L546.759 308.669C546.759 308.669 648.557 307.657 686.547 244.797H669.122C669.122 244.797 717.112 238.099 741.335 186.26H723.593C723.593 186.26 764.892 167.234 776.094 123.961H756.926C756.926 123.961 799.793 95.5009 815.99 50.0859Z" fill="white"/>
<path d="M804.596 57.177H282.8C313.716 104.24 319.593 138.895 260.196 135.643L212.156 57.177H160.35L372.131 403.127C358.431 400.131 344.449 398.619 330.425 398.617C255.584 398.617 194.693 439.927 194.693 490.727C194.693 541.495 255.583 582.816 330.425 582.816C405.275 582.816 466.172 541.495 466.172 490.728C466.172 478.424 462.699 466.487 455.838 455.245L386.851 342.535C386.851 342.535 430.329 357.738 460.397 354.552C460.397 354.552 446.76 337.674 440.677 327.184C440.677 327.184 490.151 333.131 554.768 327.494L530.528 301.784C532.508 301.825 534.616 301.855 536.89 301.855C641.707 301.855 673.272 248.135 673.272 248.135H644.708C644.708 248.135 715.49 230.098 730.618 189.595H704.37C704.37 189.595 760.367 162.143 765.837 131.047H733.88C733.88 131.047 789.718 99.535 804.596 57.177Z" fill="#FFB81C"/>
<path d="M792.513 64.6941H296.213C337.344 131.879 296.158 147.006 255.847 142.935L207.951 64.6951H173.764L388.359 415.252C370.954 409.432 351.277 406.127 330.426 406.127C259.606 406.127 202.199 443.999 202.199 490.727C202.199 537.434 259.606 575.299 330.426 575.299C401.246 575.299 458.65 537.434 458.65 490.728C458.65 479.564 455.368 468.918 449.416 459.149L369.867 329.2C369.867 329.2 421.259 347.032 444.974 347.032C444.974 347.032 434.172 333.262 427.654 318.436C427.654 318.436 489.216 325.072 538.523 321.22L511.714 292.798C511.714 292.798 519.71 294.343 536.89 294.343C623.646 294.343 656.901 255.655 656.901 255.655H398.934L395.163 249.493H609.201C609.201 249.493 696.421 232.834 717.472 197.11H363.091L359.324 190.957H685.511C685.511 190.957 746.237 161.648 754.961 138.57H327.259L323.487 132.402H716.561C716.561 132.402 773.839 102.609 792.514 64.6951L792.513 64.6941Z" fill="#003087"/>
</svg>
