<svg width="960" height="640" viewBox="0 0 960 640" fill="none" xmlns="http://www.w3.org/2000/svg">
<path d="M707.194 508.436C698.913 508.436 692.189 515.149 692.189 523.436C692.189 531.714 698.913 538.438 707.194 538.438C715.476 538.438 722.189 531.714 722.189 523.437C722.189 515.149 715.476 508.436 707.194 508.436ZM707.194 535.219C705.646 535.22 704.114 534.916 702.684 534.325C701.254 533.733 699.954 532.865 698.86 531.771C697.766 530.677 696.898 529.377 696.306 527.947C695.714 526.517 695.411 524.985 695.412 523.437C695.412 516.927 700.677 511.662 707.194 511.662C713.704 511.662 718.974 516.927 718.974 523.437C718.974 529.949 713.704 535.219 707.194 535.219ZM713.358 519.959C713.358 519.291 713.226 518.629 712.97 518.012C712.714 517.395 712.339 516.835 711.867 516.363C711.394 515.891 710.833 515.516 710.215 515.262C709.598 515.007 708.936 514.876 708.268 514.877H701.04V532H704.253V525.046H706.559L709.805 532H713.358L709.969 524.749C710.959 524.398 711.816 523.749 712.423 522.891C713.03 522.034 713.357 521.01 713.359 519.959H713.358ZM708.268 521.831H704.253V518.084H708.268C709.301 518.084 710.145 518.924 710.145 519.96C710.144 520.457 709.946 520.933 709.594 521.284C709.242 521.635 708.765 521.832 708.268 521.831Z" fill="#00205B"/>
<path d="M822.984 289.44C822.984 219.872 779.736 151.296 702.981 109.157L673.57 132.494C726.024 165.501 756.894 214.825 756.894 270.799C756.894 401.449 595.449 519.784 415.781 519.784C397.339 519.784 379.254 518.436 361.785 515.842L301.156 560.709C339.439 573.661 382.161 580.536 426.807 580.536C640.091 580.536 822.984 436.54 822.984 289.44Z" fill="#00205B"/>
<path d="M551.705 338.016L441.977 359.47L685.367 159.476L572.06 174.667L792.295 0L535.907 67.459C532.527 67.388 529.137 67.336 525.708 67.336C315.594 67.336 137.018 210.133 137.018 360.79C137.018 434.708 176.832 493.51 238.543 531.61L143.797 640L551.705 338.016ZM166.308 338.511C166.308 203.415 335.358 89.533 507.426 89.533C508.614 89.533 509.787 89.555 510.976 89.568L344.621 275.673L440.279 260.543L251.809 442.815L328.247 429.009L274.855 490.081C209.982 459.36 166.308 406.381 166.308 338.511Z" fill="#00205B"/>
</svg>
