<svg width="960" height="640" viewBox="0 0 960 640" fill="none" xmlns="http://www.w3.org/2000/svg">
<path d="M617.544 595.887V607.711H614.587V595.887H611.164V592.95H620.967V595.887H617.544ZM633.567 607.711V598.999L631.077 604.427H628.465L625.975 598.999V607.712H623.019V592.949H625.975L629.771 600.832L633.567 592.949H636.523V607.71L633.567 607.711Z" fill="#00205B"/>
<path d="M763.095 251.615C763.204 251.422 763.248 251.2 763.219 250.98C763.191 250.761 763.092 250.556 762.938 250.398C762.835 250.293 762.711 250.211 762.574 250.159C754.045 246.959 746.002 244.745 737.861 243.587C737.631 243.557 737.42 243.445 737.266 243.271C737.113 243.097 737.028 242.874 737.027 242.642C737.026 242.489 737.062 242.338 737.131 242.201C743.803 228.823 748.12 213.453 751.339 196.799C751.477 196.082 750.824 195.449 750.118 195.633C735.118 199.529 717.948 206.582 703.664 213.406C703.472 213.5 703.254 213.525 703.046 213.477C702.838 213.43 702.653 213.312 702.521 213.144C702.434 213.033 702.372 212.904 702.342 212.766C700.242 203.516 697.748 193.08 692.625 184.038C692.554 183.916 692.458 183.811 692.344 183.729C692.23 183.646 692.1 183.588 691.962 183.559C691.824 183.53 691.682 183.53 691.544 183.559C691.407 183.588 691.276 183.646 691.162 183.728C676.048 194.664 662.542 206.688 650.779 219.892C650.626 220.065 650.417 220.178 650.188 220.21C649.959 220.242 649.727 220.191 649.532 220.066C649.403 219.983 649.296 219.872 649.218 219.74C646.186 214.736 642.236 210.262 637.026 206.513C636.826 206.37 636.58 206.309 636.336 206.341C636.093 206.374 635.871 206.498 635.716 206.688C616.31 230.688 591.887 257.95 560.369 280.524C559.715 280.992 558.819 280.354 559.053 279.584C566.208 256.18 576.982 233.877 587.483 213.397C587.551 213.267 587.589 213.124 587.593 212.978C587.597 212.831 587.567 212.686 587.506 212.553C587.445 212.42 587.354 212.303 587.241 212.21C587.127 212.118 586.994 212.053 586.851 212.02C582.431 211.019 576.537 210.457 570.951 210.141C570.826 210.134 570.703 210.102 570.591 210.048C570.478 209.993 570.377 209.917 570.294 209.823C570.211 209.729 570.147 209.62 570.107 209.501C570.066 209.382 570.05 209.257 570.058 209.132C570.07 208.964 570.126 208.803 570.221 208.665C583.506 188.967 593.662 165.009 600.101 143.467C600.165 143.251 600.15 143.02 600.058 142.815C599.966 142.61 599.803 142.445 599.599 142.35C599.464 142.287 599.316 142.258 599.167 142.264C588.063 142.76 574.654 145.258 563.552 149.109C563.4 149.164 563.235 149.178 563.075 149.149C562.916 149.12 562.767 149.049 562.643 148.944C562.52 148.838 562.427 148.702 562.373 148.549C562.319 148.396 562.307 148.231 562.338 148.072C565.583 129.459 564.079 108.585 560.531 89.2419C560.507 89.1026 560.452 88.9705 560.371 88.8548C560.29 88.7391 560.184 88.6429 560.061 88.5729C559.939 88.5026 559.802 88.4602 559.662 88.4486C559.521 88.437 559.379 88.4566 559.247 88.5059C551.411 91.4579 542.434 95.9779 534.266 100.912C534.117 101.003 533.946 101.052 533.771 101.053C533.596 101.053 533.425 101.005 533.275 100.915C533.126 100.824 533.004 100.693 532.925 100.537C532.846 100.381 532.812 100.206 532.826 100.032C534.055 82.5319 532.117 63.1909 528.366 47.6099C528.337 47.4851 528.281 47.3678 528.203 47.2656C528.126 47.1635 528.028 47.0787 527.915 47.0168C527.803 46.9548 527.679 46.917 527.551 46.9058C527.423 46.8947 527.294 46.9104 527.173 46.9519C521.47 48.9349 514.764 52.4469 508.365 56.2659C508.242 56.3409 508.103 56.3871 507.959 56.4011C507.816 56.4151 507.671 56.3966 507.535 56.3468C507.4 56.297 507.277 56.2173 507.177 56.1136C507.076 56.0099 507.001 55.8849 506.955 55.7479C500.932 38.1179 491.267 20.9709 480.851 3.93789C480.762 3.79244 480.637 3.67237 480.488 3.5892C480.339 3.50602 480.171 3.46253 480 3.46289C479.83 3.46291 479.662 3.50656 479.513 3.58971C479.364 3.67285 479.239 3.79271 479.149 3.93789C468.732 20.9709 459.068 38.1179 453.045 55.7479C452.999 55.8844 452.923 56.0089 452.823 56.1123C452.722 56.2158 452.6 56.2956 452.465 56.3459C452.33 56.3954 452.185 56.4139 452.041 56.4001C451.897 56.3862 451.759 56.3404 451.635 56.2659C445.235 52.4459 438.529 48.9359 432.827 46.9519C432.706 46.9104 432.577 46.8947 432.449 46.9058C432.321 46.917 432.197 46.9548 432.085 47.0168C431.973 47.0787 431.874 47.1635 431.797 47.2656C431.719 47.3678 431.664 47.4851 431.634 47.6099C427.882 63.1899 425.945 82.5319 427.174 100.031C427.188 100.205 427.153 100.38 427.074 100.536C426.995 100.691 426.874 100.822 426.725 100.914C426.576 101.004 426.404 101.052 426.229 101.052C426.054 101.051 425.883 101.002 425.734 100.911C417.566 95.9779 408.589 91.4579 400.752 88.5059C400.62 88.4572 400.478 88.4382 400.338 88.45C400.197 88.4619 400.061 88.5044 399.939 88.5746C399.817 88.6447 399.711 88.7408 399.63 88.8561C399.549 88.9714 399.494 89.1031 399.469 89.2419C395.921 108.585 394.416 129.459 397.662 148.072C397.685 148.191 397.684 148.313 397.659 148.432C397.634 148.551 397.586 148.663 397.517 148.763C397.449 148.863 397.361 148.949 397.259 149.014C397.157 149.08 397.043 149.125 396.924 149.147C396.765 149.176 396.601 149.163 396.448 149.109C385.346 145.259 371.937 142.759 360.833 142.264C360.608 142.254 360.387 142.326 360.211 142.466C360.035 142.606 359.916 142.805 359.875 143.027C359.848 143.173 359.856 143.324 359.899 143.467C366.338 165.009 376.494 188.967 389.779 208.665C389.874 208.803 389.931 208.964 389.943 209.132C389.956 209.299 389.923 209.467 389.848 209.618C389.774 209.768 389.66 209.896 389.52 209.988C389.379 210.08 389.217 210.133 389.049 210.141C383.463 210.457 377.569 211.019 373.149 212.021C373.007 212.054 372.874 212.12 372.761 212.212C372.648 212.305 372.557 212.422 372.496 212.554C372.435 212.687 372.405 212.832 372.409 212.978C372.412 213.124 372.449 213.267 372.516 213.397C383.036 233.911 393.826 256.252 400.981 279.699C401.208 280.442 400.356 281.068 399.719 280.624C371.797 261.102 345.003 232.462 324.284 206.692C324.13 206.5 323.908 206.374 323.664 206.341C323.42 206.308 323.173 206.37 322.973 206.514C317.763 210.263 313.814 214.737 310.782 219.74C310.704 219.871 310.597 219.983 310.468 220.065C310.339 220.147 310.193 220.198 310.041 220.212C309.889 220.227 309.735 220.206 309.593 220.15C309.451 220.095 309.324 220.006 309.222 219.892C297.458 206.688 283.952 194.664 268.837 183.728C268.723 183.646 268.593 183.589 268.455 183.56C268.318 183.531 268.176 183.531 268.038 183.56C267.901 183.589 267.771 183.647 267.657 183.729C267.543 183.811 267.447 183.917 267.376 184.038C262.252 193.08 259.758 203.517 257.657 212.767C257.611 212.975 257.495 213.161 257.329 213.294C257.163 213.427 256.957 213.5 256.744 213.5C256.603 213.499 256.464 213.467 256.336 213.406C242.052 206.582 224.882 199.529 209.882 195.633C209.175 195.45 208.522 196.083 208.661 196.799C211.881 213.453 216.197 228.823 222.87 242.201C222.94 242.338 222.976 242.49 222.975 242.643C222.974 242.797 222.935 242.948 222.863 243.084C222.792 243.22 222.689 243.337 222.562 243.425C222.436 243.512 222.291 243.568 222.138 243.588C213.998 244.745 205.954 246.958 197.426 250.158C197.219 250.237 197.043 250.381 196.926 250.569C196.808 250.757 196.755 250.978 196.775 251.199C196.788 251.345 196.832 251.487 196.905 251.615C206.933 268.861 218.505 283.088 231.821 294.192C231.94 294.29 232.034 294.416 232.094 294.558C232.154 294.7 232.178 294.855 232.166 295.009C232.153 295.163 232.103 295.312 232.021 295.442C231.938 295.573 231.826 295.681 231.692 295.759C226.359 298.947 221.418 302.75 216.97 307.089C216.876 307.183 216.802 307.294 216.751 307.416C216.7 307.539 216.674 307.67 216.674 307.803C216.674 307.936 216.701 308.067 216.751 308.19C216.802 308.312 216.877 308.423 216.971 308.517C233.863 325.135 252.374 340.022 272.228 352.957C272.363 353.044 272.474 353.162 272.553 353.301C272.632 353.441 272.676 353.597 272.681 353.757C272.688 353.917 272.656 354.076 272.587 354.221C272.519 354.366 272.417 354.492 272.289 354.589C264.923 360.288 258.435 366.203 252.869 372.857C252.703 373.057 252.62 373.314 252.64 373.574C252.66 373.833 252.781 374.075 252.976 374.247C267.459 387.064 284.041 397.448 303.291 405.306C303.455 405.372 303.597 405.48 303.705 405.619C303.812 405.759 303.88 405.925 303.901 406.1C303.923 406.275 303.898 406.452 303.829 406.614C303.759 406.775 303.648 406.916 303.506 407.02C296.659 412.167 291.094 417.86 285.973 424.022C285.878 424.136 285.81 424.271 285.774 424.415C285.737 424.559 285.733 424.71 285.762 424.856C285.791 425.001 285.853 425.139 285.942 425.258C286.031 425.377 286.145 425.475 286.277 425.544C300.034 432.614 316.731 437.184 334.05 440.318C334.837 440.461 334.9 441.548 334.135 441.786C312.019 448.63 291.705 457.473 272.257 468.302C272.111 468.383 271.988 468.499 271.899 468.64C271.81 468.781 271.758 468.942 271.747 469.108C271.736 469.275 271.767 469.441 271.837 469.592C271.907 469.743 272.014 469.875 272.148 469.974C286.403 480.562 300.94 489.791 317.856 496.386C318.018 496.447 318.161 496.549 318.27 496.683C318.379 496.817 318.451 496.978 318.477 497.149C318.504 497.32 318.486 497.494 318.424 497.656C318.362 497.817 318.258 497.959 318.124 498.068C295.006 516.911 276.102 538.602 259.591 562.198C259.097 562.904 259.688 563.87 260.544 563.761C284.104 560.764 306.029 557.083 324.921 551.905C325.098 551.854 325.287 551.856 325.463 551.911C325.639 551.966 325.795 552.072 325.912 552.215C326.028 552.357 326.101 552.531 326.12 552.715C326.139 552.898 326.104 553.083 326.019 553.247C321.972 561.323 318.323 569.919 314.993 578.937C314.736 579.633 315.313 580.365 316.05 580.285C337.294 577.983 356.602 575.286 372.007 571.791C372.869 571.595 373.513 572.542 373.028 573.281C366.511 583.208 361.893 593.952 358.183 605.754C357.957 606.472 358.593 607.181 359.331 607.04C396.573 599.927 430.464 589.271 460.529 574.842C461.341 574.452 462.27 575.011 462.331 575.91C464.142 602.614 474.264 621.184 488.121 636.105C488.635 636.658 489.504 636.685 490.058 636.174L509.514 618.214C510.104 617.669 510.159 616.761 509.631 616.157C505.783 611.757 488.075 591.661 491.208 576.382C491.581 574.562 493.601 573.589 495.294 574.355C517.726 584.503 564.217 600.001 600.722 607.048C601.442 607.188 602.049 606.493 601.829 605.792C598.117 593.975 593.496 583.219 586.972 573.282C586.487 572.542 587.131 571.595 587.993 571.792C603.398 575.286 622.706 577.983 643.95 580.285C644.12 580.303 644.292 580.277 644.45 580.21C644.608 580.143 644.746 580.037 644.851 579.902C644.957 579.768 645.027 579.608 645.054 579.439C645.081 579.27 645.065 579.097 645.007 578.936C641.677 569.919 638.028 561.323 633.982 553.247C633.897 553.083 633.862 552.898 633.881 552.715C633.9 552.532 633.973 552.358 634.089 552.215C634.206 552.073 634.362 551.967 634.538 551.912C634.714 551.857 634.902 551.854 635.079 551.905C653.971 557.083 675.895 560.765 699.456 563.761C700.311 563.87 700.903 562.904 700.408 562.197C683.898 538.603 664.994 516.911 641.876 498.067C641.743 497.958 641.64 497.816 641.578 497.655C641.516 497.494 641.498 497.319 641.524 497.149C641.551 496.978 641.622 496.818 641.731 496.684C641.84 496.55 641.983 496.447 642.144 496.386C659.06 489.791 673.596 480.562 687.852 469.974C687.986 469.875 688.092 469.743 688.162 469.592C688.232 469.441 688.263 469.274 688.251 469.108C688.241 468.942 688.189 468.781 688.1 468.64C688.011 468.499 687.889 468.383 687.743 468.302C668.296 457.473 647.981 448.63 625.865 441.786C625.1 441.549 625.163 440.461 625.951 440.318C643.269 437.184 659.966 432.613 673.723 425.544C673.855 425.475 673.97 425.378 674.06 425.258C674.149 425.139 674.21 425.002 674.24 424.856C674.269 424.71 674.265 424.559 674.228 424.415C674.191 424.27 674.123 424.136 674.027 424.022C668.906 417.859 663.341 412.167 656.493 407.02C656.351 406.915 656.24 406.775 656.171 406.613C656.101 406.451 656.077 406.274 656.099 406.099C656.121 405.924 656.189 405.759 656.297 405.62C656.404 405.48 656.546 405.372 656.709 405.306C675.959 397.448 692.541 387.064 707.024 374.246C707.427 373.891 707.475 373.269 707.13 372.857C701.565 366.203 695.077 360.287 687.71 354.589C687.583 354.491 687.482 354.365 687.414 354.22C687.346 354.076 687.314 353.917 687.32 353.757C687.326 353.597 687.37 353.441 687.448 353.302C687.527 353.163 687.637 353.045 687.771 352.957C707.626 340.022 726.137 325.135 743.029 308.517C743.425 308.127 743.429 307.477 743.029 307.09C738.582 302.751 733.641 298.948 728.308 295.76C728.174 295.682 728.061 295.574 727.979 295.443C727.896 295.313 727.846 295.164 727.833 295.01C727.82 294.856 727.845 294.701 727.905 294.559C727.965 294.416 728.059 294.29 728.178 294.192C741.496 283.088 753.068 268.861 763.095 251.615Z" fill="#00205B"/>
<path d="M476.287 252.452C476.371 252.504 476.44 252.577 476.488 252.663C476.536 252.749 476.562 252.846 476.563 252.945C476.696 260.352 476.879 267.178 477.12 273.815C477.13 274.065 477.333 274.263 477.585 274.265L482.865 274.288H482.869C482.933 274.288 482.997 274.275 483.056 274.25C483.115 274.224 483.168 274.187 483.212 274.14C483.257 274.094 483.292 274.039 483.315 273.979C483.338 273.919 483.348 273.854 483.344 273.79C483.151 269.13 482.97 264.417 482.809 259.783C482.805 259.659 482.831 259.535 482.885 259.423C482.939 259.311 483.019 259.214 483.118 259.139C508.151 240.18 527.926 218.049 537.372 198.415L537.097 198.267C525.487 217.69 507.283 236.334 482.99 253.682C482.846 253.778 482.605 253.7 482.599 253.487C481.663 223.755 481.669 199.244 482.619 178.548C482.7 175.758 482.772 172.834 482.842 169.606C482.845 169.439 482.892 169.276 482.977 169.134C483.063 168.991 483.185 168.873 483.33 168.792C494.024 162.786 503.797 154.964 513.208 144.879L512.99 144.655C502.63 153.723 492.932 160.423 483.338 165.138C483.285 165.163 483.224 165.172 483.166 165.161C483.119 165.153 483.074 165.133 483.037 165.103C482.999 165.073 482.97 165.033 482.952 164.989C482.939 164.954 482.932 164.917 482.933 164.88C483.576 128.196 482.718 85.3839 480.938 65.2949L480.626 65.3099C480.806 86.9719 480.558 108.636 479.884 130.288C479.882 130.338 479.86 130.386 479.824 130.42C479.787 130.454 479.738 130.473 479.688 130.472C479.688 130.472 479.598 130.462 479.552 130.412C470.732 121.096 462.624 110.709 455.454 99.5409L455.184 99.6969C461.119 111.109 468.982 122.648 479.223 134.975C479.543 135.36 479.711 135.848 479.693 136.349C479.216 150.221 478.557 164.086 477.716 177.941C477.488 182.563 477.286 187.451 477.079 193.327C477.072 193.527 476.848 193.604 476.716 193.513C465.436 185.503 455.058 174.499 446.703 161.69L446.433 161.849C453.843 175.766 463.871 187.609 476.243 197.048C476.678 197.38 476.927 197.901 476.911 198.443C476.415 214.603 476.269 230.772 476.471 246.939C476.471 246.977 476.457 247.013 476.431 247.04C476.408 247.062 476.379 247.076 476.347 247.081C476.315 247.085 476.283 247.079 476.255 247.064C454.058 233.515 435.675 215.954 421.617 194.867L421.352 195.03C433.987 217.388 454.011 238.317 476.287 252.452ZM316.222 311.101C316.294 311.101 316.365 311.086 316.43 311.055L320.038 309.35C320.097 309.322 320.149 309.28 320.189 309.228C320.229 309.176 320.256 309.115 320.268 309.05C320.28 308.986 320.277 308.919 320.258 308.856C320.24 308.793 320.206 308.736 320.161 308.688C318.84 307.311 317.512 305.941 316.177 304.579C315.894 304.29 315.734 303.903 315.729 303.499C315.484 289.493 310.81 277.072 301.837 266.579L301.587 266.768C308.364 276.972 311.651 287.82 311.634 299.93C311.634 299.956 311.608 299.964 311.582 299.953C302.995 291.396 293.634 282.64 283.759 273.924C283.607 273.789 283.489 273.621 283.414 273.433C283.339 273.244 283.309 273.041 283.326 272.839C284.195 262.512 282.442 252.76 278.116 243.851L277.828 243.971C280.847 252.626 281.587 261.32 280.092 270.545L279.94 270.6C269.017 260.548 256.956 248.609 243.073 234.104L242.84 234.313C254.513 248.227 268.299 262.907 284.988 279.192C287.679 281.707 290.325 284.271 292.924 286.882C291.285 287.003 289.642 287.064 287.998 287.063C276.533 287.064 264.933 284.197 252.538 278.297L252.389 278.571C265.493 286.581 279.294 290.475 294.582 290.475C295.096 290.475 295.612 290.47 296.146 290.461C296.383 290.461 296.605 290.553 296.767 290.717C302.307 296.352 308.552 302.969 315.858 310.941C315.952 311.044 316.084 311.101 316.222 311.101ZM677.792 274.514C690.462 261.704 702.468 248.686 713.476 235.826L713.246 235.614C700.204 248.721 686.917 261.68 672.628 275.231C672.604 275.254 672.572 275.266 672.538 275.266C672.484 275.266 672.418 275.232 672.408 275.158C671.055 266.056 671.355 256.123 673.277 246.429L672.977 246.345C669.57 255.752 668.339 265.96 669.214 277.555C669.247 277.991 669.071 278.425 668.746 278.717C657.909 288.388 647.686 298.175 638.361 307.807C638.294 307.875 638.253 307.965 638.247 308.06C638.24 308.156 638.268 308.25 638.325 308.327C638.363 308.378 638.412 308.419 638.468 308.448L642.142 310.341C642.253 310.398 642.379 310.417 642.502 310.395C642.624 310.373 642.736 310.311 642.82 310.219C646.655 306.018 650.544 301.867 654.486 297.766C654.652 297.595 654.85 297.458 655.069 297.364C655.288 297.27 655.524 297.22 655.762 297.218C671.135 297.036 684.334 293.446 696.111 286.244L695.966 285.967C684.504 291.027 674.251 293.384 663.7 293.384C662.181 293.383 660.662 293.335 659.146 293.239C659.12 293.237 659.096 293.228 659.075 293.213C659.055 293.197 659.039 293.176 659.03 293.152C659.02 293.13 659.017 293.105 659.022 293.081C659.026 293.057 659.038 293.034 659.055 293.017C665.185 286.733 671.431 280.564 677.792 274.514ZM493.53 532.513C482.663 532.513 472.346 535.493 467.347 542.838C467.289 542.924 467.184 542.954 467.097 542.897C463.822 540.761 453.042 534.236 440.483 534.236C433.725 534.236 426.357 537.516 418.917 541.726C418.828 541.777 418.724 541.796 418.622 541.782C398.84 538.867 379.876 542.699 361.321 549.91C380.707 545.003 398.98 541.873 413.511 544.713C413.531 544.717 413.549 544.727 413.562 544.741C413.576 544.755 413.585 544.773 413.589 544.793C413.592 544.813 413.589 544.833 413.581 544.851C413.572 544.869 413.558 544.884 413.541 544.894C404.923 550.132 396.384 555.863 388.761 558.449C404.489 556.626 425.005 538.749 440.916 538.749C451.523 538.749 462.206 545.364 465.024 547.242C465.114 547.302 465.144 547.406 465.112 547.51C464.337 550.007 464.032 552.852 464.305 556.084C469.488 541.74 480.001 538.432 494.405 538.432C505.482 538.432 516.578 542.376 529.531 545.324C529.653 545.351 529.767 545.408 529.861 545.49C537.775 552.376 552.313 559.261 559.251 560.424L562.229 560.924L559.417 559.824C553.477 557.504 542.951 552.266 537.667 547.124C537.602 547.062 537.661 546.956 537.75 546.971C543.143 547.882 548.878 548.486 555.067 548.486C578.121 548.486 588.499 544.37 595.021 541.69C588.089 543.16 581.491 545.262 558.34 545.262C537.24 545.262 510.722 532.513 493.53 532.513ZM332.756 341.016C336.651 339.046 340.567 337.116 344.502 335.227L339.928 326.397C328.446 331.91 317.131 337.767 306.001 343.961L310.573 352.792C314.387 350.67 318.223 348.587 322.079 346.543L322.778 346.173L345.647 390.346C348.725 388.72 351.817 387.12 354.921 385.545L332.052 341.372L332.757 341.015L332.756 341.016ZM379.053 374.173C380.339 374.173 381.619 373.953 382.857 373.517C387.456 371.896 392.073 370.33 396.709 368.818C399.619 367.869 401.961 365.868 403.306 363.184C404.626 360.546 404.826 357.538 403.867 354.711L391.971 319.636C390.397 314.992 385.882 311.75 380.991 311.75C379.814 311.75 378.643 311.936 377.524 312.302C372.9 313.81 368.294 315.372 363.706 316.988C357.813 319.062 354.669 325.616 356.699 331.597L368.595 366.672C369.335 368.859 370.741 370.759 372.617 372.105C374.494 373.45 376.744 374.174 379.053 374.173ZM370.595 325.118C372.727 324.382 374.861 323.658 377.001 322.945C378.139 322.57 379.378 322.66 380.45 323.194C381.522 323.729 382.339 324.664 382.725 325.798L392.609 354.947C392.8 355.505 392.878 356.095 392.839 356.683C392.8 357.271 392.644 357.845 392.381 358.373C392.118 358.904 391.752 359.377 391.305 359.765C390.858 360.154 390.338 360.449 389.775 360.635C387.638 361.345 385.509 362.068 383.383 362.803C382.91 362.966 382.413 363.05 381.913 363.05H381.911C380.976 363.05 380.064 362.757 379.303 362.212C378.543 361.667 377.972 360.898 377.672 360.012L367.788 330.863C366.987 328.505 368.246 325.928 370.595 325.118ZM488.586 356.077C494.986 356.077 499.894 351.217 499.894 345.016V307.978C499.895 301.663 494.814 296.466 488.567 296.393C483.704 296.335 478.84 296.335 473.977 296.393C467.729 296.463 462.648 301.661 462.648 307.978V345.016C462.648 351.219 467.555 356.078 473.818 356.078C475.02 356.071 480.585 355.984 488.586 356.077ZM473.386 310.844C473.384 308.354 475.406 306.317 477.889 306.304C480.144 306.292 482.4 306.292 484.655 306.304C487.137 306.319 489.157 308.356 489.157 310.844V341.624C489.154 342.812 488.68 343.951 487.838 344.79C486.996 345.629 485.856 346.1 484.668 346.1C482.411 346.088 480.155 346.088 477.898 346.1C475.4 346.1 473.386 344.092 473.386 341.624V310.844ZM470.798 497.46H486.795L489.282 507.216H499.848L485.796 455.303H471.797L457.745 507.216H468.312L470.798 497.46ZM478.797 466.073L484.309 487.703H473.284L478.797 466.073ZM506.089 413.715V397.481C506.089 391.815 501.494 387.235 495.828 387.235H473.41V439.147H483.586V423.976H495.828C501.494 423.976 506.088 419.382 506.088 413.716L506.089 413.715ZM495.924 411.065C495.924 411.479 495.843 411.889 495.684 412.272C495.526 412.655 495.294 413.002 495.001 413.295C494.708 413.588 494.361 413.82 493.978 413.979C493.595 414.137 493.185 414.219 492.771 414.219H483.586V396.991H492.771C493.185 396.991 493.595 397.073 493.978 397.231C494.361 397.39 494.708 397.622 495.001 397.915C495.294 398.208 495.526 398.555 495.684 398.938C495.843 399.321 495.924 399.731 495.924 400.145V411.065ZM368.921 455.304V507.216H399.308V497.459H379.199V455.304H368.921ZM407.636 387.235H399.548L388.278 413.255L377.01 387.235H368.92V439.147H379.097V415.195L388.278 435.976L397.46 415.196V439.146H407.636V387.235ZM428.561 360.915L425.708 343.243L426.472 343.11C427.917 342.86 429.364 342.615 430.814 342.376L431.296 342.296L431.579 342.694C435.348 347.992 439.109 353.294 442.864 358.602C446.246 358.097 449.652 357.619 453.013 357.176C449.317 351.906 445.613 346.642 441.902 341.383L441.342 340.59L442.234 340.211C444.512 339.25 446.4 337.552 447.598 335.39C448.796 333.228 449.233 330.726 448.84 328.286L445.787 309.376C444.889 303.827 440.007 299.641 434.429 299.641C433.872 299.641 433.309 299.684 432.755 299.768C424.734 300.974 416.739 302.343 408.774 303.876L418.289 362.798C421.708 362.141 425.132 361.513 428.561 360.915ZM421.395 311.678C424.522 311.137 427.653 310.621 430.788 310.13C433.246 309.744 435.565 311.487 435.954 313.889L438.008 326.61C438.104 327.191 438.083 327.786 437.946 328.36C437.81 328.933 437.561 329.474 437.214 329.95C436.867 330.429 436.428 330.835 435.923 331.143C435.417 331.451 434.856 331.656 434.271 331.746C431.144 332.235 428.021 332.75 424.902 333.289L424.122 333.423L420.632 311.81L421.395 311.678ZM449.776 439.147H460.237L447.453 387.235H433.593L420.809 439.147H431.27L433.465 429.391H447.581L449.776 439.147ZM435.658 419.635L440.523 398.005L445.388 419.635H435.658ZM544.776 465.06V455.303H512.219V507.216H522.498V486.137H538.378V476.382H522.498V465.06H544.776ZM520.365 298.35L510.405 357.198C513.825 357.671 517.293 358.18 520.735 358.715L526.454 324.91L527.453 327.825C531.335 339.151 535.182 350.489 538.995 361.839C541.71 362.345 544.421 362.869 547.129 363.412L557.087 304.565C553.675 303.881 550.258 303.226 546.835 302.6L541.112 336.42L540.118 333.467C536.306 322.147 532.459 310.839 528.577 299.543C525.842 299.127 523.105 298.73 520.365 298.35ZM568.649 507.216H583.26C588.983 507.216 593.623 502.623 593.623 496.956V489.524C593.623 485.673 592.13 482.146 588.667 480.391C588.667 480.391 570.48 472.299 570.233 472.165C569.366 471.698 568.526 470.541 568.526 469.367V468.221C568.526 466.475 569.956 465.06 571.719 465.06H580.155C581.916 465.06 583.344 466.473 583.344 468.216V470.384H593.623V465.563C593.623 459.897 588.983 455.303 583.26 455.303H568.649C562.925 455.303 558.286 459.897 558.286 465.563V470.912C558.286 474.762 559.779 478.29 563.242 480.044C563.242 480.044 581.429 488.137 581.676 488.271C582.542 488.738 583.383 489.895 583.383 491.069V494.299C583.383 496.044 581.953 497.459 580.19 497.459H571.753C569.993 497.459 568.565 496.046 568.565 494.303V492.103H558.285V496.957C558.285 502.623 562.925 507.216 568.649 507.216ZM593.622 429.39H573.822V418.07H587.288V408.314H573.821V396.992H593.621V387.236H563.645V439.148H593.621L593.622 429.39ZM550.473 429.39H531.693V387.235H521.516V439.147H550.473V429.39ZM576.987 372.558L592.834 325.408L593.582 325.668C597.706 327.097 601.815 328.569 605.909 330.083L609.077 320.657C597.129 316.238 585.052 312.178 572.86 308.485L569.693 317.912C573.87 319.177 578.033 320.486 582.183 321.837L582.936 322.081L567.089 369.231C570.397 370.313 573.697 371.422 576.987 372.558ZM445.375 465.06V455.303H412.817V507.216H445.375V497.459H423.096V486.137H438.976V476.382H423.096V465.06H445.375ZM645.921 338.188C641.626 335.904 637.304 333.672 632.955 331.491C631.394 330.703 629.669 330.295 627.921 330.3C623.608 330.3 619.547 332.766 617.575 336.583L600.574 369.488C599.204 372.141 598.951 375.146 599.862 377.952C600.791 380.807 602.808 383.135 605.543 384.508C609.901 386.694 614.233 388.932 618.537 391.222C620.179 392.097 622.01 392.558 623.87 392.564C628.006 392.564 631.757 390.273 633.663 386.585L650.665 353.681C653.565 348.071 651.437 341.121 645.921 338.188ZM639.809 351.298L625.68 378.644C625.304 379.374 624.734 379.986 624.033 380.413C623.331 380.84 622.526 381.065 621.705 381.064C620.985 381.064 620.264 380.887 619.619 380.55C617.626 379.506 615.627 378.473 613.622 377.451C613.095 377.184 612.626 376.815 612.243 376.366C611.859 375.917 611.568 375.396 611.386 374.834C611.205 374.272 611.137 373.679 611.185 373.091C611.234 372.502 611.399 371.929 611.67 371.404L625.798 344.059C626.346 342.993 627.294 342.187 628.434 341.818C629.575 341.45 630.815 341.548 631.883 342.092C633.892 343.116 635.895 344.152 637.893 345.198C640.093 346.351 640.952 349.088 639.809 351.298Z" fill="white"/>
</svg>
