<svg width="960" height="640" viewBox="0 0 960 640" fill="none" xmlns="http://www.w3.org/2000/svg">
<path d="M472.199 396.301L613.099 326.001C709.599 353.101 738.199 389.701 738.199 389.701L793.399 327.301C796.399 324.101 805.499 312.801 805.499 292.301C805.499 270.201 782.399 253.001 766.199 241.401C738.699 169.301 586.699 148.401 575.499 123.301C571.599 114.601 549.499 39.601 549.499 39.601C536.299 0.801029 497.199 0.801025 482.499 0.801025C467.699 0.801025 435.999 5.80103 435.999 5.80103C435.999 59.901 428.699 125.801 420.999 137.901C420.999 137.901 393.499 152.301 361.299 163.901L284.299 112.001L304.499 181.801C174.799 253.101 143.199 377.401 143.199 377.401C143.199 377.401 176.499 639.201 504.699 639.201C678.199 639.201 778.399 555.301 778.399 555.301L722.499 430.301C722.499 430.301 637.099 474.701 527.999 474.701C427.399 474.701 388.099 427.801 373.699 400.501C458.899 403.001 472.199 396.301 472.199 396.301Z" fill="#97999B"/>
<path d="M753.599 250.599C726.799 178.199 578.899 164.999 562.599 130.799C555.999 117.099 547.599 84.399 535.399 44.499C525.599 15.699 496.699 15.699 482.299 15.699C468.499 15.699 450.599 18.499 450.599 18.499C450.599 47.999 444.999 133.699 431.299 148.499C427.899 152.699 402.699 162.899 375.299 173.499L383.499 178.999L375.099 187.399L359.299 203.199L341.999 257.399L319.399 245.599L327.399 265.699L287.099 272.399L309.899 280.299L244.299 330.699L261.999 332.099L238.599 374.399C272.299 359.099 282.599 356.199 282.599 356.199L272.899 346.199L340.899 318.799C340.899 318.799 335.799 332.399 335.799 358.799C335.799 362.599 336.399 368.199 337.699 374.699C346.099 415.799 386.199 500.599 527.899 500.599C630.399 500.599 709.499 464.799 709.499 464.799L746.199 546.999C746.199 546.999 649.999 613.599 504.499 613.599C207.099 613.599 169.399 379.799 169.399 379.799C210.399 270.099 279.399 222.099 323.299 201.699L309.599 200.199L308.399 196.099C192.499 259.999 158.199 378.499 158.199 378.499C158.199 378.499 193.499 624.499 504.699 624.499C663.899 624.499 760.199 550.699 760.199 550.699L715.199 449.999C715.199 449.999 631.099 489.399 527.999 489.399C374.499 489.399 351.799 384.699 351.799 384.699C351.799 384.699 439.199 389.899 467.199 382.399L611.699 310.199C709.599 337.799 737.799 367.699 737.799 367.699L782.599 317.299C782.599 317.299 790.799 309.599 790.799 292.299C790.699 276.099 766.499 259.799 753.599 250.599ZM438.899 277.399L365.599 267.499L402.499 246.899L438.899 277.399ZM426.699 178.599L381.199 251.299L365.199 213.099L426.699 178.599ZM276.199 316.399L361.299 259.099L354.899 304.599L276.199 316.399Z" fill="#00205B"/>
<path d="M349.098 300.2L354.498 269.3L296.898 308.4L349.098 300.2ZM378.098 265.5L425.898 271.3L397.798 254.9L378.098 265.5ZM374.398 215.1L379.698 238.7L413.398 193.1L374.398 215.1Z" fill="#00205B"/>
<path d="M246.7 335.8L229.7 336.2L300.7 283.3L269.9 271.1L320.3 261.4L302.8 226L333.9 243.7L346.3 205.1C308.9 218.1 228.6 259.3 182 380.8C187.6 408.7 236.3 601.5 504.7 601.5C620.6 601.5 705.2 557.6 731.2 542.2L703.5 480.1C677.8 490 610.7 512.4 528.1 512.4C364.9 512.5 323.9 400.7 323.9 358.7C323.9 349.4 324.5 341.5 325.3 335.1L287.8 347.5L292.7 358.1L263.4 368.7L238.2 385.3L289.4 394.8L278.8 431.4L300.8 424.9L321.9 478.6L347.1 475.4L355.5 513.1C355.5 513.1 403 546 483.5 553.2C589.8 562.7 684.9 526.4 684.9 526.4C684.9 526.4 571.5 570.9 468.3 560C389.5 551.7 338.2 519.6 338.2 519.6L337.6 485.6L306.5 486L291.9 433.9L264.2 446.9L276.4 400.3L223.3 393.8L234.1 361.3L246.7 335.8ZM355.9 202.9L371.3 182.2L296.4 130.5L317.8 193.6L355.9 202.9Z" fill="#00205B"/>
<path d="M801.598 524.799C793.198 524.799 786.398 531.599 786.398 539.999C786.398 548.399 793.198 555.199 801.598 555.199C809.998 555.199 816.798 548.399 816.798 539.999C816.798 531.599 809.998 524.799 801.598 524.799ZM801.598 551.999C794.998 551.999 789.598 546.599 789.598 539.999C789.598 533.399 794.898 528.099 801.598 528.099C808.198 528.099 813.598 533.399 813.598 539.999C813.498 546.699 808.198 551.999 801.598 551.999Z" fill="#041C2C"/>
<path d="M807.899 536.5C807.899 533.7 805.599 531.3 802.699 531.3H795.399V548.7H798.699V541.6H800.999L804.299 548.7H807.899L804.499 541.3C806.399 540.7 807.899 538.8 807.899 536.5ZM802.699 538.4H798.599V534.6H802.699C803.699 534.6 804.599 535.4 804.599 536.5C804.599 537.6 803.699 538.4 802.699 538.4ZM717.199 255.5C655.899 250.5 632.099 230.4 632.099 214.6C632.099 207 639.099 205.6 643.799 205.6C668.799 205.6 707.499 225.4 713.799 242.3C702.799 230.5 683.599 220.2 668.999 220.2C665.899 220.2 662.599 221.1 662.599 225C662.599 234.9 680.199 250.4 744.499 257.6C719.899 186.6 584.099 181.6 553.599 137C545.099 124.6 531.099 45.3999 516.999 34.4999C501.499 22.5999 461.699 27.9999 461.699 27.9999C461.699 38.9999 458.999 136.2 438.899 156.5C425.299 167.9 402.499 172.9 375.199 187.3L359.399 203.1L342.099 257.3L319.499 245.5L327.499 265.6L287.199 272.3L309.999 280.2L244.399 330.6L262.099 332L238.699 374.3C272.399 359 282.699 356.1 282.699 356.1L272.999 346.1L340.999 318.7C340.999 318.7 335.899 332.3 335.899 358.7C335.899 362.5 336.499 368.1 337.799 374.6C340.699 369 394.199 270.3 508.799 263.6L460.799 300.7L365.599 374.2C365.599 374.2 443.999 377.5 463.199 372C523.799 343.8 572.299 317.5 610.299 298.4C646.799 280.1 673.699 268.6 692.299 268.6C715.299 268.6 747.199 290.8 774.499 309.6C774.499 309.6 776.199 308.2 777.599 305.2C784.199 281.7 750.099 263.3 717.199 255.5ZM354.899 304.6L276.199 316.4L361.299 259.1L354.899 304.6ZM426.699 178.6L381.199 251.3L365.199 213.1L426.699 178.6ZM365.599 267.5L402.499 246.9L438.899 277.4L365.599 267.5ZM498.599 146C487.299 146.7 464.399 154.1 464.399 154.1C464.399 154.1 484.999 142.2 489.199 135.8C493.399 129.4 494.499 57.2999 494.499 57.2999C494.499 57.2999 501.099 127.9 506.699 135C512.299 142.1 533.099 150.9 533.099 150.9C533.099 150.9 506.899 145.5 498.599 146Z" fill="#041C2C"/>
<path d="M506.799 135.001C501.199 127.901 494.599 57.301 494.599 57.301C494.599 57.301 493.499 129.401 489.299 135.801C485.099 142.201 464.499 154.101 464.499 154.101C464.499 154.101 487.399 146.601 498.699 146.001C506.999 145.501 533.299 150.901 533.299 150.901C533.299 150.901 512.399 142.101 506.799 135.001ZM337.699 374.601C340.599 371.701 399.199 313.301 460.799 300.701L508.799 263.601C394.199 270.401 340.699 369.101 337.699 374.601ZM779.999 295.101C779.999 280.501 760.799 270.601 744.499 257.601C680.199 250.401 662.599 234.901 662.599 225.001C662.599 221.101 665.899 220.201 668.999 220.201C683.599 220.201 702.799 230.501 713.799 242.301C707.399 225.501 668.799 205.601 643.799 205.601C639.099 205.601 632.099 207.101 632.099 214.601C632.099 230.401 655.899 250.501 717.199 255.501C750.099 263.301 784.199 281.601 777.599 305.301C778.899 302.901 779.999 299.601 779.999 295.101ZM659.399 295.001L683.299 303.501C687.699 301.601 692.499 299.301 692.899 298.701C693.199 298.001 693.199 297.501 692.199 296.601C691.499 295.901 680.799 292.001 674.199 289.501L659.399 295.001ZM679.499 287.401C685.899 289.901 694.699 293.501 695.399 293.601C696.399 293.801 698.099 293.901 699.099 293.601C699.899 293.401 705.099 290.801 708.899 288.801C705.199 287.001 697.699 283.501 692.699 283.501C687.899 283.601 679.499 287.401 679.499 287.401ZM703.099 295.701C702.899 296.201 703.099 296.601 703.899 297.201C704.799 297.901 717.199 304.301 718.199 304.401C719.199 304.501 719.999 304.501 720.999 304.301C721.699 304.101 725.999 301.401 728.899 299.401L712.399 290.501C708.099 292.601 703.499 295.101 703.099 295.701ZM714.799 308.801C715.099 308.201 715.199 307.801 714.999 307.201C714.199 306.301 701.899 299.901 700.599 299.701C699.199 299.501 698.399 299.501 697.199 300.101C696.099 300.601 689.899 304.101 687.599 305.301L706.799 314.001C710.499 311.801 714.499 309.301 714.799 308.801ZM738.399 315.601C738.899 315.701 740.099 315.401 741.399 314.901C742.099 314.601 744.899 312.301 746.799 310.701L731.999 301.301C728.399 303.601 724.699 306.101 724.299 306.601C724.299 306.701 724.399 307.101 725.099 308.201L738.399 315.601ZM744.499 317.101C744.099 318.001 743.999 318.301 744.199 318.501C744.699 319.001 752.399 324.101 757.599 327.601L763.599 321.601L749.899 312.801C747.399 314.501 744.699 316.601 744.499 317.101ZM735.999 319.601C736.299 319.101 736.099 318.501 735.599 317.901C734.799 317.201 722.999 310.801 722.099 310.601C721.099 310.401 719.299 310.701 718.399 311.001C717.899 311.201 714.399 313.601 711.199 315.901L729.299 324.301C732.399 322.301 735.699 320.001 735.999 319.601ZM739.199 322.001C738.699 322.201 735.299 324.801 732.699 326.801L749.099 336.901L755.199 330.201C750.199 326.801 742.999 321.801 742.399 321.601C741.799 321.401 739.999 321.701 739.199 322.001Z" fill="white"/>
<path d="M610.398 298.501C698.798 322.001 736.498 352.601 736.498 352.601L745.898 342.001C741.498 338.701 708.898 316.301 645.098 295.401C664.098 287.901 687.098 279.001 693.298 279.001C707.398 279.001 736.398 297.301 767.498 317.701L774.598 309.701C747.398 290.901 715.498 268.701 692.398 268.701C673.698 268.701 646.798 280.201 610.398 298.501Z" fill="white"/>
</svg>
