<svg width="960" height="640" viewBox="0 0 960 640" fill="none" xmlns="http://www.w3.org/2000/svg">
<path d="M599.463 607.85C599.463 602.315 595.006 597.82 589.461 597.82C583.937 597.82 579.441 602.315 579.441 607.85C579.441 613.385 583.937 617.872 589.461 617.872C595.006 617.872 599.463 613.386 599.463 607.85ZM581.6 607.85C581.6 603.497 585.117 599.97 589.461 599.97C593.805 599.97 597.324 603.497 597.324 607.85C597.324 612.185 593.805 615.722 589.461 615.722C585.117 615.722 581.6 612.185 581.6 607.85Z" fill="black"/>
<path d="M593.592 613.573L591.32 608.732C592.633 608.264 593.592 606.985 593.592 605.524C593.59 604.618 593.229 603.75 592.589 603.11C591.948 602.47 591.08 602.11 590.174 602.109H585.344V613.573H587.504V608.928H589.052L591.218 613.573H593.592ZM590.174 606.77H587.504V604.284H590.174C590.889 604.284 591.432 604.839 591.432 605.524C591.432 606.22 590.889 606.77 590.174 606.77Z" fill="black"/>
<path d="M517.312 35.03L479.999 0C479.999 0 449.105 29.003 442.687 35.03H243.574V472.324C317.906 554.723 380.309 594.081 479.999 640C579.494 594.17 641.969 554.86 716.424 472.324V35.03H517.312Z" fill="white"/>
<path d="M514.05 43.263C513.705 42.923 480 11.291 480 11.291C480 11.291 446.298 42.923 445.952 43.263H251.809V469.16C321.457 546.387 383.549 586.5 480.001 630.935C576.247 586.595 638.327 546.629 708.193 469.16V43.263H514.05ZM325.904 225.935V451.21C323.127 448.468 320.383 445.694 317.672 442.887V225.937C317.672 134.084 370.507 70.77 445.935 43.28C446.848 43.918 448.472 47.914 448.871 48.953C450.041 52.005 450.995 55.461 451.741 58.673C451.741 58.673 447.621 55.227 443.511 53.255C362.966 86.907 325.904 148.91 325.904 225.936V225.935ZM474.595 413.595L438.185 295.833L450.422 283.596L447.516 298.144L480.001 403.212L474.595 413.595ZM517.801 528.981L503.316 545.626L611.109 234.805L621.566 229.78L517.801 528.981Z" fill="#B9975B"/>
<path d="M691.725 59.728V462.833C628.119 533.365 561.47 575.269 479.999 612.807C398.528 575.269 331.879 533.365 268.273 462.833V59.728H410.681C354.556 92.379 317.67 149.195 317.67 225.937V442.887C355.941 482.551 407.67 522.466 456.685 545.626L348.887 234.806L450.42 283.596L438.183 295.834L474.593 413.596H485.406L521.816 295.834L509.578 283.597L611.108 234.806L503.314 545.626C551.995 522.623 603.752 482.867 642.329 442.887V225.937C642.329 149.195 605.442 92.379 549.317 59.728H691.725Z" fill="black"/>
<path d="M508.259 58.6701C511.149 46.2301 514.064 43.2781 514.064 43.2781C502.712 32.612 491.357 21.949 479.999 11.2891V322.205L502.593 249.492L622.976 191.56C612.225 129.313 571.669 81.7801 508.259 58.6701ZM634.096 257.018L544.523 516.245L560.047 496.195C560.047 496.195 600.867 464.947 625.863 436.171V303.716L634.096 257.018ZM325.902 257.018L400.447 472.752L359.007 375.098L334.135 303.716L325.902 257.018ZM449.234 235.81L353.364 199.425L457.405 249.493V97.1431L449.234 235.81Z" fill="#333F48"/>
</svg>
