<svg width="960" height="640" viewBox="0 0 960 640" fill="none" xmlns="http://www.w3.org/2000/svg">
<path d="M682.194 585.33C673.913 585.33 667.189 592.044 667.189 600.332C667.189 608.609 673.913 615.332 682.194 615.332C690.476 615.332 697.189 608.609 697.189 600.332C697.189 592.044 690.476 585.33 682.194 585.33ZM682.194 612.114C680.646 612.116 679.114 611.812 677.683 611.22C676.253 610.629 674.954 609.761 673.86 608.666C672.765 607.572 671.897 606.273 671.306 604.843C670.714 603.412 670.41 601.88 670.412 600.332C670.412 593.822 675.677 588.557 682.194 588.557C688.704 588.557 693.974 593.821 693.974 600.332C693.974 606.844 688.704 612.114 682.194 612.114ZM688.358 596.854C688.358 596.186 688.226 595.525 687.97 594.908C687.714 594.291 687.339 593.731 686.866 593.259C686.394 592.786 685.833 592.412 685.215 592.156C684.598 591.901 683.936 591.771 683.268 591.772H676.04V608.895H679.253V601.941H681.559L684.805 608.895H688.358L684.969 601.644C685.959 601.293 686.817 600.644 687.424 599.787C688.031 598.929 688.357 597.905 688.359 596.854H688.358ZM683.268 598.726H679.253V594.979H683.268C684.301 594.979 685.145 595.819 685.145 596.855C685.144 597.352 684.945 597.828 684.593 598.179C684.241 598.529 683.765 598.726 683.268 598.726Z" fill="#041E42"/>
<path d="M799.998 320.002C799.998 496.739 656.794 640 480.049 640C303.316 640 160.004 496.74 160.004 320.002C160.004 143.258 303.274 0 480.006 0C656.752 0 799.998 143.258 799.998 320.002Z" fill="#A2AAAD"/>
<path d="M480.005 21.4771C315.132 21.4771 181.498 155.143 181.498 320.002C181.498 484.853 315.176 618.524 480.049 618.524C644.922 618.524 778.509 484.854 778.509 320.002C778.509 155.142 644.878 21.4771 480.005 21.4771ZM615.12 377.453L601.866 370.849L517.793 376.473V388.893L555.973 443.817V477.131L503.311 451.166L498.978 440.231L480.001 482.237L461.611 440.223L457.264 451.166L404.61 477.131V443.825L442.798 388.894V376.473L358.724 370.849L345.464 377.453V300.495L345.302 278.85L363.6 322.87L447.003 283.073L451.5 231.985L480.04 99.2411L509.09 231.985L513.586 283.073L596.981 322.871L614.789 278.289L615.119 300.495L615.12 377.453Z" fill="#041E42"/>
<path d="M508.888 101.817L480.02 29.0649L449.406 101.821C341.679 116.354 258.605 208.606 258.605 320.321C258.605 442.117 358.216 540.868 480.02 540.868C601.826 540.868 699.686 442.118 699.686 320.322C699.686 208.605 616.62 116.348 508.888 101.817ZM615.12 377.453L601.866 370.849L517.793 376.473V388.893L555.973 443.817V477.131L503.311 451.166L498.978 440.231L480.001 482.237L461.611 440.223L457.264 451.166L404.61 477.131V443.825L442.798 388.894V376.473L358.724 370.849L345.464 377.453V300.495L345.302 278.85L363.6 322.87L447.003 283.073L451.5 231.985L480.04 99.2409L509.09 231.985L513.586 283.073L596.981 322.871L614.789 278.289L615.119 300.495L615.12 377.453Z" fill="white"/>
<path d="M345.287 278.851L363.589 322.871L446.991 283.071L451.491 231.985L457.685 203.375L415.663 175.823L432.576 275.977L387.853 231.355L386.626 266.565L321.184 241.872L345.453 306.134V300.494L345.287 278.851ZM442.785 376.473L383.455 372.503L407.451 393.439L393.346 411L423.954 415.979L442.785 388.893V376.473ZM480.027 482.037L461.597 440.223L461.247 441.108L480.031 532.323L499.042 440.431L498.964 440.231L480.027 482.037ZM517.78 388.894L536.62 416L567.6 411.013L553.486 393.438L577.513 372.476L517.779 376.472L517.78 388.894ZM513.575 283.073L596.971 322.871L614.778 278.289L615.107 300.492V307.162L639.779 241.862L574.313 266.565L573.078 231.355L528.359 275.984C529.505 269.03 545.272 175.822 545.272 175.822L502.926 203.632L509.081 231.984L513.575 283.074V283.073ZM651.158 308.228L615.108 308.058V339.68L651.158 308.228ZM309.777 308.228L345.451 339.349V308.058L309.777 308.228Z" fill="#782F40"/>
<path d="M442.717 376.473L388.322 372.836L411.312 392.901C410.948 393.918 398.842 408.891 398.842 408.891L425.77 413.273L442.717 388.894V376.473ZM456.953 206.44L419.715 181.988L419.789 182.431L449.411 254.815L451.42 231.986L456.953 206.44ZM432.553 280.107C432.518 280.079 432.483 280.06 432.447 280.031L390.577 238.269L389.354 270.69L326.753 247.143L387.874 311.249L439.268 286.725L432.553 280.107ZM466.468 451.326L480.061 519.986L479.995 482.264L466.468 451.326ZM317.635 311.15L345.385 335.364V311.02L317.635 311.15ZM540.946 182.211L503.56 206.873L507.753 226.19L540.946 182.211ZM634.653 247.076L572.138 270.728L553.858 302.33L566.36 308.297L634.653 247.076Z" fill="#A6192E"/>
<path d="M614.789 278.289L596.981 322.869L513.586 283.072L509.091 231.984L480.041 99.24L451.499 231.984L447.002 283.072L363.599 322.87L345.301 278.849L345.463 300.494V377.452L358.723 370.848L442.797 376.472V388.892L404.609 443.824V477.13L457.263 451.165L461.609 440.222L480 482.236L498.977 440.23L503.31 451.165L555.971 477.13V443.816L517.792 388.893V376.471L601.865 370.848L615.119 377.452V300.494L614.789 278.288V278.289ZM480.006 467.899L461.806 426.559L455.619 412.215L459.283 430.475L452.73 446.981L410.37 467.875V445.627L448.55 390.704V371.096L357.544 365.006L351.227 368.152V308.12L360.611 330.675L444.382 290.704L449.85 317.486L452.424 286.866L452.452 286.86L457.203 232.783L480.02 122.507L480.006 467.9V467.899Z" fill="#53565A"/>
</svg>
