<svg width="960" height="640" viewBox="0 0 960 640" fill="none" xmlns="http://www.w3.org/2000/svg">
<path d="M923.987 386.934C915.705 386.934 908.982 393.648 908.982 401.935C908.982 410.213 915.705 416.936 923.987 416.936C932.269 416.936 938.982 410.213 938.982 401.936C938.982 393.648 932.269 386.934 923.987 386.934ZM923.987 413.718C922.439 413.719 920.906 413.416 919.476 412.824C918.046 412.232 916.747 411.364 915.653 410.27C914.558 409.175 913.69 407.876 913.099 406.446C912.507 405.016 912.204 403.483 912.205 401.935C912.205 395.425 917.469 390.161 923.987 390.161C930.497 390.161 935.767 395.425 935.767 401.935C935.767 408.447 930.497 413.718 923.987 413.718ZM930.151 398.458C930.151 397.79 930.019 397.129 929.763 396.511C929.507 395.894 929.132 395.334 928.66 394.862C928.187 394.39 927.626 394.016 927.008 393.761C926.391 393.506 925.729 393.375 925.061 393.376H917.833V410.499H921.046V403.545H923.351L926.598 410.499H930.151L926.761 403.248C927.751 402.897 928.608 402.248 929.215 401.39C929.822 400.533 930.149 399.509 930.151 398.458ZM925.061 400.33H921.046V396.583H925.06C925.558 396.584 926.035 396.781 926.387 397.133C926.739 397.485 926.937 397.962 926.938 398.459C926.937 398.956 926.739 399.432 926.387 399.783C926.035 400.134 925.558 400.331 925.061 400.33Z" fill="#041E42"/>
<path d="M205.198 415.811H273.908L250.516 472.32H308.07L331.471 415.81H500.703L495.792 427.684C484.562 454.792 486.09 489.605 497.601 508.057L563.129 613.057L613.842 539.43H696.915L742.272 483.66H637.094L605.358 522.695L542.19 470.18C540.779 468.851 539.144 461.996 541.77 455.68L570.528 386.218C570.528 386.218 576.588 415.811 614.996 415.811H843.214C854.053 415.811 887.053 415.811 899.772 385.085C911.336 357.127 894.079 341.793 894.079 341.793H912.267L933.017 291.741H821.44C807.335 291.741 794.274 295.331 784 301.496L836.682 174.288H779.118L721.28 313.966C721.28 313.966 710.966 291.741 677.12 291.741H609.66L719.305 26.9409H661.745L552.092 291.741H411.31C374.593 291.741 340.654 307.214 316.744 333.168C316.744 333.168 316.467 291.741 267.324 291.741H142.059C91.9832 291.741 40.3692 321.632 24.5612 359.793C13.3982 386.737 29.1132 415.811 64.7962 415.811H113.6C133.907 415.811 155.486 402.296 164.79 395.717C164.79 395.717 175.145 415.811 205.2 415.811H205.198Z" fill="white"/>
<path d="M643.7 497.543L620.924 525.558H690.304L713.084 497.543H643.7ZM259.902 219.864L279.821 205.389L299.743 219.864L292.135 196.441L312.05 181.977H287.43L279.821 158.547L272.216 181.977H247.584L267.511 196.441L259.902 219.864ZM388.965 219.864L408.88 205.389L428.81 219.864L421.198 196.441L441.124 181.977H416.504L408.88 158.547L401.279 181.977H376.65L396.573 196.441L388.965 219.864ZM545.555 181.977L537.95 158.547L530.342 181.977H505.722L525.64 196.441L518.028 219.864L537.95 205.389L557.876 219.864L550.261 196.441L570.183 181.977H545.555ZM210.874 250.835H210.949L209.435 274.055H217.459L239.844 244.936H233.316L216.343 267.687H216.258L217.822 244.937H209.592L192.582 267.687H192.508L194.224 244.937H187.202L185.549 274.056H193.418L210.874 250.835ZM257.073 267.531L257.723 274.056H265.463L262.642 244.936H254.422L227.506 274.056H234.521L240.299 267.531H257.073ZM255.9 250.103L256.714 262.762H244.603L255.9 250.103ZM272.952 264.933C270.368 271.184 274.142 274.823 282.568 274.823C292.455 274.823 299.097 271.273 301.585 265.257C306.894 252.434 282.775 260.004 285.898 252.467C286.999 249.808 290.543 248.475 293.251 248.475C297.767 248.475 299.814 249.851 298.492 253.639H305.025C307.267 247.744 304.15 244.169 295.635 244.169C288.865 244.169 281.445 246.866 278.67 253.599C273.815 265.292 297.174 259.553 294.47 266.067C293.599 268.174 290.656 270.498 285.255 270.498C280.091 270.498 278.414 268.395 279.487 264.933H272.951H272.952ZM311.212 274.056L316.389 261.55H332.239L327.058 274.056H333.594L345.654 244.936H339.13L334.208 256.798H318.362L323.266 244.936H316.731L304.662 274.056H311.212ZM348.995 274.056L361.068 244.936H354.532L342.467 274.056H348.995ZM363.85 274.056L373.278 251.308H373.353L380.841 274.056H389.619L401.684 244.936H395.802L386.545 267.282H386.452L379.217 244.936H370.02L357.965 274.056H363.85ZM438.064 254.321C440.882 247.513 435.694 244.168 426.909 244.168C415.441 244.168 406.571 250.689 402.949 259.404C398.582 269.979 403.955 274.824 414.812 274.824C419.037 274.824 425.75 274.006 430.636 272.24L436.28 258.64H420.586L418.71 263.153H428.021L425.729 268.722C422.079 269.727 419.73 270.054 417.186 270.054C408.237 270.054 407.509 264.77 409.758 259.368C412.893 251.791 419.868 248.686 425.998 248.686C429.229 248.686 432.765 250.253 431.283 254.322L438.064 254.321ZM446.092 274.056H452.632L462.72 249.691H473.815L475.791 244.936H447.07L445.097 249.691H456.2L446.092 274.056ZM484.15 274.823C494.886 274.823 503.244 269.703 507.477 259.478C511.713 249.278 507.58 244.168 496.844 244.168C486.118 244.168 477.746 249.278 473.516 259.478C469.281 269.702 473.421 274.823 484.149 274.823H484.15ZM480.29 259.478C483.126 252.619 488.581 248.909 494.875 248.909C501.208 248.909 503.546 252.619 500.703 259.479C497.863 266.351 492.448 270.054 486.118 270.054C479.832 270.054 477.448 266.351 480.29 259.478ZM537.29 267.282H537.208L529.979 244.936H520.771L508.71 274.056H514.595L524.023 251.308H524.101L531.575 274.056H540.374L552.432 244.936H546.543L537.29 267.282Z" fill="#C8102E"/>
<path d="M133.934 327.923H170.35L179.58 305.623H142.058C97.8532 305.623 50.9922 332.252 37.3782 365.099C29.1652 384.958 41.2302 401.934 64.7952 401.934H113.6C134.813 401.934 160.638 381.525 160.638 381.525L137.827 371.908C137.827 371.908 127.478 379.641 116.259 379.641H69.4872C63.6272 379.641 61.2092 374.009 64.2872 366.539C73.1292 345.205 104.31 327.923 133.934 327.923ZM205.198 401.934H233.476C243.633 401.934 252.343 396.021 252.343 396.021L249.901 401.934H277.408L299.928 347.554C309.52 324.398 294.924 305.623 267.326 305.623H195.809L186.576 327.923H264.017C280.55 327.923 275.51 340.073 275.51 340.073H219.74C197.58 340.073 181.235 350.283 176.011 362.893C167.091 384.436 180.151 401.934 205.198 401.934ZM200.166 370.991C202.142 366.241 207.605 362.37 212.377 362.37H250.978C259.802 362.37 267.67 359.019 267.67 359.019L263.147 369.932C260.936 375.288 253.21 379.642 247.18 379.642H205.22C200.45 379.642 198.187 375.768 200.166 370.992V370.991ZM596.35 305.623L587.12 327.923H673.805C690.347 327.923 685.301 340.073 685.301 340.073H629.535C607.377 340.073 591.026 350.283 585.82 362.893C576.882 384.436 589.939 401.934 614.997 401.934H643.264C653.427 401.934 662.148 396.021 662.148 396.021L659.688 401.934H687.206L709.723 347.554C719.315 324.398 704.723 305.623 677.12 305.623H596.35ZM672.948 369.933C670.727 375.288 663.012 379.641 656.988 379.641H615.018C610.252 379.641 607.985 375.768 609.958 370.991C611.933 366.241 617.402 362.37 622.168 362.37H660.777C669.59 362.37 677.465 359.019 677.465 359.019L672.948 369.932V369.933ZM727.389 401.934L815.903 188.174H788.4L699.872 401.934H727.389ZM518.387 305.623H490.877L481.641 327.923H509.143L518.387 305.623ZM478.495 401.934L504.118 340.074H476.598L450.978 401.934H478.495ZM777.714 327.777C769.231 348.287 780.258 364.925 802.384 364.925H858.225C862.291 364.925 864.224 368.22 862.532 372.285C860.848 376.351 856.192 379.641 852.134 379.641H749.99L740.76 401.934H843.213C862.3 401.934 879.579 397.57 886.935 379.784C895.432 359.26 884.395 342.632 862.275 342.632H806.44C802.368 342.632 800.43 339.338 802.122 335.276C803.81 331.203 808.469 327.923 812.532 327.923H903L912.233 305.623H821.44C802.36 305.623 783.489 313.829 777.714 327.777ZM298.802 458.436L330.758 381.266C342.958 351.805 369.835 327.923 412.356 327.923H439.642L422.357 369.655C420.085 375.145 413.721 379.642 408.237 379.642H344.66L335.42 401.935H411.517C425.26 401.935 439.102 395.658 446.845 376.945L476.392 305.623H411.312C360.254 305.623 321.397 337.43 305.149 376.656L271.289 458.436H298.802Z" fill="#041E42"/>
<path d="M508.61 432.987C499.52 454.978 499.864 485.448 509.378 500.708L563.705 587.755L599.463 535.838L533.32 480.853C526.355 475.085 524.386 461.361 528.949 450.362L698.535 40.8159H671.018L561.366 305.623H528.753L519.517 327.923H552.141L508.611 432.987H508.61Z" fill="#041E42"/>
</svg>
